<?xml version="1.0" encoding="UTF-8" standalone="no"?>
<!-- Created with Inkscape (http://www.inkscape.org/) -->

<svg
   version="1.1"
   id="svg2"
   width="726.69336"
   height="176.41333"
   viewBox="0 0 726.69336 176.41333"
   sodipodi:docname="fig-5-pa-1b.eps"
   xmlns:inkscape="http://www.inkscape.org/namespaces/inkscape"
   xmlns:sodipodi="http://sodipodi.sourceforge.net/DTD/sodipodi-0.dtd"
   xmlns="http://www.w3.org/2000/svg"
   xmlns:svg="http://www.w3.org/2000/svg">
  <defs
     id="defs6" />
  <sodipodi:namedview
     id="namedview4"
     pagecolor="#ffffff"
     bordercolor="#666666"
     borderopacity="1.0"
     inkscape:showpageshadow="2"
     inkscape:pageopacity="0.0"
     inkscape:pagecheckerboard="0"
     inkscape:deskcolor="#d1d1d1" />
  <g
     id="g8"
     inkscape:groupmode="layer"
     inkscape:label="ink_ext_XXXXXX"
     transform="matrix(1.3333333,0,0,-1.3333333,0,176.41333)">
    <g
       id="g10"
       transform="scale(0.1)">
      <path
         d="m 844,649.211 c 0,-119.231 -96.77,-216 -216,-216 -119.23,0 -216,96.769 -216,216 0,119.234 96.77,216 216,216 119.23,0 216,-96.766 216,-216"
         style="fill:#ffffff;fill-opacity:1;fill-rule:nonzero;stroke:none"
         id="path12" />
      <path
         d="m 844,649.211 c 0,-119.231 -96.77,-216 -216,-216 -119.23,0 -216,96.769 -216,216 0,119.234 96.77,216 216,216 119.23,0 216,-96.766 216,-216 z"
         style="fill:none;stroke:#000000;stroke-width:8;stroke-linecap:butt;stroke-linejoin:miter;stroke-miterlimit:10;stroke-dasharray:none;stroke-opacity:1"
         id="path14" />
      <path
         d="m 631.586,692.43 v -89.649 h 12.375 v -7.523 h -37.547 v 7.523 h 12.234 v 34.102 c -2.531,-4.688 -5.765,-8.156 -9.703,-10.406 -3.89,-2.204 -8.718,-3.305 -14.484,-3.305 -9.188,0 -16.711,3.633 -22.57,10.898 -5.813,7.313 -8.719,16.828 -8.719,28.547 0,11.719 2.906,21.211 8.719,28.477 5.812,7.265 13.336,10.898 22.57,10.898 5.766,0 10.594,-1.125 14.484,-3.375 3.938,-2.203 7.172,-5.648 9.703,-10.336 v 11.672 h 25.313 v -7.523 h -12.375 m -12.938,-26.157 c 0,8.954 -1.734,15.797 -5.203,20.532 -3.422,4.734 -8.414,7.101 -14.976,7.101 -6.656,0 -11.696,-2.625 -15.117,-7.875 -3.375,-5.25 -5.063,-13.054 -5.063,-23.414 0,-10.312 1.688,-18.117 5.063,-23.414 3.421,-5.297 8.461,-7.945 15.117,-7.945 6.562,0 11.554,2.344 14.976,7.031 3.469,4.734 5.203,11.602 5.203,20.602 v 7.382"
         style="fill:#000000;fill-opacity:1;fill-rule:nonzero;stroke:none"
         id="path16" />
      <path
         d="m 687.602,549.039 c 5.578,0 9.753,3.063 12.523,9.188 2.77,6.125 4.156,15.367 4.156,27.726 0,12.395 -1.386,21.656 -4.156,27.781 -2.77,6.125 -6.945,9.188 -12.523,9.188 -5.579,0 -9.754,-3.063 -12.524,-9.188 -2.769,-6.125 -4.156,-15.386 -4.156,-27.781 0,-12.359 1.387,-21.601 4.156,-27.726 2.77,-6.125 6.945,-9.188 12.524,-9.188 m 0,-5.414 c -8.86,0 -15.786,3.719 -20.782,11.156 -4.957,7.438 -7.437,17.828 -7.437,31.172 0,13.379 2.48,23.789 7.437,31.227 4.996,7.437 11.922,11.156 20.782,11.156 8.894,0 15.824,-3.719 20.781,-11.156 4.957,-7.438 7.437,-17.848 7.437,-31.227 0,-13.344 -2.48,-23.734 -7.437,-31.172 -4.957,-7.437 -11.887,-11.156 -20.781,-11.156"
         style="fill:#000000;fill-opacity:1;fill-rule:nonzero;stroke:none"
         id="path18" />
      <path
         d="m 2380.86,648.348 c 0,-119.707 -97.15,-216.864 -216.86,-216.864 -119.71,0 -216.86,97.157 -216.86,216.864 0,119.711 97.15,216.863 216.86,216.863 119.71,0 216.86,-97.152 216.86,-216.863"
         style="fill:#ffffff;fill-opacity:1;fill-rule:nonzero;stroke:none"
         id="path20" />
      <path
         d="m 2380.86,648.348 c 0,-119.707 -97.15,-216.864 -216.86,-216.864 -119.71,0 -216.86,97.157 -216.86,216.864 0,119.711 97.15,216.863 216.86,216.863 119.71,0 216.86,-97.152 216.86,-216.863 z"
         style="fill:none;stroke:#000000;stroke-width:8;stroke-linecap:butt;stroke-linejoin:miter;stroke-miterlimit:10;stroke-dasharray:none;stroke-opacity:1"
         id="path22" />
      <path
         d="m 2329.66,648.348 c 0,-91.442 -74.21,-165.657 -165.66,-165.657 -91.45,0 -165.66,74.215 -165.66,165.657 0,91.445 74.21,165.66 165.66,165.66 91.45,0 165.66,-74.215 165.66,-165.66"
         style="fill:#ffffff;fill-opacity:1;fill-rule:nonzero;stroke:none"
         id="path24" />
      <path
         d="m 2329.66,648.348 c 0,-91.442 -74.21,-165.657 -165.66,-165.657 -91.45,0 -165.66,74.215 -165.66,165.657 0,91.445 74.21,165.66 165.66,165.66 91.45,0 165.66,-74.215 165.66,-165.66 z"
         style="fill:none;stroke:#000000;stroke-width:8;stroke-linecap:butt;stroke-linejoin:miter;stroke-miterlimit:10;stroke-dasharray:none;stroke-opacity:1"
         id="path26" />
      <path
         d="M 2156.09,693.969 V 604.32 h 12.37 v -7.523 h -37.54 v 7.523 h 12.23 v 34.102 c -2.53,-4.688 -5.76,-8.156 -9.7,-10.406 -3.89,-2.203 -8.72,-3.305 -14.49,-3.305 -9.18,0 -16.71,3.633 -22.57,10.898 -5.81,7.313 -8.71,16.829 -8.71,28.547 0,11.719 2.9,21.211 8.71,28.477 5.82,7.265 13.34,10.898 22.57,10.898 5.77,0 10.6,-1.125 14.49,-3.375 3.94,-2.203 7.17,-5.648 9.7,-10.336 v 11.672 h 25.31 v -7.523 h -12.37 m -12.94,-26.156 c 0,8.953 -1.73,15.796 -5.2,20.531 -3.42,4.734 -8.41,7.101 -14.98,7.101 -6.65,0 -11.69,-2.625 -15.11,-7.875 -3.38,-5.25 -5.07,-13.054 -5.07,-23.414 0,-10.312 1.69,-18.117 5.07,-23.414 3.42,-5.297 8.46,-7.945 15.11,-7.945 6.57,0 11.56,2.344 14.98,7.031 3.47,4.735 5.2,11.602 5.2,20.602 v 7.383"
         style="fill:#000000;fill-opacity:1;fill-rule:nonzero;stroke:none"
         id="path28" />
      <path
         d="m 2192.42,546.75 v 5.797 h 14.22 v 67.922 l -16.46,-10.664 v 7.164 l 19.9,12.906 h 7.55 v -77.328 h 14.22 v -5.797 h -39.43"
         style="fill:#000000;fill-opacity:1;fill-rule:nonzero;stroke:none"
         id="path30" />
      <path
         d="M 492,824.348 C 350.762,1004.77 569.332,1154.19 707.488,1159.29 814.426,1163.23 1016.77,911.695 844,744.348"
         style="fill:none;stroke:#000000;stroke-width:8;stroke-linecap:butt;stroke-linejoin:miter;stroke-miterlimit:10;stroke-dasharray:none;stroke-opacity:1"
         id="path32" />
      <path
         d="m 901.461,800.008 0.723,45.25 -58.184,-100.91 102.711,54.941 -45.25,0.719"
         style="fill:#000000;fill-opacity:1;fill-rule:evenodd;stroke:none"
         id="path34" />
      <path
         d="m 901.461,800.008 0.723,45.25 L 844,744.348 946.711,799.289 Z"
         style="fill:none;stroke:#000000;stroke-width:8;stroke-linecap:butt;stroke-linejoin:miter;stroke-miterlimit:10;stroke-dasharray:none;stroke-opacity:1"
         id="path36" />
      <path
         d="m 2015.5,808.855 c -141.24,180.422 77.33,329.845 215.49,334.935 106.94,3.95 309.28,-247.587 136.51,-414.935"
         style="fill:none;stroke:#000000;stroke-width:8;stroke-linecap:butt;stroke-linejoin:miter;stroke-miterlimit:10;stroke-dasharray:none;stroke-opacity:1"
         id="path38" />
      <path
         d="m 2424.96,784.516 0.72,45.25 -58.18,-100.911 102.71,54.942 -45.25,0.719"
         style="fill:#000000;fill-opacity:1;fill-rule:evenodd;stroke:none"
         id="path40" />
      <path
         d="m 2424.96,784.516 0.72,45.25 -58.18,-100.911 102.71,54.942 z"
         style="fill:none;stroke:#000000;stroke-width:8;stroke-linecap:butt;stroke-linejoin:miter;stroke-miterlimit:10;stroke-dasharray:none;stroke-opacity:1"
         id="path42" />
      <path
         d="M 844,632.348 H 1940"
         style="fill:none;stroke:#000000;stroke-width:8;stroke-linecap:butt;stroke-linejoin:miter;stroke-miterlimit:10;stroke-dasharray:none;stroke-opacity:1"
         id="path44" />
      <path
         d="m 1860,632.348 -32,-32 112,32 -112,32 32,-32"
         style="fill:#000000;fill-opacity:1;fill-rule:evenodd;stroke:none"
         id="path46" />
      <path
         d="m 1860,632.348 -32,-32 112,32 -112,32 z"
         style="fill:none;stroke:#000000;stroke-width:8;stroke-linecap:butt;stroke-linejoin:miter;stroke-miterlimit:10;stroke-dasharray:none;stroke-opacity:1"
         id="path48" />
      <path
         d="M 4,616.348 H 404"
         style="fill:none;stroke:#000000;stroke-width:8;stroke-linecap:butt;stroke-linejoin:miter;stroke-miterlimit:10;stroke-dasharray:none;stroke-opacity:1"
         id="path50" />
      <path
         d="m 324,616.348 -32,-32 112,32 -112,32 32,-32"
         style="fill:#000000;fill-opacity:1;fill-rule:evenodd;stroke:none"
         id="path52" />
      <path
         d="m 324,616.348 -32,-32 112,32 -112,32 z"
         style="fill:none;stroke:#000000;stroke-width:8;stroke-linecap:butt;stroke-linejoin:miter;stroke-miterlimit:10;stroke-dasharray:none;stroke-opacity:1"
         id="path54" />
      <path
         d="m 748,1287.96 c -42.66,29.7 -109.027,-39.3 -23.5,-36.91 -56.074,-6.01 -63.555,-64.8 20.039,-50.87"
         style="fill:none;stroke:#000000;stroke-width:8;stroke-linecap:butt;stroke-linejoin:miter;stroke-miterlimit:10;stroke-dasharray:none;stroke-opacity:1"
         id="path56" />
      <path
         d="m 557.305,1231.83 v 15.82 h -16.664 c -6.422,0 -11.203,-1.38 -14.344,-4.15 -3.141,-2.76 -4.711,-7 -4.711,-12.72 0,-5.21 1.594,-9.33 4.781,-12.38 3.188,-3.04 7.5,-4.57 12.938,-4.57 5.39,0 9.726,1.67 13.008,4.99 3.328,3.33 4.992,7.67 4.992,13.01 m 12.937,23.21 v -39.24 h 11.531 v -7.45 h -24.468 v 8.08 c -2.86,-3.47 -6.164,-6.02 -9.914,-7.66 -3.75,-1.64 -8.133,-2.46 -13.149,-2.46 -8.297,0 -14.883,2.2 -19.758,6.61 -4.875,4.4 -7.312,10.36 -7.312,17.86 0,7.73 2.789,13.73 8.367,18 5.578,4.26 13.453,6.4 23.625,6.4 h 18.141 v 5.13 c 0,5.67 -1.735,10.05 -5.203,13.15 -3.422,3.14 -8.25,4.71 -14.485,4.71 -5.156,0 -9.258,-1.17 -12.304,-3.52 -3.047,-2.34 -4.946,-5.81 -5.696,-10.4 h -6.679 v 15.11 c 4.5,1.93 8.859,3.35 13.078,4.29 4.265,0.99 8.414,1.48 12.445,1.48 10.359,0 18.234,-2.58 23.625,-7.74 5.437,-5.1 8.156,-12.56 8.156,-22.35"
         style="fill:#000000;fill-opacity:1;fill-rule:nonzero;stroke:none"
         id="path58" />
      <path
         d="m 590.984,1194.36 c 4.407,3.23 7.641,7.05 9.704,11.46 2.062,4.36 3.093,9.65 3.093,15.89 v 2.6 h 13.852 c -0.375,-8.02 -2.274,-14.88 -5.695,-20.6 -3.375,-5.77 -8.485,-10.76 -15.329,-14.98 l -5.625,5.63"
         style="fill:#000000;fill-opacity:1;fill-rule:nonzero;stroke:none"
         id="path60" />
      <path
         d="m 806.422,1313.32 h 11.25 l -37.266,-118.33 h -11.25 l 37.266,118.33"
         style="fill:#000000;fill-opacity:1;fill-rule:nonzero;stroke:none"
         id="path62" />
      <path
         d="m 838.273,1208.35 v 7.45 h 18.282 v 87.33 l -21.164,-13.71 v 9.21 l 25.593,16.59 h 9.704 v -99.42 h 18.281 v -7.45 h -50.696"
         style="fill:#000000;fill-opacity:1;fill-rule:nonzero;stroke:none"
         id="path64" />
      <path
         d="m 1308.98,769.582 c -42.66,29.707 -109.02,-39.301 -23.5,-36.902 -56.07,-6.02 -63.55,-64.805 20.04,-50.879"
         style="fill:none;stroke:#000000;stroke-width:8;stroke-linecap:butt;stroke-linejoin:miter;stroke-miterlimit:10;stroke-dasharray:none;stroke-opacity:1"
         id="path66" />
      <path
         d="m 1596.98,769.582 c -42.66,29.707 -109.02,-39.301 -23.5,-36.902 -56.07,-6.02 -63.55,-64.805 20.04,-50.879"
         style="fill:none;stroke:#000000;stroke-width:8;stroke-linecap:butt;stroke-linejoin:miter;stroke-miterlimit:10;stroke-dasharray:none;stroke-opacity:1"
         id="path68" />
      <path
         d="m 1436.98,769.582 c -42.66,29.707 -109.02,-39.301 -23.5,-36.902 -56.07,-6.02 -63.55,-64.805 20.04,-50.879"
         style="fill:none;stroke:#000000;stroke-width:8;stroke-linecap:butt;stroke-linejoin:miter;stroke-miterlimit:10;stroke-dasharray:none;stroke-opacity:1"
         id="path70" />
      <path
         d="m 1321.2,658.355 c 4.41,3.235 7.64,7.055 9.71,11.461 2.06,4.36 3.09,9.657 3.09,15.891 v 2.602 h 13.85 c -0.37,-8.016 -2.27,-14.883 -5.69,-20.602 -3.38,-5.766 -8.49,-10.758 -15.33,-14.977 l -5.63,5.625"
         style="fill:#000000;fill-opacity:1;fill-rule:nonzero;stroke:none"
         id="path72" />
      <path
         d="m 1490.8,777.324 h 11.25 l -37.27,-118.336 h -11.25 l 37.27,118.336"
         style="fill:#000000;fill-opacity:1;fill-rule:nonzero;stroke:none"
         id="path74" />
      <path
         d="m 2372.98,1257.58 c -42.66,29.71 -109.02,-39.3 -23.5,-36.9 -56.07,-6.02 -63.55,-64.8 20.04,-50.88"
         style="fill:none;stroke:#000000;stroke-width:8;stroke-linecap:butt;stroke-linejoin:miter;stroke-miterlimit:10;stroke-dasharray:none;stroke-opacity:1"
         id="path76" />
      <path
         d="m 2020.59,1183.8 v 94.5 h -12.44 v 7.45 h 25.38 v -46.33 c 2.53,4.69 5.74,8.13 9.63,10.33 3.94,2.25 8.79,3.38 14.56,3.38 9.19,0 16.69,-3.63 22.5,-10.9 5.81,-7.27 8.72,-16.76 8.72,-28.48 0,-11.71 -2.91,-21.23 -8.72,-28.54 -5.81,-7.27 -13.31,-10.9 -22.5,-10.9 -5.77,0 -10.62,1.1 -14.56,3.3 -3.89,2.25 -7.1,5.72 -9.63,10.41 v -11.67 h -25.38 v 7.45 h 12.44 m 12.94,26.23 c 0,-9 1.71,-15.87 5.13,-20.6 3.47,-4.69 8.49,-7.04 15.05,-7.04 6.61,0 11.6,2.65 14.98,7.95 3.42,5.3 5.13,13.1 5.13,23.41 0,10.36 -1.71,18.17 -5.13,23.42 -3.38,5.25 -8.37,7.87 -14.98,7.87 -6.56,0 -11.58,-2.36 -15.05,-7.1 -3.42,-4.73 -5.13,-11.58 -5.13,-20.53 v -7.38"
         style="fill:#000000;fill-opacity:1;fill-rule:nonzero;stroke:none"
         id="path78" />
      <path
         d="m 2101.45,1162.36 c 4.41,3.23 7.64,7.05 9.71,11.46 2.06,4.36 3.09,9.65 3.09,15.89 v 2.6 h 13.85 c -0.37,-8.02 -2.27,-14.88 -5.69,-20.6 -3.38,-5.77 -8.49,-10.76 -15.33,-14.98 l -5.63,5.63"
         style="fill:#000000;fill-opacity:1;fill-rule:nonzero;stroke:none"
         id="path80" />
      <path
         d="m 2162.55,1176.35 v 7.45 h 18.29 v 87.33 l -21.17,-13.71 v 9.21 l 25.6,16.59 h 9.7 v -99.42 h 18.28 v -7.45 h -50.7"
         style="fill:#000000;fill-opacity:1;fill-rule:nonzero;stroke:none"
         id="path82" />
      <path
         d="m 2271.05,1281.32 h 11.25 l -37.27,-118.33 h -11.25 l 37.27,118.33"
         style="fill:#000000;fill-opacity:1;fill-rule:nonzero;stroke:none"
         id="path84" />
      <path
         d="m 3818.89,658.207 c 0,-119.234 -96.76,-216 -216,-216 -119.23,0 -216,96.766 -216,216 0,119.231 96.77,216 216,216 119.24,0 216,-96.769 216,-216"
         style="fill:#ffffff;fill-opacity:1;fill-rule:nonzero;stroke:none"
         id="path86" />
      <path
         d="m 3818.89,658.207 c 0,-119.234 -96.76,-216 -216,-216 -119.23,0 -216,96.766 -216,216 0,119.231 96.77,216 216,216 119.24,0 216,-96.769 216,-216 z"
         style="fill:none;stroke:#000000;stroke-width:8;stroke-linecap:butt;stroke-linejoin:miter;stroke-miterlimit:10;stroke-dasharray:none;stroke-opacity:1"
         id="path88" />
      <path
         d="m 3606.48,701.426 v -89.649 h 12.38 v -7.523 h -37.55 v 7.523 h 12.23 v 34.102 c -2.53,-4.688 -5.76,-8.156 -9.7,-10.406 -3.89,-2.203 -8.72,-3.305 -14.48,-3.305 -9.19,0 -16.72,3.633 -22.57,10.898 -5.82,7.313 -8.72,16.829 -8.72,28.547 0,11.719 2.9,21.211 8.72,28.477 5.81,7.265 13.33,10.898 22.57,10.898 5.76,0 10.59,-1.125 14.48,-3.375 3.94,-2.203 7.17,-5.648 9.7,-10.336 v 11.672 h 25.32 v -7.523 h -12.38 m -12.94,-26.156 c 0,8.953 -1.73,15.796 -5.2,20.531 -3.42,4.734 -8.41,7.101 -14.98,7.101 -6.65,0 -11.69,-2.625 -15.11,-7.875 -3.38,-5.25 -5.07,-13.054 -5.07,-23.414 0,-10.312 1.69,-18.117 5.07,-23.414 3.42,-5.297 8.46,-7.945 15.11,-7.945 6.57,0 11.56,2.344 14.98,7.031 3.47,4.735 5.2,11.602 5.2,20.602 v 7.383"
         style="fill:#000000;fill-opacity:1;fill-rule:nonzero;stroke:none"
         id="path90" />
      <path
         d="m 3662.5,558.035 c 5.57,0 9.75,3.063 12.52,9.188 2.77,6.125 4.16,15.367 4.16,27.726 0,12.395 -1.39,21.656 -4.16,27.781 -2.77,6.125 -6.95,9.188 -12.52,9.188 -5.58,0 -9.76,-3.063 -12.53,-9.188 -2.77,-6.125 -4.15,-15.386 -4.15,-27.781 0,-12.359 1.38,-21.601 4.15,-27.726 2.77,-6.125 6.95,-9.188 12.53,-9.188 m 0,-5.414 c -8.86,0 -15.79,3.719 -20.79,11.156 -4.95,7.438 -7.43,17.828 -7.43,31.172 0,13.379 2.48,23.789 7.43,31.227 5,7.437 11.93,11.156 20.79,11.156 8.89,0 15.82,-3.719 20.78,-11.156 4.95,-7.438 7.43,-17.848 7.43,-31.227 0,-13.344 -2.48,-23.734 -7.43,-31.172 -4.96,-7.437 -11.89,-11.156 -20.78,-11.156"
         style="fill:#000000;fill-opacity:1;fill-rule:nonzero;stroke:none"
         id="path92" />
      <path
         d="m 5355.76,657.344 c 0,-119.711 -97.16,-216.864 -216.87,-216.864 -119.7,0 -216.86,97.153 -216.86,216.864 0,119.707 97.16,216.863 216.86,216.863 119.71,0 216.87,-97.156 216.87,-216.863"
         style="fill:#ffffff;fill-opacity:1;fill-rule:nonzero;stroke:none"
         id="path94" />
      <path
         d="m 5355.76,657.344 c 0,-119.711 -97.16,-216.864 -216.87,-216.864 -119.7,0 -216.86,97.153 -216.86,216.864 0,119.707 97.16,216.863 216.86,216.863 119.71,0 216.87,-97.156 216.87,-216.863 z"
         style="fill:none;stroke:#000000;stroke-width:8;stroke-linecap:butt;stroke-linejoin:miter;stroke-miterlimit:10;stroke-dasharray:none;stroke-opacity:1"
         id="path96" />
      <path
         d="m 5304.55,657.344 c 0,-91.446 -74.21,-165.66 -165.66,-165.66 -91.44,0 -165.66,74.214 -165.66,165.66 0,91.441 74.22,165.656 165.66,165.656 91.45,0 165.66,-74.215 165.66,-165.656"
         style="fill:#ffffff;fill-opacity:1;fill-rule:nonzero;stroke:none"
         id="path98" />
      <path
         d="m 5304.55,657.344 c 0,-91.446 -74.21,-165.66 -165.66,-165.66 -91.44,0 -165.66,74.214 -165.66,165.66 0,91.441 74.22,165.656 165.66,165.656 91.45,0 165.66,-74.215 165.66,-165.656 z"
         style="fill:none;stroke:#000000;stroke-width:8;stroke-linecap:butt;stroke-linejoin:miter;stroke-miterlimit:10;stroke-dasharray:none;stroke-opacity:1"
         id="path100" />
      <path
         d="m 5130.98,702.965 v -89.649 h 12.38 v -7.523 h -37.55 v 7.523 h 12.24 v 34.102 c -2.53,-4.688 -5.77,-8.156 -9.71,-10.406 -3.89,-2.203 -8.71,-3.305 -14.48,-3.305 -9.19,0 -16.71,3.633 -22.57,10.898 -5.81,7.313 -8.72,16.829 -8.72,28.547 0,11.719 2.91,21.211 8.72,28.477 5.81,7.266 13.34,10.898 22.57,10.898 5.77,0 10.59,-1.125 14.48,-3.375 3.94,-2.203 7.18,-5.648 9.71,-10.336 v 11.672 h 25.31 v -7.523 h -12.38 m -12.93,-26.156 c 0,8.953 -1.74,15.796 -5.21,20.531 -3.42,4.734 -8.41,7.101 -14.97,7.101 -6.66,0 -11.7,-2.625 -15.12,-7.875 -3.37,-5.25 -5.06,-13.054 -5.06,-23.414 0,-10.312 1.69,-18.117 5.06,-23.414 3.42,-5.297 8.46,-7.945 15.12,-7.945 6.56,0 11.55,2.344 14.97,7.031 3.47,4.735 5.21,11.602 5.21,20.602 v 7.383"
         style="fill:#000000;fill-opacity:1;fill-rule:nonzero;stroke:none"
         id="path102" />
      <path
         d="m 5167.31,555.746 v 5.797 h 14.22 v 67.922 l -16.46,-10.664 v 7.164 l 19.91,12.906 h 7.54 v -77.328 h 14.22 v -5.797 h -39.43"
         style="fill:#000000;fill-opacity:1;fill-rule:nonzero;stroke:none"
         id="path104" />
      <path
         d="m 3466.89,833.344 c -141.23,180.426 77.34,329.836 215.49,334.936 106.94,3.95 309.28,-247.589 136.51,-414.936"
         style="fill:none;stroke:#000000;stroke-width:8;stroke-linecap:butt;stroke-linejoin:miter;stroke-miterlimit:10;stroke-dasharray:none;stroke-opacity:1"
         id="path106" />
      <path
         d="m 3876.36,809.004 0.72,45.25 -58.19,-100.91 102.72,54.937 -45.25,0.723"
         style="fill:#000000;fill-opacity:1;fill-rule:evenodd;stroke:none"
         id="path108" />
      <path
         d="m 3876.36,809.004 0.72,45.25 -58.19,-100.91 102.72,54.937 z"
         style="fill:none;stroke:#000000;stroke-width:8;stroke-linecap:butt;stroke-linejoin:miter;stroke-miterlimit:10;stroke-dasharray:none;stroke-opacity:1"
         id="path110" />
      <path
         d="m 4990.39,817.852 c -141.23,180.421 77.34,329.838 215.49,334.938 106.94,3.95 309.28,-247.591 136.51,-414.938"
         style="fill:none;stroke:#000000;stroke-width:8;stroke-linecap:butt;stroke-linejoin:miter;stroke-miterlimit:10;stroke-dasharray:none;stroke-opacity:1"
         id="path112" />
      <path
         d="m 5399.86,793.512 0.72,45.25 -58.19,-100.91 102.72,54.937 -45.25,0.723"
         style="fill:#000000;fill-opacity:1;fill-rule:evenodd;stroke:none"
         id="path114" />
      <path
         d="m 5399.86,793.512 0.72,45.25 -58.19,-100.91 102.72,54.937 z"
         style="fill:none;stroke:#000000;stroke-width:8;stroke-linecap:butt;stroke-linejoin:miter;stroke-miterlimit:10;stroke-dasharray:none;stroke-opacity:1"
         id="path116" />
      <path
         d="m 3818.89,641.344 h 1096"
         style="fill:none;stroke:#000000;stroke-width:8;stroke-linecap:butt;stroke-linejoin:miter;stroke-miterlimit:10;stroke-dasharray:none;stroke-opacity:1"
         id="path118" />
      <path
         d="m 4834.89,641.344 -32,-32 112,32 -112,32 32,-32"
         style="fill:#000000;fill-opacity:1;fill-rule:evenodd;stroke:none"
         id="path120" />
      <path
         d="m 4834.89,641.344 -32,-32 112,32 -112,32 z"
         style="fill:none;stroke:#000000;stroke-width:8;stroke-linecap:butt;stroke-linejoin:miter;stroke-miterlimit:10;stroke-dasharray:none;stroke-opacity:1"
         id="path122" />
      <path
         d="m 2978.89,625.344 h 400"
         style="fill:none;stroke:#000000;stroke-width:8;stroke-linecap:butt;stroke-linejoin:miter;stroke-miterlimit:10;stroke-dasharray:none;stroke-opacity:1"
         id="path124" />
      <path
         d="m 3298.89,625.344 -32,-32 112,32 -112,32 32,-32"
         style="fill:#000000;fill-opacity:1;fill-rule:evenodd;stroke:none"
         id="path126" />
      <path
         d="m 3298.89,625.344 -32,-32 112,32 -112,32 z"
         style="fill:none;stroke:#000000;stroke-width:8;stroke-linecap:butt;stroke-linejoin:miter;stroke-miterlimit:10;stroke-dasharray:none;stroke-opacity:1"
         id="path128" />
      <path
         d="m 3722.89,1296.95 c -42.66,29.71 -109.02,-39.3 -23.5,-36.9 -56.07,-6.02 -63.55,-64.81 20.04,-50.88"
         style="fill:none;stroke:#000000;stroke-width:8;stroke-linecap:butt;stroke-linejoin:miter;stroke-miterlimit:10;stroke-dasharray:none;stroke-opacity:1"
         id="path130" />
      <path
         d="m 3532.2,1240.83 v 15.82 h -16.66 c -6.43,0 -11.21,-1.38 -14.35,-4.15 -3.14,-2.77 -4.71,-7.01 -4.71,-12.73 0,-5.2 1.59,-9.32 4.78,-12.37 3.19,-3.05 7.5,-4.57 12.94,-4.57 5.39,0 9.73,1.66 13.01,4.99 3.33,3.33 4.99,7.66 4.99,13.01 m 12.94,23.2 v -39.23 h 11.53 v -7.46 h -24.47 v 8.09 c -2.86,-3.47 -6.16,-6.02 -9.91,-7.66 -3.75,-1.64 -8.14,-2.47 -13.15,-2.47 -8.3,0 -14.89,2.21 -19.76,6.61 -4.88,4.41 -7.31,10.36 -7.31,17.86 0,7.74 2.79,13.74 8.36,18 5.58,4.27 13.46,6.4 23.63,6.4 h 18.14 v 5.13 c 0,5.68 -1.74,10.06 -5.2,13.15 -3.43,3.14 -8.25,4.71 -14.49,4.71 -5.15,0 -9.26,-1.17 -12.3,-3.51 -3.05,-2.35 -4.95,-5.81 -5.7,-10.41 h -6.68 v 15.12 c 4.5,1.92 8.86,3.35 13.08,4.29 4.27,0.98 8.41,1.48 12.45,1.48 10.35,0 18.23,-2.58 23.62,-7.74 5.44,-5.11 8.16,-12.56 8.16,-22.36"
         style="fill:#000000;fill-opacity:1;fill-rule:nonzero;stroke:none"
         id="path132" />
      <path
         d="m 3565.88,1203.35 c 4.41,3.24 7.64,7.06 9.7,11.46 2.06,4.36 3.1,9.66 3.1,15.89 v 2.6 h 13.85 c -0.38,-8.01 -2.28,-14.88 -5.7,-20.6 -3.37,-5.76 -8.48,-10.75 -15.33,-14.97 l -5.62,5.62"
         style="fill:#000000;fill-opacity:1;fill-rule:nonzero;stroke:none"
         id="path134" />
      <path
         d="m 3781.32,1322.32 h 11.25 l -37.27,-118.34 h -11.25 l 37.27,118.34"
         style="fill:#000000;fill-opacity:1;fill-rule:nonzero;stroke:none"
         id="path136" />
      <path
         d="m 3813.17,1217.34 v 7.46 h 18.28 v 87.33 l -21.16,-13.72 v 9.22 l 25.59,16.59 h 9.7 v -99.42 h 18.28 v -7.46 h -50.69"
         style="fill:#000000;fill-opacity:1;fill-rule:nonzero;stroke:none"
         id="path138" />
      <path
         d="m 4283.88,778.578 c -42.67,29.703 -109.03,-39.301 -23.5,-36.906 -56.08,-6.016 -63.56,-64.805 20.03,-50.875"
         style="fill:none;stroke:#000000;stroke-width:8;stroke-linecap:butt;stroke-linejoin:miter;stroke-miterlimit:10;stroke-dasharray:none;stroke-opacity:1"
         id="path140" />
      <path
         d="m 4571.88,778.578 c -42.67,29.703 -109.03,-39.301 -23.5,-36.906 -56.08,-6.016 -63.56,-64.805 20.03,-50.875"
         style="fill:none;stroke:#000000;stroke-width:8;stroke-linecap:butt;stroke-linejoin:miter;stroke-miterlimit:10;stroke-dasharray:none;stroke-opacity:1"
         id="path142" />
      <path
         d="m 4411.88,778.578 c -42.67,29.703 -109.03,-39.301 -23.5,-36.906 -56.08,-6.016 -63.56,-64.805 20.03,-50.875"
         style="fill:none;stroke:#000000;stroke-width:8;stroke-linecap:butt;stroke-linejoin:miter;stroke-miterlimit:10;stroke-dasharray:none;stroke-opacity:1"
         id="path144" />
      <path
         d="m 4296.1,667.352 c 4.4,3.234 7.64,7.054 9.7,11.461 2.06,4.359 3.09,9.656 3.09,15.89 v 2.602 h 13.86 c -0.38,-8.016 -2.28,-14.883 -5.7,-20.602 -3.37,-5.765 -8.48,-10.758 -15.33,-14.976 l -5.62,5.625"
         style="fill:#000000;fill-opacity:1;fill-rule:nonzero;stroke:none"
         id="path146" />
      <path
         d="m 4465.69,786.32 h 11.25 l -37.26,-118.336 h -11.25 l 37.26,118.336"
         style="fill:#000000;fill-opacity:1;fill-rule:nonzero;stroke:none"
         id="path148" />
      <path
         d="m 5347.88,1266.58 c -42.67,29.7 -109.03,-39.3 -23.5,-36.91 -56.08,-6.01 -63.56,-64.8 20.03,-50.87"
         style="fill:none;stroke:#000000;stroke-width:8;stroke-linecap:butt;stroke-linejoin:miter;stroke-miterlimit:10;stroke-dasharray:none;stroke-opacity:1"
         id="path150" />
      <path
         d="m 4995.49,1192.8 v 94.5 h -12.45 v 7.45 h 25.39 v -46.34 c 2.53,4.69 5.74,8.14 9.63,10.34 3.94,2.25 8.79,3.38 14.55,3.38 9.19,0 16.69,-3.64 22.5,-10.9 5.82,-7.27 8.72,-16.76 8.72,-28.48 0,-11.72 -2.9,-21.23 -8.72,-28.55 -5.81,-7.26 -13.31,-10.9 -22.5,-10.9 -5.76,0 -10.61,1.11 -14.55,3.31 -3.89,2.25 -7.1,5.72 -9.63,10.41 v -11.68 h -25.39 v 7.46 h 12.45 m 12.94,26.22 c 0,-9 1.71,-15.86 5.13,-20.6 3.47,-4.69 8.48,-7.03 15.05,-7.03 6.6,0 11.6,2.65 14.97,7.95 3.42,5.29 5.13,13.1 5.13,23.41 0,10.36 -1.71,18.16 -5.13,23.41 -3.37,5.25 -8.37,7.88 -14.97,7.88 -6.57,0 -11.58,-2.37 -15.05,-7.1 -3.42,-4.74 -5.13,-11.58 -5.13,-20.53 v -7.39"
         style="fill:#000000;fill-opacity:1;fill-rule:nonzero;stroke:none"
         id="path152" />
      <path
         d="m 5076.35,1171.35 c 4.4,3.24 7.64,7.06 9.7,11.46 2.06,4.36 3.09,9.66 3.09,15.89 v 2.6 H 5103 c -0.38,-8.01 -2.28,-14.88 -5.7,-20.6 -3.37,-5.76 -8.48,-10.75 -15.33,-14.97 l -5.62,5.62"
         style="fill:#000000;fill-opacity:1;fill-rule:nonzero;stroke:none"
         id="path154" />
      <path
         d="m 5137.45,1185.34 v 7.46 h 18.28 v 87.33 l -21.16,-13.72 v 9.22 l 25.59,16.59 h 9.7 v -99.42 h 18.28 v -7.46 h -50.69"
         style="fill:#000000;fill-opacity:1;fill-rule:nonzero;stroke:none"
         id="path156" />
      <path
         d="m 5245.94,1290.32 h 11.25 l -37.26,-118.34 h -11.25 l 37.26,118.34"
         style="fill:#000000;fill-opacity:1;fill-rule:nonzero;stroke:none"
         id="path158" />
      <path
         d="M 487.5,479.84 C 346.262,299.418 564.832,150.004 702.988,144.902 809.926,140.953 1012.27,392.492 839.5,559.84"
         style="fill:none;stroke:#000000;stroke-width:8;stroke-linecap:butt;stroke-linejoin:miter;stroke-miterlimit:10;stroke-dasharray:none;stroke-opacity:1"
         id="path160" />
      <path
         d="m 896.961,504.18 45.25,0.722 -102.711,54.938 58.184,-100.91 -0.723,45.25"
         style="fill:#000000;fill-opacity:1;fill-rule:evenodd;stroke:none"
         id="path162" />
      <path
         d="m 896.961,504.18 45.25,0.722 L 839.5,559.84 897.684,458.93 Z"
         style="fill:none;stroke:#000000;stroke-width:8;stroke-linecap:butt;stroke-linejoin:miter;stroke-miterlimit:10;stroke-dasharray:none;stroke-opacity:1"
         id="path164" />
      <path
         d="m 4991.5,495.84 c -141.24,-180.422 77.33,-329.836 215.49,-334.938 106.94,-3.949 309.28,247.59 136.51,414.938"
         style="fill:none;stroke:#000000;stroke-width:8;stroke-linecap:butt;stroke-linejoin:miter;stroke-miterlimit:10;stroke-dasharray:none;stroke-opacity:1"
         id="path166" />
      <path
         d="m 5400.96,520.18 45.25,0.722 -102.71,54.938 58.18,-100.91 -0.72,45.25"
         style="fill:#000000;fill-opacity:1;fill-rule:evenodd;stroke:none"
         id="path168" />
      <path
         d="m 5400.96,520.18 45.25,0.722 -102.71,54.938 58.18,-100.91 z"
         style="fill:none;stroke:#000000;stroke-width:8;stroke-linecap:butt;stroke-linejoin:miter;stroke-miterlimit:10;stroke-dasharray:none;stroke-opacity:1"
         id="path170" />
      <path
         d="M 709.93,100.332 C 667.27,130.035 600.902,61.0273 686.43,63.4258 630.355,57.4063 622.875,-1.37891 706.469,12.5508"
         style="fill:none;stroke:#000000;stroke-width:8;stroke-linecap:butt;stroke-linejoin:miter;stroke-miterlimit:10;stroke-dasharray:none;stroke-opacity:1"
         id="path172" />
      <path
         d="M 519.234,44.2031 V 60.0234 H 502.57 c -6.422,0 -11.203,-1.3828 -14.343,-4.1484 -3.141,-2.7656 -4.711,-7.0078 -4.711,-12.7266 0,-5.2031 1.593,-9.3281 4.781,-12.375 3.187,-3.0468 7.5,-4.5703 12.937,-4.5703 5.391,0 9.727,1.6641 13.008,4.9922 3.328,3.3281 4.992,7.6641 4.992,13.0078 m 12.938,23.2032 V 28.1719 h 11.531 v -7.4531 h -24.469 v 8.0859 c -2.859,-3.4688 -6.164,-6.0234 -9.914,-7.6641 -3.75,-1.6406 -8.132,-2.4609 -13.148,-2.4609 -8.297,0 -14.883,2.2031 -19.758,6.6094 -4.875,4.4062 -7.312,10.3593 -7.312,17.8593 0,7.7344 2.789,13.7344 8.367,18 5.578,4.2657 13.453,6.3985 23.625,6.3985 h 18.14 v 5.1328 c 0,5.6719 -1.734,10.0547 -5.203,13.1484 -3.422,3.1407 -8.25,4.711 -14.484,4.711 -5.156,0 -9.258,-1.1719 -12.305,-3.5157 -3.047,-2.3437 -4.945,-5.8125 -5.695,-10.4062 h -6.68 v 15.1172 c 4.5,1.9219 8.86,3.3515 13.078,4.289 4.266,0.9844 8.414,1.4766 12.446,1.4766 10.359,0 18.234,-2.5781 23.625,-7.7344 5.437,-5.1093 8.156,-12.5625 8.156,-22.3593"
         style="fill:#000000;fill-opacity:1;fill-rule:nonzero;stroke:none"
         id="path174" />
      <path
         d="m 552.914,6.72656 c 4.406,3.23438 7.641,7.05474 9.703,11.46094 2.063,4.3594 3.094,9.6563 3.094,15.8906 v 2.6016 h 13.852 C 579.188,28.6641 577.289,21.7969 573.867,16.0781 570.492,10.3125 565.383,5.32031 558.539,1.10156 l -5.625,5.625"
         style="fill:#000000;fill-opacity:1;fill-rule:nonzero;stroke:none"
         id="path176" />
      <path
         d="m 768.352,125.695 h 11.25 L 742.336,7.35938 h -11.25 L 768.352,125.695"
         style="fill:#000000;fill-opacity:1;fill-rule:nonzero;stroke:none"
         id="path178" />
      <path
         d="m 800.203,20.7188 v 7.4531 h 18.281 V 115.5 L 797.32,101.789 V 111 l 25.594,16.594 h 9.703 V 28.1719 h 18.281 v -7.4531 h -50.695"
         style="fill:#000000;fill-opacity:1;fill-rule:nonzero;stroke:none"
         id="path180" />
      <path
         d="m 891.891,20.7188 v 7.4531 h 18.281 V 115.5 L 889.008,101.789 V 111 l 25.594,16.594 h 9.703 V 28.1719 h 18.281 v -7.4531 h -50.695"
         style="fill:#000000;fill-opacity:1;fill-rule:nonzero;stroke:none"
         id="path182" />
      <path
         d="m 5392.42,108.688 c -42.66,29.707 -109.03,-39.3013 -23.5,-36.9028 -56.08,-6.0196 -63.56,-64.80473 20.04,-50.8789"
         style="fill:none;stroke:#000000;stroke-width:8;stroke-linecap:butt;stroke-linejoin:miter;stroke-miterlimit:10;stroke-dasharray:none;stroke-opacity:1"
         id="path184" />
      <path
         d="m 4960.03,34.9063 v 94.4997 h -12.45 v 7.453 h 25.38 V 90.5234 c 2.54,4.6875 5.75,8.1329 9.64,10.3356 3.94,2.25 8.79,3.375 14.55,3.375 9.19,0 16.69,-3.632 22.5,-10.8981 5.81,-7.2656 8.72,-16.7578 8.72,-28.4765 0,-11.7188 -2.91,-21.2344 -8.72,-28.5469 -5.81,-7.2656 -13.31,-10.8984 -22.5,-10.8984 -5.76,0 -10.61,1.1015 -14.55,3.3047 -3.89,2.25 -7.1,5.7187 -9.64,10.4062 V 27.4531 h -25.38 v 7.4532 h 12.45 m 12.93,26.2265 c 0,-9 1.72,-15.8672 5.14,-20.6015 3.47,-4.6875 8.48,-7.0313 15.04,-7.0313 6.61,0 11.61,2.6484 14.98,7.9453 3.42,5.2969 5.13,13.1016 5.13,23.4141 0,10.3594 -1.71,18.164 -5.13,23.414 -3.37,5.25 -8.37,7.875 -14.98,7.875 -6.56,0 -11.57,-2.3671 -15.04,-7.1015 -3.42,-4.7344 -5.14,-11.5781 -5.14,-20.5313 v -7.3828"
         style="fill:#000000;fill-opacity:1;fill-rule:nonzero;stroke:none"
         id="path186" />
      <path
         d="m 5040.89,13.4609 c 4.4,3.2344 7.64,7.0547 9.7,11.461 2.06,4.3594 3.09,9.6562 3.09,15.8906 v 2.6016 h 13.86 c -0.38,-8.0157 -2.28,-14.8828 -5.7,-20.6016 -3.38,-5.7656 -8.48,-10.7578 -15.33,-14.97656 l -5.62,5.62496"
         style="fill:#000000;fill-opacity:1;fill-rule:nonzero;stroke:none"
         id="path188" />
      <path
         d="m 5101.99,27.4531 v 7.4532 h 18.28 v 87.3277 l -21.16,-13.711 v 9.211 l 25.59,16.594 h 9.7 V 34.9063 h 18.28 v -7.4532 h -50.69"
         style="fill:#000000;fill-opacity:1;fill-rule:nonzero;stroke:none"
         id="path190" />
      <path
         d="m 5193.68,27.4531 v 7.4532 h 18.28 v 87.3277 l -21.17,-13.711 v 9.211 l 25.6,16.594 h 9.7 V 34.9063 h 18.28 v -7.4532 h -50.69"
         style="fill:#000000;fill-opacity:1;fill-rule:nonzero;stroke:none"
         id="path192" />
      <path
         d="m 5302.17,132.43 h 11.25 L 5276.15,14.0938 h -11.25 l 37.27,118.3362"
         style="fill:#000000;fill-opacity:1;fill-rule:nonzero;stroke:none"
         id="path194" />
    </g>
  </g>
</svg>
