<?xml version="1.0" encoding="UTF-8" standalone="no"?>
<!-- Created with Inkscape (http://www.inkscape.org/) -->

<svg
   version="1.1"
   id="svg2"
   width="437.33334"
   height="420"
   viewBox="0 0 437.33334 420"
   sodipodi:docname="fig-1-4.eps"
   xmlns:inkscape="http://www.inkscape.org/namespaces/inkscape"
   xmlns:sodipodi="http://sodipodi.sourceforge.net/DTD/sodipodi-0.dtd"
   xmlns="http://www.w3.org/2000/svg"
   xmlns:svg="http://www.w3.org/2000/svg">
  <defs
     id="defs6" />
  <sodipodi:namedview
     id="namedview4"
     pagecolor="#ffffff"
     bordercolor="#666666"
     borderopacity="1.0"
     inkscape:showpageshadow="2"
     inkscape:pageopacity="0.0"
     inkscape:pagecheckerboard="0"
     inkscape:deskcolor="#d1d1d1" />
  <g
     id="g8"
     inkscape:groupmode="layer"
     inkscape:label="ink_ext_XXXXXX"
     transform="matrix(1.3333333,0,0,-1.3333333,0,420)">
    <g
       id="g10"
       transform="scale(0.1)">
      <path
         d="m 977.992,1732.91 h 244.518 v 154.96 h 244.51"
         style="fill:none;stroke:#231f20;stroke-width:10;stroke-linecap:butt;stroke-linejoin:miter;stroke-miterlimit:11.5;stroke-dasharray:none;stroke-opacity:1"
         id="path12" />
      <path
         d="m 500.492,1822.91 v -180"
         style="fill:none;stroke:#0b0a08;stroke-width:10;stroke-linecap:square;stroke-linejoin:bevel;stroke-miterlimit:11.5;stroke-dasharray:none;stroke-opacity:1"
         id="path14" />
      <path
         d="m 500.492,1822.91 360,-90"
         style="fill:none;stroke:#0b0a08;stroke-width:10;stroke-linecap:square;stroke-linejoin:bevel;stroke-miterlimit:11.5;stroke-dasharray:none;stroke-opacity:1"
         id="path16" />
      <path
         d="m 500.492,1642.91 360,90"
         style="fill:none;stroke:#0b0a08;stroke-width:10;stroke-linecap:square;stroke-linejoin:bevel;stroke-miterlimit:11.5;stroke-dasharray:none;stroke-opacity:1"
         id="path18" />
      <path
         d="m 905.492,1730.41 v 0 c 0,-12.43 -10.074,-22.5 -22.5,-22.5 -12.426,0 -22.5,10.07 -22.5,22.5 0,12.42 10.074,22.5 22.5,22.5 12.426,0 22.5,-10.08 22.5,-22.5 z"
         style="fill:none;stroke:#0b0a08;stroke-width:10;stroke-linecap:butt;stroke-linejoin:round;stroke-miterlimit:11.5;stroke-dasharray:none;stroke-opacity:1"
         id="path20" />
      <path
         d="m 500.492,1732.91 h -70"
         style="fill:none;stroke:#0b0a08;stroke-width:10;stroke-linecap:square;stroke-linejoin:bevel;stroke-miterlimit:11.5;stroke-dasharray:none;stroke-opacity:1"
         id="path22" />
      <path
         d="m 906.742,1732.91 h 71.25"
         style="fill:none;stroke:#0b0a08;stroke-width:10;stroke-linecap:square;stroke-linejoin:bevel;stroke-miterlimit:11.5;stroke-dasharray:none;stroke-opacity:1"
         id="path24" />
      <path
         d="m 937.238,2134.95 h 264.892 v -110.83 h 264.89"
         style="fill:none;stroke:#231f20;stroke-width:10;stroke-linecap:butt;stroke-linejoin:miter;stroke-miterlimit:11.5;stroke-dasharray:none;stroke-opacity:1"
         id="path26" />
      <path
         d="m 430.855,2286.59 c 0,0 258.075,21.91 400.133,-151.45 -136.25,-168.94 -402.5,-137.5 -402.5,-137.5 0,0 34.922,71.24 35.516,143.47 0.59,72.24 -33.149,145.48 -33.149,145.48 z"
         style="fill:none;stroke:#0b0a08;stroke-width:10;stroke-linecap:square;stroke-linejoin:bevel;stroke-miterlimit:11.5;stroke-dasharray:none;stroke-opacity:1"
         id="path28" />
      <path
         d="m 829.738,2134.95 h 107.5"
         style="fill:none;stroke:#0b0a08;stroke-width:10;stroke-linecap:square;stroke-linejoin:bevel;stroke-miterlimit:11.5;stroke-dasharray:none;stroke-opacity:1"
         id="path30" />
      <path
         d="m 453.488,2218.7 h -93.75"
         style="fill:none;stroke:#0b0a08;stroke-width:10;stroke-linecap:square;stroke-linejoin:bevel;stroke-miterlimit:11.5;stroke-dasharray:none;stroke-opacity:1"
         id="path32" />
      <path
         d="m 359.738,2073.7 h 93.75"
         style="fill:none;stroke:#0b0a08;stroke-width:10;stroke-linecap:square;stroke-linejoin:bevel;stroke-miterlimit:11.5;stroke-dasharray:none;stroke-opacity:1"
         id="path34" />
      <g
         id="g36"
         transform="scale(10)">
        <text
           xml:space="preserve"
           transform="matrix(1,0,0,-1,3,169.2)"
           style="font-variant:normal;font-weight:normal;font-size:12px;font-family:'Times New Roman';-inkscape-font-specification:Times-Roman;writing-mode:lr-tb;fill:#231f20;fill-opacity:1;fill-rule:nonzero;stroke:none"
           id="text40"><tspan
             x="0 3.9661624 28 35.944046"
             y="0"
             sodipodi:role="line"
             id="tspan38">(AB)</tspan></text>
      </g>
      <path
         d="m 185.574,1692.24 31.5,76.5"
         style="fill:none;stroke:#231f20;stroke-width:5;stroke-linecap:butt;stroke-linejoin:miter;stroke-miterlimit:14.3;stroke-dasharray:none;stroke-opacity:1"
         id="path42" />
      <path
         d="m 217.074,1768.74 31.5,-76.5"
         style="fill:none;stroke:#231f20;stroke-width:5;stroke-linecap:butt;stroke-linejoin:miter;stroke-miterlimit:14.3;stroke-dasharray:none;stroke-opacity:1"
         id="path44" />
      <g
         id="g46"
         transform="scale(10)">
        <text
           xml:space="preserve"
           transform="matrix(1,0,0,-1,27,204.2)"
           style="font-variant:normal;font-weight:normal;font-size:12px;font-family:'Times New Roman';-inkscape-font-specification:Times-Roman;writing-mode:lr-tb;fill:#231f20;fill-opacity:1;fill-rule:nonzero;stroke:none"
           id="text52"><tspan
             x="0"
             y="0"
             id="tspan48">B</tspan><tspan
             x="0"
             y="-16"
             id="tspan50">A</tspan></text>
      </g>
      <path
         d="m 1765.77,2089.12 c 0,0 -108.54,0 -216.25,0 v -277.51 h 222.62 c 0,0 152.38,0 152.38,133.79 0,141.22 -158.75,143.72 -158.75,143.72 z"
         style="fill:none;stroke:#0b0a08;stroke-width:10;stroke-linecap:square;stroke-linejoin:bevel;stroke-miterlimit:14.3;stroke-dasharray:none;stroke-opacity:1"
         id="path54" />
      <path
         d="m 1549.52,2024.12 h -82.5"
         style="fill:none;stroke:#0b0a08;stroke-width:10;stroke-linecap:square;stroke-linejoin:bevel;stroke-miterlimit:14.3;stroke-dasharray:none;stroke-opacity:1"
         id="path56" />
      <path
         d="m 1549.52,1887.87 h -82.5"
         style="fill:none;stroke:#0b0a08;stroke-width:10;stroke-linecap:square;stroke-linejoin:bevel;stroke-miterlimit:14.3;stroke-dasharray:none;stroke-opacity:1"
         id="path58" />
      <path
         d="m 1924.52,1950.37 h 106.25"
         style="fill:none;stroke:#0b0a08;stroke-width:10;stroke-linecap:square;stroke-linejoin:bevel;stroke-miterlimit:14.3;stroke-dasharray:none;stroke-opacity:1"
         id="path60" />
      <g
         id="g62"
         transform="scale(10)">
        <text
           xml:space="preserve"
           transform="matrix(1,0,0,-1,109,160.2)"
           style="font-variant:normal;font-weight:normal;font-size:12px;font-family:'Times New Roman';-inkscape-font-specification:Times-Roman;writing-mode:lr-tb;fill:#231f20;fill-opacity:1;fill-rule:nonzero;stroke:none"
           id="text66"><tspan
             x="0 3.9661624 28 35.944046"
             y="0"
             sodipodi:role="line"
             id="tspan64">(AB)</tspan></text>
      </g>
      <path
         d="m 1247.7,1600.33 31.5,76.5"
         style="fill:none;stroke:#231f20;stroke-width:5;stroke-linecap:butt;stroke-linejoin:miter;stroke-miterlimit:14.3;stroke-dasharray:none;stroke-opacity:1"
         id="path68" />
      <path
         d="m 1279.2,1676.82 31.5,-76.5"
         style="fill:none;stroke:#231f20;stroke-width:5;stroke-linecap:butt;stroke-linejoin:miter;stroke-miterlimit:14.3;stroke-dasharray:none;stroke-opacity:1"
         id="path70" />
      <path
         d="m 1049.37,1645.89 -79.878,1.13"
         style="fill:none;stroke:#231f20;stroke-width:5;stroke-linecap:butt;stroke-linejoin:miter;stroke-miterlimit:14.3;stroke-dasharray:none;stroke-opacity:1"
         id="path72" />
      <path
         d="m 1046.87,1648.39 v -40.5"
         style="fill:none;stroke:#231f20;stroke-width:5;stroke-linecap:butt;stroke-linejoin:miter;stroke-miterlimit:14.3;stroke-dasharray:none;stroke-opacity:1"
         id="path74" />
      <g
         id="g76"
         transform="scale(10)">
        <text
           xml:space="preserve"
           transform="matrix(1,0,0,-1,96,219.2)"
           style="font-variant:normal;font-weight:normal;font-size:12px;font-family:'Times New Roman';-inkscape-font-specification:Times-Roman;writing-mode:lr-tb;fill:#231f20;fill-opacity:1;fill-rule:nonzero;stroke:none"
           id="text80"><tspan
             x="0 3.9661624"
             y="0"
             sodipodi:role="line"
             id="tspan78">(A</tspan></text>
      </g>
      <path
         d="m 1130.41,2269.72 31.5,-76.5"
         style="fill:none;stroke:#231f20;stroke-width:5;stroke-linecap:butt;stroke-linejoin:miter;stroke-miterlimit:14.3;stroke-dasharray:none;stroke-opacity:1"
         id="path82" />
      <path
         d="m 1161.91,2193.23 31.5,76.5"
         style="fill:none;stroke:#231f20;stroke-width:5;stroke-linecap:butt;stroke-linejoin:miter;stroke-miterlimit:14.3;stroke-dasharray:none;stroke-opacity:1"
         id="path84" />
      <g
         id="g86"
         transform="scale(10)">
        <text
           xml:space="preserve"
           transform="matrix(1,0,0,-1,125,219.2)"
           style="font-variant:normal;font-weight:normal;font-size:12px;font-family:'Times New Roman';-inkscape-font-specification:Times-Roman;writing-mode:lr-tb;fill:#231f20;fill-opacity:1;fill-rule:nonzero;stroke:none"
           id="text90"><tspan
             x="0 7.9440455"
             y="0"
             sodipodi:role="line"
             id="tspan88">B)</tspan></text>
      </g>
      <path
         d="m 1303.68,166.938 321.91,0.656"
         style="fill:none;stroke:#231f20;stroke-width:10;stroke-linecap:butt;stroke-linejoin:miter;stroke-miterlimit:11.5;stroke-dasharray:none;stroke-opacity:1"
         id="path92" />
      <path
         d="m 739.93,240.688 -113.77,0.429"
         style="fill:none;stroke:#231f20;stroke-width:10;stroke-linecap:butt;stroke-linejoin:miter;stroke-miterlimit:11.5;stroke-dasharray:none;stroke-opacity:1"
         id="path94" />
      <path
         d="m 1038.68,305.688 c 0,0 -108.543,0 -216.25,0 V 28.1875 h 222.62 c 0,0 152.38,0 152.38,133.7855 0,141.215 -158.75,143.715 -158.75,143.715 z"
         style="fill:none;stroke:#0b0a08;stroke-width:10;stroke-linecap:square;stroke-linejoin:bevel;stroke-miterlimit:11.5;stroke-dasharray:none;stroke-opacity:1"
         id="path96" />
      <path
         d="m 822.43,240.688 h -82.5"
         style="fill:none;stroke:#0b0a08;stroke-width:10;stroke-linecap:square;stroke-linejoin:bevel;stroke-miterlimit:11.5;stroke-dasharray:none;stroke-opacity:1"
         id="path98" />
      <path
         d="m 822.43,104.438 h -82.5"
         style="fill:none;stroke:#0b0a08;stroke-width:10;stroke-linecap:square;stroke-linejoin:bevel;stroke-miterlimit:11.5;stroke-dasharray:none;stroke-opacity:1"
         id="path100" />
      <path
         d="m 1197.43,166.938 h 106.25"
         style="fill:none;stroke:#0b0a08;stroke-width:10;stroke-linecap:square;stroke-linejoin:bevel;stroke-miterlimit:11.5;stroke-dasharray:none;stroke-opacity:1"
         id="path102" />
      <path
         d="m 651.059,654.141 v 0 c 0,-14.082 -11.418,-25.5 -25.5,-25.5 -14.082,0 -25.5,11.418 -25.5,25.5 0,14.082 11.418,25.5 25.5,25.5 14.082,0 25.5,-11.418 25.5,-25.5"
         style="fill:#231f20;fill-opacity:1;fill-rule:evenodd;stroke:none"
         id="path104" />
      <path
         d="m 651.059,654.141 v 0 c 0,-14.082 -11.418,-25.5 -25.5,-25.5 -14.082,0 -25.5,11.418 -25.5,25.5 0,14.082 11.418,25.5 25.5,25.5 14.082,0 25.5,-11.418 25.5,-25.5 z"
         style="fill:none;stroke:#231f20;stroke-width:10;stroke-linecap:butt;stroke-linejoin:miter;stroke-miterlimit:11.5;stroke-dasharray:none;stroke-opacity:1"
         id="path106" />
      <path
         d="m 2173.09,167.594 h 244.52 v 154.961 h 244.51"
         style="fill:none;stroke:#231f20;stroke-width:10;stroke-linecap:butt;stroke-linejoin:miter;stroke-miterlimit:11.5;stroke-dasharray:none;stroke-opacity:1"
         id="path108" />
      <path
         d="M 1695.59,257.594 V 77.5938"
         style="fill:none;stroke:#0b0a08;stroke-width:10;stroke-linecap:square;stroke-linejoin:bevel;stroke-miterlimit:11.5;stroke-dasharray:none;stroke-opacity:1"
         id="path110" />
      <path
         d="m 1695.59,257.594 360,-90"
         style="fill:none;stroke:#0b0a08;stroke-width:10;stroke-linecap:square;stroke-linejoin:bevel;stroke-miterlimit:11.5;stroke-dasharray:none;stroke-opacity:1"
         id="path112" />
      <path
         d="m 1695.59,77.5938 360,90.0002"
         style="fill:none;stroke:#0b0a08;stroke-width:10;stroke-linecap:square;stroke-linejoin:bevel;stroke-miterlimit:11.5;stroke-dasharray:none;stroke-opacity:1"
         id="path114" />
      <path
         d="m 2100.59,165.094 v 0 c 0,-12.426 -10.07,-22.5 -22.5,-22.5 -12.42,0 -22.5,10.074 -22.5,22.5 0,12.426 10.08,22.5 22.5,22.5 12.43,0 22.5,-10.074 22.5,-22.5 z"
         style="fill:none;stroke:#0b0a08;stroke-width:10;stroke-linecap:butt;stroke-linejoin:round;stroke-miterlimit:11.5;stroke-dasharray:none;stroke-opacity:1"
         id="path116" />
      <path
         d="m 1695.59,167.594 h -70"
         style="fill:none;stroke:#0b0a08;stroke-width:10;stroke-linecap:square;stroke-linejoin:bevel;stroke-miterlimit:11.5;stroke-dasharray:none;stroke-opacity:1"
         id="path118" />
      <path
         d="m 2101.84,167.594 h 71.25"
         style="fill:none;stroke:#0b0a08;stroke-width:10;stroke-linecap:square;stroke-linejoin:bevel;stroke-miterlimit:11.5;stroke-dasharray:none;stroke-opacity:1"
         id="path120" />
      <path
         d="m 2132.34,569.637 h 264.89 V 458.805 h 264.89"
         style="fill:none;stroke:#231f20;stroke-width:10;stroke-linecap:butt;stroke-linejoin:miter;stroke-miterlimit:11.5;stroke-dasharray:none;stroke-opacity:1"
         id="path122" />
      <path
         d="M 1554.84,653.387 220.695,655.078"
         style="fill:none;stroke:#231f20;stroke-width:10;stroke-linecap:butt;stroke-linejoin:miter;stroke-miterlimit:11.5;stroke-dasharray:none;stroke-opacity:1"
         id="path124" />
      <path
         d="M 1554.84,508.387 220.695,512.102"
         style="fill:none;stroke:#231f20;stroke-width:10;stroke-linecap:butt;stroke-linejoin:miter;stroke-miterlimit:11.5;stroke-dasharray:none;stroke-opacity:1"
         id="path126" />
      <path
         d="m 1625.96,721.27 c 0,0 258.07,21.921 400.13,-151.45 -136.25,-168.933 -402.5,-137.496 -402.5,-137.496 0,0 34.92,71.239 35.51,143.477 0.6,72.238 -33.14,145.469 -33.14,145.469 z"
         style="fill:none;stroke:#0b0a08;stroke-width:10;stroke-linecap:square;stroke-linejoin:bevel;stroke-miterlimit:11.5;stroke-dasharray:none;stroke-opacity:1"
         id="path128" />
      <path
         d="m 2024.84,569.637 h 107.5"
         style="fill:none;stroke:#0b0a08;stroke-width:10;stroke-linecap:square;stroke-linejoin:bevel;stroke-miterlimit:11.5;stroke-dasharray:none;stroke-opacity:1"
         id="path130" />
      <path
         d="m 1648.59,653.387 h -93.75"
         style="fill:none;stroke:#0b0a08;stroke-width:10;stroke-linecap:square;stroke-linejoin:bevel;stroke-miterlimit:11.5;stroke-dasharray:none;stroke-opacity:1"
         id="path132" />
      <path
         d="m 1554.84,508.387 h 93.75"
         style="fill:none;stroke:#0b0a08;stroke-width:10;stroke-linecap:square;stroke-linejoin:bevel;stroke-miterlimit:11.5;stroke-dasharray:none;stroke-opacity:1"
         id="path134" />
      <path
         d="m 2960.87,523.801 c 0,0 -108.54,0 -216.25,0 V 246.297 h 222.62 c 0,0 152.38,0 152.38,133.789 0,141.215 -158.75,143.715 -158.75,143.715 z"
         style="fill:none;stroke:#0b0a08;stroke-width:10;stroke-linecap:square;stroke-linejoin:bevel;stroke-miterlimit:11.5;stroke-dasharray:none;stroke-opacity:1"
         id="path136" />
      <path
         d="m 2744.62,458.805 h -82.5"
         style="fill:none;stroke:#0b0a08;stroke-width:10;stroke-linecap:square;stroke-linejoin:bevel;stroke-miterlimit:11.5;stroke-dasharray:none;stroke-opacity:1"
         id="path138" />
      <path
         d="m 2744.62,322.555 h -82.5"
         style="fill:none;stroke:#0b0a08;stroke-width:10;stroke-linecap:square;stroke-linejoin:bevel;stroke-miterlimit:11.5;stroke-dasharray:none;stroke-opacity:1"
         id="path140" />
      <path
         d="m 3119.62,385.055 h 106.25"
         style="fill:none;stroke:#0b0a08;stroke-width:10;stroke-linecap:square;stroke-linejoin:bevel;stroke-miterlimit:11.5;stroke-dasharray:none;stroke-opacity:1"
         id="path142" />
      <g
         id="g144"
         transform="scale(10)">
        <text
           xml:space="preserve"
           transform="matrix(1,0,0,-1,228,3.2)"
           style="font-variant:normal;font-weight:normal;font-size:12px;font-family:'Times New Roman';-inkscape-font-specification:Times-Roman;writing-mode:lr-tb;fill:#231f20;fill-opacity:1;fill-rule:nonzero;stroke:none"
           id="text148"><tspan
             x="0 3.9661624 28 35.944046"
             y="0"
             sodipodi:role="line"
             id="tspan146">(AB)</tspan></text>
      </g>
      <path
         d="m 2442.8,35.0156 31.5,76.5004"
         style="fill:none;stroke:#231f20;stroke-width:5;stroke-linecap:butt;stroke-linejoin:miter;stroke-miterlimit:14.3;stroke-dasharray:none;stroke-opacity:1"
         id="path150" />
      <path
         d="m 2474.3,111.504 31.5,-76.5001"
         style="fill:none;stroke:#231f20;stroke-width:5;stroke-linecap:butt;stroke-linejoin:miter;stroke-miterlimit:14.3;stroke-dasharray:none;stroke-opacity:1"
         id="path152" />
      <path
         d="m 2244.47,80.582 -79.88,1.125"
         style="fill:none;stroke:#231f20;stroke-width:5;stroke-linecap:butt;stroke-linejoin:miter;stroke-miterlimit:14.3;stroke-dasharray:none;stroke-opacity:1"
         id="path154" />
      <path
         d="m 2241.97,83.082 v -40.5"
         style="fill:none;stroke:#231f20;stroke-width:5;stroke-linecap:butt;stroke-linejoin:miter;stroke-miterlimit:14.3;stroke-dasharray:none;stroke-opacity:1"
         id="path156" />
      <g
         id="g158"
         transform="scale(10)">
        <text
           xml:space="preserve"
           transform="matrix(1,0,0,-1,215,62.2)"
           style="font-variant:normal;font-weight:normal;font-size:12px;font-family:'Times New Roman';-inkscape-font-specification:Times-Roman;writing-mode:lr-tb;fill:#231f20;fill-opacity:1;fill-rule:nonzero;stroke:none"
           id="text162"><tspan
             x="0 3.9661624"
             y="0"
             sodipodi:role="line"
             id="tspan160">(A</tspan></text>
      </g>
      <path
         d="m 2325.51,704.406 31.5,-76.5"
         style="fill:none;stroke:#231f20;stroke-width:5;stroke-linecap:butt;stroke-linejoin:miter;stroke-miterlimit:14.3;stroke-dasharray:none;stroke-opacity:1"
         id="path164" />
      <path
         d="m 2357.01,627.91 31.5,76.5"
         style="fill:none;stroke:#231f20;stroke-width:5;stroke-linecap:butt;stroke-linejoin:miter;stroke-miterlimit:14.3;stroke-dasharray:none;stroke-opacity:1"
         id="path166" />
      <g
         id="g168"
         transform="scale(10)">
        <text
           xml:space="preserve"
           transform="matrix(1,0,0,-1,244,62.2)"
           style="font-variant:normal;font-weight:normal;font-size:12px;font-family:'Times New Roman';-inkscape-font-specification:Times-Roman;writing-mode:lr-tb;fill:#231f20;fill-opacity:1;fill-rule:nonzero;stroke:none"
           id="text174"><tspan
             x="0 7.9440455"
             y="0"
             sodipodi:role="line"
             id="tspan170">B)</tspan><tspan
             x="-121 -117.03384 -93 -85.055954"
             y="59"
             sodipodi:role="line"
             id="tspan172">(AB)</tspan></text>
      </g>
      <path
         d="m 1390.89,35.0156 31.5,76.5004"
         style="fill:none;stroke:#231f20;stroke-width:5;stroke-linecap:butt;stroke-linejoin:miter;stroke-miterlimit:14.3;stroke-dasharray:none;stroke-opacity:1"
         id="path176" />
      <path
         d="m 1422.39,111.504 31.5,-76.5001"
         style="fill:none;stroke:#231f20;stroke-width:5;stroke-linecap:butt;stroke-linejoin:miter;stroke-miterlimit:14.3;stroke-dasharray:none;stroke-opacity:1"
         id="path178" />
      <path
         d="m 629.055,245.461 0.148,409.617"
         style="fill:none;stroke:#231f20;stroke-width:10;stroke-linecap:butt;stroke-linejoin:miter;stroke-miterlimit:11.5;stroke-dasharray:none;stroke-opacity:1"
         id="path180" />
      <path
         d="m 423.449,106.461 1.5,405.641"
         style="fill:none;stroke:#231f20;stroke-width:10;stroke-linecap:butt;stroke-linejoin:miter;stroke-miterlimit:11.5;stroke-dasharray:none;stroke-opacity:1"
         id="path182" />
      <g
         id="g184"
         transform="scale(10)">
        <text
           xml:space="preserve"
           transform="matrix(1,0,0,-1,13,62.2)"
           style="font-variant:normal;font-weight:normal;font-size:12px;font-family:'Times New Roman';-inkscape-font-specification:Times-Roman;writing-mode:lr-tb;fill:#231f20;fill-opacity:1;fill-rule:nonzero;stroke:none"
           id="text190"><tspan
             x="0"
             y="0"
             id="tspan186">A</tspan><tspan
             x="1"
             y="14"
             id="tspan188">B</tspan></text>
      </g>
      <path
         d="m 452.691,513.691 v 0 c 0,-14.082 -11.418,-25.5 -25.5,-25.5 -14.082,0 -25.5,11.418 -25.5,25.5 0,14.082 11.418,25.5 25.5,25.5 14.082,0 25.5,-11.418 25.5,-25.5"
         style="fill:#231f20;fill-opacity:1;fill-rule:evenodd;stroke:none"
         id="path192" />
      <path
         d="m 452.691,513.691 v 0 c 0,-14.082 -11.418,-25.5 -25.5,-25.5 -14.082,0 -25.5,11.418 -25.5,25.5 0,14.082 11.418,25.5 25.5,25.5 14.082,0 25.5,-11.418 25.5,-25.5 z"
         style="fill:none;stroke:#231f20;stroke-width:10;stroke-linecap:butt;stroke-linejoin:miter;stroke-miterlimit:11.5;stroke-dasharray:none;stroke-opacity:1"
         id="path194" />
      <path
         d="M 740.547,105.012 H 424.895"
         style="fill:none;stroke:#231f20;stroke-width:10;stroke-linecap:butt;stroke-linejoin:miter;stroke-miterlimit:11.5;stroke-dasharray:none;stroke-opacity:1"
         id="path196" />
      <path
         d="m 2697.68,3007.41 c 0,0 -108.54,0 -216.25,0 v -277.5 h 222.62 c 0,0 152.38,0 152.38,133.79 0,141.21 -158.75,143.71 -158.75,143.71 z"
         style="fill:none;stroke:#0b0a08;stroke-width:10;stroke-linecap:square;stroke-linejoin:bevel;stroke-miterlimit:11.5;stroke-dasharray:none;stroke-opacity:1"
         id="path198" />
      <path
         d="m 2481.43,2942.41 h -82.5"
         style="fill:none;stroke:#0b0a08;stroke-width:10;stroke-linecap:square;stroke-linejoin:bevel;stroke-miterlimit:11.5;stroke-dasharray:none;stroke-opacity:1"
         id="path200" />
      <path
         d="m 2481.43,2806.16 h -82.5"
         style="fill:none;stroke:#0b0a08;stroke-width:10;stroke-linecap:square;stroke-linejoin:bevel;stroke-miterlimit:11.5;stroke-dasharray:none;stroke-opacity:1"
         id="path202" />
      <path
         d="m 2856.43,2868.66 h 106.25"
         style="fill:none;stroke:#0b0a08;stroke-width:10;stroke-linecap:square;stroke-linejoin:bevel;stroke-miterlimit:11.5;stroke-dasharray:none;stroke-opacity:1"
         id="path204" />
      <g
         id="g206"
         transform="scale(10)">
        <text
           xml:space="preserve"
           transform="matrix(1,0,0,-1,195,291.2)"
           style="font-variant:normal;font-weight:normal;font-size:12px;font-family:'Times New Roman';-inkscape-font-specification:Times-Roman;writing-mode:lr-tb;fill:#231f20;fill-opacity:1;fill-rule:nonzero;stroke:none"
           id="text210"><tspan
             x="0 3.9661624"
             y="0"
             sodipodi:role="line"
             id="tspan208">(A</tspan></text>
      </g>
      <path
         d="m 2123.59,2993.97 31.5,-76.5"
         style="fill:none;stroke:#231f20;stroke-width:5;stroke-linecap:butt;stroke-linejoin:miter;stroke-miterlimit:14.3;stroke-dasharray:none;stroke-opacity:1"
         id="path212" />
      <path
         d="m 2155.1,2917.48 31.5,76.5"
         style="fill:none;stroke:#231f20;stroke-width:5;stroke-linecap:butt;stroke-linejoin:miter;stroke-miterlimit:14.3;stroke-dasharray:none;stroke-opacity:1"
         id="path214" />
      <g
         id="g216"
         transform="scale(10)">
        <text
           xml:space="preserve"
           transform="matrix(1,0,0,-1,224,291.2)"
           style="font-variant:normal;font-weight:normal;font-size:12px;font-family:'Times New Roman';-inkscape-font-specification:Times-Roman;writing-mode:lr-tb;fill:#231f20;fill-opacity:1;fill-rule:nonzero;stroke:none"
           id="text222"><tspan
             x="0 7.9440455"
             y="0"
             sodipodi:role="line"
             id="tspan218">B)</tspan><tspan
             x="-26 -22.033838 2 9.944046"
             y="15"
             sodipodi:role="line"
             id="tspan220">(AB)</tspan></text>
      </g>
      <path
         d="m 2138.76,2763.73 31.5,76.5"
         style="fill:none;stroke:#231f20;stroke-width:5;stroke-linecap:butt;stroke-linejoin:miter;stroke-miterlimit:14.3;stroke-dasharray:none;stroke-opacity:1"
         id="path224" />
      <path
         d="m 2170.26,2840.22 31.5,-76.49"
         style="fill:none;stroke:#231f20;stroke-width:5;stroke-linecap:butt;stroke-linejoin:miter;stroke-miterlimit:14.3;stroke-dasharray:none;stroke-opacity:1"
         id="path226" />
      <path
         d="m 1940.43,2809.29 -79.88,1.13"
         style="fill:none;stroke:#231f20;stroke-width:5;stroke-linecap:butt;stroke-linejoin:miter;stroke-miterlimit:14.3;stroke-dasharray:none;stroke-opacity:1"
         id="path228" />
      <path
         d="m 1937.93,2811.79 v -40.5"
         style="fill:none;stroke:#231f20;stroke-width:5;stroke-linecap:butt;stroke-linejoin:miter;stroke-miterlimit:14.3;stroke-dasharray:none;stroke-opacity:1"
         id="path230" />
      <g
         id="g232"
         transform="scale(10)">
        <text
           xml:space="preserve"
           transform="matrix(1,0,0,-1,29,303.96)"
           style="font-variant:normal;font-weight:bold;font-size:12px;font-family:'Times New Roman';-inkscape-font-specification:Times-Bold;writing-mode:lr-tb;fill:#231f20;fill-opacity:1;fill-rule:nonzero;stroke:none"
           id="text236"><tspan
             x="0"
             y="0"
             id="tspan234">1</tspan></text>
        <text
           xml:space="preserve"
           transform="matrix(1,0,0,-1,34.99688,303.96)"
           style="font-variant:normal;font-weight:normal;font-size:12px;font-family:'Times New Roman';-inkscape-font-specification:Times-Roman;writing-mode:lr-tb;fill:#231f20;fill-opacity:1;fill-rule:nonzero;stroke:none"
           id="text246"><tspan
             x="0 2.9985545 8.9892635 20.315819 25.642372 28.637726 34.63628 40.634834 46.633389 55.295944 58.291298 61.625854 67.624405 72.950966 76.285515 79.280869 82.615425 88.613983 93.940536 96.93589 100.93044 104.265 110.26355 115.59011"
             y="0"
             sodipodi:role="line"
             id="tspan238">. We know that the final</tspan><tspan
             x="-5.9968801 0.0164473 6.0297747 9.3791018 15.392429 21.405756 24.755083 27.67971 33.693039 37.702366 40.626991 43.976322 49.989647 55.330975 58.255604 63.596928 66.946259 70.955582 76.296913 82.310242 85.659569 89.008896 91.933517 95.282845"
             y="13.4398"
             sodipodi:role="line"
             id="tspan240">output of the circuit is</tspan><tspan
             x="-5.9968801 -0.68375492 5.3013701 14.622496 20.60762 26.592745 29.91387 35.226997 41.21212 44.106747 50.091869 56.076996 58.971622 64.284744 70.269875 73.164497 81.813622 90.462746 99.11187 102.0065 107.99162 113.30475 116.62587 121.939"
             y="27.119499"
             sodipodi:role="line"
             id="tspan242">computed by an AND gate,</tspan><tspan
             x="-5.9968801 2.6737838 8.6804476 14.687111 19.361774 24.69644 27.615103 30.957766 36.964432 42.971092 48.977757 52.320423 56.995087 59.91375 65.248413 69.251076 74.585739 77.504402 82.839066 87.513733 90.432396 95.107056 101.11372 107.12038 115.79105 121.79771"
             y="40.799198"
             sodipodi:role="line"
             id="tspan244">whose inputs are as shown.</tspan></text>
        <text
           xml:space="preserve"
           transform="matrix(1,0,0,-1,221,216.9604)"
           style="font-variant:normal;font-weight:bold;font-size:12px;font-family:'Times New Roman';-inkscape-font-specification:Times-Bold;writing-mode:lr-tb;fill:#231f20;fill-opacity:1;fill-rule:nonzero;stroke:none"
           id="text250"><tspan
             x="0"
             y="0"
             id="tspan248">2</tspan></text>
        <text
           xml:space="preserve"
           transform="matrix(1,0,0,-1,226.91172,216.9604)"
           style="font-variant:normal;font-weight:normal;font-size:12px;font-family:'Times New Roman';-inkscape-font-specification:Times-Roman;writing-mode:lr-tb;fill:#231f20;fill-opacity:1;fill-rule:nonzero;stroke:none"
           id="text262"><tspan
             x="0 3.022676 8.8912277 16.245905 22.268579 27.619255 32.309933 37.660606 40.594883 43.95356 49.976234 55.998913 62.021587 65.380264 70.070938 73.093613 76.027893 79.386566"
             y="0"
             sodipodi:role="line"
             id="tspan252">. These inputs, in</tspan><tspan
             x="-5.9117198 -2.5950744 3.3855715 7.3622169 13.342863 16.373409 21.682055 27.662701 36.979347 42.287991 45.318539 49.295181 53.271828 59.252476 68.569122 71.599663 76.90831"
             y="13.4398"
             sodipodi:role="line"
             id="tspan254">turn come from an</tspan><tspan
             x="-5.9117198 2.7379076 10.727535 13.690563 19.676191 24.989819 28.311445 33.625072 36.5881 41.90173 47.887356 53.872982 56.83601 62.149639 65.112663 73.762291 82.411919"
             y="27.119499"
             sodipodi:role="line"
             id="tspan256">OR gate and a NOT</tspan><tspan
             x="-5.9117198 0.092810273 5.4253407 8.765871 14.098401 17.102932 20.029562 28.698092 32.038624 35.379154 41.383682 44.310314 47.650845 53.655373 59.659904 65.664436 69.004967 73.677498 76.604126 81.936653"
             y="40.799198"
             sodipodi:role="line"
             id="tspan258">gate, with inputs as</tspan><tspan
             x="-5.9117198 -1.2456772 4.7523656 10.750408 19.412451 25.410494"
             y="54.478901"
             sodipodi:role="line"
             id="tspan260">shown.</tspan></text>
        <text
           xml:space="preserve"
           transform="matrix(1,0,0,-1,27,111.9608)"
           style="font-variant:normal;font-weight:bold;font-size:12px;font-family:'Times New Roman';-inkscape-font-specification:Times-Bold;writing-mode:lr-tb;fill:#231f20;fill-opacity:1;fill-rule:nonzero;stroke:none"
           id="text266"><tspan
             x="0"
             y="0"
             id="tspan264">3</tspan></text>
        <text
           xml:space="preserve"
           transform="matrix(1,0,0,-1,33.00664,111.9608)"
           style="font-variant:normal;font-weight:normal;font-size:12px;font-family:'Times New Roman';-inkscape-font-specification:Times-Roman;writing-mode:lr-tb;fill:#231f20;fill-opacity:1;fill-rule:nonzero;stroke:none"
           id="text274"><tspan
             x="0 2.9787445 8.949234 16.259979 22.238724 27.545467 30.530712 35.837456 39.152203 43.126945 48.433689 54.412434 57.72718 61.041924 64.027168 67.341911 71.988655 74.9739 80.280647 86.259392 95.574135 101.55288 104.86762 110.17437 113.48911 118.79586 124.7746 127.75985 133.73859 139.71733 142.70258 148.00932 153.98807 159.96681 163.28156 169.2603 175.23904 178.22429 183.53104 189.50978 192.49503 201.13777 209.78052 218.42326 221.40851 227.38725 232.694 236.00874"
             y="0"
             sodipodi:role="line"
             id="tspan268">. The circuit is completed by adding an AND gate</tspan><tspan
             x="-6.00664 -2.6757653 3.3191094 6.2774844 11.600359 17.595234 26.926109 32.920982 38.915859 42.246735 47.569607 50.527981 53.858856 59.853733 65.176605 68.134979 71.465858 77.460732 83.455605 89.450478 92.781357 95.739731 99.730606 105.72548 109.71635 112.67473 116.0056 122.00048 127.32336 130.28172 138.9406 147.59947 154.92635 157.88472 163.87961 169.20247 172.53336 177.85623 180.8511 183.80948 189.13235 195.12723 201.1221 204.08047 209.40335 215.39822 221.3931 224.35147 229.67435 235.66922 241.66409 247.65897 252.98184 258.30472 261.63559 264.96646 270.96133"
             y="13.4398"
             sodipodi:role="line"
             id="tspan270">to compute the input for the NOT gate, and and connecting</tspan><tspan
             x="-6.00664 -2.6635509 3.3435383 8.678627 14.528605 19.863695 23.206783 27.209873 32.544964 38.552052 41.895142 45.238232 48.163219 51.50631 57.513397 63.520485 69.527573 72.870667 77.545753 80.552841 83.477829 92.148918 95.073914 100.409 106.41609 112.42318 115.34817 123.35925 126.36635 129.29134 132.63443 138.64151 141.5665 144.90959 150.91669 156.25177 159.17676 164.51184 170.51894 174.52202 180.52911 186.53621 190.53929 193.88239 199.21747 202.56056 207.89565 210.82063 216.82773 222.16281 225.50591 230.841 233.76599 237.10907 243.11617 249.12325 255.13034 258.47342 263.14853"
             y="27.119499"
             sodipodi:role="line"
             id="tspan272">the circuit inputs, A and B, to the apropriate gate inputs.</tspan></text>
      </g>
    </g>
  </g>
</svg>
