<?xml version="1.0" encoding="UTF-8" standalone="no"?>
<!-- Created with Inkscape (http://www.inkscape.org/) -->

<svg
   version="1.1"
   id="svg2"
   width="209.33333"
   height="236"
   viewBox="0 0 209.33333 236"
   sodipodi:docname="fig-5-6.eps"
   xmlns:inkscape="http://www.inkscape.org/namespaces/inkscape"
   xmlns:sodipodi="http://sodipodi.sourceforge.net/DTD/sodipodi-0.dtd"
   xmlns="http://www.w3.org/2000/svg"
   xmlns:svg="http://www.w3.org/2000/svg">
  <defs
     id="defs6" />
  <sodipodi:namedview
     id="namedview4"
     pagecolor="#ffffff"
     bordercolor="#666666"
     borderopacity="1.0"
     inkscape:showpageshadow="2"
     inkscape:pageopacity="0.0"
     inkscape:pagecheckerboard="0"
     inkscape:deskcolor="#d1d1d1" />
  <g
     id="g8"
     inkscape:groupmode="layer"
     inkscape:label="ink_ext_XXXXXX"
     transform="matrix(1.3333333,0,0,-1.3333333,0,236)">
    <g
       id="g10"
       transform="scale(0.1)">
      <path
         d="M 350,230 710,850"
         style="fill:none;stroke:#000000;stroke-width:10;stroke-linecap:butt;stroke-linejoin:miter;stroke-miterlimit:11.5;stroke-dasharray:none;stroke-opacity:1"
         id="path12" />
      <path
         d="M 1190,230 800,850"
         style="fill:none;stroke:#000000;stroke-width:10;stroke-linecap:butt;stroke-linejoin:miter;stroke-miterlimit:11.5;stroke-dasharray:none;stroke-opacity:1"
         id="path14" />
      <g
         id="g16"
         transform="scale(10)">
        <text
           xml:space="preserve"
           transform="matrix(1,0,0,-1,72.1801,87.9602)"
           style="font-variant:normal;font-weight:bold;font-size:12px;font-family:'Times New Roman';-inkscape-font-specification:Times-Bold;writing-mode:lr-tb;fill:#000000;fill-opacity:1;fill-rule:nonzero;stroke:none"
           id="text22"><tspan
             x="0"
             y="0"
             id="tspan18">A</tspan><tspan
             x="-25.680099"
             y="84"
             id="tspan20">x</tspan></text>
      </g>
      <path
         d="m 350,230 h 840"
         style="fill:none;stroke:#000000;stroke-width:10;stroke-linecap:butt;stroke-linejoin:miter;stroke-miterlimit:11.5;stroke-dasharray:none;stroke-opacity:1"
         id="path24" />
      <path
         d="m 919.543,205.137 c 0,0 -1.305,-7.824 6.535,-17.481 11.981,-14.75 61.742,-3.218 84.782,-16.004 13.79,-7.648 18.92,-41.652 18.92,-41.652"
         style="fill:#ffffff;fill-opacity:1;fill-rule:evenodd;stroke:none"
         id="path26" />
      <path
         d="m 919.543,205.137 c 0,0 -1.305,-7.824 6.535,-17.481 11.981,-14.75 61.742,-3.218 84.782,-16.004 13.79,-7.648 18.92,-41.652 18.92,-41.652"
         style="fill:none;stroke:#000000;stroke-width:1.25;stroke-linecap:butt;stroke-linejoin:miter;stroke-miterlimit:14.3;stroke-dasharray:none;stroke-opacity:1"
         id="path28" />
      <path
         d="m 1139.92,205.137 c 0,0 1.31,-7.824 -6.53,-17.481 -11.98,-14.75 -61.75,-3.218 -84.79,-16.004 C 1034.81,164.004 1029.69,130 1029.69,130"
         style="fill:#ffffff;fill-opacity:1;fill-rule:evenodd;stroke:none"
         id="path30" />
      <path
         d="m 1139.92,205.137 c 0,0 1.31,-7.824 -6.53,-17.481 -11.98,-14.75 -61.75,-3.218 -84.79,-16.004 C 1034.81,164.004 1029.69,130 1029.69,130"
         style="fill:none;stroke:#000000;stroke-width:1.25;stroke-linecap:butt;stroke-linejoin:miter;stroke-miterlimit:14.3;stroke-dasharray:none;stroke-opacity:1"
         id="path32" />
      <g
         id="g34"
         transform="scale(10)">
        <text
           xml:space="preserve"
           transform="matrix(1,0,0,-1,72.1801,44.9602)"
           style="font-variant:normal;font-weight:bold;font-size:12px;font-family:'Times New Roman';-inkscape-font-specification:Times-Bold;writing-mode:lr-tb;fill:#000000;fill-opacity:1;fill-rule:nonzero;stroke:none"
           id="text38"><tspan
             x="0"
             y="0"
             id="tspan36">A</tspan></text>
      </g>
      <path
         d="M 790,420 888.809,236.934"
         style="fill:none;stroke:#000000;stroke-width:10;stroke-linecap:butt;stroke-linejoin:miter;stroke-miterlimit:14.3;stroke-dasharray:none;stroke-opacity:1"
         id="path40" />
      <path
         d="M 700,430 590,230"
         style="fill:none;stroke:#000000;stroke-width:10;stroke-linecap:butt;stroke-linejoin:miter;stroke-miterlimit:14.3;stroke-dasharray:none;stroke-opacity:1"
         id="path42" />
      <path
         d="m 649.543,195.137 c 0,0 -1.305,-7.824 6.535,-17.481 11.981,-14.75 61.742,-3.218 84.789,-16.004 13.785,-7.648 18.91,-41.652 18.91,-41.652"
         style="fill:#ffffff;fill-opacity:1;fill-rule:evenodd;stroke:none"
         id="path44" />
      <path
         d="m 649.543,195.137 c 0,0 -1.305,-7.824 6.535,-17.481 11.981,-14.75 61.742,-3.218 84.789,-16.004 13.785,-7.648 18.91,-41.652 18.91,-41.652"
         style="fill:none;stroke:#000000;stroke-width:1.25;stroke-linecap:butt;stroke-linejoin:miter;stroke-miterlimit:14.3;stroke-dasharray:none;stroke-opacity:1"
         id="path46" />
      <path
         d="m 869.926,195.137 c 0,0 1.304,-7.824 -6.535,-17.481 -11.981,-14.75 -61.746,-3.218 -84.789,-16.004 C 764.813,154.004 759.691,120 759.691,120"
         style="fill:#ffffff;fill-opacity:1;fill-rule:evenodd;stroke:none"
         id="path48" />
      <path
         d="m 869.926,195.137 c 0,0 1.304,-7.824 -6.535,-17.481 -11.981,-14.75 -61.746,-3.218 -84.789,-16.004 C 764.813,154.004 759.691,120 759.691,120"
         style="fill:none;stroke:#000000;stroke-width:1.25;stroke-linecap:butt;stroke-linejoin:miter;stroke-miterlimit:14.3;stroke-dasharray:none;stroke-opacity:1"
         id="path50" />
      <path
         d="m 379.543,195.137 c 0,0 -1.305,-7.824 6.535,-17.481 11.981,-14.75 61.742,-3.218 84.789,-16.004 13.785,-7.648 18.91,-41.652 18.91,-41.652"
         style="fill:#ffffff;fill-opacity:1;fill-rule:evenodd;stroke:none"
         id="path52" />
      <path
         d="m 379.543,195.137 c 0,0 -1.305,-7.824 6.535,-17.481 11.981,-14.75 61.742,-3.218 84.789,-16.004 13.785,-7.648 18.91,-41.652 18.91,-41.652"
         style="fill:none;stroke:#000000;stroke-width:1.25;stroke-linecap:butt;stroke-linejoin:miter;stroke-miterlimit:14.3;stroke-dasharray:none;stroke-opacity:1"
         id="path54" />
      <path
         d="m 599.926,195.137 c 0,0 1.304,-7.824 -6.535,-17.481 -11.981,-14.75 -61.746,-3.218 -84.789,-16.004 C 494.813,154.004 489.691,120 489.691,120"
         style="fill:#ffffff;fill-opacity:1;fill-rule:evenodd;stroke:none"
         id="path56" />
      <path
         d="m 599.926,195.137 c 0,0 1.304,-7.824 -6.535,-17.481 -11.981,-14.75 -61.746,-3.218 -84.789,-16.004 C 494.813,154.004 489.691,120 489.691,120"
         style="fill:none;stroke:#000000;stroke-width:1.25;stroke-linecap:butt;stroke-linejoin:miter;stroke-miterlimit:14.3;stroke-dasharray:none;stroke-opacity:1"
         id="path58" />
      <g
         id="g60"
         transform="scale(10)">
        <text
           xml:space="preserve"
           transform="matrix(1,0,0,-1,73.5,3.96016)"
           style="font-variant:normal;font-weight:bold;font-size:12px;font-family:'Times New Roman';-inkscape-font-specification:Times-Bold;writing-mode:lr-tb;fill:#000000;fill-opacity:1;fill-rule:nonzero;stroke:none"
           id="text64"><tspan
             x="0 28.860121"
             y="0"
             sodipodi:role="line"
             id="tspan62">yz</tspan></text>
      </g>
      <path
         d="m 741.73,800 c 3.106,-14.332 9.051,-12.242 17.868,-25.551 13.207,-19.941 10.097,-34.277 10.097,-34.277 0,0 -33.507,-33.766 -31.074,-48.609 4.66,-21.809 34.184,-38.012 30.297,-74.161 l -18.645,-37.39"
         style="fill:#ffffff;fill-opacity:1;fill-rule:evenodd;stroke:none"
         id="path66" />
      <path
         d="m 741.73,800 c 3.106,-14.332 9.051,-12.242 17.868,-25.551 13.207,-19.941 10.097,-34.277 10.097,-34.277 0,0 -33.507,-33.766 -31.074,-48.609 4.66,-21.809 34.184,-38.012 30.297,-74.161 l -18.645,-37.39"
         style="fill:none;stroke:#000000;stroke-width:1.25;stroke-linecap:butt;stroke-linejoin:miter;stroke-miterlimit:14.3;stroke-dasharray:none;stroke-opacity:1"
         id="path68" />
      <g
         id="g70"
         transform="scale(10)">
        <text
           xml:space="preserve"
           transform="matrix(1,0,0,-1,75.1398,165.96)"
           style="font-variant:normal;font-weight:bold;font-size:12px;font-family:'Times New Roman';-inkscape-font-specification:Times-Bold;writing-mode:lr-tb;fill:#000000;fill-opacity:1;fill-rule:nonzero;stroke:none"
           id="text74"><tspan
             x="0"
             y="0"
             id="tspan72">S</tspan></text>
      </g>
      <path
         d="m 774.758,1020 c 6.086,39.09 17.73,33.39 34.988,69.69 25.863,54.39 19.777,93.48 19.777,93.48 0,0 -65.617,92.1 -60.851,132.58 9.129,59.49 66.937,103.68 59.332,202.27 L 791.492,1620"
         style="fill:#ffffff;fill-opacity:1;fill-rule:evenodd;stroke:none"
         id="path76" />
      <path
         d="m 774.758,1020 c 6.086,39.09 17.73,33.39 34.988,69.69 25.863,54.39 19.777,93.48 19.777,93.48 0,0 -65.617,92.1 -60.851,132.58 9.129,59.49 66.937,103.68 59.332,202.27 L 791.492,1620"
         style="fill:none;stroke:#000000;stroke-width:1.25;stroke-linecap:butt;stroke-linejoin:miter;stroke-miterlimit:14.3;stroke-dasharray:none;stroke-opacity:1"
         id="path78" />
      <path
         d="M 850,1650 1570,230"
         style="fill:none;stroke:#000000;stroke-width:10;stroke-linecap:butt;stroke-linejoin:miter;stroke-miterlimit:14.3;stroke-dasharray:none;stroke-opacity:1"
         id="path80" />
      <path
         d="M 730,1640 10,230"
         style="fill:none;stroke:#000000;stroke-width:10;stroke-linecap:butt;stroke-linejoin:miter;stroke-miterlimit:14.3;stroke-dasharray:none;stroke-opacity:1"
         id="path82" />
      <path
         d="m 1180,230 h 390"
         style="fill:none;stroke:#000000;stroke-width:10;stroke-linecap:butt;stroke-linejoin:miter;stroke-miterlimit:14.3;stroke-dasharray:none;stroke-opacity:1"
         id="path84" />
      <path
         d="M 360,230 H 10"
         style="fill:none;stroke:#000000;stroke-width:10;stroke-linecap:butt;stroke-linejoin:miter;stroke-miterlimit:14.3;stroke-dasharray:none;stroke-opacity:1"
         id="path86" />
      <path
         d="m 1209.59,205.137 c 0,0 -1.96,-7.824 9.79,-17.481 17.96,-14.75 92.54,-3.218 127.08,-16.004 20.67,-7.648 28.35,-41.652 28.35,-41.652"
         style="fill:#ffffff;fill-opacity:1;fill-rule:evenodd;stroke:none"
         id="path88" />
      <path
         d="m 1209.59,205.137 c 0,0 -1.96,-7.824 9.79,-17.481 17.96,-14.75 92.54,-3.218 127.08,-16.004 20.67,-7.648 28.35,-41.652 28.35,-41.652"
         style="fill:none;stroke:#000000;stroke-width:1.25;stroke-linecap:butt;stroke-linejoin:miter;stroke-miterlimit:14.3;stroke-dasharray:none;stroke-opacity:1"
         id="path90" />
      <path
         d="m 1539.91,205.137 c 0,0 1.95,-7.824 -9.8,-17.481 -17.95,-14.75 -92.54,-3.218 -127.08,-16.004 C 1382.36,164.004 1374.68,130 1374.68,130"
         style="fill:#ffffff;fill-opacity:1;fill-rule:evenodd;stroke:none"
         id="path92" />
      <path
         d="m 1539.91,205.137 c 0,0 1.95,-7.824 -9.8,-17.481 -17.95,-14.75 -92.54,-3.218 -127.08,-16.004 C 1382.36,164.004 1374.68,130 1374.68,130"
         style="fill:none;stroke:#000000;stroke-width:1.25;stroke-linecap:butt;stroke-linejoin:miter;stroke-miterlimit:14.3;stroke-dasharray:none;stroke-opacity:1"
         id="path94" />
      <path
         d="m 9.58594,195.137 c 0,0 -1.96094,-7.824 9.79296,-17.481 17.957,-14.75 92.5431,-3.218 127.0861,-16.004 C 167.129,154.004 174.809,120 174.809,120"
         style="fill:#ffffff;fill-opacity:1;fill-rule:evenodd;stroke:none"
         id="path96" />
      <path
         d="m 9.58594,195.137 c 0,0 -1.96094,-7.824 9.79296,-17.481 17.957,-14.75 92.5431,-3.218 127.0861,-16.004 C 167.129,154.004 174.809,120 174.809,120"
         style="fill:none;stroke:#000000;stroke-width:1.25;stroke-linecap:butt;stroke-linejoin:miter;stroke-miterlimit:14.3;stroke-dasharray:none;stroke-opacity:1"
         id="path98" />
      <path
         d="m 339.906,195.137 c 0,0 1.957,-7.824 -9.793,-17.481 -17.957,-14.75 -92.547,-3.218 -127.086,-16.004 C 182.359,154.004 174.684,120 174.684,120"
         style="fill:#ffffff;fill-opacity:1;fill-rule:evenodd;stroke:none"
         id="path100" />
      <path
         d="m 339.906,195.137 c 0,0 1.957,-7.824 -9.793,-17.481 -17.957,-14.75 -92.547,-3.218 -127.086,-16.004 C 182.359,154.004 174.684,120 174.684,120"
         style="fill:none;stroke:#000000;stroke-width:1.25;stroke-linecap:butt;stroke-linejoin:miter;stroke-miterlimit:14.3;stroke-dasharray:none;stroke-opacity:1"
         id="path102" />
      <g
         id="g104"
         transform="scale(10)">
        <text
           xml:space="preserve"
           transform="matrix(1,0,0,-1,15.6398,2.96016)"
           style="font-variant:normal;font-weight:bold;font-size:12px;font-family:'Times New Roman';-inkscape-font-specification:Times-Bold;writing-mode:lr-tb;fill:#000000;fill-opacity:1;fill-rule:nonzero;stroke:none"
           id="text110"><tspan
             x="0"
             y="0"
             id="tspan106">u</tspan><tspan
             x="120.36"
             y="-2"
             id="tspan108">v</tspan></text>
      </g>
    </g>
  </g>
</svg>
