<?xml version="1.0" encoding="UTF-8" standalone="no"?>
<!-- Created with Inkscape (http://www.inkscape.org/) -->

<svg
   version="1.1"
   id="svg2"
   width="565.33331"
   height="198.66667"
   viewBox="0 0 565.33331 198.66667"
   sodipodi:docname="fig1-6.eps"
   xmlns:inkscape="http://www.inkscape.org/namespaces/inkscape"
   xmlns:sodipodi="http://sodipodi.sourceforge.net/DTD/sodipodi-0.dtd"
   xmlns="http://www.w3.org/2000/svg"
   xmlns:svg="http://www.w3.org/2000/svg">
  <defs
     id="defs6" />
  <sodipodi:namedview
     id="namedview4"
     pagecolor="#ffffff"
     bordercolor="#666666"
     borderopacity="1.0"
     inkscape:showpageshadow="2"
     inkscape:pageopacity="0.0"
     inkscape:pagecheckerboard="0"
     inkscape:deskcolor="#d1d1d1" />
  <g
     id="g8"
     inkscape:groupmode="layer"
     inkscape:label="ink_ext_XXXXXX"
     transform="matrix(1.3333333,0,0,-1.3333333,0,198.66667)">
    <g
       id="g10"
       transform="scale(0.1)">
      <path
         d="M 1775.31,342.285 1161.25,345"
         style="fill:none;stroke:#231f20;stroke-width:10;stroke-linecap:butt;stroke-linejoin:miter;stroke-miterlimit:11.5;stroke-dasharray:none;stroke-opacity:1"
         id="path12" />
      <path
         d="M 685,345 120,340"
         style="fill:none;stroke:#231f20;stroke-width:10;stroke-linecap:butt;stroke-linejoin:miter;stroke-miterlimit:11.5;stroke-dasharray:none;stroke-opacity:1"
         id="path14" />
      <path
         d="M 755,435 V 255"
         style="fill:none;stroke:#0b0a08;stroke-width:10;stroke-linecap:square;stroke-linejoin:bevel;stroke-miterlimit:11.5;stroke-dasharray:none;stroke-opacity:1"
         id="path16" />
      <path
         d="m 755,435 360,-90"
         style="fill:none;stroke:#0b0a08;stroke-width:10;stroke-linecap:square;stroke-linejoin:bevel;stroke-miterlimit:11.5;stroke-dasharray:none;stroke-opacity:1"
         id="path18" />
      <path
         d="m 755,255 360,90"
         style="fill:none;stroke:#0b0a08;stroke-width:10;stroke-linecap:square;stroke-linejoin:bevel;stroke-miterlimit:11.5;stroke-dasharray:none;stroke-opacity:1"
         id="path20" />
      <path
         d="m 1160,342.5 v 0 c 0,-12.426 -10.07,-22.5 -22.5,-22.5 -12.43,0 -22.5,10.074 -22.5,22.5 0,12.426 10.07,22.5 22.5,22.5 12.43,0 22.5,-10.074 22.5,-22.5 z"
         style="fill:none;stroke:#0b0a08;stroke-width:10;stroke-linecap:butt;stroke-linejoin:round;stroke-miterlimit:11.5;stroke-dasharray:none;stroke-opacity:1"
         id="path22" />
      <path
         d="M 755,345 H 685"
         style="fill:none;stroke:#0b0a08;stroke-width:10;stroke-linecap:square;stroke-linejoin:bevel;stroke-miterlimit:11.5;stroke-dasharray:none;stroke-opacity:1"
         id="path24" />
      <path
         d="m 1161.25,345 h 71.25"
         style="fill:none;stroke:#0b0a08;stroke-width:10;stroke-linecap:square;stroke-linejoin:bevel;stroke-miterlimit:11.5;stroke-dasharray:none;stroke-opacity:1"
         id="path26" />
      <path
         d="M 1785,1100 H 1241.25"
         style="fill:none;stroke:#231f20;stroke-width:10;stroke-linecap:butt;stroke-linejoin:miter;stroke-miterlimit:11.5;stroke-dasharray:none;stroke-opacity:1"
         id="path28" />
      <path
         d="M 677.5,1173.75 149.973,1170"
         style="fill:none;stroke:#231f20;stroke-width:10;stroke-linecap:butt;stroke-linejoin:miter;stroke-miterlimit:11.5;stroke-dasharray:none;stroke-opacity:1"
         id="path30" />
      <path
         d="m 440,740 h 118.75 v 297.5 H 677.5"
         style="fill:none;stroke:#231f20;stroke-width:10;stroke-linecap:butt;stroke-linejoin:miter;stroke-miterlimit:11.5;stroke-dasharray:none;stroke-opacity:1"
         id="path32" />
      <path
         d="m 976.25,1238.75 c 0,0 -108.547,0 -216.25,0 v -277.5 h 222.617 c 0,0 152.383,0 152.383,133.79 0,141.21 -158.75,143.71 -158.75,143.71 z"
         style="fill:none;stroke:#0b0a08;stroke-width:10;stroke-linecap:square;stroke-linejoin:bevel;stroke-miterlimit:11.5;stroke-dasharray:none;stroke-opacity:1"
         id="path34" />
      <path
         d="M 760,1173.75 H 677.5"
         style="fill:none;stroke:#0b0a08;stroke-width:10;stroke-linecap:square;stroke-linejoin:bevel;stroke-miterlimit:11.5;stroke-dasharray:none;stroke-opacity:1"
         id="path36" />
      <path
         d="M 760,1037.5 H 677.5"
         style="fill:none;stroke:#0b0a08;stroke-width:10;stroke-linecap:square;stroke-linejoin:bevel;stroke-miterlimit:11.5;stroke-dasharray:none;stroke-opacity:1"
         id="path38" />
      <path
         d="m 1135,1100 h 106.25"
         style="fill:none;stroke:#0b0a08;stroke-width:10;stroke-linecap:square;stroke-linejoin:bevel;stroke-miterlimit:11.5;stroke-dasharray:none;stroke-opacity:1"
         id="path40" />
      <path
         d="m 2352.81,403.535 h 267.35 V 707.5 h 267.34"
         style="fill:none;stroke:#231f20;stroke-width:10;stroke-linecap:butt;stroke-linejoin:miter;stroke-miterlimit:11.5;stroke-dasharray:none;stroke-opacity:1"
         id="path42" />
      <path
         d="m 560,740 h 607.66 V 487.285 h 607.65"
         style="fill:none;stroke:#231f20;stroke-width:10;stroke-linecap:butt;stroke-linejoin:miter;stroke-miterlimit:11.5;stroke-dasharray:none;stroke-opacity:1"
         id="path44" />
      <path
         d="m 1846.43,555.172 c 0,0 258.07,21.918 400.13,-151.449 -136.25,-168.938 -402.5,-137.5 -402.5,-137.5 0,0 34.92,71.238 35.52,143.476 0.59,72.239 -33.15,145.473 -33.15,145.473 z"
         style="fill:none;stroke:#0b0a08;stroke-width:10;stroke-linecap:square;stroke-linejoin:bevel;stroke-miterlimit:11.5;stroke-dasharray:none;stroke-opacity:1"
         id="path46" />
      <path
         d="m 2245.31,403.535 h 107.5"
         style="fill:none;stroke:#0b0a08;stroke-width:10;stroke-linecap:square;stroke-linejoin:bevel;stroke-miterlimit:11.5;stroke-dasharray:none;stroke-opacity:1"
         id="path48" />
      <path
         d="m 1869.06,487.285 h -93.75"
         style="fill:none;stroke:#0b0a08;stroke-width:10;stroke-linecap:square;stroke-linejoin:bevel;stroke-miterlimit:11.5;stroke-dasharray:none;stroke-opacity:1"
         id="path50" />
      <path
         d="m 1775.31,342.285 h 93.75"
         style="fill:none;stroke:#0b0a08;stroke-width:10;stroke-linecap:square;stroke-linejoin:bevel;stroke-miterlimit:11.5;stroke-dasharray:none;stroke-opacity:1"
         id="path52" />
      <path
         d="M 2332.5,1100 H 2610 V 843.75 h 277.5"
         style="fill:none;stroke:#231f20;stroke-width:10;stroke-linecap:butt;stroke-linejoin:miter;stroke-miterlimit:11.5;stroke-dasharray:none;stroke-opacity:1"
         id="path54" />
      <path
         d="M 3451.25,770 H 3910"
         style="fill:none;stroke:#231f20;stroke-width:10;stroke-linecap:butt;stroke-linejoin:miter;stroke-miterlimit:11.5;stroke-dasharray:none;stroke-opacity:1"
         id="path56" />
      <path
         d="m 3186.25,908.75 c 0,0 -108.54,0 -216.25,0 v -277.5 h 222.62 c 0,0 152.38,0 152.38,133.785 0,141.215 -158.75,143.715 -158.75,143.715 z"
         style="fill:none;stroke:#0b0a08;stroke-width:10;stroke-linecap:square;stroke-linejoin:bevel;stroke-miterlimit:11.5;stroke-dasharray:none;stroke-opacity:1"
         id="path58" />
      <path
         d="m 2970,843.75 h -82.5"
         style="fill:none;stroke:#0b0a08;stroke-width:10;stroke-linecap:square;stroke-linejoin:bevel;stroke-miterlimit:11.5;stroke-dasharray:none;stroke-opacity:1"
         id="path60" />
      <path
         d="m 2970,707.5 h -82.5"
         style="fill:none;stroke:#0b0a08;stroke-width:10;stroke-linecap:square;stroke-linejoin:bevel;stroke-miterlimit:11.5;stroke-dasharray:none;stroke-opacity:1"
         id="path62" />
      <path
         d="m 3345,770 h 106.25"
         style="fill:none;stroke:#0b0a08;stroke-width:10;stroke-linecap:square;stroke-linejoin:bevel;stroke-miterlimit:11.5;stroke-dasharray:none;stroke-opacity:1"
         id="path64" />
      <path
         d="M 150,740 H 440"
         style="fill:none;stroke:#231f20;stroke-width:10;stroke-linecap:butt;stroke-linejoin:miter;stroke-miterlimit:11.5;stroke-dasharray:none;stroke-opacity:1"
         id="path66" />
      <path
         d="M 1855,1190 V 1010"
         style="fill:none;stroke:#0b0a08;stroke-width:10;stroke-linecap:square;stroke-linejoin:bevel;stroke-miterlimit:11.5;stroke-dasharray:none;stroke-opacity:1"
         id="path68" />
      <path
         d="m 1855,1190 360,-90"
         style="fill:none;stroke:#0b0a08;stroke-width:10;stroke-linecap:square;stroke-linejoin:bevel;stroke-miterlimit:11.5;stroke-dasharray:none;stroke-opacity:1"
         id="path70" />
      <path
         d="m 1855,1010 360,90"
         style="fill:none;stroke:#0b0a08;stroke-width:10;stroke-linecap:square;stroke-linejoin:bevel;stroke-miterlimit:11.5;stroke-dasharray:none;stroke-opacity:1"
         id="path72" />
      <path
         d="m 2260,1097.5 v 0 c 0,-12.43 -10.07,-22.5 -22.5,-22.5 -12.43,0 -22.5,10.07 -22.5,22.5 0,12.43 10.07,22.5 22.5,22.5 12.43,0 22.5,-10.07 22.5,-22.5 z"
         style="fill:none;stroke:#0b0a08;stroke-width:10;stroke-linecap:butt;stroke-linejoin:round;stroke-miterlimit:11.5;stroke-dasharray:none;stroke-opacity:1"
         id="path74" />
      <path
         d="m 1855,1100 h -70"
         style="fill:none;stroke:#0b0a08;stroke-width:10;stroke-linecap:square;stroke-linejoin:bevel;stroke-miterlimit:11.5;stroke-dasharray:none;stroke-opacity:1"
         id="path76" />
      <path
         d="m 2261.25,1100 h 71.25"
         style="fill:none;stroke:#0b0a08;stroke-width:10;stroke-linecap:square;stroke-linejoin:bevel;stroke-miterlimit:11.5;stroke-dasharray:none;stroke-opacity:1"
         id="path78" />
      <g
         id="g80"
         transform="scale(10)">
        <text
           xml:space="preserve"
           transform="matrix(1,0,0,-1,4,113.2)"
           style="font-variant:normal;font-weight:normal;font-size:12px;font-family:'Times New Roman';-inkscape-font-specification:Times-Roman;writing-mode:lr-tb;fill:#231f20;fill-opacity:1;fill-rule:nonzero;stroke:none"
           id="text88"><tspan
             x="0"
             y="0"
             id="tspan82">A</tspan><tspan
             x="-1"
             y="43"
             id="tspan84">B</tspan><tspan
             x="-1"
             y="83"
             id="tspan86">C</tspan></text>
      </g>
      <path
         d="m 582.301,741.949 v 0 c 0,-14.082 -11.418,-25.5 -25.5,-25.5 -14.082,0 -25.5,11.418 -25.5,25.5 0,14.082 11.418,25.5 25.5,25.5 14.082,0 25.5,-11.418 25.5,-25.5"
         style="fill:#231f20;fill-opacity:1;fill-rule:evenodd;stroke:none"
         id="path90" />
      <path
         d="m 582.301,741.949 v 0 c 0,-14.082 -11.418,-25.5 -25.5,-25.5 -14.082,0 -25.5,11.418 -25.5,25.5 0,14.082 11.418,25.5 25.5,25.5 14.082,0 25.5,-11.418 25.5,-25.5 z"
         style="fill:none;stroke:#231f20;stroke-width:10;stroke-linecap:butt;stroke-linejoin:miter;stroke-miterlimit:11.5;stroke-dasharray:none;stroke-opacity:1"
         id="path92" />
      <path
         d="m 3528.8,629.953 31.5,76.5"
         style="fill:none;stroke:#231f20;stroke-width:5;stroke-linecap:butt;stroke-linejoin:miter;stroke-miterlimit:14.3;stroke-dasharray:none;stroke-opacity:1"
         id="path94" />
      <path
         d="m 3560.31,706.449 31.5,-76.5"
         style="fill:none;stroke:#231f20;stroke-width:5;stroke-linecap:butt;stroke-linejoin:miter;stroke-miterlimit:14.3;stroke-dasharray:none;stroke-opacity:1"
         id="path96" />
      <g
         id="g98"
         transform="scale(10)">
        <text
           xml:space="preserve"
           transform="matrix(1,0,0,-1,364,63.2)"
           style="font-variant:normal;font-weight:normal;font-size:12px;font-family:'Times New Roman';-inkscape-font-specification:Times-Roman;writing-mode:lr-tb;fill:#231f20;fill-opacity:1;fill-rule:nonzero;stroke:none"
           id="text102"><tspan
             x="0 3.9360456"
             y="0"
             sodipodi:role="line"
             id="tspan100">(B</tspan></text>
      </g>
      <path
         d="M 3843.5,708.18 3812,631.68"
         style="fill:none;stroke:#231f20;stroke-width:5;stroke-linecap:butt;stroke-linejoin:miter;stroke-miterlimit:14.3;stroke-dasharray:none;stroke-opacity:1"
         id="path104" />
      <path
         d="m 3811.99,631.684 -31.5,76.5"
         style="fill:none;stroke:#231f20;stroke-width:5;stroke-linecap:butt;stroke-linejoin:miter;stroke-miterlimit:14.3;stroke-dasharray:none;stroke-opacity:1"
         id="path106" />
      <g
         id="g108"
         transform="scale(10)">
        <text
           xml:space="preserve"
           transform="matrix(1,0,0,-1,398,63.2)"
           style="font-variant:normal;font-weight:normal;font-size:12px;font-family:'Times New Roman';-inkscape-font-specification:Times-Roman;writing-mode:lr-tb;fill:#231f20;fill-opacity:1;fill-rule:nonzero;stroke:none"
           id="text112"><tspan
             x="0 8.004096"
             y="0"
             sodipodi:role="line"
             id="tspan110">C)</tspan></text>
      </g>
      <path
         d="m 3952.74,688.078 -79.87,1.125"
         style="fill:none;stroke:#231f20;stroke-width:5;stroke-linecap:butt;stroke-linejoin:miter;stroke-miterlimit:14.3;stroke-dasharray:none;stroke-opacity:1"
         id="path114" />
      <path
         d="m 3950.24,690.578 v -40.5"
         style="fill:none;stroke:#231f20;stroke-width:5;stroke-linecap:butt;stroke-linejoin:miter;stroke-miterlimit:14.3;stroke-dasharray:none;stroke-opacity:1"
         id="path116" />
      <g
         id="g118"
         transform="scale(10)">
        <text
           xml:space="preserve"
           transform="matrix(1,0,0,-1,348,83.2)"
           style="font-variant:normal;font-weight:normal;font-size:12px;font-family:'Times New Roman';-inkscape-font-specification:Times-Roman;writing-mode:lr-tb;fill:#231f20;fill-opacity:1;fill-rule:nonzero;stroke:none"
           id="text122"><tspan
             x="0 3.9661624"
             y="0"
             sodipodi:role="line"
             id="tspan120">(A</tspan></text>
      </g>
      <path
         d="m 3649.79,830.313 31.5,76.5"
         style="fill:none;stroke:#231f20;stroke-width:5;stroke-linecap:butt;stroke-linejoin:miter;stroke-miterlimit:14.3;stroke-dasharray:none;stroke-opacity:1"
         id="path124" />
      <path
         d="m 3681.29,906.809 31.5,-76.496"
         style="fill:none;stroke:#231f20;stroke-width:5;stroke-linecap:butt;stroke-linejoin:miter;stroke-miterlimit:14.3;stroke-dasharray:none;stroke-opacity:1"
         id="path126" />
      <g
         id="g128"
         transform="scale(10)">
        <text
           xml:space="preserve"
           transform="matrix(1,0,0,-1,376,83.2)"
           style="font-variant:normal;font-weight:normal;font-size:12px;font-family:'Times New Roman';-inkscape-font-specification:Times-Roman;writing-mode:lr-tb;fill:#231f20;fill-opacity:1;fill-rule:nonzero;stroke:none"
           id="text132"><tspan
             x="0 7.9440455"
             y="0"
             sodipodi:role="line"
             id="tspan130">B)</tspan></text>
      </g>
      <path
         d="m 3456.45,881.441 -79.88,1.125"
         style="fill:none;stroke:#231f20;stroke-width:5;stroke-linecap:butt;stroke-linejoin:miter;stroke-miterlimit:14.3;stroke-dasharray:none;stroke-opacity:1"
         id="path134" />
      <path
         d="m 3453.95,883.941 v -40.5"
         style="fill:none;stroke:#231f20;stroke-width:5;stroke-linecap:butt;stroke-linejoin:miter;stroke-miterlimit:14.3;stroke-dasharray:none;stroke-opacity:1"
         id="path136" />
      <g
         id="g138"
         transform="scale(10)">
        <text
           xml:space="preserve"
           transform="matrix(1,0,0,-1,122,115.2)"
           style="font-variant:normal;font-weight:normal;font-size:12px;font-family:'Times New Roman';-inkscape-font-specification:Times-Roman;writing-mode:lr-tb;fill:#231f20;fill-opacity:1;fill-rule:nonzero;stroke:none"
           id="text142"><tspan
             x="0"
             y="0"
             id="tspan140">A</tspan></text>
      </g>
      <path
         d="m 1339.13,1149.18 31.5,76.5"
         style="fill:none;stroke:#231f20;stroke-width:5;stroke-linecap:butt;stroke-linejoin:miter;stroke-miterlimit:14.3;stroke-dasharray:none;stroke-opacity:1"
         id="path144" />
      <path
         d="m 1370.63,1225.68 31.5,-76.5"
         style="fill:none;stroke:#231f20;stroke-width:5;stroke-linecap:butt;stroke-linejoin:miter;stroke-miterlimit:14.3;stroke-dasharray:none;stroke-opacity:1"
         id="path146" />
      <g
         id="g148"
         transform="scale(10)">
        <text
           xml:space="preserve"
           transform="matrix(1,0,0,-1,145,115.2)"
           style="font-variant:normal;font-weight:normal;font-size:12px;font-family:'Times New Roman';-inkscape-font-specification:Times-Roman;writing-mode:lr-tb;fill:#231f20;fill-opacity:1;fill-rule:nonzero;stroke:none"
           id="text154"><tspan
             x="0"
             y="0"
             id="tspan150">B</tspan><tspan
             x="84"
             y="88"
             id="tspan152">B</tspan></text>
      </g>
      <path
         d="m 2472.01,343.906 -31.5,-76.5"
         style="fill:none;stroke:#231f20;stroke-width:5;stroke-linecap:butt;stroke-linejoin:miter;stroke-miterlimit:14.3;stroke-dasharray:none;stroke-opacity:1"
         id="path156" />
      <path
         d="M 2440.5,267.414 2409,343.91"
         style="fill:none;stroke:#231f20;stroke-width:5;stroke-linecap:butt;stroke-linejoin:miter;stroke-miterlimit:14.3;stroke-dasharray:none;stroke-opacity:1"
         id="path158" />
      <g
         id="g160"
         transform="scale(10)">
        <text
           xml:space="preserve"
           transform="matrix(1,0,0,-1,261,26.2)"
           style="font-variant:normal;font-weight:normal;font-size:12px;font-family:'Times New Roman';-inkscape-font-specification:Times-Roman;writing-mode:lr-tb;fill:#231f20;fill-opacity:1;fill-rule:nonzero;stroke:none"
           id="text164"><tspan
             x="0"
             y="0"
             id="tspan162">C</tspan></text>
      </g>
      <path
         d="m 2581.25,323.816 -79.88,1.125"
         style="fill:none;stroke:#231f20;stroke-width:5;stroke-linecap:butt;stroke-linejoin:miter;stroke-miterlimit:14.3;stroke-dasharray:none;stroke-opacity:1"
         id="path166" />
      <path
         d="m 2578.75,326.316 v -40.5"
         style="fill:none;stroke:#231f20;stroke-width:5;stroke-linecap:butt;stroke-linejoin:miter;stroke-miterlimit:14.3;stroke-dasharray:none;stroke-opacity:1"
         id="path168" />
      <g
         id="g170"
         transform="scale(10)">
        <text
           xml:space="preserve"
           transform="matrix(1,0,0,-1,237,115.2)"
           style="font-variant:normal;font-weight:normal;font-size:12px;font-family:'Times New Roman';-inkscape-font-specification:Times-Roman;writing-mode:lr-tb;fill:#231f20;fill-opacity:1;fill-rule:nonzero;stroke:none"
           id="text174"><tspan
             x="0 3.9661624"
             y="0"
             sodipodi:role="line"
             id="tspan172">(A</tspan></text>
      </g>
      <path
         d="m 2540.63,1147.33 31.5,76.5"
         style="fill:none;stroke:#231f20;stroke-width:5;stroke-linecap:butt;stroke-linejoin:miter;stroke-miterlimit:14.3;stroke-dasharray:none;stroke-opacity:1"
         id="path176" />
      <path
         d="m 2572.14,1223.83 31.5,-76.5"
         style="fill:none;stroke:#231f20;stroke-width:5;stroke-linecap:butt;stroke-linejoin:miter;stroke-miterlimit:14.3;stroke-dasharray:none;stroke-opacity:1"
         id="path178" />
      <g
         id="g180"
         transform="scale(10)">
        <text
           xml:space="preserve"
           transform="matrix(1,0,0,-1,265,115.2)"
           style="font-variant:normal;font-weight:normal;font-size:12px;font-family:'Times New Roman';-inkscape-font-specification:Times-Roman;writing-mode:lr-tb;fill:#231f20;fill-opacity:1;fill-rule:nonzero;stroke:none"
           id="text184"><tspan
             x="0 7.9440455"
             y="0"
             sodipodi:role="line"
             id="tspan182">B)</tspan></text>
      </g>
      <path
         d="m 2347.29,1198.46 -79.87,1.12"
         style="fill:none;stroke:#231f20;stroke-width:5;stroke-linecap:butt;stroke-linejoin:miter;stroke-miterlimit:14.3;stroke-dasharray:none;stroke-opacity:1"
         id="path186" />
      <path
         d="m 2344.79,1200.96 v -40.5"
         style="fill:none;stroke:#231f20;stroke-width:5;stroke-linecap:butt;stroke-linejoin:miter;stroke-miterlimit:14.3;stroke-dasharray:none;stroke-opacity:1"
         id="path188" />
      <g
         id="g190"
         transform="scale(10)">
        <text
           xml:space="preserve"
           transform="matrix(1,0,0,-1,129,22.2)"
           style="font-variant:normal;font-weight:normal;font-size:12px;font-family:'Times New Roman';-inkscape-font-specification:Times-Roman;writing-mode:lr-tb;fill:#231f20;fill-opacity:1;fill-rule:nonzero;stroke:none"
           id="text194"><tspan
             x="0"
             y="0"
             id="tspan192">C</tspan></text>
      </g>
      <path
         d="m 1262.74,274.785 -79.87,1.125"
         style="fill:none;stroke:#231f20;stroke-width:5;stroke-linecap:butt;stroke-linejoin:miter;stroke-miterlimit:14.3;stroke-dasharray:none;stroke-opacity:1"
         id="path196" />
      <path
         d="m 1260.24,277.285 v -40.5"
         style="fill:none;stroke:#231f20;stroke-width:5;stroke-linecap:butt;stroke-linejoin:miter;stroke-miterlimit:14.3;stroke-dasharray:none;stroke-opacity:1"
         id="path198" />
      <g
         id="g200"
         transform="scale(10)">
        <text
           xml:space="preserve"
           transform="matrix(1,0,0,-1,112,134.2)"
           style="font-variant:normal;font-weight:normal;font-size:12px;font-family:'Times New Roman';-inkscape-font-specification:Times-Roman;writing-mode:lr-tb;fill:#231f20;fill-opacity:1;fill-rule:nonzero;stroke:none"
           id="text204"><tspan
             x="0"
             y="0"
             id="tspan202">1</tspan></text>
      </g>
      <path
         d="m 1231,1390 v 0 c 0,-49.7 -38.28,-90 -85.5,-90 -47.22,0 -85.5,40.3 -85.5,90 0,49.7 38.28,90 85.5,90 47.22,0 85.5,-40.3 85.5,-90 z"
         style="fill:none;stroke:#231f20;stroke-width:5;stroke-linecap:butt;stroke-linejoin:miter;stroke-miterlimit:14.3;stroke-dasharray:none;stroke-opacity:1"
         id="path206" />
      <g
         id="g208"
         transform="scale(10)">
        <text
           xml:space="preserve"
           transform="matrix(1,0,0,-1,213,132.2)"
           style="font-variant:normal;font-weight:normal;font-size:12px;font-family:'Times New Roman';-inkscape-font-specification:Times-Roman;writing-mode:lr-tb;fill:#231f20;fill-opacity:1;fill-rule:nonzero;stroke:none"
           id="text212"><tspan
             x="0"
             y="0"
             id="tspan210">2</tspan></text>
      </g>
      <path
         d="m 2241,1360 v 0 c 0,-49.7 -38.28,-90 -85.5,-90 -47.22,0 -85.5,40.3 -85.5,90 0,49.7 38.28,90 85.5,90 47.22,0 85.5,-40.3 85.5,-90 z"
         style="fill:none;stroke:#231f20;stroke-width:5;stroke-linecap:butt;stroke-linejoin:miter;stroke-miterlimit:14.3;stroke-dasharray:none;stroke-opacity:1"
         id="path214" />
      <g
         id="g216"
         transform="scale(10)">
        <text
           xml:space="preserve"
           transform="matrix(1,0,0,-1,138,4.2)"
           style="font-variant:normal;font-weight:normal;font-size:12px;font-family:'Times New Roman';-inkscape-font-specification:Times-Roman;writing-mode:lr-tb;fill:#231f20;fill-opacity:1;fill-rule:nonzero;stroke:none"
           id="text220"><tspan
             x="0"
             y="0"
             id="tspan218">3</tspan></text>
      </g>
      <path
         d="m 1491,90 v 0 c 0,-49.7031 -38.28,-90 -85.5,-90 -47.22,0 -85.5,40.2969 -85.5,90 0,49.703 38.28,90 85.5,90 47.22,0 85.5,-40.297 85.5,-90 z"
         style="fill:none;stroke:#231f20;stroke-width:5;stroke-linecap:butt;stroke-linejoin:miter;stroke-miterlimit:14.3;stroke-dasharray:none;stroke-opacity:1"
         id="path222" />
      <g
         id="g224"
         transform="scale(10)">
        <text
           xml:space="preserve"
           transform="matrix(1,0,0,-1,217,12.2)"
           style="font-variant:normal;font-weight:normal;font-size:12px;font-family:'Times New Roman';-inkscape-font-specification:Times-Roman;writing-mode:lr-tb;fill:#231f20;fill-opacity:1;fill-rule:nonzero;stroke:none"
           id="text228"><tspan
             x="0"
             y="0"
             id="tspan226">4</tspan></text>
      </g>
      <path
         d="m 2291,160 v 0 c 0,-49.703 -38.28,-90 -85.5,-90 -47.22,0 -85.5,40.297 -85.5,90 0,49.703 38.28,90 85.5,90 47.22,0 85.5,-40.297 85.5,-90 z"
         style="fill:none;stroke:#231f20;stroke-width:5;stroke-linecap:butt;stroke-linejoin:miter;stroke-miterlimit:14.3;stroke-dasharray:none;stroke-opacity:1"
         id="path230" />
      <g
         id="g232"
         transform="scale(10)">
        <text
           xml:space="preserve"
           transform="matrix(1,0,0,-1,336,103.2)"
           style="font-variant:normal;font-weight:normal;font-size:12px;font-family:'Times New Roman';-inkscape-font-specification:Times-Roman;writing-mode:lr-tb;fill:#231f20;fill-opacity:1;fill-rule:nonzero;stroke:none"
           id="text236"><tspan
             x="0"
             y="0"
             id="tspan234">5</tspan></text>
      </g>
      <path
         d="m 3471,1070 v 0 c 0,-49.7 -38.28,-90 -85.5,-90 -47.22,0 -85.5,40.3 -85.5,90 0,49.7 38.28,90 85.5,90 47.22,0 85.5,-40.3 85.5,-90 z"
         style="fill:none;stroke:#231f20;stroke-width:5;stroke-linecap:butt;stroke-linejoin:miter;stroke-miterlimit:14.3;stroke-dasharray:none;stroke-opacity:1"
         id="path238" />
    </g>
  </g>
</svg>
