<?xml version="1.0" encoding="UTF-8" standalone="no"?>
<!-- Created with Inkscape (http://www.inkscape.org/) -->

<svg
   version="1.1"
   id="svg2"
   width="269.33334"
   height="86.666664"
   viewBox="0 0 269.33334 86.666664"
   sodipodi:docname="fsa18.eps"
   xmlns:inkscape="http://www.inkscape.org/namespaces/inkscape"
   xmlns:sodipodi="http://sodipodi.sourceforge.net/DTD/sodipodi-0.dtd"
   xmlns="http://www.w3.org/2000/svg"
   xmlns:svg="http://www.w3.org/2000/svg">
  <defs
     id="defs6">
    <clipPath
       clipPathUnits="userSpaceOnUse"
       id="clipPath46">
      <path
         d="M 0,0 H 2020 V 650 H 0 Z m 990.949,414.086 20.161,32.125 -98.27,62.359 69.922,-66.769 -90.078,34.644 z"
         clip-rule="evenodd"
         id="path44" />
    </clipPath>
    <clipPath
       clipPathUnits="userSpaceOnUse"
       id="clipPath60">
      <path
         d="M 0,0 H 2020 V 650 H 0 Z m 526.711,305.113 -19.527,-32.125 99.527,-60.472 -70.551,64.879 90.078,-32.754 z"
         clip-rule="evenodd"
         id="path58" />
    </clipPath>
    <clipPath
       clipPathUnits="userSpaceOnUse"
       id="clipPath74">
      <path
         d="M 0,0 H 2020 V 650 H 0 Z m 1176.14,310.152 -22.05,-30.867 94.49,-68.027 -65.51,69.918 87.56,-39.684 z"
         clip-rule="evenodd"
         id="path72" />
    </clipPath>
    <clipPath
       clipPathUnits="userSpaceOnUse"
       id="clipPath88">
      <path
         d="M 0,0 H 2020 V 650 H 0 Z m 459.313,259.129 -37.165,2.519 -7.558,-115.902 25.195,92.598 11.969,-95.117 z"
         clip-rule="evenodd"
         id="path86" />
    </clipPath>
    <clipPath
       clipPathUnits="userSpaceOnUse"
       id="clipPath102">
      <path
         d="M 0,0 H 2020 V 650 H 0 Z m 1833.13,380.07 -8.19,-37.164 114.01,-24.566 -88.19,38.422 95.75,-1.258 z"
         clip-rule="evenodd"
         id="path100" />
    </clipPath>
    <clipPath
       clipPathUnits="userSpaceOnUse"
       id="clipPath116">
      <path
         d="M 0,0 H 2020 V 650 H 0 Z m 1627.15,409.676 22.05,30.863 -95.12,67.402 66.77,-70.55 -88.19,39.683 z"
         clip-rule="evenodd"
         id="path114" />
    </clipPath>
    <clipPath
       clipPathUnits="userSpaceOnUse"
       id="clipPath134">
      <path
         d="M 0,0 H 2020 V 650 H 0 Z m 356.641,334.719 v 37.793 H 240.109 l 94.485,-18.899 -94.485,-18.894 z"
         clip-rule="evenodd"
         id="path132" />
    </clipPath>
  </defs>
  <sodipodi:namedview
     id="namedview4"
     pagecolor="#ffffff"
     bordercolor="#666666"
     borderopacity="1.0"
     inkscape:showpageshadow="2"
     inkscape:pageopacity="0.0"
     inkscape:pagecheckerboard="0"
     inkscape:deskcolor="#d1d1d1" />
  <g
     id="g8"
     inkscape:groupmode="layer"
     inkscape:label="ink_ext_XXXXXX"
     transform="matrix(1.3333333,0,0,-1.3333333,0,86.666667)">
    <g
       id="g10"
       transform="scale(0.1)">
      <path
         d="m 1213.93,373.77 c 0,-61.922 -50.2,-112.122 -112.12,-112.122 -61.92,0 -112.122,50.2 -112.122,112.122 0,61.921 50.202,112.125 112.122,112.125 61.92,0 112.12,-50.204 112.12,-112.125 z"
         style="fill:none;stroke:#000000;stroke-width:4.72425;stroke-linecap:butt;stroke-linejoin:miter;stroke-miterlimit:10;stroke-dasharray:none;stroke-opacity:1"
         id="path12" />
      <path
         d="m 1182.44,373.77 c 0,-44.528 -36.1,-80.625 -80.63,-80.625 -44.52,0 -80.63,36.097 -80.63,80.625 0,44.527 36.11,80.628 80.63,80.628 44.53,0 80.63,-36.101 80.63,-80.628 z"
         style="fill:none;stroke:#000000;stroke-width:4.72425;stroke-linecap:butt;stroke-linejoin:miter;stroke-miterlimit:10;stroke-dasharray:none;stroke-opacity:1"
         id="path14" />
      <g
         id="g16"
         transform="scale(10)">
        <text
           xml:space="preserve"
           transform="matrix(1,0,0,-1,102.37,17.5352)"
           style="font-variant:normal;font-weight:bold;font-size:11.3382px;font-family:NewCenturySchlbk;-inkscape-font-specification:NewCenturySchlbk-Bold;writing-mode:lr-tb;fill:#000000;fill-opacity:1;fill-rule:nonzero;stroke:none"
           id="text20"><tspan
             x="0"
             y="0"
             id="tspan18">q</tspan></text>
        <text
           xml:space="preserve"
           transform="matrix(1,0,0,-1,112.5743,11.55122)"
           style="font-variant:normal;font-weight:bold;font-size:7.5588px;font-family:NewCenturySchlbk;-inkscape-font-specification:NewCenturySchlbk-Bold;writing-mode:lr-tb;fill:#000000;fill-opacity:1;fill-rule:nonzero;stroke:none"
           id="text24"><tspan
             x="0"
             y="0"
             id="tspan22">1</tspan></text>
        <text
           xml:space="preserve"
           transform="matrix(1,0,0,-1,167.5645,17.5352)"
           style="font-variant:normal;font-weight:bold;font-size:11.3382px;font-family:NewCenturySchlbk;-inkscape-font-specification:NewCenturySchlbk-Bold;writing-mode:lr-tb;fill:#000000;fill-opacity:1;fill-rule:nonzero;stroke:none"
           id="text28"><tspan
             x="0"
             y="0"
             id="tspan26">q</tspan></text>
        <text
           xml:space="preserve"
           transform="matrix(1,0,0,-1,177.7692,11.55122)"
           style="font-variant:normal;font-weight:bold;font-size:7.5588px;font-family:NewCenturySchlbk;-inkscape-font-specification:NewCenturySchlbk-Bold;writing-mode:lr-tb;fill:#000000;fill-opacity:1;fill-rule:nonzero;stroke:none"
           id="text34"><tspan
             x="0"
             y="0"
             id="tspan30">2</tspan><tspan
             x="-142.23199"
             y="-36.345299"
             id="tspan32">0</tspan></text>
        <text
           xml:space="preserve"
           transform="matrix(1,0,0,-1,25.3329,53.8805)"
           style="font-variant:normal;font-weight:bold;font-size:11.3382px;font-family:NewCenturySchlbk;-inkscape-font-specification:NewCenturySchlbk-Bold;writing-mode:lr-tb;fill:#000000;fill-opacity:1;fill-rule:nonzero;stroke:none"
           id="text38"><tspan
             x="0"
             y="0"
             id="tspan36">q</tspan></text>
      </g>
      <g
         id="g40">
        <g
           id="g42"
           clip-path="url(#clipPath46)">
          <path
             d="m 540.082,440.012 c 64.031,49.312 142.59,76.054 223.41,76.054 83.668,0 164.821,-28.66 229.934,-81.199"
             style="fill:none;stroke:#000000;stroke-width:4.72425;stroke-linecap:butt;stroke-linejoin:miter;stroke-miterlimit:10;stroke-dasharray:none;stroke-opacity:1"
             id="path48" />
        </g>
      </g>
      <path
         d="m 892.684,476.445 90.078,-34.644 -69.922,66.769 5.672,-25.828 -25.828,-6.297"
         style="fill:#000000;fill-opacity:1;fill-rule:evenodd;stroke:none"
         id="path50" />
      <path
         d="m 892.684,476.445 90.078,-34.644 -69.922,66.769 5.672,-25.828 z"
         style="fill:none;stroke:#000000;stroke-width:4.72425;stroke-linecap:butt;stroke-linejoin:miter;stroke-miterlimit:10;stroke-dasharray:none;stroke-opacity:1"
         id="path52" />
      <g
         id="g54">
        <g
           id="g56"
           clip-path="url(#clipPath60)">
          <path
             d="M 1007.42,312.074 C 938.973,244.34 846.559,206.344 750.262,206.344 c -81.352,0 -160.387,27.136 -224.578,77.109"
             style="fill:none;stroke:#000000;stroke-width:4.72425;stroke-linecap:butt;stroke-linejoin:miter;stroke-miterlimit:10;stroke-dasharray:none;stroke-opacity:1"
             id="path62" />
        </g>
      </g>
      <path
         d="m 626.238,244.641 -90.078,32.754 70.551,-64.879 -6.301,25.828 25.828,6.297"
         style="fill:#000000;fill-opacity:1;fill-rule:evenodd;stroke:none"
         id="path64" />
      <path
         d="m 626.238,244.641 -90.078,32.754 70.551,-64.879 -6.301,25.828 z"
         style="fill:none;stroke:#000000;stroke-width:4.72425;stroke-linecap:butt;stroke-linejoin:miter;stroke-miterlimit:10;stroke-dasharray:none;stroke-opacity:1"
         id="path66" />
      <g
         id="g68">
        <g
           id="g70"
           clip-path="url(#clipPath74)">
          <path
             d="m 1649.61,279.145 c -65.11,-55.02 -147.61,-85.211 -232.85,-85.211 -90.23,0 -177.19,33.816 -243.71,94.777"
             style="fill:none;stroke:#000000;stroke-width:4.72425;stroke-linecap:butt;stroke-linejoin:miter;stroke-miterlimit:10;stroke-dasharray:none;stroke-opacity:1"
             id="path76" />
        </g>
      </g>
      <path
         d="m 1270.63,241.492 -87.56,39.684 65.51,-69.918 -4.41,26.453 26.46,3.781"
         style="fill:#000000;fill-opacity:1;fill-rule:evenodd;stroke:none"
         id="path78" />
      <path
         d="m 1270.63,241.492 -87.56,39.684 65.51,-69.918 -4.41,26.453 z"
         style="fill:none;stroke:#000000;stroke-width:4.72425;stroke-linecap:butt;stroke-linejoin:miter;stroke-miterlimit:10;stroke-dasharray:none;stroke-opacity:1"
         id="path80" />
      <g
         id="g82">
        <g
           id="g84"
           clip-path="url(#clipPath88)">
          <path
             d="m 351.047,312.035 c -0.34,0 -0.684,0.004 -1.024,0.004 -53.816,0 -97.445,-43.629 -97.445,-97.445 0,-53.817 43.629,-97.446 97.445,-97.446 53.817,0 97.446,43.629 97.446,97.446 0,12.453 -2.391,24.797 -7.031,36.347"
             style="fill:none;stroke:#000000;stroke-width:4.72425;stroke-linecap:butt;stroke-linejoin:miter;stroke-miterlimit:10;stroke-dasharray:none;stroke-opacity:1"
             id="path90" />
        </g>
      </g>
      <path
         d="m 451.754,143.227 -11.969,95.117 -25.195,-92.598 20.156,17.637 17.008,-20.156"
         style="fill:#000000;fill-opacity:1;fill-rule:evenodd;stroke:none"
         id="path92" />
      <path
         d="m 451.754,143.227 -11.969,95.117 -25.195,-92.598 20.156,17.637 z"
         style="fill:none;stroke:#000000;stroke-width:4.72425;stroke-linecap:butt;stroke-linejoin:miter;stroke-miterlimit:10;stroke-dasharray:none;stroke-opacity:1"
         id="path94" />
      <g
         id="g96">
        <g
           id="g98"
           clip-path="url(#clipPath102)">
          <path
             d="m 1791.56,458.809 c 4.44,57.757 52.61,102.359 110.54,102.359 61.22,0 110.86,-49.637 110.86,-110.863 0,-61.227 -49.64,-110.864 -110.86,-110.864 -22.62,0 -44.7,6.922 -63.27,19.829"
             style="fill:none;stroke:#000000;stroke-width:4.72425;stroke-linecap:butt;stroke-linejoin:miter;stroke-miterlimit:10;stroke-dasharray:none;stroke-opacity:1"
             id="path104" />
        </g>
      </g>
      <path
         d="m 1946.51,355.504 -95.75,1.258 88.19,-38.422 -14.49,22.676 22.05,14.488"
         style="fill:#000000;fill-opacity:1;fill-rule:evenodd;stroke:none"
         id="path106" />
      <path
         d="m 1946.51,355.504 -95.75,1.258 88.19,-38.422 -14.49,22.676 z"
         style="fill:none;stroke:#000000;stroke-width:4.72425;stroke-linecap:butt;stroke-linejoin:miter;stroke-miterlimit:10;stroke-dasharray:none;stroke-opacity:1"
         id="path108" />
      <g
         id="g110">
        <g
           id="g112"
           clip-path="url(#clipPath116)">
          <path
             d="m 1196.32,430.473 c 59.12,54.738 136.72,85.152 217.29,85.152 80.57,0 158.18,-30.414 217.29,-85.152"
             style="fill:none;stroke:#000000;stroke-width:4.72425;stroke-linecap:butt;stroke-linejoin:miter;stroke-miterlimit:10;stroke-dasharray:none;stroke-opacity:1"
             id="path118" />
        </g>
      </g>
      <path
         d="m 1532.66,477.074 88.19,-39.683 -66.77,70.55 5.04,-26.457 -26.46,-4.41"
         style="fill:#000000;fill-opacity:1;fill-rule:evenodd;stroke:none"
         id="path120" />
      <path
         d="m 1532.66,477.074 88.19,-39.683 -66.77,70.55 5.04,-26.457 z"
         style="fill:none;stroke:#000000;stroke-width:4.72425;stroke-linecap:butt;stroke-linejoin:miter;stroke-miterlimit:10;stroke-dasharray:none;stroke-opacity:1"
         id="path122" />
      <path
         d="m 1840.05,366.844 c 0,-61.922 -50.2,-112.125 -112.12,-112.125 -61.92,0 -112.12,50.203 -112.12,112.125 0,61.922 50.2,112.121 112.12,112.121 61.92,0 112.12,-50.199 112.12,-112.121 z"
         style="fill:none;stroke:#000000;stroke-width:4.72425;stroke-linecap:butt;stroke-linejoin:miter;stroke-miterlimit:10;stroke-dasharray:none;stroke-opacity:1"
         id="path124" />
      <path
         d="m 559.469,366.211 c 0,-61.922 -50.203,-112.121 -112.125,-112.121 -61.922,0 -112.121,50.199 -112.121,112.121 0,61.922 50.199,112.125 112.121,112.125 61.922,0 112.125,-50.203 112.125,-112.125 z"
         style="fill:none;stroke:#000000;stroke-width:4.72425;stroke-linecap:butt;stroke-linejoin:miter;stroke-miterlimit:10;stroke-dasharray:none;stroke-opacity:1"
         id="path126" />
      <g
         id="g128">
        <g
           id="g130"
           clip-path="url(#clipPath134)">
          <path
             d="M 7.04297,353.613 H 347.191"
             style="fill:none;stroke:#000000;stroke-width:4.72425;stroke-linecap:butt;stroke-linejoin:miter;stroke-miterlimit:10;stroke-dasharray:none;stroke-opacity:1"
             id="path136" />
        </g>
      </g>
      <path
         d="m 240.109,334.719 94.485,18.894 -94.485,18.899 18.895,-18.899 -18.895,-18.894"
         style="fill:#000000;fill-opacity:1;fill-rule:evenodd;stroke:none"
         id="path138" />
      <path
         d="m 240.109,334.719 94.485,18.894 -94.485,18.899 18.895,-18.899 z"
         style="fill:none;stroke:#000000;stroke-width:4.72425;stroke-linecap:butt;stroke-linejoin:miter;stroke-miterlimit:10;stroke-dasharray:none;stroke-opacity:1"
         id="path140" />
      <g
         id="g142"
         transform="scale(10)">
        <text
           xml:space="preserve"
           transform="matrix(1,0,0,-1,129.141,53.3766)"
           style="font-variant:normal;font-weight:bold;font-size:11.3382px;font-family:NewCenturySchlbk;-inkscape-font-specification:NewCenturySchlbk-Bold;writing-mode:lr-tb;fill:#000000;fill-opacity:1;fill-rule:nonzero;stroke:none"
           id="text156"><tspan
             x="0"
             y="0"
             id="tspan144">b</tspan><tspan
             x="60.911301"
             y="-4.7242198"
             id="tspan146">a</tspan><tspan
             x="14.1726"
             y="31.18008"
             id="tspan148">b</tspan><tspan
             x="-65.194603"
             y="0.44097999"
             id="tspan150">a</tspan><tspan
             x="-51.9669"
             y="28.78628"
             id="tspan152">a</tspan><tspan
             x="-95.870796"
             y="53.35268"
             id="tspan154">b</tspan></text>
        <text
           xml:space="preserve"
           transform="matrix(1,0,0,-1,40.262,3.80361)"
           style="font-variant:normal;font-weight:normal;font-size:8.50365px;font-family:'Times New Roman';-inkscape-font-specification:Times-Roman;writing-mode:lr-tb;fill:#000000;fill-opacity:1;fill-rule:nonzero;stroke:none"
           id="text162"><tspan
             x="0"
             y="0"
             id="tspan158">*</tspan><tspan
             x="155.89999"
             y="-57.194901"
             id="tspan160">*</tspan></text>
      </g>
    </g>
  </g>
</svg>
