<?xml version="1.0" encoding="UTF-8" standalone="no"?>
<!-- Created with Inkscape (http://www.inkscape.org/) -->

<svg
   version="1.1"
   id="svg2"
   width="80"
   height="32"
   viewBox="0 0 80 32"
   sodipodi:docname="fsa12.eps"
   xmlns:inkscape="http://www.inkscape.org/namespaces/inkscape"
   xmlns:sodipodi="http://sodipodi.sourceforge.net/DTD/sodipodi-0.dtd"
   xmlns="http://www.w3.org/2000/svg"
   xmlns:svg="http://www.w3.org/2000/svg">
  <defs
     id="defs6">
    <clipPath
       clipPathUnits="userSpaceOnUse"
       id="clipPath20">
      <path
         d="M 0,0 H 600 V 240 H 0 Z M 366.305,92.9727 V 130.77 H 249.773 l 94.485,-18.899 -94.485,-18.8983 z"
         clip-rule="evenodd"
         id="path18" />
    </clipPath>
  </defs>
  <sodipodi:namedview
     id="namedview4"
     pagecolor="#ffffff"
     bordercolor="#666666"
     borderopacity="1.0"
     inkscape:showpageshadow="2"
     inkscape:pageopacity="0.0"
     inkscape:pagecheckerboard="0"
     inkscape:deskcolor="#d1d1d1" />
  <g
     id="g8"
     inkscape:groupmode="layer"
     inkscape:label="ink_ext_XXXXXX"
     transform="matrix(1.3333333,0,0,-1.3333333,0,32)">
    <g
       id="g10"
       transform="scale(0.1)">
      <path
         d="M 588.66,116.281 C 588.66,54.3594 538.461,4.15625 476.539,4.15625 c -61.922,0 -112.125,50.20315 -112.125,112.12475 0,61.922 50.203,112.121 112.125,112.121 61.922,0 112.121,-50.199 112.121,-112.121 z"
         style="fill:none;stroke:#000000;stroke-width:4.72425;stroke-linecap:butt;stroke-linejoin:miter;stroke-miterlimit:10;stroke-dasharray:none;stroke-opacity:1"
         id="path12" />
      <g
         id="g14">
        <g
           id="g16"
           clip-path="url(#clipPath20)">
          <path
             d="M 7.26172,111.871 H 356.855"
             style="fill:none;stroke:#000000;stroke-width:4.72425;stroke-linecap:butt;stroke-linejoin:miter;stroke-miterlimit:10;stroke-dasharray:none;stroke-opacity:1"
             id="path22" />
        </g>
      </g>
      <path
         d="m 249.773,92.9727 94.485,18.8983 -94.485,18.899 18.899,-18.899 -18.899,-18.8983"
         style="fill:#000000;fill-opacity:1;fill-rule:evenodd;stroke:none"
         id="path24" />
      <path
         d="m 249.773,92.9727 94.485,18.8983 -94.485,18.899 18.899,-18.899 z"
         style="fill:none;stroke:#000000;stroke-width:4.72425;stroke-linecap:butt;stroke-linejoin:miter;stroke-miterlimit:10;stroke-dasharray:none;stroke-opacity:1"
         id="path26" />
    </g>
  </g>
</svg>
