<?xml version="1.0" encoding="UTF-8" standalone="no"?>
<!-- Created with Inkscape (http://www.inkscape.org/) -->

<svg
   version="1.1"
   id="svg2"
   width="201.33333"
   height="113.33333"
   viewBox="0 0 201.33333 113.33333"
   sodipodi:docname="fsa20.eps"
   xmlns:inkscape="http://www.inkscape.org/namespaces/inkscape"
   xmlns:sodipodi="http://sodipodi.sourceforge.net/DTD/sodipodi-0.dtd"
   xmlns="http://www.w3.org/2000/svg"
   xmlns:svg="http://www.w3.org/2000/svg">
  <defs
     id="defs6">
    <clipPath
       clipPathUnits="userSpaceOnUse"
       id="clipPath38">
      <path
         d="M 0,0 H 1510 V 850 H 0 Z m 990.949,471.086 20.161,32.125 -98.27,62.359 69.922,-66.769 -90.078,34.644 z"
         clip-rule="evenodd"
         id="path36" />
    </clipPath>
    <clipPath
       clipPathUnits="userSpaceOnUse"
       id="clipPath52">
      <path
         d="M 0,0 H 1510 V 850 H 0 Z m 459.313,316.129 -37.165,2.519 -7.558,-115.902 25.195,92.598 11.969,-95.117 z"
         clip-rule="evenodd"
         id="path50" />
    </clipPath>
    <clipPath
       clipPathUnits="userSpaceOnUse"
       id="clipPath66">
      <path
         d="M 0,0 H 1510 V 850 H 0 Z m 1198.19,490.613 6.29,-37.797 114.65,18.899 -95.75,3.148 90.08,34.645 z"
         clip-rule="evenodd"
         id="path64" />
    </clipPath>
    <clipPath
       clipPathUnits="userSpaceOnUse"
       id="clipPath80">
      <path
         d="M 0,0 H 1510 V 850 H 0 Z m 1065.91,319.277 -31.5,21.418 -64.25,-97.632 68.03,68.027 -36.53,-88.817 z"
         clip-rule="evenodd"
         id="path78" />
    </clipPath>
    <clipPath
       clipPathUnits="userSpaceOnUse"
       id="clipPath96">
      <path
         d="M 0,0 H 1510 V 850 H 0 Z m 356.641,391.719 v 37.793 H 240.109 l 94.485,-18.899 -94.485,-18.894 z"
         clip-rule="evenodd"
         id="path94" />
    </clipPath>
  </defs>
  <sodipodi:namedview
     id="namedview4"
     pagecolor="#ffffff"
     bordercolor="#666666"
     borderopacity="1.0"
     inkscape:showpageshadow="2"
     inkscape:pageopacity="0.0"
     inkscape:pagecheckerboard="0"
     inkscape:deskcolor="#d1d1d1" />
  <g
     id="g8"
     inkscape:groupmode="layer"
     inkscape:label="ink_ext_XXXXXX"
     transform="matrix(1.3333333,0,0,-1.3333333,0,113.33333)">
    <g
       id="g10"
       transform="scale(0.1)">
      <path
         d="m 1213.93,430.77 c 0,-61.922 -50.2,-112.122 -112.12,-112.122 -61.92,0 -112.122,50.2 -112.122,112.122 0,61.921 50.202,112.125 112.122,112.125 61.92,0 112.12,-50.204 112.12,-112.125 z"
         style="fill:none;stroke:#000000;stroke-width:4.72425;stroke-linecap:butt;stroke-linejoin:miter;stroke-miterlimit:10;stroke-dasharray:none;stroke-opacity:1"
         id="path12" />
      <path
         d="m 1182.44,430.77 c 0,-44.528 -36.1,-80.625 -80.63,-80.625 -44.52,0 -80.63,36.097 -80.63,80.625 0,44.527 36.11,80.628 80.63,80.628 44.53,0 80.63,-36.101 80.63,-80.628 z"
         style="fill:none;stroke:#000000;stroke-width:4.72425;stroke-linecap:butt;stroke-linejoin:miter;stroke-miterlimit:10;stroke-dasharray:none;stroke-opacity:1"
         id="path14" />
      <g
         id="g16"
         transform="scale(10)">
        <text
           xml:space="preserve"
           transform="matrix(1,0,0,-1,127.692,3.83438)"
           style="font-variant:normal;font-weight:normal;font-size:8.50365px;font-family:'Times New Roman';-inkscape-font-specification:Times-Roman;writing-mode:lr-tb;fill:#000000;fill-opacity:1;fill-rule:nonzero;stroke:none"
           id="text20"><tspan
             x="0"
             y="0"
             id="tspan18">*</tspan></text>
        <text
           xml:space="preserve"
           transform="matrix(1,0,0,-1,115.4092,-0.0082)"
           style="font-variant:normal;font-weight:bold;font-size:11.3382px;font-family:NewCenturySchlbk;-inkscape-font-specification:NewCenturySchlbk-Bold;writing-mode:lr-tb;fill:#000000;fill-opacity:1;fill-rule:nonzero;stroke:none"
           id="text26"><tspan
             x="0 6.9276404 14.274794 17.528856"
             y="0"
             sodipodi:role="line"
             id="tspan22">ab a</tspan><tspan
             x="10.3934 17.740553 24.668194 27.922256"
             y="-74.7062"
             sodipodi:role="line"
             id="tspan24">ba b</tspan></text>
        <text
           xml:space="preserve"
           transform="matrix(1,0,0,-1,138.5264,78.4773)"
           style="font-variant:normal;font-weight:normal;font-size:8.50365px;font-family:'Times New Roman';-inkscape-font-specification:Times-Roman;writing-mode:lr-tb;fill:#000000;fill-opacity:1;fill-rule:nonzero;stroke:none"
           id="text30"><tspan
             x="0"
             y="0"
             id="tspan28">*</tspan></text>
      </g>
      <g
         id="g32">
        <g
           id="g34"
           clip-path="url(#clipPath38)">
          <path
             d="m 540.082,497.012 c 64.031,49.312 142.59,76.054 223.41,76.054 83.668,0 164.821,-28.66 229.934,-81.199"
             style="fill:none;stroke:#000000;stroke-width:4.72425;stroke-linecap:butt;stroke-linejoin:miter;stroke-miterlimit:10;stroke-dasharray:none;stroke-opacity:1"
             id="path40" />
        </g>
      </g>
      <path
         d="m 892.684,533.445 90.078,-34.644 -69.922,66.769 5.672,-25.828 -25.828,-6.297"
         style="fill:#000000;fill-opacity:1;fill-rule:evenodd;stroke:none"
         id="path42" />
      <path
         d="m 892.684,533.445 90.078,-34.644 -69.922,66.769 5.672,-25.828 z"
         style="fill:none;stroke:#000000;stroke-width:4.72425;stroke-linecap:butt;stroke-linejoin:miter;stroke-miterlimit:10;stroke-dasharray:none;stroke-opacity:1"
         id="path44" />
      <g
         id="g46">
        <g
           id="g48"
           clip-path="url(#clipPath52)">
          <path
             d="m 351.047,369.035 c -0.34,0 -0.684,0.004 -1.024,0.004 -53.816,0 -97.445,-43.629 -97.445,-97.445 0,-53.817 43.629,-97.446 97.445,-97.446 53.817,0 97.446,43.629 97.446,97.446 0,12.453 -2.391,24.797 -7.031,36.347"
             style="fill:none;stroke:#000000;stroke-width:4.72425;stroke-linecap:butt;stroke-linejoin:miter;stroke-miterlimit:10;stroke-dasharray:none;stroke-opacity:1"
             id="path54" />
        </g>
      </g>
      <path
         d="m 451.754,200.227 -11.969,95.117 -25.195,-92.598 20.156,17.637 17.008,-20.156"
         style="fill:#000000;fill-opacity:1;fill-rule:evenodd;stroke:none"
         id="path56" />
      <path
         d="m 451.754,200.227 -11.969,95.117 -25.195,-92.598 20.156,17.637 z"
         style="fill:none;stroke:#000000;stroke-width:4.72425;stroke-linecap:butt;stroke-linejoin:miter;stroke-miterlimit:10;stroke-dasharray:none;stroke-opacity:1"
         id="path58" />
      <g
         id="g60">
        <g
           id="g62"
           clip-path="url(#clipPath66)">
          <path
             d="m 1111.27,544.047 c -10.22,19.48 -15.57,41.16 -15.57,63.16 0,75.035 60.84,135.867 135.87,135.867 75.04,0 135.87,-60.832 135.87,-135.867 0,-75.035 -60.83,-135.871 -135.87,-135.871 -6.96,0 -13.91,0.539 -20.78,1.602"
             style="fill:none;stroke:#000000;stroke-width:4.72425;stroke-linecap:butt;stroke-linejoin:miter;stroke-miterlimit:10;stroke-dasharray:none;stroke-opacity:1"
             id="path68" />
        </g>
      </g>
      <path
         d="m 1313.46,509.508 -90.08,-34.645 95.75,-3.148 -21.42,15.746 15.75,22.047"
         style="fill:#000000;fill-opacity:1;fill-rule:evenodd;stroke:none"
         id="path70" />
      <path
         d="m 1313.46,509.508 -90.08,-34.645 95.75,-3.148 -21.42,15.746 z"
         style="fill:none;stroke:#000000;stroke-width:4.72425;stroke-linecap:butt;stroke-linejoin:miter;stroke-miterlimit:10;stroke-dasharray:none;stroke-opacity:1"
         id="path72" />
      <g
         id="g74">
        <g
           id="g76"
           clip-path="url(#clipPath80)">
          <path
             d="m 1177.31,340.762 c 51.05,-20.317 84.56,-69.715 84.56,-124.66 0,-74.098 -60.07,-134.1684 -134.17,-134.1684 -74.1,0 -134.169,60.0704 -134.169,134.1684 0,41.296 19.019,80.3 51.569,105.726"
             style="fill:none;stroke:#000000;stroke-width:4.72425;stroke-linecap:butt;stroke-linejoin:miter;stroke-miterlimit:10;stroke-dasharray:none;stroke-opacity:1"
             id="path82" />
        </g>
      </g>
      <path
         d="m 1001.66,222.273 36.53,88.817 -68.03,-68.027 25.828,5.667 5.672,-26.457"
         style="fill:#000000;fill-opacity:1;fill-rule:evenodd;stroke:none"
         id="path84" />
      <path
         d="m 1001.66,222.273 36.53,88.817 -68.03,-68.027 25.828,5.667 z"
         style="fill:none;stroke:#000000;stroke-width:4.72425;stroke-linecap:butt;stroke-linejoin:miter;stroke-miterlimit:10;stroke-dasharray:none;stroke-opacity:1"
         id="path86" />
      <path
         d="m 559.469,423.211 c 0,-61.922 -50.203,-112.121 -112.125,-112.121 -61.922,0 -112.121,50.199 -112.121,112.121 0,61.922 50.199,112.125 112.121,112.125 61.922,0 112.125,-50.203 112.125,-112.125 z"
         style="fill:none;stroke:#000000;stroke-width:4.72425;stroke-linecap:butt;stroke-linejoin:miter;stroke-miterlimit:10;stroke-dasharray:none;stroke-opacity:1"
         id="path88" />
      <g
         id="g90">
        <g
           id="g92"
           clip-path="url(#clipPath96)">
          <path
             d="M 7.04297,410.613 H 347.191"
             style="fill:none;stroke:#000000;stroke-width:4.72425;stroke-linecap:butt;stroke-linejoin:miter;stroke-miterlimit:10;stroke-dasharray:none;stroke-opacity:1"
             id="path98" />
        </g>
      </g>
      <path
         d="m 240.109,391.719 94.485,18.894 -94.485,18.899 18.895,-18.899 -18.895,-18.894"
         style="fill:#000000;fill-opacity:1;fill-rule:evenodd;stroke:none"
         id="path100" />
      <path
         d="m 240.109,391.719 94.485,18.894 -94.485,18.899 18.895,-18.899 z"
         style="fill:none;stroke:#000000;stroke-width:4.72425;stroke-linecap:butt;stroke-linejoin:miter;stroke-miterlimit:10;stroke-dasharray:none;stroke-opacity:1"
         id="path102" />
      <g
         id="g104"
         transform="scale(10)">
        <text
           xml:space="preserve"
           transform="matrix(1,0,0,-1,63.9465,58.6355)"
           style="font-variant:normal;font-weight:bold;font-size:11.3382px;font-family:NewCenturySchlbk;-inkscape-font-specification:NewCenturySchlbk-Bold;writing-mode:lr-tb;fill:#000000;fill-opacity:1;fill-rule:nonzero;stroke:none"
           id="text110"><tspan
             x="0"
             y="0"
             id="tspan106">a</tspan><tspan
             x="-30.676201"
             y="52.911701"
             id="tspan108">b</tspan></text>
        <text
           xml:space="preserve"
           transform="matrix(1,0,0,-1,40.2621,9.50349)"
           style="font-variant:normal;font-weight:normal;font-size:8.50365px;font-family:'Times New Roman';-inkscape-font-specification:Times-Roman;writing-mode:lr-tb;fill:#000000;fill-opacity:1;fill-rule:nonzero;stroke:none"
           id="text114"><tspan
             x="0"
             y="0"
             id="tspan112">*</tspan></text>
      </g>
    </g>
  </g>
</svg>
