<?xml version="1.0" encoding="UTF-8" standalone="no"?>
<!-- Created with Inkscape (http://www.inkscape.org/) -->

<svg
   version="1.1"
   id="svg2"
   width="254.66667"
   height="117.33333"
   viewBox="0 0 254.66667 117.33333"
   sodipodi:docname="fsa3ex.eps"
   xmlns:inkscape="http://www.inkscape.org/namespaces/inkscape"
   xmlns:sodipodi="http://sodipodi.sourceforge.net/DTD/sodipodi-0.dtd"
   xmlns="http://www.w3.org/2000/svg"
   xmlns:svg="http://www.w3.org/2000/svg">
  <defs
     id="defs6">
    <clipPath
       clipPathUnits="userSpaceOnUse"
       id="clipPath26">
      <path
         d="M 0,0 H 1910 V 880 H 0 Z m 1598.16,637.531 -22.05,-30.863 95.12,-67.398 -66.14,69.918 87.55,-39.055 z"
         clip-rule="evenodd"
         id="path24" />
    </clipPath>
    <clipPath
       clipPathUnits="userSpaceOnUse"
       id="clipPath40">
      <path
         d="M 0,0 H 1910 V 880 H 0 Z m 1607.61,103.379 -22.05,-30.8673 95.12,-67.39842 -66.14,69.91802 87.55,-39.0547 z"
         clip-rule="evenodd"
         id="path38" />
    </clipPath>
    <clipPath
       clipPathUnits="userSpaceOnUse"
       id="clipPath54">
      <path
         d="M 0,0 H 1910 V 880 H 0 Z m 420.879,502.105 30.863,-22.046 67.399,95.113 -69.918,-66.77 39.054,88.188 z"
         clip-rule="evenodd"
         id="path52" />
    </clipPath>
    <clipPath
       clipPathUnits="userSpaceOnUse"
       id="clipPath74">
      <path
         d="M 0,0 H 1910 V 880 H 0 Z m 295.527,403.84 v 37.793 H 178.996 L 273.48,422.738 178.996,403.84 Z"
         clip-rule="evenodd"
         id="path72" />
    </clipPath>
    <clipPath
       clipPathUnits="userSpaceOnUse"
       id="clipPath88">
      <path
         d="M 0,0 H 1910 V 880 H 0 Z m 822.754,637.531 -17.637,33.387 -103.304,-54.172 92.593,27.086 -74.957,-60.469 z"
         clip-rule="evenodd"
         id="path86" />
    </clipPath>
    <clipPath
       clipPathUnits="userSpaceOnUse"
       id="clipPath102">
      <path
         d="M 0,0 H 1910 V 880 H 0 Z m 810.785,175.188 16.379,34.011 -105.195,49.762 77.48,-57.949 -93.855,23.308 z"
         clip-rule="evenodd"
         id="path100" />
    </clipPath>
    <clipPath
       clipPathUnits="userSpaceOnUse"
       id="clipPath116">
      <path
         d="M 0,0 H 1910 V 880 H 0 Z m 1406.04,663.359 v 37.793 h -116.53 l 94.49,-18.898 -94.49,-18.895 z"
         clip-rule="evenodd"
         id="path114" />
    </clipPath>
    <clipPath
       clipPathUnits="userSpaceOnUse"
       id="clipPath130">
      <path
         d="M 0,0 H 1910 V 880 H 0 Z m 1410.45,139.281 v 37.793 h -116.53 l 94.48,-18.894 -94.48,-18.899 z"
         clip-rule="evenodd"
         id="path128" />
    </clipPath>
  </defs>
  <sodipodi:namedview
     id="namedview4"
     pagecolor="#ffffff"
     bordercolor="#666666"
     borderopacity="1.0"
     inkscape:showpageshadow="2"
     inkscape:pageopacity="0.0"
     inkscape:pagecheckerboard="0"
     inkscape:deskcolor="#d1d1d1" />
  <g
     id="g8"
     inkscape:groupmode="layer"
     inkscape:label="ink_ext_XXXXXX"
     transform="matrix(1.3333333,0,0,-1.3333333,0,117.33333)">
    <g
       id="g10"
       transform="scale(0.1)">
      <path
         d="m 1612.65,674.066 c 0,-56.703 -46.26,-102.671 -103.31,-102.671 -57.05,0 -103.3,45.968 -103.3,102.671 0,56.704 46.25,102.676 103.3,102.676 57.05,0 103.31,-45.972 103.31,-102.676 z"
         style="fill:none;stroke:#000000;stroke-width:4.72425;stroke-linecap:butt;stroke-linejoin:miter;stroke-miterlimit:10;stroke-dasharray:none;stroke-opacity:1"
         id="path12" />
      <path
         d="m 1583.67,674.066 c 0,-41.046 -33.28,-74.328 -74.33,-74.328 -41.04,0 -74.32,33.282 -74.32,74.328 0,41.047 33.28,74.329 74.32,74.329 41.05,0 74.33,-33.282 74.33,-74.329 z"
         style="fill:none;stroke:#000000;stroke-width:4.72425;stroke-linecap:butt;stroke-linejoin:miter;stroke-miterlimit:10;stroke-dasharray:none;stroke-opacity:1"
         id="path14" />
      <path
         d="m 1612.65,142.43 c 0,-56.7034 -46.26,-102.6722 -103.31,-102.6722 -57.05,0 -103.3,45.9688 -103.3,102.6722 0,56.703 46.25,102.675 103.3,102.675 57.05,0 103.31,-45.972 103.31,-102.675 z"
         style="fill:none;stroke:#000000;stroke-width:4.72425;stroke-linecap:butt;stroke-linejoin:miter;stroke-miterlimit:10;stroke-dasharray:none;stroke-opacity:1"
         id="path16" />
      <path
         d="m 1583.67,142.43 c 0,-41.047 -33.28,-74.3284 -74.33,-74.3284 -41.04,0 -74.32,33.2814 -74.32,74.3284 0,41.047 33.28,74.328 74.32,74.328 41.05,0 74.33,-33.281 74.33,-74.328 z"
         style="fill:none;stroke:#000000;stroke-width:4.72425;stroke-linecap:butt;stroke-linejoin:miter;stroke-miterlimit:10;stroke-dasharray:none;stroke-opacity:1"
         id="path18" />
      <g
         id="g20">
        <g
           id="g22"
           clip-path="url(#clipPath26)">
          <path
             d="m 1599.38,738.895 c 20.73,28.636 53.94,45.593 89.3,45.593 60.87,0 110.23,-49.351 110.23,-110.23 0,-60.879 -49.36,-110.235 -110.23,-110.235 -38.15,0 -73.59,19.727 -93.69,52.145"
             style="fill:none;stroke:#000000;stroke-width:4.72425;stroke-linecap:butt;stroke-linejoin:miter;stroke-miterlimit:10;stroke-dasharray:none;stroke-opacity:1"
             id="path28" />
        </g>
      </g>
      <path
         d="m 1692.64,570.133 -87.55,39.055 66.14,-69.918 -5.04,26.453 26.45,4.41"
         style="fill:#000000;fill-opacity:1;fill-rule:evenodd;stroke:none"
         id="path30" />
      <path
         d="m 1692.64,570.133 -87.55,39.055 66.14,-69.918 -5.04,26.453 z"
         style="fill:none;stroke:#000000;stroke-width:4.72425;stroke-linecap:butt;stroke-linejoin:miter;stroke-miterlimit:10;stroke-dasharray:none;stroke-opacity:1"
         id="path32" />
      <g
         id="g34">
        <g
           id="g36"
           clip-path="url(#clipPath40)">
          <path
             d="m 1608.83,204.738 c 20.73,28.637 53.94,45.594 89.3,45.594 60.87,0 110.23,-49.352 110.23,-110.23 0,-60.8793 -49.36,-110.2348 -110.23,-110.2348 -38.15,0 -73.59,19.7266 -93.69,52.1445"
             style="fill:none;stroke:#000000;stroke-width:4.72425;stroke-linecap:butt;stroke-linejoin:miter;stroke-miterlimit:10;stroke-dasharray:none;stroke-opacity:1"
             id="path42" />
        </g>
      </g>
      <path
         d="m 1702.09,35.9766 -87.55,39.0547 66.14,-69.91802 -5.04,26.45702 26.45,4.4063"
         style="fill:#000000;fill-opacity:1;fill-rule:evenodd;stroke:none"
         id="path44" />
      <path
         d="m 1702.09,35.9766 -87.55,39.0547 66.14,-69.91802 -5.04,26.45702 z"
         style="fill:none;stroke:#000000;stroke-width:4.72425;stroke-linecap:butt;stroke-linejoin:miter;stroke-miterlimit:10;stroke-dasharray:none;stroke-opacity:1"
         id="path46" />
      <g
         id="g48">
        <g
           id="g50"
           clip-path="url(#clipPath54)">
          <path
             d="m 319.43,502.789 c -28.356,20.676 -45.129,53.664 -45.129,88.762 0,60.668 49.183,109.855 109.851,109.855 60.668,0 109.856,-49.187 109.856,-109.855 0,-37.946 -19.586,-73.215 -51.801,-93.266"
             style="fill:none;stroke:#000000;stroke-width:4.72425;stroke-linecap:butt;stroke-linejoin:miter;stroke-miterlimit:10;stroke-dasharray:none;stroke-opacity:1"
             id="path56" />
        </g>
      </g>
      <path
         d="m 488.277,596.59 -39.054,-88.188 69.918,66.77 -26.453,-5.039 -4.411,26.457"
         style="fill:#000000;fill-opacity:1;fill-rule:evenodd;stroke:none"
         id="path58" />
      <path
         d="m 488.277,596.59 -39.054,-88.188 69.918,66.77 -26.453,-5.039 z"
         style="fill:none;stroke:#000000;stroke-width:4.72425;stroke-linecap:butt;stroke-linejoin:miter;stroke-miterlimit:10;stroke-dasharray:none;stroke-opacity:1"
         id="path60" />
      <path
         d="m 1018.02,168.887 c 0,-56.703 -46.25,-102.6722 -103.301,-102.6722 -57.051,0 -103.305,45.9692 -103.305,102.6722 0,56.703 46.254,102.676 103.305,102.676 57.051,0 103.301,-45.973 103.301,-102.676 z"
         style="fill:none;stroke:#000000;stroke-width:4.72425;stroke-linecap:butt;stroke-linejoin:miter;stroke-miterlimit:10;stroke-dasharray:none;stroke-opacity:1"
         id="path62" />
      <path
         d="m 1018.02,679.105 c 0,-56.703 -46.25,-102.671 -103.301,-102.671 -57.051,0 -103.305,45.968 -103.305,102.671 0,56.704 46.254,102.676 103.305,102.676 57.051,0 103.301,-45.972 103.301,-102.676 z"
         style="fill:none;stroke:#000000;stroke-width:4.72425;stroke-linecap:butt;stroke-linejoin:miter;stroke-miterlimit:10;stroke-dasharray:none;stroke-opacity:1"
         id="path64" />
      <path
         d="m 493.316,419.586 c 0,-56.703 -46.253,-102.672 -103.304,-102.672 -57.051,0 -103.305,45.969 -103.305,102.672 0,56.703 46.254,102.676 103.305,102.676 57.051,0 103.304,-45.973 103.304,-102.676 z"
         style="fill:none;stroke:#000000;stroke-width:4.72425;stroke-linecap:butt;stroke-linejoin:miter;stroke-miterlimit:10;stroke-dasharray:none;stroke-opacity:1"
         id="path66" />
      <g
         id="g68">
        <g
           id="g70"
           clip-path="url(#clipPath74)">
          <path
             d="M 7.66406,422.738 H 286.078"
             style="fill:none;stroke:#000000;stroke-width:4.72425;stroke-linecap:butt;stroke-linejoin:miter;stroke-miterlimit:10;stroke-dasharray:none;stroke-opacity:1"
             id="path76" />
        </g>
      </g>
      <path
         d="m 178.996,403.84 94.484,18.898 -94.484,18.895 18.899,-18.895 -18.899,-18.898"
         style="fill:#000000;fill-opacity:1;fill-rule:evenodd;stroke:none"
         id="path78" />
      <path
         d="m 178.996,403.84 94.484,18.898 -94.484,18.895 18.899,-18.895 z"
         style="fill:none;stroke:#000000;stroke-width:4.72425;stroke-linecap:butt;stroke-linejoin:miter;stroke-miterlimit:10;stroke-dasharray:none;stroke-opacity:1"
         id="path80" />
      <g
         id="g82">
        <g
           id="g84"
           clip-path="url(#clipPath88)">
          <path
             d="M 475.047,474.391 805.746,649.5"
             style="fill:none;stroke:#000000;stroke-width:4.72425;stroke-linecap:butt;stroke-linejoin:miter;stroke-miterlimit:10;stroke-dasharray:none;stroke-opacity:1"
             id="path90" />
        </g>
      </g>
      <path
         d="m 719.449,583.363 74.957,60.469 -92.593,-27.086 25.195,-8.187 -7.559,-25.196"
         style="fill:#000000;fill-opacity:1;fill-rule:evenodd;stroke:none"
         id="path92" />
      <path
         d="m 719.449,583.363 74.957,60.469 -92.593,-27.086 25.195,-8.187 z"
         style="fill:none;stroke:#000000;stroke-width:4.72425;stroke-linecap:butt;stroke-linejoin:miter;stroke-miterlimit:10;stroke-dasharray:none;stroke-opacity:1"
         id="path94" />
      <g
         id="g96">
        <g
           id="g98"
           clip-path="url(#clipPath102)">
          <path
             d="M 470.641,356.598 810.785,195.973"
             style="fill:none;stroke:#000000;stroke-width:4.72425;stroke-linecap:butt;stroke-linejoin:miter;stroke-miterlimit:10;stroke-dasharray:none;stroke-opacity:1"
             id="path104" />
        </g>
      </g>
      <path
         d="m 705.594,224.32 93.855,-23.308 -77.48,57.949 8.82,-25.195 -25.195,-9.446"
         style="fill:#000000;fill-opacity:1;fill-rule:evenodd;stroke:none"
         id="path106" />
      <path
         d="m 705.594,224.32 93.855,-23.308 -77.48,57.949 8.82,-25.195 z"
         style="fill:none;stroke:#000000;stroke-width:4.72425;stroke-linecap:butt;stroke-linejoin:miter;stroke-miterlimit:10;stroke-dasharray:none;stroke-opacity:1"
         id="path108" />
      <g
         id="g110">
        <g
           id="g112"
           clip-path="url(#clipPath116)">
          <path
             d="m 1018.65,682.254 h 377.94"
             style="fill:none;stroke:#000000;stroke-width:4.72425;stroke-linecap:butt;stroke-linejoin:miter;stroke-miterlimit:10;stroke-dasharray:none;stroke-opacity:1"
             id="path118" />
        </g>
      </g>
      <path
         d="m 1289.51,663.359 94.49,18.895 -94.49,18.898 18.9,-18.898 -18.9,-18.895"
         style="fill:#000000;fill-opacity:1;fill-rule:evenodd;stroke:none"
         id="path120" />
      <path
         d="m 1289.51,663.359 94.49,18.895 -94.49,18.898 18.9,-18.898 z"
         style="fill:none;stroke:#000000;stroke-width:4.72425;stroke-linecap:butt;stroke-linejoin:miter;stroke-miterlimit:10;stroke-dasharray:none;stroke-opacity:1"
         id="path122" />
      <g
         id="g124">
        <g
           id="g126"
           clip-path="url(#clipPath130)">
          <path
             d="M 1023.06,158.18 H 1401"
             style="fill:none;stroke:#000000;stroke-width:4.72425;stroke-linecap:butt;stroke-linejoin:miter;stroke-miterlimit:10;stroke-dasharray:none;stroke-opacity:1"
             id="path132" />
        </g>
      </g>
      <path
         d="m 1293.92,139.281 94.48,18.899 -94.48,18.894 18.9,-18.894 -18.9,-18.899"
         style="fill:#000000;fill-opacity:1;fill-rule:evenodd;stroke:none"
         id="path134" />
      <path
         d="m 1293.92,139.281 94.48,18.899 -94.48,18.894 18.9,-18.894 z"
         style="fill:none;stroke:#000000;stroke-width:4.72425;stroke-linecap:butt;stroke-linejoin:miter;stroke-miterlimit:10;stroke-dasharray:none;stroke-opacity:1"
         id="path136" />
      <g
         id="g138"
         transform="scale(10)">
        <text
           xml:space="preserve"
           transform="matrix(1,0,0,-1,170.336,80.5086)"
           style="font-variant:normal;font-weight:bold;font-size:8.50365px;font-family:NewCenturySchlbk;-inkscape-font-specification:NewCenturySchlbk-Bold;writing-mode:lr-tb;fill:#000000;fill-opacity:1;fill-rule:nonzero;stroke:none"
           id="text154"><tspan
             x="0 5.1957302 7.5597448"
             y="0"
             sodipodi:role="line"
             id="tspan140">a,b</tspan><tspan
             x="5.6691399 10.86487 13.228885"
             y="55.746101"
             sodipodi:role="line"
             id="tspan142">a,b</tspan><tspan
             x="-115.27186"
             y="57.635941"
             id="tspan144">b</tspan><tspan
             x="-60.470661"
             y="10.39334"
             id="tspan146">a</tspan><tspan
             x="-58.076908"
             y="63.305038"
             id="tspan148">b</tspan><tspan
             x="-147.90071 -142.70499 -140.34096"
             y="9.4484396"
             sodipodi:role="line"
             id="tspan150">a,b</tspan><tspan
             x="-110.98861"
             y="33.951542"
             id="tspan152">a</tspan></text>
      </g>
    </g>
  </g>
</svg>
