<?xml version="1.0" encoding="UTF-8" standalone="no"?>
<!-- Created with Inkscape (http://www.inkscape.org/) -->

<svg
   version="1.1"
   id="svg2"
   width="410.66666"
   height="85.333336"
   viewBox="0 0 410.66666 85.333336"
   sodipodi:docname="fsa9.eps"
   xmlns:inkscape="http://www.inkscape.org/namespaces/inkscape"
   xmlns:sodipodi="http://sodipodi.sourceforge.net/DTD/sodipodi-0.dtd"
   xmlns="http://www.w3.org/2000/svg"
   xmlns:svg="http://www.w3.org/2000/svg">
  <defs
     id="defs6">
    <clipPath
       clipPathUnits="userSpaceOnUse"
       id="clipPath22">
      <path
         d="M 0,0 H 3080 V 640 H 0 Z m 597.637,355.168 21.414,-31.496 95.746,65.512 -88.188,-37.797 67.399,69.289 z"
         clip-rule="evenodd"
         id="path20" />
    </clipPath>
    <clipPath
       clipPathUnits="userSpaceOnUse"
       id="clipPath42">
      <path
         d="M 0,0 H 3080 V 640 H 0 Z M 413.703,249.973 V 287.77 H 297.172 l 94.484,-18.899 -94.484,-18.898 z"
         clip-rule="evenodd"
         id="path40" />
    </clipPath>
    <clipPath
       clipPathUnits="userSpaceOnUse"
       id="clipPath56">
      <path
         d="M 0,0 H 3080 V 640 H 0 Z M 1179.03,249.973 V 287.77 H 1062.5 l 94.48,-18.899 -94.48,-18.898 z"
         clip-rule="evenodd"
         id="path54" />
    </clipPath>
    <clipPath
       clipPathUnits="userSpaceOnUse"
       id="clipPath70">
      <path
         d="M 0,0 H 3080 V 640 H 0 Z m 2048.29,255.012 v 37.797 h -116.53 l 94.49,-18.899 -94.49,-18.898 z"
         clip-rule="evenodd"
         id="path68" />
    </clipPath>
    <clipPath
       clipPathUnits="userSpaceOnUse"
       id="clipPath84">
      <path
         d="M 0,0 H 3080 V 640 H 0 Z m 2841.97,259.422 v 37.793 h -116.53 l 94.48,-18.895 -94.48,-18.898 z"
         clip-rule="evenodd"
         id="path82" />
    </clipPath>
  </defs>
  <sodipodi:namedview
     id="namedview4"
     pagecolor="#ffffff"
     bordercolor="#666666"
     borderopacity="1.0"
     inkscape:showpageshadow="2"
     inkscape:pageopacity="0.0"
     inkscape:pagecheckerboard="0"
     inkscape:deskcolor="#d1d1d1" />
  <g
     id="g8"
     inkscape:groupmode="layer"
     inkscape:label="ink_ext_XXXXXX"
     transform="matrix(1.3333333,0,0,-1.3333333,0,85.333333)">
    <g
       id="g10"
       transform="scale(0.1)">
      <path
         d="m 3068.73,282.098 c 0,-61.922 -50.2,-112.121 -112.12,-112.121 -61.92,0 -112.12,50.199 -112.12,112.121 0,61.922 50.2,112.125 112.12,112.125 61.92,0 112.12,-50.203 112.12,-112.125 z"
         style="fill:none;stroke:#000000;stroke-width:4.72425;stroke-linecap:butt;stroke-linejoin:miter;stroke-miterlimit:10;stroke-dasharray:none;stroke-opacity:1"
         id="path12" />
      <path
         d="m 3037.24,282.098 c 0,-44.528 -36.1,-80.625 -80.63,-80.625 -44.53,0 -80.63,36.097 -80.63,80.625 0,44.527 36.1,80.629 80.63,80.629 44.53,0 80.63,-36.102 80.63,-80.629 z"
         style="fill:none;stroke:#000000;stroke-width:4.72425;stroke-linecap:butt;stroke-linejoin:miter;stroke-miterlimit:10;stroke-dasharray:none;stroke-opacity:1"
         id="path14" />
      <g
         id="g16">
        <g
           id="g18"
           clip-path="url(#clipPath22)">
          <path
             d="m 489.277,382.297 c -21.195,23.457 -32.929,53.949 -32.929,85.558 0,70.481 57.136,127.618 127.617,127.618 70.48,0 127.617,-57.137 127.617,-127.618 0,-57.921 -39.016,-108.585 -95.016,-123.382"
             style="fill:none;stroke:#000000;stroke-width:4.72425;stroke-linecap:butt;stroke-linejoin:miter;stroke-miterlimit:10;stroke-dasharray:none;stroke-opacity:1"
             id="path24" />
        </g>
      </g>
      <path
         d="m 694.008,420.676 -67.399,-69.289 88.188,37.797 -25.828,5.039 5.039,26.453"
         style="fill:#000000;fill-opacity:1;fill-rule:evenodd;stroke:none"
         id="path26" />
      <path
         d="m 694.008,420.676 -67.399,-69.289 88.188,37.797 -25.828,5.039 z"
         style="fill:none;stroke:#000000;stroke-width:4.72425;stroke-linecap:butt;stroke-linejoin:miter;stroke-miterlimit:10;stroke-dasharray:none;stroke-opacity:1"
         id="path28" />
      <path
         d="m 636.688,274.539 c 0,-61.922 -50.2,-112.121 -112.122,-112.121 -61.921,0 -112.121,50.199 -112.121,112.121 0,61.922 50.2,112.125 112.121,112.125 61.922,0 112.122,-50.203 112.122,-112.125 z"
         style="fill:none;stroke:#000000;stroke-width:4.72425;stroke-linecap:butt;stroke-linejoin:miter;stroke-miterlimit:10;stroke-dasharray:none;stroke-opacity:1"
         id="path30" />
      <path
         d="m 1393.83,273.281 c 0,-61.922 -50.2,-112.125 -112.12,-112.125 -61.92,0 -112.12,50.203 -112.12,112.125 0,61.922 50.2,112.121 112.12,112.121 61.92,0 112.12,-50.199 112.12,-112.121 z"
         style="fill:none;stroke:#000000;stroke-width:4.72425;stroke-linecap:butt;stroke-linejoin:miter;stroke-miterlimit:10;stroke-dasharray:none;stroke-opacity:1"
         id="path32" />
      <path
         d="m 2273.8,273.281 c 0,-61.922 -50.2,-112.125 -112.12,-112.125 -61.93,0 -112.13,50.203 -112.13,112.125 0,61.922 50.2,112.121 112.13,112.121 61.92,0 112.12,-50.199 112.12,-112.121 z"
         style="fill:none;stroke:#000000;stroke-width:4.72425;stroke-linecap:butt;stroke-linejoin:miter;stroke-miterlimit:10;stroke-dasharray:none;stroke-opacity:1"
         id="path34" />
      <g
         id="g36">
        <g
           id="g38"
           clip-path="url(#clipPath42)">
          <path
             d="M 7.41797,268.871 H 404.254"
             style="fill:none;stroke:#000000;stroke-width:4.72425;stroke-linecap:butt;stroke-linejoin:miter;stroke-miterlimit:10;stroke-dasharray:none;stroke-opacity:1"
             id="path44" />
        </g>
      </g>
      <path
         d="m 297.172,249.973 94.484,18.898 -94.484,18.899 18.898,-18.899 -18.898,-18.898"
         style="fill:#000000;fill-opacity:1;fill-rule:evenodd;stroke:none"
         id="path46" />
      <path
         d="m 297.172,249.973 94.484,18.898 -94.484,18.899 18.898,-18.899 z"
         style="fill:none;stroke:#000000;stroke-width:4.72425;stroke-linecap:butt;stroke-linejoin:miter;stroke-miterlimit:10;stroke-dasharray:none;stroke-opacity:1"
         id="path48" />
      <g
         id="g50">
        <g
           id="g52"
           clip-path="url(#clipPath56)">
          <path
             d="m 631.02,268.871 h 538.57"
             style="fill:none;stroke:#000000;stroke-width:4.72425;stroke-linecap:butt;stroke-linejoin:miter;stroke-miterlimit:10;stroke-dasharray:none;stroke-opacity:1"
             id="path58" />
        </g>
      </g>
      <path
         d="m 1062.5,249.973 94.48,18.898 -94.48,18.899 18.9,-18.899 -18.9,-18.898"
         style="fill:#000000;fill-opacity:1;fill-rule:evenodd;stroke:none"
         id="path60" />
      <path
         d="m 1062.5,249.973 94.48,18.898 -94.48,18.899 18.9,-18.899 z"
         style="fill:none;stroke:#000000;stroke-width:4.72425;stroke-linecap:butt;stroke-linejoin:miter;stroke-miterlimit:10;stroke-dasharray:none;stroke-opacity:1"
         id="path62" />
      <g
         id="g64">
        <g
           id="g66"
           clip-path="url(#clipPath70)">
          <path
             d="m 1396.35,273.91 h 642.5"
             style="fill:none;stroke:#000000;stroke-width:4.72425;stroke-linecap:butt;stroke-linejoin:miter;stroke-miterlimit:10;stroke-dasharray:none;stroke-opacity:1"
             id="path72" />
        </g>
      </g>
      <path
         d="m 1931.76,255.012 94.49,18.898 -94.49,18.899 18.9,-18.899 -18.9,-18.898"
         style="fill:#000000;fill-opacity:1;fill-rule:evenodd;stroke:none"
         id="path74" />
      <path
         d="m 1931.76,255.012 94.49,18.898 -94.49,18.899 18.9,-18.899 z"
         style="fill:none;stroke:#000000;stroke-width:4.72425;stroke-linecap:butt;stroke-linejoin:miter;stroke-miterlimit:10;stroke-dasharray:none;stroke-opacity:1"
         id="path76" />
      <g
         id="g78">
        <g
           id="g80"
           clip-path="url(#clipPath84)">
          <path
             d="m 2275.06,278.32 h 557.46"
             style="fill:none;stroke:#000000;stroke-width:4.72425;stroke-linecap:butt;stroke-linejoin:miter;stroke-miterlimit:10;stroke-dasharray:none;stroke-opacity:1"
             id="path86" />
        </g>
      </g>
      <path
         d="m 2725.44,259.422 94.48,18.898 -94.48,18.895 18.9,-18.895 -18.9,-18.898"
         style="fill:#000000;fill-opacity:1;fill-rule:evenodd;stroke:none"
         id="path88" />
      <path
         d="m 2725.44,259.422 94.48,18.898 -94.48,18.895 18.9,-18.895 z"
         style="fill:none;stroke:#000000;stroke-width:4.72425;stroke-linecap:butt;stroke-linejoin:miter;stroke-miterlimit:10;stroke-dasharray:none;stroke-opacity:1"
         id="path90" />
      <g
         id="g92"
         transform="scale(10)">
        <text
           xml:space="preserve"
           transform="matrix(1,0,0,-1,84.8336,30.2254)"
           style="font-variant:normal;font-weight:bold;font-size:11.3382px;font-family:NewCenturySchlbk;-inkscape-font-specification:NewCenturySchlbk-Bold;writing-mode:lr-tb;fill:#000000;fill-opacity:1;fill-rule:nonzero;stroke:none"
           id="text104"><tspan
             x="0"
             y="0"
             id="tspan94">b</tspan><tspan
             x="76.9105 83.838142 86.990158"
             y="-1.63789"
             sodipodi:role="line"
             id="tspan96">a,b</tspan><tspan
             x="-14.7399 -7.8122597 -4.6602402"
             y="-23.87339"
             sodipodi:role="line"
             id="tspan98">a,b</tspan><tspan
             x="154.8291 161.75674 164.90875"
             y="-1.63789"
             sodipodi:role="line"
             id="tspan100">a,b</tspan><tspan
             x="-37.7939"
             y="23.621111"
             id="tspan102">p</tspan></text>
        <text
           xml:space="preserve"
           transform="matrix(1,0,0,-1,52.70884,-0.00977)"
           style="font-variant:normal;font-weight:bold;font-size:7.5588px;font-family:NewCenturySchlbk;-inkscape-font-specification:NewCenturySchlbk-Bold;writing-mode:lr-tb;fill:#000000;fill-opacity:1;fill-rule:nonzero;stroke:none"
           id="text108"><tspan
             x="0"
             y="0"
             id="tspan106">0</tspan></text>
        <text
           xml:space="preserve"
           transform="matrix(1,0,0,-1,121.17914,6.60429)"
           style="font-variant:normal;font-weight:bold;font-size:11.3382px;font-family:NewCenturySchlbk;-inkscape-font-specification:NewCenturySchlbk-Bold;writing-mode:lr-tb;fill:#000000;fill-opacity:1;fill-rule:nonzero;stroke:none"
           id="text112"><tspan
             x="0"
             y="0"
             id="tspan110">p</tspan></text>
        <text
           xml:space="preserve"
           transform="matrix(1,0,0,-1,126.84789,-0.00977)"
           style="font-variant:normal;font-weight:bold;font-size:7.5588px;font-family:NewCenturySchlbk;-inkscape-font-specification:NewCenturySchlbk-Bold;writing-mode:lr-tb;fill:#000000;fill-opacity:1;fill-rule:nonzero;stroke:none"
           id="text116"><tspan
             x="0"
             y="0"
             id="tspan114">1</tspan></text>
        <text
           xml:space="preserve"
           transform="matrix(1,0,0,-1,205.27059,6.60429)"
           style="font-variant:normal;font-weight:bold;font-size:11.3382px;font-family:NewCenturySchlbk;-inkscape-font-specification:NewCenturySchlbk-Bold;writing-mode:lr-tb;fill:#000000;fill-opacity:1;fill-rule:nonzero;stroke:none"
           id="text120"><tspan
             x="0"
             y="0"
             id="tspan118">p</tspan></text>
        <text
           xml:space="preserve"
           transform="matrix(1,0,0,-1,210.93973,-0.00977)"
           style="font-variant:normal;font-weight:bold;font-size:7.5588px;font-family:NewCenturySchlbk;-inkscape-font-specification:NewCenturySchlbk-Bold;writing-mode:lr-tb;fill:#000000;fill-opacity:1;fill-rule:nonzero;stroke:none"
           id="text124"><tspan
             x="0"
             y="0"
             id="tspan122">2</tspan></text>
        <text
           xml:space="preserve"
           transform="matrix(1,0,0,-1,285.58313,6.60429)"
           style="font-variant:normal;font-weight:bold;font-size:11.3382px;font-family:NewCenturySchlbk;-inkscape-font-specification:NewCenturySchlbk-Bold;writing-mode:lr-tb;fill:#000000;fill-opacity:1;fill-rule:nonzero;stroke:none"
           id="text128"><tspan
             x="0"
             y="0"
             id="tspan126">p</tspan></text>
        <text
           xml:space="preserve"
           transform="matrix(1,0,0,-1,291.25227,-0.00977)"
           style="font-variant:normal;font-weight:bold;font-size:7.5588px;font-family:NewCenturySchlbk;-inkscape-font-specification:NewCenturySchlbk-Bold;writing-mode:lr-tb;fill:#000000;fill-opacity:1;fill-rule:nonzero;stroke:none"
           id="text132"><tspan
             x="0"
             y="0"
             id="tspan130">3</tspan></text>
      </g>
    </g>
  </g>
</svg>
