<?xml version="1.0" encoding="utf-8" standalone="no"?>
<!DOCTYPE svg PUBLIC "-//W3C//DTD SVG 1.1//EN"
  "http://www.w3.org/Graphics/SVG/1.1/DTD/svg11.dtd">
<!-- Created with matplotlib (https://matplotlib.org/) -->
<svg height="338.4pt" version="1.1" viewBox="0 0 336.922415 338.4" width="336.922415pt" xmlns="http://www.w3.org/2000/svg" xmlns:xlink="http://www.w3.org/1999/xlink">
 <metadata>
  <rdf:RDF xmlns:cc="http://creativecommons.org/ns#" xmlns:dc="http://purl.org/dc/elements/1.1/" xmlns:rdf="http://www.w3.org/1999/02/22-rdf-syntax-ns#">
   <cc:Work>
    <dc:type rdf:resource="http://purl.org/dc/dcmitype/StillImage"/>
    <dc:date>2023-08-23T20:31:24.449193</dc:date>
    <dc:format>image/svg+xml</dc:format>
    <dc:creator>
     <cc:Agent>
      <dc:title>Matplotlib v3.3.4, https://matplotlib.org/</dc:title>
     </cc:Agent>
    </dc:creator>
   </cc:Work>
  </rdf:RDF>
 </metadata>
 <defs>
  <style type="text/css">*{stroke-linecap:butt;stroke-linejoin:round;}</style>
 </defs>
 <g id="figure_1">
  <g id="patch_1">
   <path d="M 0 338.4 
L 336.922415 338.4 
L 336.922415 0 
L 0 0 
z
" style="fill:#ffffff;"/>
  </g>
  <g id="axes_1">
   <g id="patch_2">
    <path d="M 7.2 331.2 
L 329.722415 331.2 
L 329.722415 7.2 
L 7.2 7.2 
z
" style="fill:#ffffff;"/>
   </g>
   <g id="patch_3">
    <path clip-path="url(#pdc012bcaa9)" d="M 290.278654 262.108006 
Q 323.520061 151.303315 290.921183 42.640389 
" style="fill:none;stroke:#000000;stroke-linecap:round;stroke-width:2;"/>
    <path clip-path="url(#pdc012bcaa9)" d="M 289.005531 53.655391 
L 290.921183 42.640389 
L 298.583793 50.781912 
L 289.005531 53.655391 
z
" style="stroke:#000000;stroke-linecap:round;stroke-width:2;"/>
   </g>
   <g id="patch_4">
    <path clip-path="url(#pdc012bcaa9)" d="M 281.690689 259.966241 
Q 249.091811 151.303315 282.333219 40.498624 
" style="fill:none;stroke:#000000;stroke-linecap:round;stroke-width:2;"/>
    <path clip-path="url(#pdc012bcaa9)" d="M 283.606342 248.951239 
L 281.690689 259.966241 
L 274.028079 251.824718 
L 283.606342 248.951239 
z
" style="stroke:#000000;stroke-linecap:round;stroke-width:2;"/>
   </g>
   <g id="matplotlib.axis_1"/>
   <g id="matplotlib.axis_2"/>
   <g id="patch_5">
    <path clip-path="url(#pdc012bcaa9)" d="M 38.211771 261.524935 
Q 38.211771 151.303315 38.211771 43.317763 
" style="fill:none;stroke:#000000;stroke-linecap:round;stroke-width:2;"/>
    <path clip-path="url(#pdc012bcaa9)" d="M 33.211771 53.317763 
L 38.211771 43.317763 
L 43.211771 53.317763 
L 33.211771 53.317763 
z
" style="stroke:#000000;stroke-linecap:round;stroke-width:2;"/>
   </g>
   <g id="patch_6">
    <path clip-path="url(#pdc012bcaa9)" d="M 49.568988 263.99318 
Q 162.258853 151.303315 276.529858 37.032311 
" style="fill:none;stroke:#000000;stroke-linecap:round;stroke-width:2;"/>
    <path clip-path="url(#pdc012bcaa9)" d="M 60.17559 260.457646 
L 49.568988 263.99318 
L 53.104522 253.386579 
L 60.17559 260.457646 
z
" style="stroke:#000000;stroke-linecap:round;stroke-width:2;"/>
   </g>
   <g id="patch_7">
    <path clip-path="url(#pdc012bcaa9)" d="M 270.244405 27.256232 
Q 162.258853 27.256232 52.037234 27.256232 
" style="fill:none;stroke:#000000;stroke-linecap:round;stroke-width:2;"/>
    <path clip-path="url(#pdc012bcaa9)" d="M 260.244405 22.256232 
L 270.244405 27.256232 
L 260.244405 32.256232 
L 260.244405 22.256232 
z
" style="stroke:#000000;stroke-linecap:round;stroke-width:2;"/>
   </g>
   <g id="patch_8">
    <path d="M 38.211771 289.175861 
C 41.878326 289.175861 45.395203 287.719123 47.987849 285.126476 
C 50.580496 282.53383 52.037234 279.016953 52.037234 275.350398 
C 52.037234 271.683842 50.580496 268.166965 47.987849 265.574319 
C 45.395203 262.981673 41.878326 261.524935 38.211771 261.524935 
C 34.545215 261.524935 31.028338 262.981673 28.435692 265.574319 
C 25.843046 268.166965 24.386308 271.683842 24.386308 275.350398 
C 24.386308 279.016953 25.843046 282.53383 28.435692 285.126476 
C 31.028338 287.719123 34.545215 289.175861 38.211771 289.175861 
z
" style="fill:#fec7b8;stroke:#000000;stroke-linejoin:miter;"/>
   </g>
   <g id="patch_9">
    <path d="M 286.305936 289.175861 
C 289.972492 289.175861 293.489368 287.719123 296.082015 285.126476 
C 298.674661 282.53383 300.131399 279.016953 300.131399 275.350398 
C 300.131399 271.683842 298.674661 268.166965 296.082015 265.574319 
C 293.489368 262.981673 289.972492 261.524935 286.305936 261.524935 
C 282.639381 261.524935 279.122504 262.981673 276.529858 265.574319 
C 273.937211 268.166965 272.480473 271.683842 272.480473 275.350398 
C 272.480473 279.016953 273.937211 282.53383 276.529858 285.126476 
C 279.122504 287.719123 282.639381 289.175861 286.305936 289.175861 
z
" style="fill:#fec7b8;stroke:#000000;stroke-linejoin:miter;"/>
   </g>
   <g id="patch_10">
    <path d="M 286.305936 41.081695 
C 289.972492 41.081695 293.489368 39.624957 296.082015 37.032311 
C 298.674661 34.439664 300.131399 30.922788 300.131399 27.256232 
C 300.131399 23.589677 298.674661 20.0728 296.082015 17.480154 
C 293.489368 14.887507 289.972492 13.430769 286.305936 13.430769 
C 282.639381 13.430769 279.122504 14.887507 276.529858 17.480154 
C 273.937211 20.0728 272.480473 23.589677 272.480473 27.256232 
C 272.480473 30.922788 273.937211 34.439664 276.529858 37.032311 
C 279.122504 39.624957 282.639381 41.081695 286.305936 41.081695 
z
" style="fill:#fec7b8;stroke:#000000;stroke-linejoin:miter;"/>
   </g>
   <g id="patch_11">
    <path d="M 38.211771 41.081695 
C 41.878326 41.081695 45.395203 39.624957 47.987849 37.032311 
C 50.580496 34.439664 52.037234 30.922788 52.037234 27.256232 
C 52.037234 23.589677 50.580496 20.0728 47.987849 17.480154 
C 45.395203 14.887507 41.878326 13.430769 38.211771 13.430769 
C 34.545215 13.430769 31.028338 14.887507 28.435692 17.480154 
C 25.843046 20.0728 24.386308 23.589677 24.386308 27.256232 
C 24.386308 30.922788 25.843046 34.439664 28.435692 37.032311 
C 31.028338 39.624957 34.545215 41.081695 38.211771 41.081695 
z
" style="fill:#fec7b8;stroke:#000000;stroke-linejoin:miter;"/>
   </g>
   <g id="patch_12">
    <path clip-path="url(#pdc012bcaa9)" d="M 38.211771 324.969231 
C 44.791305 324.969231 51.102244 322.355154 55.754677 317.702721 
C 60.407111 313.050288 63.021187 306.739348 63.021187 300.159814 
C 63.021187 293.58028 60.407111 287.269341 55.754677 282.616908 
C 51.102244 277.964474 44.791305 275.350398 38.211771 275.350398 
C 31.632237 275.350398 25.321297 277.964474 20.668864 282.616908 
C 16.016431 287.269341 13.402354 293.58028 13.402354 300.159814 
C 13.402354 306.739348 16.016431 313.050288 20.668864 317.702721 
C 25.321297 322.355154 31.632237 324.969231 38.211771 324.969231 
z
" style="fill:none;stroke:#000000;stroke-linejoin:miter;"/>
   </g>
   <g id="text_1">
    <!-- 0 -->
    <g transform="translate(35.030521 278.109773)scale(0.1 -0.1)">
     <defs>
      <path d="M 31.78125 66.40625 
Q 24.171875 66.40625 20.328125 58.90625 
Q 16.5 51.421875 16.5 36.375 
Q 16.5 21.390625 20.328125 13.890625 
Q 24.171875 6.390625 31.78125 6.390625 
Q 39.453125 6.390625 43.28125 13.890625 
Q 47.125 21.390625 47.125 36.375 
Q 47.125 51.421875 43.28125 58.90625 
Q 39.453125 66.40625 31.78125 66.40625 
z
M 31.78125 74.21875 
Q 44.046875 74.21875 50.515625 64.515625 
Q 56.984375 54.828125 56.984375 36.375 
Q 56.984375 17.96875 50.515625 8.265625 
Q 44.046875 -1.421875 31.78125 -1.421875 
Q 19.53125 -1.421875 13.0625 8.265625 
Q 6.59375 17.96875 6.59375 36.375 
Q 6.59375 54.828125 13.0625 64.515625 
Q 19.53125 74.21875 31.78125 74.21875 
z
" id="DejaVuSans-48"/>
     </defs>
     <use xlink:href="#DejaVuSans-48"/>
    </g>
   </g>
   <g id="text_2">
    <!-- 1 -->
    <g transform="translate(283.124686 278.109773)scale(0.1 -0.1)">
     <defs>
      <path d="M 12.40625 8.296875 
L 28.515625 8.296875 
L 28.515625 63.921875 
L 10.984375 60.40625 
L 10.984375 69.390625 
L 28.421875 72.90625 
L 38.28125 72.90625 
L 38.28125 8.296875 
L 54.390625 8.296875 
L 54.390625 0 
L 12.40625 0 
z
" id="DejaVuSans-49"/>
     </defs>
     <use xlink:href="#DejaVuSans-49"/>
    </g>
   </g>
   <g id="text_3">
    <!-- 2 -->
    <g transform="translate(283.124686 30.015607)scale(0.1 -0.1)">
     <defs>
      <path d="M 19.1875 8.296875 
L 53.609375 8.296875 
L 53.609375 0 
L 7.328125 0 
L 7.328125 8.296875 
Q 12.9375 14.109375 22.625 23.890625 
Q 32.328125 33.6875 34.8125 36.53125 
Q 39.546875 41.84375 41.421875 45.53125 
Q 43.3125 49.21875 43.3125 52.78125 
Q 43.3125 58.59375 39.234375 62.25 
Q 35.15625 65.921875 28.609375 65.921875 
Q 23.96875 65.921875 18.8125 64.3125 
Q 13.671875 62.703125 7.8125 59.421875 
L 7.8125 69.390625 
Q 13.765625 71.78125 18.9375 73 
Q 24.125 74.21875 28.421875 74.21875 
Q 39.75 74.21875 46.484375 68.546875 
Q 53.21875 62.890625 53.21875 53.421875 
Q 53.21875 48.921875 51.53125 44.890625 
Q 49.859375 40.875 45.40625 35.40625 
Q 44.1875 33.984375 37.640625 27.21875 
Q 31.109375 20.453125 19.1875 8.296875 
z
" id="DejaVuSans-50"/>
     </defs>
     <use xlink:href="#DejaVuSans-50"/>
    </g>
   </g>
   <g id="text_4">
    <!-- 3 -->
    <g transform="translate(35.030521 30.015607)scale(0.1 -0.1)">
     <defs>
      <path d="M 40.578125 39.3125 
Q 47.65625 37.796875 51.625 33 
Q 55.609375 28.21875 55.609375 21.1875 
Q 55.609375 10.40625 48.1875 4.484375 
Q 40.765625 -1.421875 27.09375 -1.421875 
Q 22.515625 -1.421875 17.65625 -0.515625 
Q 12.796875 0.390625 7.625 2.203125 
L 7.625 11.71875 
Q 11.71875 9.328125 16.59375 8.109375 
Q 21.484375 6.890625 26.8125 6.890625 
Q 36.078125 6.890625 40.9375 10.546875 
Q 45.796875 14.203125 45.796875 21.1875 
Q 45.796875 27.640625 41.28125 31.265625 
Q 36.765625 34.90625 28.71875 34.90625 
L 20.21875 34.90625 
L 20.21875 43.015625 
L 29.109375 43.015625 
Q 36.375 43.015625 40.234375 45.921875 
Q 44.09375 48.828125 44.09375 54.296875 
Q 44.09375 59.90625 40.109375 62.90625 
Q 36.140625 65.921875 28.71875 65.921875 
Q 24.65625 65.921875 20.015625 65.03125 
Q 15.375 64.15625 9.8125 62.3125 
L 9.8125 71.09375 
Q 15.4375 72.65625 20.34375 73.4375 
Q 25.25 74.21875 29.59375 74.21875 
Q 40.828125 74.21875 47.359375 69.109375 
Q 53.90625 64.015625 53.90625 55.328125 
Q 53.90625 49.265625 50.4375 45.09375 
Q 46.96875 40.921875 40.578125 39.3125 
z
" id="DejaVuSans-51"/>
     </defs>
     <use xlink:href="#DejaVuSans-51"/>
    </g>
   </g>
  </g>
 </g>
 <defs>
  <clipPath id="pdc012bcaa9">
   <rect height="324" width="322.522415" x="7.2" y="7.2"/>
  </clipPath>
 </defs>
</svg>
