<?xml version="1.0" encoding="utf-8" standalone="no"?>
<!DOCTYPE svg PUBLIC "-//W3C//DTD SVG 1.1//EN"
  "http://www.w3.org/Graphics/SVG/1.1/DTD/svg11.dtd">
<!-- Created with matplotlib (https://matplotlib.org/) -->
<svg height="338.4pt" version="1.1" viewBox="0 0 160.539124 338.4" width="160.539124pt" xmlns="http://www.w3.org/2000/svg" xmlns:xlink="http://www.w3.org/1999/xlink">
 <metadata>
  <rdf:RDF xmlns:cc="http://creativecommons.org/ns#" xmlns:dc="http://purl.org/dc/elements/1.1/" xmlns:rdf="http://www.w3.org/1999/02/22-rdf-syntax-ns#">
   <cc:Work>
    <dc:type rdf:resource="http://purl.org/dc/dcmitype/StillImage"/>
    <dc:date>2024-02-07T23:23:48.701823</dc:date>
    <dc:format>image/svg+xml</dc:format>
    <dc:creator>
     <cc:Agent>
      <dc:title>Matplotlib v3.3.4, https://matplotlib.org/</dc:title>
     </cc:Agent>
    </dc:creator>
   </cc:Work>
  </rdf:RDF>
 </metadata>
 <defs>
  <style type="text/css">*{stroke-linecap:butt;stroke-linejoin:round;}</style>
 </defs>
 <g id="figure_1">
  <g id="patch_1">
   <path d="M 0 338.4 
L 160.539124 338.4 
L 160.539124 0 
L 0 0 
z
" style="fill:#ffffff;"/>
  </g>
  <g id="axes_1">
   <g id="patch_2">
    <path d="M 7.2 331.2 
L 153.339124 331.2 
L 153.339124 7.2 
L 7.2 7.2 
z
" style="fill:#ffffff;"/>
   </g>
   <g id="patch_3">
    <path clip-path="url(#p99b1c544e2)" d="M 102.965377 32.205615 
Q 121.77578 96.582503 96.413142 156.24833 
" style="fill:none;stroke:#000000;stroke-linecap:round;stroke-width:2;"/>
    <path clip-path="url(#p99b1c544e2)" d="M 104.926682 149.001287 
L 96.413142 156.24833 
L 95.723632 145.089272 
L 104.926682 149.001287 
z
" style="stroke:#000000;stroke-linecap:round;stroke-width:2;"/>
   </g>
   <g id="patch_4">
    <path clip-path="url(#p99b1c544e2)" d="M 95.656287 33.884514 
Q 70.293648 93.550342 89.104051 157.927229 
" style="fill:none;stroke:#000000;stroke-linecap:round;stroke-width:2;"/>
    <path clip-path="url(#p99b1c544e2)" d="M 87.142746 41.131557 
L 95.656287 33.884514 
L 96.345796 45.043573 
L 87.142746 41.131557 
z
" style="stroke:#000000;stroke-linecap:round;stroke-width:2;"/>
   </g>
   <g id="matplotlib.axis_1"/>
   <g id="matplotlib.axis_2"/>
   <g id="patch_5">
    <path clip-path="url(#p99b1c544e2)" d="M 36.761703 291.187886 
Q 84.074954 294.154853 129.15652 296.981874 
" style="fill:none;stroke:#000000;stroke-linecap:round;stroke-width:2;"/>
    <path clip-path="url(#p99b1c544e2)" d="M 119.489055 291.365815 
L 129.15652 296.981874 
L 118.863194 301.346211 
L 119.489055 291.365815 
z
" style="stroke:#000000;stroke-linecap:round;stroke-width:2;"/>
   </g>
   <g id="patch_6">
    <path clip-path="url(#p99b1c544e2)" d="M 32.677901 280.118703 
Q 59.495813 228.855371 87.350235 175.610713 
" style="fill:none;stroke:#000000;stroke-linecap:round;stroke-width:2;"/>
    <path clip-path="url(#p99b1c544e2)" d="M 41.743693 273.575659 
L 32.677901 280.118703 
L 32.882941 268.940244 
L 41.743693 273.575659 
z
" style="stroke:#000000;stroke-linecap:round;stroke-width:2;"/>
   </g>
   <g id="patch_7">
    <path clip-path="url(#p99b1c544e2)" d="M 95.953221 178.180704 
Q 116.369949 232.421892 137.574393 288.755806 
" style="fill:none;stroke:#000000;stroke-linecap:round;stroke-width:2;"/>
    <path clip-path="url(#p99b1c544e2)" d="M 94.796513 189.301047 
L 95.953221 178.180704 
L 104.155471 185.778276 
L 94.796513 189.301047 
z
" style="stroke:#000000;stroke-linecap:round;stroke-width:2;"/>
   </g>
   <g id="patch_8">
    <path d="M 27.200817 300.167998 
C 29.741374 300.167998 32.178219 299.158624 33.974664 297.362179 
C 35.771109 295.565733 36.780483 293.128889 36.780483 290.588332 
C 36.780483 288.047775 35.771109 285.61093 33.974664 283.814485 
C 32.178219 282.01804 29.741374 281.008666 27.200817 281.008666 
C 24.66026 281.008666 22.223416 282.01804 20.426971 283.814485 
C 18.630525 285.61093 17.621151 288.047775 17.621151 290.588332 
C 17.621151 293.128889 18.630525 295.565733 20.426971 297.362179 
C 22.223416 299.158624 24.66026 300.167998 27.200817 300.167998 
z
" style="fill:#fec7b8;stroke:#000000;stroke-linejoin:miter;"/>
   </g>
   <g id="patch_9">
    <path d="M 100.27862 32.590101 
C 102.819177 32.590101 105.256022 31.580727 107.052467 29.784282 
C 108.848912 27.987837 109.858286 25.550992 109.858286 23.010435 
C 109.858286 20.469878 108.848912 18.033034 107.052467 16.236588 
C 105.256022 14.440143 102.819177 13.430769 100.27862 13.430769 
C 97.738063 13.430769 95.301218 14.440143 93.504773 16.236588 
C 91.708328 18.033034 90.698954 20.469878 90.698954 23.010435 
C 90.698954 25.550992 91.708328 27.987837 93.504773 29.784282 
C 95.301218 31.580727 97.738063 32.590101 100.27862 32.590101 
z
" style="fill:#fec7b8;stroke:#000000;stroke-linejoin:miter;"/>
   </g>
   <g id="patch_10">
    <path d="M 91.790808 176.702075 
C 94.331365 176.702075 96.76821 175.692701 98.564655 173.896256 
C 100.3611 172.099811 101.370474 169.662966 101.370474 167.122409 
C 101.370474 164.581852 100.3611 162.145008 98.564655 160.348563 
C 96.76821 158.552117 94.331365 157.542743 91.790808 157.542743 
C 89.250251 157.542743 86.813407 158.552117 85.016962 160.348563 
C 83.220516 162.145008 82.211142 164.581852 82.211142 167.122409 
C 82.211142 169.662966 83.220516 172.099811 85.016962 173.896256 
C 86.813407 175.692701 89.250251 176.702075 91.790808 176.702075 
z
" style="fill:#fec7b8;stroke:#000000;stroke-linejoin:miter;"/>
   </g>
   <g id="patch_11">
    <path d="M 140.94909 307.30104 
C 143.489647 307.30104 145.926492 306.291666 147.722937 304.495221 
C 149.519382 302.698776 150.528756 300.261932 150.528756 297.721374 
C 150.528756 295.180817 149.519382 292.743973 147.722937 290.947528 
C 145.926492 289.151083 143.489647 288.141709 140.94909 288.141709 
C 138.408533 288.141709 135.971688 289.151083 134.175243 290.947528 
C 132.378798 292.743973 131.369424 295.180817 131.369424 297.721374 
C 131.369424 300.261932 132.378798 302.698776 134.175243 304.495221 
C 135.971688 306.291666 138.408533 307.30104 140.94909 307.30104 
z
" style="fill:#fec7b8;stroke:#000000;stroke-linejoin:miter;"/>
   </g>
   <g id="patch_12">
    <path clip-path="url(#p99b1c544e2)" d="M 27.200817 324.969231 
C 31.759778 324.969231 36.132629 323.157937 39.356301 319.934265 
C 42.579973 316.710593 44.391267 312.337742 44.391267 307.778781 
C 44.391267 303.219821 42.579973 298.84697 39.356301 295.623298 
C 36.132629 292.399626 31.759778 290.588332 27.200817 290.588332 
C 22.641857 290.588332 18.269006 292.399626 15.045334 295.623298 
C 11.821662 298.84697 10.010368 303.219821 10.010368 307.778781 
C 10.010368 312.337742 11.821662 316.710593 15.045334 319.934265 
C 18.269006 323.157937 22.641857 324.969231 27.200817 324.969231 
z
" style="fill:none;stroke:#000000;stroke-linejoin:miter;"/>
   </g>
   <g id="text_1">
    <!-- 0 -->
    <g transform="translate(24.019567 293.347707)scale(0.1 -0.1)">
     <defs>
      <path d="M 31.78125 66.40625 
Q 24.171875 66.40625 20.328125 58.90625 
Q 16.5 51.421875 16.5 36.375 
Q 16.5 21.390625 20.328125 13.890625 
Q 24.171875 6.390625 31.78125 6.390625 
Q 39.453125 6.390625 43.28125 13.890625 
Q 47.125 21.390625 47.125 36.375 
Q 47.125 51.421875 43.28125 58.90625 
Q 39.453125 66.40625 31.78125 66.40625 
z
M 31.78125 74.21875 
Q 44.046875 74.21875 50.515625 64.515625 
Q 56.984375 54.828125 56.984375 36.375 
Q 56.984375 17.96875 50.515625 8.265625 
Q 44.046875 -1.421875 31.78125 -1.421875 
Q 19.53125 -1.421875 13.0625 8.265625 
Q 6.59375 17.96875 6.59375 36.375 
Q 6.59375 54.828125 13.0625 64.515625 
Q 19.53125 74.21875 31.78125 74.21875 
z
" id="DejaVuSans-48"/>
     </defs>
     <use xlink:href="#DejaVuSans-48"/>
    </g>
   </g>
   <g id="text_2">
    <!-- 1 -->
    <g transform="translate(97.09737 25.76981)scale(0.1 -0.1)">
     <defs>
      <path d="M 12.40625 8.296875 
L 28.515625 8.296875 
L 28.515625 63.921875 
L 10.984375 60.40625 
L 10.984375 69.390625 
L 28.421875 72.90625 
L 38.28125 72.90625 
L 38.28125 8.296875 
L 54.390625 8.296875 
L 54.390625 0 
L 12.40625 0 
z
" id="DejaVuSans-49"/>
     </defs>
     <use xlink:href="#DejaVuSans-49"/>
    </g>
   </g>
   <g id="text_3">
    <!-- 2 -->
    <g transform="translate(88.609558 169.881784)scale(0.1 -0.1)">
     <defs>
      <path d="M 19.1875 8.296875 
L 53.609375 8.296875 
L 53.609375 0 
L 7.328125 0 
L 7.328125 8.296875 
Q 12.9375 14.109375 22.625 23.890625 
Q 32.328125 33.6875 34.8125 36.53125 
Q 39.546875 41.84375 41.421875 45.53125 
Q 43.3125 49.21875 43.3125 52.78125 
Q 43.3125 58.59375 39.234375 62.25 
Q 35.15625 65.921875 28.609375 65.921875 
Q 23.96875 65.921875 18.8125 64.3125 
Q 13.671875 62.703125 7.8125 59.421875 
L 7.8125 69.390625 
Q 13.765625 71.78125 18.9375 73 
Q 24.125 74.21875 28.421875 74.21875 
Q 39.75 74.21875 46.484375 68.546875 
Q 53.21875 62.890625 53.21875 53.421875 
Q 53.21875 48.921875 51.53125 44.890625 
Q 49.859375 40.875 45.40625 35.40625 
Q 44.1875 33.984375 37.640625 27.21875 
Q 31.109375 20.453125 19.1875 8.296875 
z
" id="DejaVuSans-50"/>
     </defs>
     <use xlink:href="#DejaVuSans-50"/>
    </g>
   </g>
   <g id="text_4">
    <!-- 3 -->
    <g transform="translate(137.76784 300.480749)scale(0.1 -0.1)">
     <defs>
      <path d="M 40.578125 39.3125 
Q 47.65625 37.796875 51.625 33 
Q 55.609375 28.21875 55.609375 21.1875 
Q 55.609375 10.40625 48.1875 4.484375 
Q 40.765625 -1.421875 27.09375 -1.421875 
Q 22.515625 -1.421875 17.65625 -0.515625 
Q 12.796875 0.390625 7.625 2.203125 
L 7.625 11.71875 
Q 11.71875 9.328125 16.59375 8.109375 
Q 21.484375 6.890625 26.8125 6.890625 
Q 36.078125 6.890625 40.9375 10.546875 
Q 45.796875 14.203125 45.796875 21.1875 
Q 45.796875 27.640625 41.28125 31.265625 
Q 36.765625 34.90625 28.71875 34.90625 
L 20.21875 34.90625 
L 20.21875 43.015625 
L 29.109375 43.015625 
Q 36.375 43.015625 40.234375 45.921875 
Q 44.09375 48.828125 44.09375 54.296875 
Q 44.09375 59.90625 40.109375 62.90625 
Q 36.140625 65.921875 28.71875 65.921875 
Q 24.65625 65.921875 20.015625 65.03125 
Q 15.375 64.15625 9.8125 62.3125 
L 9.8125 71.09375 
Q 15.4375 72.65625 20.34375 73.4375 
Q 25.25 74.21875 29.59375 74.21875 
Q 40.828125 74.21875 47.359375 69.109375 
Q 53.90625 64.015625 53.90625 55.328125 
Q 53.90625 49.265625 50.4375 45.09375 
Q 46.96875 40.921875 40.578125 39.3125 
z
" id="DejaVuSans-51"/>
     </defs>
     <use xlink:href="#DejaVuSans-51"/>
    </g>
   </g>
  </g>
 </g>
 <defs>
  <clipPath id="p99b1c544e2">
   <rect height="324" width="146.139124" x="7.2" y="7.2"/>
  </clipPath>
 </defs>
</svg>
