<?xml version="1.0" encoding="utf-8" standalone="no"?>
<!DOCTYPE svg PUBLIC "-//W3C//DTD SVG 1.1//EN"
  "http://www.w3.org/Graphics/SVG/1.1/DTD/svg11.dtd">
<!-- Created with matplotlib (https://matplotlib.org/) -->
<svg height="338.4pt" version="1.1" viewBox="0 0 362.768521 338.4" width="362.768521pt" xmlns="http://www.w3.org/2000/svg" xmlns:xlink="http://www.w3.org/1999/xlink">
 <metadata>
  <rdf:RDF xmlns:cc="http://creativecommons.org/ns#" xmlns:dc="http://purl.org/dc/elements/1.1/" xmlns:rdf="http://www.w3.org/1999/02/22-rdf-syntax-ns#">
   <cc:Work>
    <dc:type rdf:resource="http://purl.org/dc/dcmitype/StillImage"/>
    <dc:date>2023-08-23T20:30:47.772583</dc:date>
    <dc:format>image/svg+xml</dc:format>
    <dc:creator>
     <cc:Agent>
      <dc:title>Matplotlib v3.3.4, https://matplotlib.org/</dc:title>
     </cc:Agent>
    </dc:creator>
   </cc:Work>
  </rdf:RDF>
 </metadata>
 <defs>
  <style type="text/css">*{stroke-linecap:butt;stroke-linejoin:round;}</style>
 </defs>
 <g id="figure_1">
  <g id="patch_1">
   <path d="M 0 338.4 
L 362.768521 338.4 
L 362.768521 0 
L 0 0 
z
" style="fill:#ffffff;"/>
  </g>
  <g id="axes_1">
   <g id="patch_2">
    <path d="M 7.2 331.2 
L 355.568521 331.2 
L 355.568521 7.2 
L 7.2 7.2 
z
" style="fill:#ffffff;"/>
   </g>
   <g id="patch_3">
    <path clip-path="url(#pbc5286750c)" d="M 174.0462 32.600579 
Q 123.672259 169.708074 31.552777 280.169661 
" style="fill:none;stroke:#000000;stroke-linecap:round;stroke-width:2;"/>
    <path clip-path="url(#pbc5286750c)" d="M 41.797358 275.692099 
L 31.552777 280.169661 
L 34.117476 269.287459 
L 41.797358 275.692099 
z
" style="stroke:#000000;stroke-linecap:round;stroke-width:2;"/>
   </g>
   <g id="patch_4">
    <path clip-path="url(#pbc5286750c)" d="M 169.691135 32.63029 
Q 77.571652 143.091876 27.197711 280.199372 
" style="fill:none;stroke:#000000;stroke-linecap:round;stroke-width:2;"/>
    <path clip-path="url(#pbc5286750c)" d="M 159.446553 37.107851 
L 169.691135 32.63029 
L 167.126435 43.512492 
L 159.446553 37.107851 
z
" style="stroke:#000000;stroke-linecap:round;stroke-width:2;"/>
   </g>
   <g id="patch_5">
    <path clip-path="url(#pbc5286750c)" d="M 183.789348 30.913016 
Q 277.340952 143.091876 326.94375 278.100482 
" style="fill:none;stroke:#000000;stroke-linecap:round;stroke-width:2;"/>
    <path clip-path="url(#pbc5286750c)" d="M 328.188359 266.989633 
L 326.94375 278.100482 
L 318.801837 270.438286 
L 328.188359 266.989633 
z
" style="stroke:#000000;stroke-linecap:round;stroke-width:2;"/>
   </g>
   <g id="patch_6">
    <path clip-path="url(#pbc5286750c)" d="M 181.637545 34.699469 
Q 231.240344 169.708074 324.791948 281.886934 
" style="fill:none;stroke:#000000;stroke-linecap:round;stroke-width:2;"/>
    <path clip-path="url(#pbc5286750c)" d="M 180.392937 45.810317 
L 181.637545 34.699469 
L 189.779459 42.361665 
L 180.392937 45.810317 
z
" style="stroke:#000000;stroke-linecap:round;stroke-width:2;"/>
   </g>
   <g id="matplotlib.axis_1"/>
   <g id="matplotlib.axis_2"/>
   <g id="patch_7">
    <path clip-path="url(#pbc5286750c)" d="M 33.675824 289.480966 
Q 177.456302 289.480966 319.000711 289.480966 
" style="fill:none;stroke:#000000;stroke-linecap:round;stroke-width:2;"/>
    <path clip-path="url(#pbc5286750c)" d="M 309.000711 284.480966 
L 319.000711 289.480966 
L 309.000711 294.480966 
L 309.000711 284.480966 
z
" style="stroke:#000000;stroke-linecap:round;stroke-width:2;"/>
   </g>
   <g id="patch_8">
    <path d="M 177.456302 33.207199 
C 180.078687 33.207199 182.594019 32.165314 184.448325 30.311008 
C 186.302632 28.456701 187.344517 25.941369 187.344517 23.318984 
C 187.344517 20.696599 186.302632 18.181267 184.448325 16.32696 
C 182.594019 14.472654 180.078687 13.430769 177.456302 13.430769 
C 174.833916 13.430769 172.318584 14.472654 170.464278 16.32696 
C 168.609971 18.181267 167.568087 20.696599 167.568087 23.318984 
C 167.568087 25.941369 168.609971 28.456701 170.464278 30.311008 
C 172.318584 32.165314 174.833916 33.207199 177.456302 33.207199 
z
" style="fill:#fec7b8;stroke:#000000;stroke-linejoin:miter;"/>
   </g>
   <g id="patch_9">
    <path d="M 23.787609 299.369181 
C 26.409995 299.369181 28.925327 298.327297 30.779633 296.47299 
C 32.63394 294.618684 33.675824 292.103352 33.675824 289.480966 
C 33.675824 286.858581 32.63394 284.343249 30.779633 282.488943 
C 28.925327 280.634636 26.409995 279.592752 23.787609 279.592752 
C 21.165224 279.592752 18.649892 280.634636 16.795586 282.488943 
C 14.941279 284.343249 13.899395 286.858581 13.899395 289.480966 
C 13.899395 292.103352 14.941279 294.618684 16.795586 296.47299 
C 18.649892 298.327297 21.165224 299.369181 23.787609 299.369181 
z
" style="fill:#fec7b8;stroke:#000000;stroke-linejoin:miter;"/>
   </g>
   <g id="patch_10">
    <path d="M 331.124994 299.369181 
C 333.747379 299.369181 336.262711 298.327297 338.117018 296.47299 
C 339.971324 294.618684 341.013209 292.103352 341.013209 289.480966 
C 341.013209 286.858581 339.971324 284.343249 338.117018 282.488943 
C 336.262711 280.634636 333.747379 279.592752 331.124994 279.592752 
C 328.502609 279.592752 325.987276 280.634636 324.13297 282.488943 
C 322.278664 284.343249 321.236779 286.858581 321.236779 289.480966 
C 321.236779 292.103352 322.278664 294.618684 324.13297 296.47299 
C 325.987276 298.327297 328.502609 299.369181 331.124994 299.369181 
z
" style="fill:#fec7b8;stroke:#000000;stroke-linejoin:miter;"/>
   </g>
   <g id="patch_11">
    <path clip-path="url(#pbc5286750c)" d="M 331.124994 324.969231 
C 335.830793 324.969231 340.344488 323.099597 343.67199 319.772095 
C 346.999492 316.444593 348.869126 311.930897 348.869126 307.225099 
C 348.869126 302.5193 346.999492 298.005605 343.67199 294.678102 
C 340.344488 291.3506 335.830793 289.480966 331.124994 289.480966 
C 326.419195 289.480966 321.9055 291.3506 318.577998 294.678102 
C 315.250495 298.005605 313.380862 302.5193 313.380862 307.225099 
C 313.380862 311.930897 315.250495 316.444593 318.577998 319.772095 
C 321.9055 323.099597 326.419195 324.969231 331.124994 324.969231 
z
" style="fill:none;stroke:#000000;stroke-linejoin:miter;"/>
   </g>
   <g id="text_1">
    <!-- 1 -->
    <g transform="translate(174.275052 26.078359)scale(0.1 -0.1)">
     <defs>
      <path d="M 12.40625 8.296875 
L 28.515625 8.296875 
L 28.515625 63.921875 
L 10.984375 60.40625 
L 10.984375 69.390625 
L 28.421875 72.90625 
L 38.28125 72.90625 
L 38.28125 8.296875 
L 54.390625 8.296875 
L 54.390625 0 
L 12.40625 0 
z
" id="DejaVuSans-49"/>
     </defs>
     <use xlink:href="#DejaVuSans-49"/>
    </g>
   </g>
   <g id="text_2">
    <!-- 2 -->
    <g transform="translate(20.606359 292.240341)scale(0.1 -0.1)">
     <defs>
      <path d="M 19.1875 8.296875 
L 53.609375 8.296875 
L 53.609375 0 
L 7.328125 0 
L 7.328125 8.296875 
Q 12.9375 14.109375 22.625 23.890625 
Q 32.328125 33.6875 34.8125 36.53125 
Q 39.546875 41.84375 41.421875 45.53125 
Q 43.3125 49.21875 43.3125 52.78125 
Q 43.3125 58.59375 39.234375 62.25 
Q 35.15625 65.921875 28.609375 65.921875 
Q 23.96875 65.921875 18.8125 64.3125 
Q 13.671875 62.703125 7.8125 59.421875 
L 7.8125 69.390625 
Q 13.765625 71.78125 18.9375 73 
Q 24.125 74.21875 28.421875 74.21875 
Q 39.75 74.21875 46.484375 68.546875 
Q 53.21875 62.890625 53.21875 53.421875 
Q 53.21875 48.921875 51.53125 44.890625 
Q 49.859375 40.875 45.40625 35.40625 
Q 44.1875 33.984375 37.640625 27.21875 
Q 31.109375 20.453125 19.1875 8.296875 
z
" id="DejaVuSans-50"/>
     </defs>
     <use xlink:href="#DejaVuSans-50"/>
    </g>
   </g>
   <g id="text_3">
    <!-- 3 -->
    <g transform="translate(327.943744 292.240341)scale(0.1 -0.1)">
     <defs>
      <path d="M 40.578125 39.3125 
Q 47.65625 37.796875 51.625 33 
Q 55.609375 28.21875 55.609375 21.1875 
Q 55.609375 10.40625 48.1875 4.484375 
Q 40.765625 -1.421875 27.09375 -1.421875 
Q 22.515625 -1.421875 17.65625 -0.515625 
Q 12.796875 0.390625 7.625 2.203125 
L 7.625 11.71875 
Q 11.71875 9.328125 16.59375 8.109375 
Q 21.484375 6.890625 26.8125 6.890625 
Q 36.078125 6.890625 40.9375 10.546875 
Q 45.796875 14.203125 45.796875 21.1875 
Q 45.796875 27.640625 41.28125 31.265625 
Q 36.765625 34.90625 28.71875 34.90625 
L 20.21875 34.90625 
L 20.21875 43.015625 
L 29.109375 43.015625 
Q 36.375 43.015625 40.234375 45.921875 
Q 44.09375 48.828125 44.09375 54.296875 
Q 44.09375 59.90625 40.109375 62.90625 
Q 36.140625 65.921875 28.71875 65.921875 
Q 24.65625 65.921875 20.015625 65.03125 
Q 15.375 64.15625 9.8125 62.3125 
L 9.8125 71.09375 
Q 15.4375 72.65625 20.34375 73.4375 
Q 25.25 74.21875 29.59375 74.21875 
Q 40.828125 74.21875 47.359375 69.109375 
Q 53.90625 64.015625 53.90625 55.328125 
Q 53.90625 49.265625 50.4375 45.09375 
Q 46.96875 40.921875 40.578125 39.3125 
z
" id="DejaVuSans-51"/>
     </defs>
     <use xlink:href="#DejaVuSans-51"/>
    </g>
   </g>
  </g>
 </g>
 <defs>
  <clipPath id="pbc5286750c">
   <rect height="324" width="348.368521" x="7.2" y="7.2"/>
  </clipPath>
 </defs>
</svg>
