<?xml version="1.0" encoding="utf-8" standalone="no"?>
<!DOCTYPE svg PUBLIC "-//W3C//DTD SVG 1.1//EN"
  "http://www.w3.org/Graphics/SVG/1.1/DTD/svg11.dtd">
<!-- Created with matplotlib (https://matplotlib.org/) -->
<svg height="338.4pt" version="1.1" viewBox="0 0 176.844222 338.4" width="176.844222pt" xmlns="http://www.w3.org/2000/svg" xmlns:xlink="http://www.w3.org/1999/xlink">
 <metadata>
  <rdf:RDF xmlns:cc="http://creativecommons.org/ns#" xmlns:dc="http://purl.org/dc/elements/1.1/" xmlns:rdf="http://www.w3.org/1999/02/22-rdf-syntax-ns#">
   <cc:Work>
    <dc:type rdf:resource="http://purl.org/dc/dcmitype/StillImage"/>
    <dc:date>2024-08-05T21:44:49.430352</dc:date>
    <dc:format>image/svg+xml</dc:format>
    <dc:creator>
     <cc:Agent>
      <dc:title>Matplotlib v3.3.4, https://matplotlib.org/</dc:title>
     </cc:Agent>
    </dc:creator>
   </cc:Work>
  </rdf:RDF>
 </metadata>
 <defs>
  <style type="text/css">*{stroke-linecap:butt;stroke-linejoin:round;}</style>
 </defs>
 <g id="figure_1">
  <g id="patch_1">
   <path d="M 0 338.4 
L 176.844222 338.4 
L 176.844222 0 
L 0 0 
z
" style="fill:#ffffff;"/>
  </g>
  <g id="axes_1">
   <g id="patch_2">
    <path d="M 7.2 331.2 
L 169.644222 331.2 
L 169.644222 7.2 
L 7.2 7.2 
z
" style="fill:#ffffff;"/>
   </g>
   <g id="patch_3">
    <path clip-path="url(#pe742d50207)" d="M 95.887796 305.033652 
Q 120.099086 237.242147 96.689101 171.538879 
" style="fill:none;stroke:#000000;stroke-linecap:round;stroke-width:2;"/>
    <path clip-path="url(#pe742d50207)" d="M 95.335444 182.636969 
L 96.689101 171.538879 
L 104.755379 179.280659 
L 95.335444 182.636969 
z
" style="stroke:#000000;stroke-linecap:round;stroke-width:2;"/>
   </g>
   <g id="patch_4">
    <path clip-path="url(#pe742d50207)" d="M 88.238306 302.924705 
Q 64.828321 237.221436 89.039611 169.429932 
" style="fill:none;stroke:#000000;stroke-linecap:round;stroke-width:2;"/>
    <path clip-path="url(#pe742d50207)" d="M 89.591964 291.826615 
L 88.238306 302.924705 
L 80.172028 295.182925 
L 89.591964 291.826615 
z
" style="stroke:#000000;stroke-linecap:round;stroke-width:2;"/>
   </g>
   <g id="matplotlib.axis_1"/>
   <g id="matplotlib.axis_2"/>
   <g id="patch_5">
    <path clip-path="url(#pe742d50207)" d="M 39.014371 23.698196 
Q 92.500479 23.70118 143.750519 23.704039 
" style="fill:none;stroke:#000000;stroke-linecap:round;stroke-width:2;"/>
    <path clip-path="url(#pe742d50207)" d="M 133.750798 18.703482 
L 143.750519 23.704039 
L 133.75024 28.703482 
L 133.750798 18.703482 
z
" style="stroke:#000000;stroke-linecap:round;stroke-width:2;"/>
   </g>
   <g id="patch_6">
    <path clip-path="url(#pe742d50207)" d="M 34.051821 35.019611 
Q 60.620125 91.729415 88.13707 150.464084 
" style="fill:none;stroke:#000000;stroke-linecap:round;stroke-width:2;"/>
    <path clip-path="url(#pe742d50207)" d="M 33.766535 46.196311 
L 34.051821 35.019611 
L 42.822009 41.95386 
L 33.766535 46.196311 
z
" style="stroke:#000000;stroke-linecap:round;stroke-width:2;"/>
   </g>
   <g id="patch_7">
    <path clip-path="url(#pe742d50207)" d="M 97.798321 148.43982 
Q 124.373087 91.732972 151.896723 33.001366 
" style="fill:none;stroke:#000000;stroke-linecap:round;stroke-width:2;"/>
    <path clip-path="url(#pe742d50207)" d="M 106.569296 141.506567 
L 97.798321 148.43982 
L 97.514304 137.263089 
L 106.569296 141.506567 
z
" style="stroke:#000000;stroke-linecap:round;stroke-width:2;"/>
   </g>
   <g id="patch_8">
    <path d="M 28.747517 33.964477 
C 31.470319 33.964477 34.081968 32.882697 36.007279 30.957385 
C 37.93259 29.032074 39.014371 26.420425 39.014371 23.697623 
C 39.014371 20.974822 37.93259 18.363173 36.007279 16.437861 
C 34.081968 14.51255 31.470319 13.430769 28.747517 13.430769 
C 26.024716 13.430769 23.413066 14.51255 21.487755 16.437861 
C 19.562444 18.363173 18.480663 20.974822 18.480663 23.697623 
C 18.480663 26.420425 19.562444 29.032074 21.487755 30.957385 
C 23.413066 32.882697 26.024716 33.964477 28.747517 33.964477 
z
" style="fill:#fec7b8;stroke:#000000;stroke-linejoin:miter;"/>
   </g>
   <g id="patch_9">
    <path d="M 92.434674 324.969231 
C 95.157476 324.969231 97.769125 323.88745 99.694436 321.962139 
C 101.619748 320.036827 102.701528 317.425178 102.701528 314.702377 
C 102.701528 311.979575 101.619748 309.367926 99.694436 307.442615 
C 97.769125 305.517303 95.157476 304.435523 92.434674 304.435523 
C 89.711873 304.435523 87.100224 305.517303 85.174912 307.442615 
C 83.249601 309.367926 82.16782 311.979575 82.16782 314.702377 
C 82.16782 317.425178 83.249601 320.036827 85.174912 321.962139 
C 87.100224 323.88745 89.711873 324.969231 92.434674 324.969231 
z
" style="fill:#fec7b8;stroke:#000000;stroke-linejoin:miter;"/>
   </g>
   <g id="patch_10">
    <path d="M 92.492733 170.028061 
C 95.215534 170.028061 97.827184 168.94628 99.752495 167.020969 
C 101.677806 165.095658 102.759587 162.484008 102.759587 159.761207 
C 102.759587 157.038405 101.677806 154.426756 99.752495 152.501445 
C 97.827184 150.576133 95.215534 149.494353 92.492733 149.494353 
C 89.769931 149.494353 87.158282 150.576133 85.232971 152.501445 
C 83.307659 154.426756 82.225879 157.038405 82.225879 159.761207 
C 82.225879 162.484008 83.307659 165.095658 85.232971 167.020969 
C 87.158282 168.94628 89.769931 170.028061 92.492733 170.028061 
z
" style="fill:#fec7b8;stroke:#000000;stroke-linejoin:miter;"/>
   </g>
   <g id="patch_11">
    <path d="M 156.25344 33.971591 
C 158.976242 33.971591 161.587891 32.88981 163.513203 30.964499 
C 165.438514 29.039188 166.520294 26.427538 166.520294 23.704737 
C 166.520294 20.981936 165.438514 18.370286 163.513203 16.444975 
C 161.587891 14.519664 158.976242 13.437883 156.25344 13.437883 
C 153.530639 13.437883 150.91899 14.519664 148.993678 16.444975 
C 147.068367 18.370286 145.986587 20.981936 145.986587 23.704737 
C 145.986587 26.427538 147.068367 29.039188 148.993678 30.964499 
C 150.91899 32.88981 153.530639 33.971591 156.25344 33.971591 
z
" style="fill:#fec7b8;stroke:#000000;stroke-linejoin:miter;"/>
   </g>
   <g id="patch_12">
    <path clip-path="url(#pe742d50207)" d="M 28.747517 60.544803 
C 33.63351 60.544803 38.320043 58.603577 41.774962 55.148658 
C 45.229881 51.693739 47.171107 47.007206 47.171107 42.121213 
C 47.171107 37.23522 45.229881 32.548687 41.774962 29.093768 
C 38.320043 25.638849 33.63351 23.697623 28.747517 23.697623 
C 23.861524 23.697623 19.174991 25.638849 15.720072 29.093768 
C 12.265153 32.548687 10.323927 37.23522 10.323927 42.121213 
C 10.323927 47.007206 12.265153 51.693739 15.720072 55.148658 
C 19.174991 58.603577 23.861524 60.544803 28.747517 60.544803 
z
" style="fill:none;stroke:#000000;stroke-linejoin:miter;"/>
   </g>
   <g id="text_1">
    <!-- 0 -->
    <g transform="translate(25.566267 26.456998)scale(0.1 -0.1)">
     <defs>
      <path d="M 31.78125 66.40625 
Q 24.171875 66.40625 20.328125 58.90625 
Q 16.5 51.421875 16.5 36.375 
Q 16.5 21.390625 20.328125 13.890625 
Q 24.171875 6.390625 31.78125 6.390625 
Q 39.453125 6.390625 43.28125 13.890625 
Q 47.125 21.390625 47.125 36.375 
Q 47.125 51.421875 43.28125 58.90625 
Q 39.453125 66.40625 31.78125 66.40625 
z
M 31.78125 74.21875 
Q 44.046875 74.21875 50.515625 64.515625 
Q 56.984375 54.828125 56.984375 36.375 
Q 56.984375 17.96875 50.515625 8.265625 
Q 44.046875 -1.421875 31.78125 -1.421875 
Q 19.53125 -1.421875 13.0625 8.265625 
Q 6.59375 17.96875 6.59375 36.375 
Q 6.59375 54.828125 13.0625 64.515625 
Q 19.53125 74.21875 31.78125 74.21875 
z
" id="DejaVuSans-48"/>
     </defs>
     <use xlink:href="#DejaVuSans-48"/>
    </g>
   </g>
   <g id="text_2">
    <!-- 1 -->
    <g transform="translate(89.253424 317.461752)scale(0.1 -0.1)">
     <defs>
      <path d="M 12.40625 8.296875 
L 28.515625 8.296875 
L 28.515625 63.921875 
L 10.984375 60.40625 
L 10.984375 69.390625 
L 28.421875 72.90625 
L 38.28125 72.90625 
L 38.28125 8.296875 
L 54.390625 8.296875 
L 54.390625 0 
L 12.40625 0 
z
" id="DejaVuSans-49"/>
     </defs>
     <use xlink:href="#DejaVuSans-49"/>
    </g>
   </g>
   <g id="text_3">
    <!-- 2 -->
    <g transform="translate(89.311483 162.520582)scale(0.1 -0.1)">
     <defs>
      <path d="M 19.1875 8.296875 
L 53.609375 8.296875 
L 53.609375 0 
L 7.328125 0 
L 7.328125 8.296875 
Q 12.9375 14.109375 22.625 23.890625 
Q 32.328125 33.6875 34.8125 36.53125 
Q 39.546875 41.84375 41.421875 45.53125 
Q 43.3125 49.21875 43.3125 52.78125 
Q 43.3125 58.59375 39.234375 62.25 
Q 35.15625 65.921875 28.609375 65.921875 
Q 23.96875 65.921875 18.8125 64.3125 
Q 13.671875 62.703125 7.8125 59.421875 
L 7.8125 69.390625 
Q 13.765625 71.78125 18.9375 73 
Q 24.125 74.21875 28.421875 74.21875 
Q 39.75 74.21875 46.484375 68.546875 
Q 53.21875 62.890625 53.21875 53.421875 
Q 53.21875 48.921875 51.53125 44.890625 
Q 49.859375 40.875 45.40625 35.40625 
Q 44.1875 33.984375 37.640625 27.21875 
Q 31.109375 20.453125 19.1875 8.296875 
z
" id="DejaVuSans-50"/>
     </defs>
     <use xlink:href="#DejaVuSans-50"/>
    </g>
   </g>
   <g id="text_4">
    <!-- 3 -->
    <g transform="translate(153.07219 26.464112)scale(0.1 -0.1)">
     <defs>
      <path d="M 40.578125 39.3125 
Q 47.65625 37.796875 51.625 33 
Q 55.609375 28.21875 55.609375 21.1875 
Q 55.609375 10.40625 48.1875 4.484375 
Q 40.765625 -1.421875 27.09375 -1.421875 
Q 22.515625 -1.421875 17.65625 -0.515625 
Q 12.796875 0.390625 7.625 2.203125 
L 7.625 11.71875 
Q 11.71875 9.328125 16.59375 8.109375 
Q 21.484375 6.890625 26.8125 6.890625 
Q 36.078125 6.890625 40.9375 10.546875 
Q 45.796875 14.203125 45.796875 21.1875 
Q 45.796875 27.640625 41.28125 31.265625 
Q 36.765625 34.90625 28.71875 34.90625 
L 20.21875 34.90625 
L 20.21875 43.015625 
L 29.109375 43.015625 
Q 36.375 43.015625 40.234375 45.921875 
Q 44.09375 48.828125 44.09375 54.296875 
Q 44.09375 59.90625 40.109375 62.90625 
Q 36.140625 65.921875 28.71875 65.921875 
Q 24.65625 65.921875 20.015625 65.03125 
Q 15.375 64.15625 9.8125 62.3125 
L 9.8125 71.09375 
Q 15.4375 72.65625 20.34375 73.4375 
Q 25.25 74.21875 29.59375 74.21875 
Q 40.828125 74.21875 47.359375 69.109375 
Q 53.90625 64.015625 53.90625 55.328125 
Q 53.90625 49.265625 50.4375 45.09375 
Q 46.96875 40.921875 40.578125 39.3125 
z
" id="DejaVuSans-51"/>
     </defs>
     <use xlink:href="#DejaVuSans-51"/>
    </g>
   </g>
  </g>
 </g>
 <defs>
  <clipPath id="pe742d50207">
   <rect height="324" width="162.444222" x="7.2" y="7.2"/>
  </clipPath>
 </defs>
</svg>
