<?xml version="1.0" encoding="utf-8" standalone="no"?>
<!DOCTYPE svg PUBLIC "-//W3C//DTD SVG 1.1//EN"
  "http://www.w3.org/Graphics/SVG/1.1/DTD/svg11.dtd">
<svg xmlns:xlink="http://www.w3.org/1999/xlink" width="453.6pt" height="266.496452pt" viewBox="0 0 453.6 266.496452" xmlns="http://www.w3.org/2000/svg" version="1.1">
 <metadata>
  <rdf:RDF xmlns:dc="http://purl.org/dc/elements/1.1/" xmlns:cc="http://creativecommons.org/ns#" xmlns:rdf="http://www.w3.org/1999/02/22-rdf-syntax-ns#">
   <cc:Work>
    <dc:type rdf:resource="http://purl.org/dc/dcmitype/StillImage"/>
    <dc:date>2025-01-15T01:48:45.216010</dc:date>
    <dc:format>image/svg+xml</dc:format>
    <dc:creator>
     <cc:Agent>
      <dc:title>Matplotlib v3.6.3, https://matplotlib.org/</dc:title>
     </cc:Agent>
    </dc:creator>
   </cc:Work>
  </rdf:RDF>
 </metadata>
 <defs>
  <style type="text/css">*{stroke-linejoin: round; stroke-linecap: butt}</style>
 </defs>
 <g id="figure_1">
  <g id="patch_1">
   <path d="M 0 266.496452 
L 453.6 266.496452 
L 453.6 0 
L 0 0 
z
" style="fill: #ffffff"/>
  </g>
  <g id="axes_1">
   <g id="patch_2">
    <path d="M 7.2 259.296452 
L 446.4 259.296452 
L 446.4 7.2 
L 7.2 7.2 
z
" style="fill: #ffffff"/>
   </g>
   <g id="patch_3">
    <path d="M 42.426277 240.537758 
Q 136.361023 236.918932 205.157051 176.185592 
" clip-path="url(#p220934807f)" style="fill: none; stroke: #000000; stroke-width: 2; stroke-linecap: round"/>
    <path d="M 194.35129 179.055353 
L 205.157051 176.185592 
L 200.969403 186.552057 
L 194.35129 179.055353 
z
" clip-path="url(#p220934807f)" style="stroke: #000000; stroke-width: 2; stroke-linecap: round"/>
   </g>
   <g id="patch_4">
    <path d="M 40.759349 230.708582 
Q 109.555376 169.975242 203.490123 166.356416 
" clip-path="url(#p220934807f)" style="fill: none; stroke: #000000; stroke-width: 2; stroke-linecap: round"/>
    <path d="M 51.56511 227.838821 
L 40.759349 230.708582 
L 44.946997 220.342117 
L 51.56511 227.838821 
z
" clip-path="url(#p220934807f)" style="stroke: #000000; stroke-width: 2; stroke-linecap: round"/>
   </g>
   <g id="matplotlib.axis_1"/>
   <g id="matplotlib.axis_2"/>
   <g id="patch_5">
    <path d="M 408.618503 163.155934 
Q 381.613455 100.450793 355.492872 39.799361 
" clip-path="url(#p220934807f)" style="fill: none; stroke: #000000; stroke-width: 2; stroke-linecap: round"/>
    <path d="M 354.856087 50.961551 
L 355.492872 39.799361 
L 364.040554 47.006103 
L 354.856087 50.961551 
z
" clip-path="url(#p220934807f)" style="stroke: #000000; stroke-width: 2; stroke-linecap: round"/>
   </g>
   <g id="patch_6">
    <path d="M 398.304331 174.696489 
Q 315.396028 170.649654 230.254317 166.493804 
" clip-path="url(#p220934807f)" style="fill: none; stroke: #000000; stroke-width: 2; stroke-linecap: round"/>
    <path d="M 388.559987 169.214906 
L 398.304331 174.696489 
L 388.072457 179.203014 
L 388.559987 169.214906 
z
" clip-path="url(#p220934807f)" style="stroke: #000000; stroke-width: 2; stroke-linecap: round"/>
   </g>
   <g id="patch_7">
    <path d="M 227.600917 154.470159 
Q 283.092647 95.641896 340.118714 35.18704 
" clip-path="url(#p220934807f)" style="fill: none; stroke: #000000; stroke-width: 2; stroke-linecap: round"/>
    <path d="M 238.099861 150.626698 
L 227.600917 154.470159 
L 230.825515 143.764928 
L 238.099861 150.626698 
z
" clip-path="url(#p220934807f)" style="stroke: #000000; stroke-width: 2; stroke-linecap: round"/>
   </g>
   <g id="patch_8">
    <path d="M 413.916837 188.853577 
C 417.469239 188.853577 420.876623 187.442193 423.388551 184.930265 
C 425.900479 182.418337 427.311863 179.010954 427.311863 175.458551 
C 427.311863 171.906149 425.900479 168.498765 423.388551 165.986837 
C 420.876623 163.47491 417.469239 162.063525 413.916837 162.063525 
C 410.364435 162.063525 406.957051 163.47491 404.445123 165.986837 
C 401.933196 168.498765 400.521811 171.906149 400.521811 175.458551 
C 400.521811 179.010954 401.933196 182.418337 404.445123 184.930265 
C 406.957051 187.442193 410.364435 188.853577 413.916837 188.853577 
z
" style="fill: #fec7b8; stroke: #000000; stroke-linejoin: miter"/>
   </g>
   <g id="patch_9">
    <path d="M 29.04118 254.448443 
C 32.593582 254.448443 36.000966 253.037059 38.512893 250.525131 
C 41.024821 248.013203 42.436206 244.605819 42.436206 241.053417 
C 42.436206 237.501015 41.024821 234.093631 38.512893 231.581703 
C 36.000966 229.069776 32.593582 227.658391 29.04118 227.658391 
C 25.488777 227.658391 22.081394 229.069776 19.569466 231.581703 
C 17.057538 234.093631 15.646154 237.501015 15.646154 241.053417 
C 15.646154 244.605819 17.057538 248.013203 19.569466 250.525131 
C 22.081394 253.037059 25.488777 254.448443 29.04118 254.448443 
z
" style="fill: #fec7b8; stroke: #000000; stroke-linejoin: miter"/>
   </g>
   <g id="patch_10">
    <path d="M 216.87522 179.235783 
C 220.427622 179.235783 223.835006 177.824398 226.346933 175.312471 
C 228.858861 172.800543 230.270246 169.393159 230.270246 165.840757 
C 230.270246 162.288354 228.858861 158.880971 226.346933 156.369043 
C 223.835006 153.857115 220.427622 152.445731 216.87522 152.445731 
C 213.322817 152.445731 209.915434 153.857115 207.403506 156.369043 
C 204.891578 158.880971 203.480194 162.288354 203.480194 165.840757 
C 203.480194 169.393159 204.891578 172.800543 207.403506 175.312471 
C 209.915434 177.824398 213.322817 179.235783 216.87522 179.235783 
z
" style="fill: #fec7b8; stroke: #000000; stroke-linejoin: miter"/>
   </g>
   <g id="patch_11">
    <path d="M 349.310073 38.838061 
C 352.862476 38.838061 356.269859 37.426676 358.781787 34.914748 
C 361.293715 32.40282 362.705099 28.995437 362.705099 25.443035 
C 362.705099 21.890632 361.293715 18.483249 358.781787 15.971321 
C 356.269859 13.459393 352.862476 12.048009 349.310073 12.048009 
C 345.757671 12.048009 342.350288 13.459393 339.83836 15.971321 
C 337.326432 18.483249 335.915047 21.890632 335.915047 25.443035 
C 335.915047 28.995437 337.326432 32.40282 339.83836 34.914748 
C 342.350288 37.426676 345.757671 38.838061 349.310073 38.838061 
z
" style="fill: #fec7b8; stroke: #000000; stroke-linejoin: miter"/>
   </g>
   <g id="patch_12">
    <path d="M 413.916837 223.532569 
C 420.291526 223.532569 426.405983 220.999878 430.913569 216.492292 
C 435.421155 211.984706 437.953846 205.87025 437.953846 199.49556 
C 437.953846 193.120871 435.421155 187.006414 430.913569 182.498828 
C 426.405983 177.991242 420.291526 175.458551 413.916837 175.458551 
C 407.542148 175.458551 401.427691 177.991242 396.920105 182.498828 
C 392.412519 187.006414 389.879828 193.120871 389.879828 199.49556 
C 389.879828 205.87025 392.412519 211.984706 396.920105 216.492292 
C 401.427691 220.999878 407.542148 223.532569 413.916837 223.532569 
L 413.916837 223.532569 
z
" clip-path="url(#p220934807f)" style="fill: none; stroke: #000000; stroke-linejoin: miter"/>
   </g>
   <g id="text_1">
    <!-- 0 -->
    <g transform="translate(410.735587 178.217926) scale(0.1 -0.1)">
     <defs>
      <path id="DejaVuSans-30" d="M 2034 4250 
Q 1547 4250 1301 3770 
Q 1056 3291 1056 2328 
Q 1056 1369 1301 889 
Q 1547 409 2034 409 
Q 2525 409 2770 889 
Q 3016 1369 3016 2328 
Q 3016 3291 2770 3770 
Q 2525 4250 2034 4250 
z
M 2034 4750 
Q 2819 4750 3233 4129 
Q 3647 3509 3647 2328 
Q 3647 1150 3233 529 
Q 2819 -91 2034 -91 
Q 1250 -91 836 529 
Q 422 1150 422 2328 
Q 422 3509 836 4129 
Q 1250 4750 2034 4750 
z
" transform="scale(0.015625)"/>
     </defs>
     <use xlink:href="#DejaVuSans-30"/>
    </g>
   </g>
   <g id="text_2">
    <!-- 1 -->
    <g transform="translate(25.85993 243.812792) scale(0.1 -0.1)">
     <defs>
      <path id="DejaVuSans-31" d="M 794 531 
L 1825 531 
L 1825 4091 
L 703 3866 
L 703 4441 
L 1819 4666 
L 2450 4666 
L 2450 531 
L 3481 531 
L 3481 0 
L 794 0 
L 794 531 
z
" transform="scale(0.015625)"/>
     </defs>
     <use xlink:href="#DejaVuSans-31"/>
    </g>
   </g>
   <g id="text_3">
    <!-- 2 -->
    <g transform="translate(213.69397 168.600132) scale(0.1 -0.1)">
     <defs>
      <path id="DejaVuSans-32" d="M 1228 531 
L 3431 531 
L 3431 0 
L 469 0 
L 469 531 
Q 828 903 1448 1529 
Q 2069 2156 2228 2338 
Q 2531 2678 2651 2914 
Q 2772 3150 2772 3378 
Q 2772 3750 2511 3984 
Q 2250 4219 1831 4219 
Q 1534 4219 1204 4116 
Q 875 4013 500 3803 
L 500 4441 
Q 881 4594 1212 4672 
Q 1544 4750 1819 4750 
Q 2544 4750 2975 4387 
Q 3406 4025 3406 3419 
Q 3406 3131 3298 2873 
Q 3191 2616 2906 2266 
Q 2828 2175 2409 1742 
Q 1991 1309 1228 531 
z
" transform="scale(0.015625)"/>
     </defs>
     <use xlink:href="#DejaVuSans-32"/>
    </g>
   </g>
   <g id="text_4">
    <!-- 3 -->
    <g transform="translate(346.128823 28.20241) scale(0.1 -0.1)">
     <defs>
      <path id="DejaVuSans-33" d="M 2597 2516 
Q 3050 2419 3304 2112 
Q 3559 1806 3559 1356 
Q 3559 666 3084 287 
Q 2609 -91 1734 -91 
Q 1441 -91 1130 -33 
Q 819 25 488 141 
L 488 750 
Q 750 597 1062 519 
Q 1375 441 1716 441 
Q 2309 441 2620 675 
Q 2931 909 2931 1356 
Q 2931 1769 2642 2001 
Q 2353 2234 1838 2234 
L 1294 2234 
L 1294 2753 
L 1863 2753 
Q 2328 2753 2575 2939 
Q 2822 3125 2822 3475 
Q 2822 3834 2567 4026 
Q 2313 4219 1838 4219 
Q 1578 4219 1281 4162 
Q 984 4106 628 3988 
L 628 4550 
Q 988 4650 1302 4700 
Q 1616 4750 1894 4750 
Q 2613 4750 3031 4423 
Q 3450 4097 3450 3541 
Q 3450 3153 3228 2886 
Q 3006 2619 2597 2516 
z
" transform="scale(0.015625)"/>
     </defs>
     <use xlink:href="#DejaVuSans-33"/>
    </g>
   </g>
  </g>
 </g>
 <defs>
  <clipPath id="p220934807f">
   <rect x="7.2" y="7.2" width="439.2" height="252.096452"/>
  </clipPath>
 </defs>
</svg>
