<?xml version="1.0" encoding="utf-8" standalone="no"?>
<!DOCTYPE svg PUBLIC "-//W3C//DTD SVG 1.1//EN"
  "http://www.w3.org/Graphics/SVG/1.1/DTD/svg11.dtd">
<svg xmlns:xlink="http://www.w3.org/1999/xlink" width="157.657424pt" height="338.4pt" viewBox="0 0 157.657424 338.4" xmlns="http://www.w3.org/2000/svg" version="1.1">
 <metadata>
  <rdf:RDF xmlns:dc="http://purl.org/dc/elements/1.1/" xmlns:cc="http://creativecommons.org/ns#" xmlns:rdf="http://www.w3.org/1999/02/22-rdf-syntax-ns#">
   <cc:Work>
    <dc:type rdf:resource="http://purl.org/dc/dcmitype/StillImage"/>
    <dc:date>2025-04-08T20:01:00.989573</dc:date>
    <dc:format>image/svg+xml</dc:format>
    <dc:creator>
     <cc:Agent>
      <dc:title>Matplotlib v3.10.1, https://matplotlib.org/</dc:title>
     </cc:Agent>
    </dc:creator>
   </cc:Work>
  </rdf:RDF>
 </metadata>
 <defs>
  <style type="text/css">*{stroke-linejoin: round; stroke-linecap: butt}</style>
 </defs>
 <g id="figure_1">
  <g id="patch_1">
   <path d="M 0 338.4 
L 157.657424 338.4 
L 157.657424 0 
L 0 0 
z
" style="fill: #ffffff"/>
  </g>
  <g id="axes_1">
   <g id="patch_2">
    <path d="M 7.2 331.2 
L 150.457424 331.2 
L 150.457424 7.2 
L 7.2 7.2 
z
" style="fill: #ffffff"/>
   </g>
   <g id="patch_3">
    <path d="M 92.777064 31.850031 
Q 111.301559 95.702909 86.446297 154.950102 
" clip-path="url(#p76a76aa533)" style="fill: none; stroke: #000000; stroke-width: 2; stroke-linecap: round"/>
    <path d="M 94.925547 147.662968 
L 86.446297 154.950102 
L 85.704139 143.794422 
z
" clip-path="url(#p76a76aa533)" style="stroke: #000000; stroke-width: 2; stroke-linecap: round"/>
   </g>
   <g id="patch_4">
    <path d="M 85.65942 33.552526 
Q 60.804158 92.799719 79.328653 156.652597 
" clip-path="url(#p76a76aa533)" style="fill: none; stroke: #000000; stroke-width: 2; stroke-linecap: round"/>
    <path d="M 77.18017 40.83966 
L 85.65942 33.552526 
L 86.401577 44.708206 
z
" clip-path="url(#p76a76aa533)" style="stroke: #000000; stroke-width: 2; stroke-linecap: round"/>
   </g>
   <g id="matplotlib.axis_1"/>
   <g id="matplotlib.axis_2"/>
   <g id="patch_5">
    <path d="M 121.461867 290.712395 
Q 75.096413 288.061499 30.963381 285.538239 
" clip-path="url(#p76a76aa533)" style="fill: none; stroke: #000000; stroke-width: 2; stroke-linecap: round"/>
    <path d="M 40.661673 291.100894 
L 30.963381 285.538239 
L 41.23248 281.117198 
z
" clip-path="url(#p76a76aa533)" style="stroke: #000000; stroke-width: 2; stroke-linecap: round"/>
   </g>
   <g id="patch_6">
    <path d="M 126.621689 280.409686 
Q 106.39436 228.462451 85.355683 174.431538 
" clip-path="url(#p76a76aa533)" style="fill: none; stroke: #000000; stroke-width: 2; stroke-linecap: round"/>
    <path d="M 127.65248 269.276965 
L 126.621689 280.409686 
L 118.333988 272.90542 
z
" clip-path="url(#p76a76aa533)" style="stroke: #000000; stroke-width: 2; stroke-linecap: round"/>
   </g>
   <g id="patch_7">
    <path d="M 76.538541 175.974305 
Q 50.648561 225.275243 23.718961 276.555875 
" clip-path="url(#p76a76aa533)" style="fill: none; stroke: #000000; stroke-width: 2; stroke-linecap: round"/>
    <path d="M 67.462487 182.503107 
L 76.538541 175.974305 
L 76.315949 187.152429 
z
" clip-path="url(#p76a76aa533)" style="stroke: #000000; stroke-width: 2; stroke-linecap: round"/>
   </g>
   <g id="patch_8">
    <path d="M 130.842211 300.64437 
C 133.333971 300.64437 135.724009 299.654384 137.485949 297.892444 
C 139.247889 296.130504 140.237875 293.740466 140.237875 291.248706 
C 140.237875 288.756947 139.247889 286.366909 137.485949 284.604969 
C 135.724009 282.843029 133.333971 281.853043 130.842211 281.853043 
C 128.350452 281.853043 125.960414 282.843029 124.198474 284.604969 
C 122.436534 286.366909 121.446548 288.756947 121.446548 291.248706 
C 121.446548 293.740466 122.436534 296.130504 124.198474 297.892444 
C 125.960414 299.654384 128.350452 300.64437 130.842211 300.64437 
z
" style="fill: #fec7b8; stroke: #000000; stroke-linejoin: miter"/>
   </g>
   <g id="patch_9">
    <path d="M 90.159208 32.222096 
C 92.650968 32.222096 95.041006 31.23211 96.802946 29.47017 
C 98.564886 27.70823 99.554872 25.318192 99.554872 22.826433 
C 99.554872 20.334674 98.564886 17.944635 96.802946 16.182695 
C 95.041006 14.420756 92.650968 13.430769 90.159208 13.430769 
C 87.667449 13.430769 85.277411 14.420756 83.515471 16.182695 
C 81.753531 17.944635 80.763545 20.334674 80.763545 22.826433 
C 80.763545 25.318192 81.753531 27.70823 83.515471 29.47017 
C 85.277411 31.23211 87.667449 32.222096 90.159208 32.222096 
z
" style="fill: #fec7b8; stroke: #000000; stroke-linejoin: miter"/>
   </g>
   <g id="patch_10">
    <path d="M 81.946508 175.071859 
C 84.438267 175.071859 86.828306 174.081873 88.590245 172.319933 
C 90.352185 170.557993 91.342172 168.167955 91.342172 165.676195 
C 91.342172 163.184436 90.352185 160.794398 88.590245 159.032458 
C 86.828306 157.270518 84.438267 156.280532 81.946508 156.280532 
C 79.454749 156.280532 77.06471 157.270518 75.302771 159.032458 
C 73.540831 160.794398 72.550845 163.184436 72.550845 165.676195 
C 72.550845 168.167955 73.540831 170.557993 75.302771 172.319933 
C 77.06471 174.081873 79.454749 175.071859 81.946508 175.071859 
z
" style="fill: #fec7b8; stroke: #000000; stroke-linejoin: miter"/>
   </g>
   <g id="patch_11">
    <path d="M 19.350614 294.269954 
C 21.842373 294.269954 24.232412 293.279968 25.994351 291.518028 
C 27.756291 289.756089 28.746277 287.36605 28.746277 284.874291 
C 28.746277 282.382532 27.756291 279.992493 25.994351 278.230554 
C 24.232412 276.468614 21.842373 275.478627 19.350614 275.478627 
C 16.858855 275.478627 14.468816 276.468614 12.706877 278.230554 
C 10.944937 279.992493 9.95495 282.382532 9.95495 284.874291 
C 9.95495 287.36605 10.944937 289.756089 12.706877 291.518028 
C 14.468816 293.279968 16.858855 294.269954 19.350614 294.269954 
z
" style="fill: #fec7b8; stroke: #000000; stroke-linejoin: miter"/>
   </g>
   <g id="patch_12">
    <path d="M 130.842211 324.969231 
C 135.313605 324.969231 139.602464 323.192727 142.764217 320.030974 
C 145.92597 316.869221 147.702474 312.580362 147.702474 308.108969 
C 147.702474 303.637575 145.92597 299.348716 142.764217 296.186963 
C 139.602464 293.02521 135.313605 291.248706 130.842211 291.248706 
C 126.370818 291.248706 122.081959 293.02521 118.920206 296.186963 
C 115.758453 299.348716 113.981949 303.637575 113.981949 308.108969 
C 113.981949 312.580362 115.758453 316.869221 118.920206 320.030974 
C 122.081959 323.192727 126.370818 324.969231 130.842211 324.969231 
L 130.842211 324.969231 
z
" clip-path="url(#p76a76aa533)" style="fill: none; stroke: #000000; stroke-linejoin: miter"/>
   </g>
   <g id="text_1">
    <!-- 0 -->
    <g transform="translate(127.660961 294.008081) scale(0.1 -0.1)">
     <defs>
      <path id="DejaVuSans-30" d="M 2034 4250 
Q 1547 4250 1301 3770 
Q 1056 3291 1056 2328 
Q 1056 1369 1301 889 
Q 1547 409 2034 409 
Q 2525 409 2770 889 
Q 3016 1369 3016 2328 
Q 3016 3291 2770 3770 
Q 2525 4250 2034 4250 
z
M 2034 4750 
Q 2819 4750 3233 4129 
Q 3647 3509 3647 2328 
Q 3647 1150 3233 529 
Q 2819 -91 2034 -91 
Q 1250 -91 836 529 
Q 422 1150 422 2328 
Q 422 3509 836 4129 
Q 1250 4750 2034 4750 
z
" transform="scale(0.015625)"/>
     </defs>
     <use xlink:href="#DejaVuSans-30"/>
    </g>
   </g>
   <g id="text_2">
    <!-- 1 -->
    <g transform="translate(86.977958 25.585808) scale(0.1 -0.1)">
     <defs>
      <path id="DejaVuSans-31" d="M 794 531 
L 1825 531 
L 1825 4091 
L 703 3866 
L 703 4441 
L 1819 4666 
L 2450 4666 
L 2450 531 
L 3481 531 
L 3481 0 
L 794 0 
L 794 531 
z
" transform="scale(0.015625)"/>
     </defs>
     <use xlink:href="#DejaVuSans-31"/>
    </g>
   </g>
   <g id="text_3">
    <!-- 2 -->
    <g transform="translate(78.765258 168.43557) scale(0.1 -0.1)">
     <defs>
      <path id="DejaVuSans-32" d="M 1228 531 
L 3431 531 
L 3431 0 
L 469 0 
L 469 531 
Q 828 903 1448 1529 
Q 2069 2156 2228 2338 
Q 2531 2678 2651 2914 
Q 2772 3150 2772 3378 
Q 2772 3750 2511 3984 
Q 2250 4219 1831 4219 
Q 1534 4219 1204 4116 
Q 875 4013 500 3803 
L 500 4441 
Q 881 4594 1212 4672 
Q 1544 4750 1819 4750 
Q 2544 4750 2975 4387 
Q 3406 4025 3406 3419 
Q 3406 3131 3298 2873 
Q 3191 2616 2906 2266 
Q 2828 2175 2409 1742 
Q 1991 1309 1228 531 
z
" transform="scale(0.015625)"/>
     </defs>
     <use xlink:href="#DejaVuSans-32"/>
    </g>
   </g>
   <g id="text_4">
    <!-- 3 -->
    <g transform="translate(16.169364 287.633666) scale(0.1 -0.1)">
     <defs>
      <path id="DejaVuSans-33" d="M 2597 2516 
Q 3050 2419 3304 2112 
Q 3559 1806 3559 1356 
Q 3559 666 3084 287 
Q 2609 -91 1734 -91 
Q 1441 -91 1130 -33 
Q 819 25 488 141 
L 488 750 
Q 750 597 1062 519 
Q 1375 441 1716 441 
Q 2309 441 2620 675 
Q 2931 909 2931 1356 
Q 2931 1769 2642 2001 
Q 2353 2234 1838 2234 
L 1294 2234 
L 1294 2753 
L 1863 2753 
Q 2328 2753 2575 2939 
Q 2822 3125 2822 3475 
Q 2822 3834 2567 4026 
Q 2313 4219 1838 4219 
Q 1578 4219 1281 4162 
Q 984 4106 628 3988 
L 628 4550 
Q 988 4650 1302 4700 
Q 1616 4750 1894 4750 
Q 2613 4750 3031 4423 
Q 3450 4097 3450 3541 
Q 3450 3153 3228 2886 
Q 3006 2619 2597 2516 
z
" transform="scale(0.015625)"/>
     </defs>
     <use xlink:href="#DejaVuSans-33"/>
    </g>
   </g>
  </g>
 </g>
 <defs>
  <clipPath id="p76a76aa533">
   <rect x="7.2" y="7.2" width="143.257424" height="324"/>
  </clipPath>
 </defs>
</svg>
