<?xml version="1.0" encoding="utf-8" standalone="no"?>
<!DOCTYPE svg PUBLIC "-//W3C//DTD SVG 1.1//EN"
  "http://www.w3.org/Graphics/SVG/1.1/DTD/svg11.dtd">
<!-- Created with matplotlib (https://matplotlib.org/) -->
<svg height="246.302487pt" version="1.1" viewBox="0 0 453.6 246.302487" width="453.6pt" xmlns="http://www.w3.org/2000/svg" xmlns:xlink="http://www.w3.org/1999/xlink">
 <metadata>
  <rdf:RDF xmlns:cc="http://creativecommons.org/ns#" xmlns:dc="http://purl.org/dc/elements/1.1/" xmlns:rdf="http://www.w3.org/1999/02/22-rdf-syntax-ns#">
   <cc:Work>
    <dc:type rdf:resource="http://purl.org/dc/dcmitype/StillImage"/>
    <dc:date>2024-02-12T03:07:27.533105</dc:date>
    <dc:format>image/svg+xml</dc:format>
    <dc:creator>
     <cc:Agent>
      <dc:title>Matplotlib v3.3.4, https://matplotlib.org/</dc:title>
     </cc:Agent>
    </dc:creator>
   </cc:Work>
  </rdf:RDF>
 </metadata>
 <defs>
  <style type="text/css">*{stroke-linecap:butt;stroke-linejoin:round;}</style>
 </defs>
 <g id="figure_1">
  <g id="patch_1">
   <path d="M 0 246.302487 
L 453.6 246.302487 
L 453.6 0 
L 0 0 
z
" style="fill:#ffffff;"/>
  </g>
  <g id="axes_1">
   <g id="patch_2">
    <path d="M 7.2 239.102487 
L 446.4 239.102487 
L 446.4 7.2 
L 7.2 7.2 
z
" style="fill:#ffffff;"/>
   </g>
   <g id="patch_3">
    <path clip-path="url(#p5f177a0477)" d="M 411.98593 60.288465 
Q 324.402804 104.69796 230.420953 85.300521 
" style="fill:none;stroke:#000000;stroke-linecap:round;stroke-width:2;"/>
    <path clip-path="url(#p5f177a0477)" d="M 239.203854 92.21866 
L 230.420953 85.300521 
L 241.225205 82.425084 
L 239.203854 92.21866 
z
" style="stroke:#000000;stroke-linecap:round;stroke-width:2;"/>
   </g>
   <g id="patch_4">
    <path clip-path="url(#p5f177a0477)" d="M 408.595532 50.854602 
Q 314.613682 31.457163 227.030555 75.866658 
" style="fill:none;stroke:#000000;stroke-linecap:round;stroke-width:2;"/>
    <path clip-path="url(#p5f177a0477)" d="M 399.812632 43.936463 
L 408.595532 50.854602 
L 397.791281 53.730039 
L 399.812632 43.936463 
z
" style="stroke:#000000;stroke-linecap:round;stroke-width:2;"/>
   </g>
   <g id="matplotlib.axis_1"/>
   <g id="matplotlib.axis_2"/>
   <g id="patch_5">
    <path clip-path="url(#p5f177a0477)" d="M 50.068378 171.790684 
Q 40.680818 105.38348 31.606246 41.190331 
" style="fill:none;stroke:#000000;stroke-linecap:round;stroke-width:2;"/>
    <path clip-path="url(#p5f177a0477)" d="M 28.055187 51.791745 
L 31.606246 41.190331 
L 37.956742 50.392026 
L 28.055187 51.791745 
z
" style="stroke:#000000;stroke-linecap:round;stroke-width:2;"/>
   </g>
   <g id="patch_6">
    <path clip-path="url(#p5f177a0477)" d="M 65.467021 176.829064 
Q 133.389061 133.727741 203.199118 89.428338 
" style="fill:none;stroke:#000000;stroke-linecap:round;stroke-width:2;"/>
    <path clip-path="url(#p5f177a0477)" d="M 76.589474 175.692822 
L 65.467021 176.829064 
L 71.231499 167.249357 
L 76.589474 175.692822 
z
" style="stroke:#000000;stroke-linecap:round;stroke-width:2;"/>
   </g>
   <g id="patch_7">
    <path clip-path="url(#p5f177a0477)" d="M 199.524055 77.407158 
Q 122.080265 53.729793 42.498116 29.398653 
" style="fill:none;stroke:#000000;stroke-linecap:round;stroke-width:2;"/>
    <path clip-path="url(#p5f177a0477)" d="M 191.422905 69.701877 
L 199.524055 77.407158 
L 188.49914 79.26491 
L 191.422905 69.701877 
z
" style="stroke:#000000;stroke-linecap:round;stroke-width:2;"/>
   </g>
   <g id="patch_8">
    <path d="M 51.989614 199.107297 
C 55.629757 199.107297 59.121299 197.661053 61.695269 195.087083 
C 64.269239 192.513113 65.715483 189.021571 65.715483 185.381428 
C 65.715483 181.741285 64.269239 178.249743 61.695269 175.675773 
C 59.121299 173.101804 55.629757 171.655559 51.989614 171.655559 
C 48.349471 171.655559 44.857929 173.101804 42.283959 175.675773 
C 39.70999 178.249743 38.263745 181.741285 38.263745 185.381428 
C 38.263745 189.021571 39.70999 192.513113 42.283959 195.087083 
C 44.857929 197.661053 48.349471 199.107297 51.989614 199.107297 
z
" style="fill:#fec7b8;stroke:#000000;stroke-linejoin:miter;"/>
   </g>
   <g id="patch_9">
    <path d="M 424.227977 67.806939 
C 427.86812 67.806939 431.359662 66.360694 433.933632 63.786725 
C 436.507602 61.212755 437.953846 57.721213 437.953846 54.08107 
C 437.953846 50.440927 436.507602 46.949385 433.933632 44.375415 
C 431.359662 41.801445 427.86812 40.355201 424.227977 40.355201 
C 420.587834 40.355201 417.096292 41.801445 414.522322 44.375415 
C 411.948353 46.949385 410.502109 50.440927 410.502109 54.08107 
C 410.502109 57.721213 411.948353 61.212755 414.522322 63.786725 
C 417.096292 66.360694 420.587834 67.806939 424.227977 67.806939 
z
" style="fill:#fec7b8;stroke:#000000;stroke-linejoin:miter;"/>
   </g>
   <g id="patch_10">
    <path d="M 214.788508 95.799922 
C 218.428651 95.799922 221.920193 94.353678 224.494163 91.779708 
C 227.068133 89.205738 228.514377 85.714196 228.514377 82.074053 
C 228.514377 78.43391 227.068133 74.942368 224.494163 72.368398 
C 221.920193 69.794429 218.428651 68.348184 214.788508 68.348184 
C 211.148365 68.348184 207.656823 69.794429 205.082853 72.368398 
C 202.508883 74.942368 201.062639 78.43391 201.062639 82.074053 
C 201.062639 85.714196 202.508883 89.205738 205.082853 91.779708 
C 207.656823 94.353678 211.148365 95.799922 214.788508 95.799922 
z
" style="fill:#fec7b8;stroke:#000000;stroke-linejoin:miter;"/>
   </g>
   <g id="patch_11">
    <path d="M 29.372023 39.111401 
C 33.012166 39.111401 36.503708 37.665157 39.077678 35.091187 
C 41.651647 32.517217 43.097891 29.025675 43.097891 25.385532 
C 43.097891 21.745389 41.651647 18.253847 39.077678 15.679877 
C 36.503708 13.105907 33.012166 11.659663 29.372023 11.659663 
C 25.73188 11.659663 22.240338 13.105907 19.666368 15.679877 
C 17.092398 18.253847 15.646154 21.745389 15.646154 25.385532 
C 15.646154 29.025675 17.092398 32.517217 19.666368 35.091187 
C 22.240338 37.665157 25.73188 39.111401 29.372023 39.111401 
z
" style="fill:#fec7b8;stroke:#000000;stroke-linejoin:miter;"/>
   </g>
   <g id="patch_12">
    <path clip-path="url(#p5f177a0477)" d="M 51.989614 234.642824 
C 58.521752 234.642824 64.787229 232.047578 69.406148 227.428659 
C 74.025066 222.809741 76.620312 216.544263 76.620312 210.012126 
C 76.620312 203.479989 74.025066 197.214511 69.406148 192.595593 
C 64.787229 187.976674 58.521752 185.381428 51.989614 185.381428 
C 45.457477 185.381428 39.192 187.976674 34.573081 192.595593 
C 29.954162 197.214511 27.358917 203.479989 27.358917 210.012126 
C 27.358917 216.544263 29.954162 222.809741 34.573081 227.428659 
C 39.192 232.047578 45.457477 234.642824 51.989614 234.642824 
z
" style="fill:none;stroke:#000000;stroke-linejoin:miter;"/>
   </g>
   <g id="text_1">
    <!-- 0 -->
    <g transform="translate(48.808364 188.140803)scale(0.1 -0.1)">
     <defs>
      <path d="M 31.78125 66.40625 
Q 24.171875 66.40625 20.328125 58.90625 
Q 16.5 51.421875 16.5 36.375 
Q 16.5 21.390625 20.328125 13.890625 
Q 24.171875 6.390625 31.78125 6.390625 
Q 39.453125 6.390625 43.28125 13.890625 
Q 47.125 21.390625 47.125 36.375 
Q 47.125 51.421875 43.28125 58.90625 
Q 39.453125 66.40625 31.78125 66.40625 
z
M 31.78125 74.21875 
Q 44.046875 74.21875 50.515625 64.515625 
Q 56.984375 54.828125 56.984375 36.375 
Q 56.984375 17.96875 50.515625 8.265625 
Q 44.046875 -1.421875 31.78125 -1.421875 
Q 19.53125 -1.421875 13.0625 8.265625 
Q 6.59375 17.96875 6.59375 36.375 
Q 6.59375 54.828125 13.0625 64.515625 
Q 19.53125 74.21875 31.78125 74.21875 
z
" id="DejaVuSans-48"/>
     </defs>
     <use xlink:href="#DejaVuSans-48"/>
    </g>
   </g>
   <g id="text_2">
    <!-- 1 -->
    <g transform="translate(421.046727 56.840445)scale(0.1 -0.1)">
     <defs>
      <path d="M 12.40625 8.296875 
L 28.515625 8.296875 
L 28.515625 63.921875 
L 10.984375 60.40625 
L 10.984375 69.390625 
L 28.421875 72.90625 
L 38.28125 72.90625 
L 38.28125 8.296875 
L 54.390625 8.296875 
L 54.390625 0 
L 12.40625 0 
z
" id="DejaVuSans-49"/>
     </defs>
     <use xlink:href="#DejaVuSans-49"/>
    </g>
   </g>
   <g id="text_3">
    <!-- 2 -->
    <g transform="translate(211.607258 84.833428)scale(0.1 -0.1)">
     <defs>
      <path d="M 19.1875 8.296875 
L 53.609375 8.296875 
L 53.609375 0 
L 7.328125 0 
L 7.328125 8.296875 
Q 12.9375 14.109375 22.625 23.890625 
Q 32.328125 33.6875 34.8125 36.53125 
Q 39.546875 41.84375 41.421875 45.53125 
Q 43.3125 49.21875 43.3125 52.78125 
Q 43.3125 58.59375 39.234375 62.25 
Q 35.15625 65.921875 28.609375 65.921875 
Q 23.96875 65.921875 18.8125 64.3125 
Q 13.671875 62.703125 7.8125 59.421875 
L 7.8125 69.390625 
Q 13.765625 71.78125 18.9375 73 
Q 24.125 74.21875 28.421875 74.21875 
Q 39.75 74.21875 46.484375 68.546875 
Q 53.21875 62.890625 53.21875 53.421875 
Q 53.21875 48.921875 51.53125 44.890625 
Q 49.859375 40.875 45.40625 35.40625 
Q 44.1875 33.984375 37.640625 27.21875 
Q 31.109375 20.453125 19.1875 8.296875 
z
" id="DejaVuSans-50"/>
     </defs>
     <use xlink:href="#DejaVuSans-50"/>
    </g>
   </g>
   <g id="text_4">
    <!-- 3 -->
    <g transform="translate(26.190773 28.144907)scale(0.1 -0.1)">
     <defs>
      <path d="M 40.578125 39.3125 
Q 47.65625 37.796875 51.625 33 
Q 55.609375 28.21875 55.609375 21.1875 
Q 55.609375 10.40625 48.1875 4.484375 
Q 40.765625 -1.421875 27.09375 -1.421875 
Q 22.515625 -1.421875 17.65625 -0.515625 
Q 12.796875 0.390625 7.625 2.203125 
L 7.625 11.71875 
Q 11.71875 9.328125 16.59375 8.109375 
Q 21.484375 6.890625 26.8125 6.890625 
Q 36.078125 6.890625 40.9375 10.546875 
Q 45.796875 14.203125 45.796875 21.1875 
Q 45.796875 27.640625 41.28125 31.265625 
Q 36.765625 34.90625 28.71875 34.90625 
L 20.21875 34.90625 
L 20.21875 43.015625 
L 29.109375 43.015625 
Q 36.375 43.015625 40.234375 45.921875 
Q 44.09375 48.828125 44.09375 54.296875 
Q 44.09375 59.90625 40.109375 62.90625 
Q 36.140625 65.921875 28.71875 65.921875 
Q 24.65625 65.921875 20.015625 65.03125 
Q 15.375 64.15625 9.8125 62.3125 
L 9.8125 71.09375 
Q 15.4375 72.65625 20.34375 73.4375 
Q 25.25 74.21875 29.59375 74.21875 
Q 40.828125 74.21875 47.359375 69.109375 
Q 53.90625 64.015625 53.90625 55.328125 
Q 53.90625 49.265625 50.4375 45.09375 
Q 46.96875 40.921875 40.578125 39.3125 
z
" id="DejaVuSans-51"/>
     </defs>
     <use xlink:href="#DejaVuSans-51"/>
    </g>
   </g>
  </g>
 </g>
 <defs>
  <clipPath id="p5f177a0477">
   <rect height="231.902487" width="439.2" x="7.2" y="7.2"/>
  </clipPath>
 </defs>
</svg>
