<?xml version="1.0" encoding="utf-8" standalone="no"?>
<!DOCTYPE svg PUBLIC "-//W3C//DTD SVG 1.1//EN"
  "http://www.w3.org/Graphics/SVG/1.1/DTD/svg11.dtd">
<!-- Created with matplotlib (https://matplotlib.org/) -->
<svg height="240.313744pt" version="1.1" viewBox="0 0 453.6 240.313744" width="453.6pt" xmlns="http://www.w3.org/2000/svg" xmlns:xlink="http://www.w3.org/1999/xlink">
 <metadata>
  <rdf:RDF xmlns:cc="http://creativecommons.org/ns#" xmlns:dc="http://purl.org/dc/elements/1.1/" xmlns:rdf="http://www.w3.org/1999/02/22-rdf-syntax-ns#">
   <cc:Work>
    <dc:type rdf:resource="http://purl.org/dc/dcmitype/StillImage"/>
    <dc:date>2023-10-13T22:06:34.675921</dc:date>
    <dc:format>image/svg+xml</dc:format>
    <dc:creator>
     <cc:Agent>
      <dc:title>Matplotlib v3.3.4, https://matplotlib.org/</dc:title>
     </cc:Agent>
    </dc:creator>
   </cc:Work>
  </rdf:RDF>
 </metadata>
 <defs>
  <style type="text/css">*{stroke-linecap:butt;stroke-linejoin:round;}</style>
 </defs>
 <g id="figure_1">
  <g id="patch_1">
   <path d="M 0 240.313744 
L 453.6 240.313744 
L 453.6 0 
L 0 0 
z
" style="fill:#ffffff;"/>
  </g>
  <g id="axes_1">
   <g id="patch_2">
    <path d="M 7.2 233.113744 
L 446.4 233.113744 
L 446.4 7.2 
L 7.2 7.2 
z
" style="fill:#ffffff;"/>
   </g>
   <g id="patch_3">
    <path clip-path="url(#pa47b502918)" d="M 43.090059 32.029505 
Q 143.372016 16.876677 230.103113 64.993518 
" style="fill:none;stroke:#000000;stroke-linecap:round;stroke-width:2;"/>
    <path clip-path="url(#pa47b502918)" d="M 223.784299 55.770038 
L 230.103113 64.993518 
L 218.933041 64.514481 
L 223.784299 55.770038 
z
" style="stroke:#000000;stroke-linecap:round;stroke-width:2;"/>
   </g>
   <g id="patch_4">
    <path clip-path="url(#pa47b502918)" d="M 43.467669 41.870438 
Q 130.198767 89.987279 230.480724 74.834452 
" style="fill:none;stroke:#000000;stroke-linecap:round;stroke-width:2;"/>
    <path clip-path="url(#pa47b502918)" d="M 49.786483 51.093919 
L 43.467669 41.870438 
L 54.637742 42.349476 
L 49.786483 51.093919 
z
" style="stroke:#000000;stroke-linecap:round;stroke-width:2;"/>
   </g>
   <g id="matplotlib.axis_1"/>
   <g id="matplotlib.axis_2"/>
   <g id="patch_5">
    <path clip-path="url(#pa47b502918)" d="M 397.536493 165.686274 
Q 409.559766 102.293931 421.166364 41.09849 
" style="fill:none;stroke:#000000;stroke-linecap:round;stroke-width:2;"/>
    <path clip-path="url(#pa47b502918)" d="M 414.390515 49.991627 
L 421.166364 41.09849 
L 424.215364 51.855051 
L 414.390515 49.991627 
z
" style="stroke:#000000;stroke-linecap:round;stroke-width:2;"/>
   </g>
   <g id="patch_6">
    <path clip-path="url(#pa47b502918)" d="M 381.864461 169.996817 
Q 319.545157 126.008353 255.399035 80.730419 
" style="fill:none;stroke:#000000;stroke-linecap:round;stroke-width:2;"/>
    <path clip-path="url(#pa47b502918)" d="M 376.578026 160.145239 
L 381.864461 169.996817 
L 370.811337 168.315018 
L 376.578026 160.145239 
z
" style="stroke:#000000;stroke-linecap:round;stroke-width:2;"/>
   </g>
   <g id="patch_7">
    <path clip-path="url(#pa47b502918)" d="M 259.631603 68.68757 
Q 334.139842 49.058313 410.810369 28.8594 
" style="fill:none;stroke:#000000;stroke-linecap:round;stroke-width:2;"/>
    <path clip-path="url(#pa47b502918)" d="M 270.575442 70.975012 
L 259.631603 68.68757 
L 268.02786 61.304964 
L 270.575442 70.975012 
z
" style="stroke:#000000;stroke-linecap:round;stroke-width:2;"/>
   </g>
   <g id="patch_8">
    <path d="M 394.965081 193.043366 
C 398.624723 193.043366 402.134969 191.589375 404.722727 189.001617 
C 407.310485 186.413859 408.764476 182.903613 408.764476 179.243971 
C 408.764476 175.584328 407.310485 172.074082 404.722727 169.486325 
C 402.134969 166.898567 398.624723 165.444575 394.965081 165.444575 
C 391.305438 165.444575 387.795192 166.898567 385.207434 169.486325 
C 382.619676 172.074082 381.165685 175.584328 381.165685 179.243971 
C 381.165685 182.903613 382.619676 186.413859 385.207434 189.001617 
C 387.795192 191.589375 391.305438 193.043366 394.965081 193.043366 
z
" style="fill:#fec7b8;stroke:#000000;stroke-linejoin:miter;"/>
   </g>
   <g id="patch_9">
    <path d="M 29.445549 47.890616 
C 33.105192 47.890616 36.615437 46.436624 39.203195 43.848866 
C 41.790953 41.261108 43.244945 37.750863 43.244945 34.09122 
C 43.244945 30.431578 41.790953 26.921332 39.203195 24.333574 
C 36.615437 21.745816 33.105192 20.291825 29.445549 20.291825 
C 25.785907 20.291825 22.275661 21.745816 19.687903 24.333574 
C 17.100145 26.921332 15.646154 30.431578 15.646154 34.09122 
C 15.646154 37.750863 17.100145 41.261108 19.687903 43.848866 
C 22.275661 46.436624 25.785907 47.890616 29.445549 47.890616 
z
" style="fill:#fec7b8;stroke:#000000;stroke-linejoin:miter;"/>
   </g>
   <g id="patch_10">
    <path d="M 244.125233 86.572132 
C 247.784876 86.572132 251.295121 85.11814 253.882879 82.530382 
C 256.470637 79.942624 257.924629 76.432379 257.924629 72.772736 
C 257.924629 69.113094 256.470637 65.602848 253.882879 63.01509 
C 251.295121 60.427332 247.784876 58.973341 244.125233 58.973341 
C 240.465591 58.973341 236.955345 60.427332 234.367587 63.01509 
C 231.779829 65.602848 230.325838 69.113094 230.325838 72.772736 
C 230.325838 76.432379 231.779829 79.942624 234.367587 82.530382 
C 236.955345 85.11814 240.465591 86.572132 244.125233 86.572132 
z
" style="fill:#fec7b8;stroke:#000000;stroke-linejoin:miter;"/>
   </g>
   <g id="patch_11">
    <path d="M 424.154451 39.143286 
C 427.814093 39.143286 431.324339 37.689295 433.912097 35.101537 
C 436.499855 32.513779 437.953846 29.003533 437.953846 25.34389 
C 437.953846 21.684248 436.499855 18.174002 433.912097 15.586244 
C 431.324339 12.998486 427.814093 11.544495 424.154451 11.544495 
C 420.494808 11.544495 416.984563 12.998486 414.396805 15.586244 
C 411.809047 18.174002 410.355055 21.684248 410.355055 25.34389 
C 410.355055 29.003533 411.809047 32.513779 414.396805 35.101537 
C 416.984563 37.689295 420.494808 39.143286 424.154451 39.143286 
z
" style="fill:#fec7b8;stroke:#000000;stroke-linejoin:miter;"/>
   </g>
   <g id="patch_12">
    <path clip-path="url(#pa47b502918)" d="M 394.965081 228.769249 
C 401.532209 228.769249 407.831249 226.160101 412.474911 221.51644 
C 417.118572 216.872778 419.72772 210.573738 419.72772 204.00661 
C 419.72772 197.439481 417.118572 191.140441 412.474911 186.49678 
C 407.831249 181.853118 401.532209 179.243971 394.965081 179.243971 
C 388.397952 179.243971 382.098912 181.853118 377.45525 186.49678 
C 372.811589 191.140441 370.202441 197.439481 370.202441 204.00661 
C 370.202441 210.573738 372.811589 216.872778 377.45525 221.51644 
C 382.098912 226.160101 388.397952 228.769249 394.965081 228.769249 
z
" style="fill:none;stroke:#000000;stroke-linejoin:miter;"/>
   </g>
   <g id="text_1">
    <!-- 0 -->
    <g transform="translate(391.783831 182.003346)scale(0.1 -0.1)">
     <defs>
      <path d="M 31.78125 66.40625 
Q 24.171875 66.40625 20.328125 58.90625 
Q 16.5 51.421875 16.5 36.375 
Q 16.5 21.390625 20.328125 13.890625 
Q 24.171875 6.390625 31.78125 6.390625 
Q 39.453125 6.390625 43.28125 13.890625 
Q 47.125 21.390625 47.125 36.375 
Q 47.125 51.421875 43.28125 58.90625 
Q 39.453125 66.40625 31.78125 66.40625 
z
M 31.78125 74.21875 
Q 44.046875 74.21875 50.515625 64.515625 
Q 56.984375 54.828125 56.984375 36.375 
Q 56.984375 17.96875 50.515625 8.265625 
Q 44.046875 -1.421875 31.78125 -1.421875 
Q 19.53125 -1.421875 13.0625 8.265625 
Q 6.59375 17.96875 6.59375 36.375 
Q 6.59375 54.828125 13.0625 64.515625 
Q 19.53125 74.21875 31.78125 74.21875 
z
" id="DejaVuSans-48"/>
     </defs>
     <use xlink:href="#DejaVuSans-48"/>
    </g>
   </g>
   <g id="text_2">
    <!-- 1 -->
    <g transform="translate(26.264299 36.850595)scale(0.1 -0.1)">
     <defs>
      <path d="M 12.40625 8.296875 
L 28.515625 8.296875 
L 28.515625 63.921875 
L 10.984375 60.40625 
L 10.984375 69.390625 
L 28.421875 72.90625 
L 38.28125 72.90625 
L 38.28125 8.296875 
L 54.390625 8.296875 
L 54.390625 0 
L 12.40625 0 
z
" id="DejaVuSans-49"/>
     </defs>
     <use xlink:href="#DejaVuSans-49"/>
    </g>
   </g>
   <g id="text_3">
    <!-- 2 -->
    <g transform="translate(240.943983 75.532111)scale(0.1 -0.1)">
     <defs>
      <path d="M 19.1875 8.296875 
L 53.609375 8.296875 
L 53.609375 0 
L 7.328125 0 
L 7.328125 8.296875 
Q 12.9375 14.109375 22.625 23.890625 
Q 32.328125 33.6875 34.8125 36.53125 
Q 39.546875 41.84375 41.421875 45.53125 
Q 43.3125 49.21875 43.3125 52.78125 
Q 43.3125 58.59375 39.234375 62.25 
Q 35.15625 65.921875 28.609375 65.921875 
Q 23.96875 65.921875 18.8125 64.3125 
Q 13.671875 62.703125 7.8125 59.421875 
L 7.8125 69.390625 
Q 13.765625 71.78125 18.9375 73 
Q 24.125 74.21875 28.421875 74.21875 
Q 39.75 74.21875 46.484375 68.546875 
Q 53.21875 62.890625 53.21875 53.421875 
Q 53.21875 48.921875 51.53125 44.890625 
Q 49.859375 40.875 45.40625 35.40625 
Q 44.1875 33.984375 37.640625 27.21875 
Q 31.109375 20.453125 19.1875 8.296875 
z
" id="DejaVuSans-50"/>
     </defs>
     <use xlink:href="#DejaVuSans-50"/>
    </g>
   </g>
   <g id="text_4">
    <!-- 3 -->
    <g transform="translate(420.973201 28.103265)scale(0.1 -0.1)">
     <defs>
      <path d="M 40.578125 39.3125 
Q 47.65625 37.796875 51.625 33 
Q 55.609375 28.21875 55.609375 21.1875 
Q 55.609375 10.40625 48.1875 4.484375 
Q 40.765625 -1.421875 27.09375 -1.421875 
Q 22.515625 -1.421875 17.65625 -0.515625 
Q 12.796875 0.390625 7.625 2.203125 
L 7.625 11.71875 
Q 11.71875 9.328125 16.59375 8.109375 
Q 21.484375 6.890625 26.8125 6.890625 
Q 36.078125 6.890625 40.9375 10.546875 
Q 45.796875 14.203125 45.796875 21.1875 
Q 45.796875 27.640625 41.28125 31.265625 
Q 36.765625 34.90625 28.71875 34.90625 
L 20.21875 34.90625 
L 20.21875 43.015625 
L 29.109375 43.015625 
Q 36.375 43.015625 40.234375 45.921875 
Q 44.09375 48.828125 44.09375 54.296875 
Q 44.09375 59.90625 40.109375 62.90625 
Q 36.140625 65.921875 28.71875 65.921875 
Q 24.65625 65.921875 20.015625 65.03125 
Q 15.375 64.15625 9.8125 62.3125 
L 9.8125 71.09375 
Q 15.4375 72.65625 20.34375 73.4375 
Q 25.25 74.21875 29.59375 74.21875 
Q 40.828125 74.21875 47.359375 69.109375 
Q 53.90625 64.015625 53.90625 55.328125 
Q 53.90625 49.265625 50.4375 45.09375 
Q 46.96875 40.921875 40.578125 39.3125 
z
" id="DejaVuSans-51"/>
     </defs>
     <use xlink:href="#DejaVuSans-51"/>
    </g>
   </g>
  </g>
 </g>
 <defs>
  <clipPath id="pa47b502918">
   <rect height="225.913744" width="439.2" x="7.2" y="7.2"/>
  </clipPath>
 </defs>
</svg>
