<?xml version="1.0" encoding="utf-8" standalone="no"?>
<!DOCTYPE svg PUBLIC "-//W3C//DTD SVG 1.1//EN"
  "http://www.w3.org/Graphics/SVG/1.1/DTD/svg11.dtd">
<!-- Created with matplotlib (https://matplotlib.org/) -->
<svg height="338.4pt" version="1.1" viewBox="0 0 189.606605 338.4" width="189.606605pt" xmlns="http://www.w3.org/2000/svg" xmlns:xlink="http://www.w3.org/1999/xlink">
 <metadata>
  <rdf:RDF xmlns:cc="http://creativecommons.org/ns#" xmlns:dc="http://purl.org/dc/elements/1.1/" xmlns:rdf="http://www.w3.org/1999/02/22-rdf-syntax-ns#">
   <cc:Work>
    <dc:type rdf:resource="http://purl.org/dc/dcmitype/StillImage"/>
    <dc:date>2023-08-23T20:31:19.377249</dc:date>
    <dc:format>image/svg+xml</dc:format>
    <dc:creator>
     <cc:Agent>
      <dc:title>Matplotlib v3.3.4, https://matplotlib.org/</dc:title>
     </cc:Agent>
    </dc:creator>
   </cc:Work>
  </rdf:RDF>
 </metadata>
 <defs>
  <style type="text/css">*{stroke-linecap:butt;stroke-linejoin:round;}</style>
 </defs>
 <g id="figure_1">
  <g id="patch_1">
   <path d="M 0 338.4 
L 189.606605 338.4 
L 189.606605 0 
L 0 0 
z
" style="fill:#ffffff;"/>
  </g>
  <g id="axes_1">
   <g id="patch_2">
    <path d="M 7.2 331.2 
L 182.406605 331.2 
L 182.406605 7.2 
L 7.2 7.2 
z
" style="fill:#ffffff;"/>
   </g>
   <g id="patch_3">
    <path clip-path="url(#pbf4b546f1c)" d="M 26.107646 30.020303 
Q 69.430529 80.789592 71.202539 145.27042 
" style="fill:none;stroke:#000000;stroke-linecap:round;stroke-width:2;"/>
    <path clip-path="url(#pbf4b546f1c)" d="M 75.925944 135.136839 
L 71.202539 145.27042 
L 65.929718 135.411548 
L 75.925944 135.136839 
z
" style="stroke:#000000;stroke-linecap:round;stroke-width:2;"/>
   </g>
   <g id="patch_4">
    <path clip-path="url(#pbf4b546f1c)" d="M 20.311805 34.506809 
Q 22.083815 98.987636 65.406698 149.756926 
" style="fill:none;stroke:#000000;stroke-linecap:round;stroke-width:2;"/>
    <path clip-path="url(#pbf4b546f1c)" d="M 15.5884 44.640389 
L 20.311805 34.506809 
L 25.584626 44.365681 
L 15.5884 44.640389 
z
" style="stroke:#000000;stroke-linecap:round;stroke-width:2;"/>
   </g>
   <g id="matplotlib.axis_1"/>
   <g id="matplotlib.axis_2"/>
   <g id="patch_5">
    <path clip-path="url(#pbf4b546f1c)" d="M 79.152656 287.408587 
Q 120.060866 269.689554 158.917215 252.859267 
" style="fill:none;stroke:#000000;stroke-linecap:round;stroke-width:2;"/>
    <path clip-path="url(#pbf4b546f1c)" d="M 147.753721 252.245758 
L 158.917215 252.859267 
L 151.728311 261.421957 
L 147.753721 252.245758 
z
" style="stroke:#000000;stroke-linecap:round;stroke-width:2;"/>
   </g>
   <g id="patch_6">
    <path clip-path="url(#pbf4b546f1c)" d="M 70.594923 279.4956 
Q 71.014736 224.038897 71.451476 166.346189 
" style="fill:none;stroke:#000000;stroke-linecap:round;stroke-width:2;"/>
    <path clip-path="url(#pbf4b546f1c)" d="M 75.670479 269.533736 
L 70.594923 279.4956 
L 65.670765 269.458037 
L 75.670479 269.533736 
z
" style="stroke:#000000;stroke-linecap:round;stroke-width:2;"/>
   </g>
   <g id="patch_7">
    <path clip-path="url(#pbf4b546f1c)" d="M 80.056533 164.867213 
Q 120.568931 202.574931 162.71811 241.806115 
" style="fill:none;stroke:#000000;stroke-linecap:round;stroke-width:2;"/>
    <path clip-path="url(#pbf4b546f1c)" d="M 83.969865 175.340314 
L 80.056533 164.867213 
L 90.783012 168.020408 
L 83.969865 175.340314 
z
" style="stroke:#000000;stroke-linecap:round;stroke-width:2;"/>
   </g>
   <g id="patch_8">
    <path d="M 70.506671 300.575706 
C 73.005464 300.575706 75.402249 299.582925 77.169163 297.816011 
C 78.936076 296.049098 79.928857 293.652313 79.928857 291.15352 
C 79.928857 288.654727 78.936076 286.257942 77.169163 284.491029 
C 75.402249 282.724115 73.005464 281.731334 70.506671 281.731334 
C 68.007878 281.731334 65.611093 282.724115 63.84418 284.491029 
C 62.077267 286.257942 61.084486 288.654727 61.084486 291.15352 
C 61.084486 293.652313 62.077267 296.049098 63.84418 297.816011 
C 65.611093 299.582925 68.007878 300.575706 70.506671 300.575706 
z
" style="fill:#fec7b8;stroke:#000000;stroke-linejoin:miter;"/>
   </g>
   <g id="patch_9">
    <path d="M 19.991543 32.27514 
C 22.490336 32.27514 24.887121 31.28236 26.654035 29.515446 
C 28.420948 27.748533 29.413729 25.351748 29.413729 22.852955 
C 29.413729 20.354162 28.420948 17.957377 26.654035 16.190464 
C 24.887121 14.42355 22.490336 13.430769 19.991543 13.430769 
C 17.492751 13.430769 15.095965 14.42355 13.329052 16.190464 
C 11.562139 17.957377 10.569358 20.354162 10.569358 22.852955 
C 10.569358 25.351748 11.562139 27.748533 13.329052 29.515446 
C 15.095965 31.28236 17.492751 32.27514 19.991543 32.27514 
z
" style="fill:#fec7b8;stroke:#000000;stroke-linejoin:miter;"/>
   </g>
   <g id="patch_10">
    <path d="M 71.522801 166.346459 
C 74.021594 166.346459 76.418379 165.353678 78.185292 163.586765 
C 79.952205 161.819851 80.944986 159.423066 80.944986 156.924273 
C 80.944986 154.425481 79.952205 152.028695 78.185292 150.261782 
C 76.418379 148.494869 74.021594 147.502088 71.522801 147.502088 
C 69.024008 147.502088 66.627223 148.494869 64.860309 150.261782 
C 63.093396 152.028695 62.100615 154.425481 62.100615 156.924273 
C 62.100615 159.423066 63.093396 161.819851 64.860309 163.586765 
C 66.627223 165.353678 69.024008 166.346459 71.522801 166.346459 
z
" style="fill:#fec7b8;stroke:#000000;stroke-linejoin:miter;"/>
   </g>
   <g id="patch_11">
    <path d="M 169.615061 257.647774 
C 172.113854 257.647774 174.510639 256.654993 176.277553 254.88808 
C 178.044466 253.121167 179.037247 250.724381 179.037247 248.225589 
C 179.037247 245.726796 178.044466 243.330011 176.277553 241.563097 
C 174.510639 239.796184 172.113854 238.803403 169.615061 238.803403 
C 167.116268 238.803403 164.719483 239.796184 162.95257 241.563097 
C 161.185656 243.330011 160.192876 245.726796 160.192876 248.225589 
C 160.192876 250.724381 161.185656 253.121167 162.95257 254.88808 
C 164.719483 256.654993 167.116268 257.647774 169.615061 257.647774 
z
" style="fill:#fec7b8;stroke:#000000;stroke-linejoin:miter;"/>
   </g>
   <g id="patch_12">
    <path clip-path="url(#pbf4b546f1c)" d="M 70.506671 324.969231 
C 74.990687 324.969231 79.291653 323.187712 82.46233 320.017035 
C 85.633008 316.846357 87.414527 312.545391 87.414527 308.061375 
C 87.414527 303.57736 85.633008 299.276394 82.46233 296.105716 
C 79.291653 292.935038 74.990687 291.15352 70.506671 291.15352 
C 66.022656 291.15352 61.72169 292.935038 58.551012 296.105716 
C 55.380334 299.276394 53.598816 303.57736 53.598816 308.061375 
C 53.598816 312.545391 55.380334 316.846357 58.551012 320.017035 
C 61.72169 323.187712 66.022656 324.969231 70.506671 324.969231 
z
" style="fill:none;stroke:#000000;stroke-linejoin:miter;"/>
   </g>
   <g id="text_1">
    <!-- 0 -->
    <g transform="translate(67.325421 293.912895)scale(0.1 -0.1)">
     <defs>
      <path d="M 31.78125 66.40625 
Q 24.171875 66.40625 20.328125 58.90625 
Q 16.5 51.421875 16.5 36.375 
Q 16.5 21.390625 20.328125 13.890625 
Q 24.171875 6.390625 31.78125 6.390625 
Q 39.453125 6.390625 43.28125 13.890625 
Q 47.125 21.390625 47.125 36.375 
Q 47.125 51.421875 43.28125 58.90625 
Q 39.453125 66.40625 31.78125 66.40625 
z
M 31.78125 74.21875 
Q 44.046875 74.21875 50.515625 64.515625 
Q 56.984375 54.828125 56.984375 36.375 
Q 56.984375 17.96875 50.515625 8.265625 
Q 44.046875 -1.421875 31.78125 -1.421875 
Q 19.53125 -1.421875 13.0625 8.265625 
Q 6.59375 17.96875 6.59375 36.375 
Q 6.59375 54.828125 13.0625 64.515625 
Q 19.53125 74.21875 31.78125 74.21875 
z
" id="DejaVuSans-48"/>
     </defs>
     <use xlink:href="#DejaVuSans-48"/>
    </g>
   </g>
   <g id="text_2">
    <!-- 1 -->
    <g transform="translate(16.810293 25.61233)scale(0.1 -0.1)">
     <defs>
      <path d="M 12.40625 8.296875 
L 28.515625 8.296875 
L 28.515625 63.921875 
L 10.984375 60.40625 
L 10.984375 69.390625 
L 28.421875 72.90625 
L 38.28125 72.90625 
L 38.28125 8.296875 
L 54.390625 8.296875 
L 54.390625 0 
L 12.40625 0 
z
" id="DejaVuSans-49"/>
     </defs>
     <use xlink:href="#DejaVuSans-49"/>
    </g>
   </g>
   <g id="text_3">
    <!-- 2 -->
    <g transform="translate(68.341551 159.683648)scale(0.1 -0.1)">
     <defs>
      <path d="M 19.1875 8.296875 
L 53.609375 8.296875 
L 53.609375 0 
L 7.328125 0 
L 7.328125 8.296875 
Q 12.9375 14.109375 22.625 23.890625 
Q 32.328125 33.6875 34.8125 36.53125 
Q 39.546875 41.84375 41.421875 45.53125 
Q 43.3125 49.21875 43.3125 52.78125 
Q 43.3125 58.59375 39.234375 62.25 
Q 35.15625 65.921875 28.609375 65.921875 
Q 23.96875 65.921875 18.8125 64.3125 
Q 13.671875 62.703125 7.8125 59.421875 
L 7.8125 69.390625 
Q 13.765625 71.78125 18.9375 73 
Q 24.125 74.21875 28.421875 74.21875 
Q 39.75 74.21875 46.484375 68.546875 
Q 53.21875 62.890625 53.21875 53.421875 
Q 53.21875 48.921875 51.53125 44.890625 
Q 49.859375 40.875 45.40625 35.40625 
Q 44.1875 33.984375 37.640625 27.21875 
Q 31.109375 20.453125 19.1875 8.296875 
z
" id="DejaVuSans-50"/>
     </defs>
     <use xlink:href="#DejaVuSans-50"/>
    </g>
   </g>
   <g id="text_4">
    <!-- 3 -->
    <g transform="translate(166.433811 250.984964)scale(0.1 -0.1)">
     <defs>
      <path d="M 40.578125 39.3125 
Q 47.65625 37.796875 51.625 33 
Q 55.609375 28.21875 55.609375 21.1875 
Q 55.609375 10.40625 48.1875 4.484375 
Q 40.765625 -1.421875 27.09375 -1.421875 
Q 22.515625 -1.421875 17.65625 -0.515625 
Q 12.796875 0.390625 7.625 2.203125 
L 7.625 11.71875 
Q 11.71875 9.328125 16.59375 8.109375 
Q 21.484375 6.890625 26.8125 6.890625 
Q 36.078125 6.890625 40.9375 10.546875 
Q 45.796875 14.203125 45.796875 21.1875 
Q 45.796875 27.640625 41.28125 31.265625 
Q 36.765625 34.90625 28.71875 34.90625 
L 20.21875 34.90625 
L 20.21875 43.015625 
L 29.109375 43.015625 
Q 36.375 43.015625 40.234375 45.921875 
Q 44.09375 48.828125 44.09375 54.296875 
Q 44.09375 59.90625 40.109375 62.90625 
Q 36.140625 65.921875 28.71875 65.921875 
Q 24.65625 65.921875 20.015625 65.03125 
Q 15.375 64.15625 9.8125 62.3125 
L 9.8125 71.09375 
Q 15.4375 72.65625 20.34375 73.4375 
Q 25.25 74.21875 29.59375 74.21875 
Q 40.828125 74.21875 47.359375 69.109375 
Q 53.90625 64.015625 53.90625 55.328125 
Q 53.90625 49.265625 50.4375 45.09375 
Q 46.96875 40.921875 40.578125 39.3125 
z
" id="DejaVuSans-51"/>
     </defs>
     <use xlink:href="#DejaVuSans-51"/>
    </g>
   </g>
  </g>
 </g>
 <defs>
  <clipPath id="pbf4b546f1c">
   <rect height="324" width="175.206605" x="7.2" y="7.2"/>
  </clipPath>
 </defs>
</svg>
