<?xml version="1.0" encoding="utf-8" standalone="no"?>
<!DOCTYPE svg PUBLIC "-//W3C//DTD SVG 1.1//EN"
  "http://www.w3.org/Graphics/SVG/1.1/DTD/svg11.dtd">
<!-- Created with matplotlib (https://matplotlib.org/) -->
<svg height="338.4pt" version="1.1" viewBox="0 0 155.773213 338.4" width="155.773213pt" xmlns="http://www.w3.org/2000/svg" xmlns:xlink="http://www.w3.org/1999/xlink">
 <metadata>
  <rdf:RDF xmlns:cc="http://creativecommons.org/ns#" xmlns:dc="http://purl.org/dc/elements/1.1/" xmlns:rdf="http://www.w3.org/1999/02/22-rdf-syntax-ns#">
   <cc:Work>
    <dc:type rdf:resource="http://purl.org/dc/dcmitype/StillImage"/>
    <dc:date>2023-03-11T01:40:15.449419</dc:date>
    <dc:format>image/svg+xml</dc:format>
    <dc:creator>
     <cc:Agent>
      <dc:title>Matplotlib v3.3.4, https://matplotlib.org/</dc:title>
     </cc:Agent>
    </dc:creator>
   </cc:Work>
  </rdf:RDF>
 </metadata>
 <defs>
  <style type="text/css">*{stroke-linecap:butt;stroke-linejoin:round;}</style>
 </defs>
 <g id="figure_1">
  <g id="patch_1">
   <path d="M 0 338.4 
L 155.773213 338.4 
L 155.773213 0 
L 0 0 
z
" style="fill:#ffffff;"/>
  </g>
  <g id="axes_1">
   <g id="patch_2">
    <path d="M 7.2 331.2 
L 148.573213 331.2 
L 148.573213 7.2 
L 7.2 7.2 
z
" style="fill:#ffffff;"/>
   </g>
   <g id="patch_3">
    <path clip-path="url(#p80d1ee98d0)" d="M 107.679036 31.888466 
Q 122.053315 96.773814 93.650901 154.374334 
" style="fill:none;stroke:#000000;stroke-linecap:round;stroke-width:2;"/>
    <path clip-path="url(#p80d1ee98d0)" d="M 102.557867 147.616675 
L 93.650901 154.374334 
L 93.588953 143.194166 
L 102.557867 147.616675 
z
" style="stroke:#000000;stroke-linecap:round;stroke-width:2;"/>
   </g>
   <g id="patch_4">
    <path clip-path="url(#p80d1ee98d0)" d="M 100.539771 33.152075 
Q 72.137357 90.752596 86.511636 155.637944 
" style="fill:none;stroke:#000000;stroke-linecap:round;stroke-width:2;"/>
    <path clip-path="url(#p80d1ee98d0)" d="M 91.632805 39.909735 
L 100.539771 33.152075 
L 100.601719 44.332244 
L 91.632805 39.909735 
z
" style="stroke:#000000;stroke-linecap:round;stroke-width:2;"/>
   </g>
   <g id="matplotlib.axis_1"/>
   <g id="matplotlib.axis_2"/>
   <g id="patch_5">
    <path clip-path="url(#p80d1ee98d0)" d="M 119.828468 290.28826 
Q 74.176663 284.561647 30.743539 279.113347 
" style="fill:none;stroke:#000000;stroke-linecap:round;stroke-width:2;"/>
    <path clip-path="url(#p80d1ee98d0)" d="M 40.04345 285.319124 
L 30.743539 279.113347 
L 41.288106 275.396884 
L 40.04345 285.319124 
z
" style="stroke:#000000;stroke-linecap:round;stroke-width:2;"/>
   </g>
   <g id="patch_6">
    <path clip-path="url(#p80d1ee98d0)" d="M 125.565625 280.426493 
Q 108.813438 228.103475 91.379426 173.650876 
" style="fill:none;stroke:#000000;stroke-linecap:round;stroke-width:2;"/>
    <path clip-path="url(#p80d1ee98d0)" d="M 127.278299 269.378111 
L 125.565625 280.426493 
L 117.754524 272.427324 
L 127.278299 269.378111 
z
" style="stroke:#000000;stroke-linecap:round;stroke-width:2;"/>
   </g>
   <g id="patch_7">
    <path clip-path="url(#p80d1ee98d0)" d="M 82.478517 174.622902 
Q 53.894874 221.214429 24.141927 269.711929 
" style="fill:none;stroke:#000000;stroke-linecap:round;stroke-width:2;"/>
    <path clip-path="url(#p80d1ee98d0)" d="M 72.98735 180.532027 
L 82.478517 174.622902 
L 81.511116 185.76131 
L 72.98735 180.532027 
z
" style="stroke:#000000;stroke-linecap:round;stroke-width:2;"/>
   </g>
   <g id="patch_8">
    <path d="M 129.095228 300.790076 
C 131.572061 300.790076 133.947784 299.80602 135.699169 298.054634 
C 137.450555 296.303248 138.434611 293.927526 138.434611 291.450693 
C 138.434611 288.973859 137.450555 286.598137 135.699169 284.846751 
C 133.947784 283.095366 131.572061 282.111309 129.095228 282.111309 
C 126.618395 282.111309 124.242672 283.095366 122.491287 284.846751 
C 120.739901 286.598137 119.755845 288.973859 119.755845 291.450693 
C 119.755845 293.927526 120.739901 296.303248 122.491287 298.054634 
C 124.242672 299.80602 126.618395 300.790076 129.095228 300.790076 
z
" style="fill:#fec7b8;stroke:#000000;stroke-linejoin:miter;"/>
   </g>
   <g id="patch_9">
    <path d="M 105.659024 32.109536 
C 108.135858 32.109536 110.51158 31.12548 112.262966 29.374094 
C 114.014351 27.622708 114.998408 25.246986 114.998408 22.770153 
C 114.998408 20.293319 114.014351 17.917597 112.262966 16.166211 
C 110.51158 14.414826 108.135858 13.430769 105.659024 13.430769 
C 103.182191 13.430769 100.806469 14.414826 99.055083 16.166211 
C 97.303697 17.917597 96.319641 20.293319 96.319641 22.770153 
C 96.319641 25.246986 97.303697 27.622708 99.055083 29.374094 
C 100.806469 31.12548 103.182191 32.109536 105.659024 32.109536 
z
" style="fill:#fec7b8;stroke:#000000;stroke-linejoin:miter;"/>
   </g>
   <g id="patch_10">
    <path d="M 88.531648 174.095641 
C 91.008481 174.095641 93.384204 173.111584 95.135589 171.360199 
C 96.886975 169.608813 97.871031 167.233091 97.871031 164.756257 
C 97.871031 162.279424 96.886975 159.903702 95.135589 158.152316 
C 93.384204 156.40093 91.008481 155.416874 88.531648 155.416874 
C 86.054815 155.416874 83.679092 156.40093 81.927707 158.152316 
C 80.176321 159.903702 79.192265 162.279424 79.192265 164.756257 
C 79.192265 167.233091 80.176321 169.608813 81.927707 171.360199 
C 83.679092 173.111584 86.054815 174.095641 88.531648 174.095641 
z
" style="fill:#fec7b8;stroke:#000000;stroke-linejoin:miter;"/>
   </g>
   <g id="patch_11">
    <path d="M 19.258099 287.011984 
C 21.734932 287.011984 24.110655 286.027928 25.86204 284.276542 
C 27.613426 282.525157 28.597482 280.149434 28.597482 277.672601 
C 28.597482 275.195767 27.613426 272.820045 25.86204 271.06866 
C 24.110655 269.317274 21.734932 268.333217 19.258099 268.333217 
C 16.781266 268.333217 14.405543 269.317274 12.654158 271.06866 
C 10.902772 272.820045 9.918716 275.195767 9.918716 277.672601 
C 9.918716 280.149434 10.902772 282.525157 12.654158 284.276542 
C 14.405543 286.027928 16.781266 287.011984 19.258099 287.011984 
z
" style="fill:#fec7b8;stroke:#000000;stroke-linejoin:miter;"/>
   </g>
   <g id="patch_12">
    <path clip-path="url(#p80d1ee98d0)" d="M 129.095228 324.969231 
C 133.539838 324.969231 137.803007 323.203368 140.945821 320.060554 
C 144.088635 316.917741 145.854497 312.654572 145.854497 308.209962 
C 145.854497 303.765352 144.088635 299.502183 140.945821 296.359369 
C 137.803007 293.216555 133.539838 291.450693 129.095228 291.450693 
C 124.650618 291.450693 120.387449 293.216555 117.244635 296.359369 
C 114.101821 299.502183 112.335959 303.765352 112.335959 308.209962 
C 112.335959 312.654572 114.101821 316.917741 117.244635 320.060554 
C 120.387449 323.203368 124.650618 324.969231 129.095228 324.969231 
z
" style="fill:none;stroke:#000000;stroke-linejoin:miter;"/>
   </g>
   <g id="text_1">
    <!-- 0 -->
    <g transform="translate(125.913978 294.210068)scale(0.1 -0.1)">
     <defs>
      <path d="M 31.78125 66.40625 
Q 24.171875 66.40625 20.328125 58.90625 
Q 16.5 51.421875 16.5 36.375 
Q 16.5 21.390625 20.328125 13.890625 
Q 24.171875 6.390625 31.78125 6.390625 
Q 39.453125 6.390625 43.28125 13.890625 
Q 47.125 21.390625 47.125 36.375 
Q 47.125 51.421875 43.28125 58.90625 
Q 39.453125 66.40625 31.78125 66.40625 
z
M 31.78125 74.21875 
Q 44.046875 74.21875 50.515625 64.515625 
Q 56.984375 54.828125 56.984375 36.375 
Q 56.984375 17.96875 50.515625 8.265625 
Q 44.046875 -1.421875 31.78125 -1.421875 
Q 19.53125 -1.421875 13.0625 8.265625 
Q 6.59375 17.96875 6.59375 36.375 
Q 6.59375 54.828125 13.0625 64.515625 
Q 19.53125 74.21875 31.78125 74.21875 
z
" id="DejaVuSans-48"/>
     </defs>
     <use xlink:href="#DejaVuSans-48"/>
    </g>
   </g>
   <g id="text_2">
    <!-- 1 -->
    <g transform="translate(102.477774 25.529528)scale(0.1 -0.1)">
     <defs>
      <path d="M 12.40625 8.296875 
L 28.515625 8.296875 
L 28.515625 63.921875 
L 10.984375 60.40625 
L 10.984375 69.390625 
L 28.421875 72.90625 
L 38.28125 72.90625 
L 38.28125 8.296875 
L 54.390625 8.296875 
L 54.390625 0 
L 12.40625 0 
z
" id="DejaVuSans-49"/>
     </defs>
     <use xlink:href="#DejaVuSans-49"/>
    </g>
   </g>
   <g id="text_3">
    <!-- 2 -->
    <g transform="translate(85.350398 167.515632)scale(0.1 -0.1)">
     <defs>
      <path d="M 19.1875 8.296875 
L 53.609375 8.296875 
L 53.609375 0 
L 7.328125 0 
L 7.328125 8.296875 
Q 12.9375 14.109375 22.625 23.890625 
Q 32.328125 33.6875 34.8125 36.53125 
Q 39.546875 41.84375 41.421875 45.53125 
Q 43.3125 49.21875 43.3125 52.78125 
Q 43.3125 58.59375 39.234375 62.25 
Q 35.15625 65.921875 28.609375 65.921875 
Q 23.96875 65.921875 18.8125 64.3125 
Q 13.671875 62.703125 7.8125 59.421875 
L 7.8125 69.390625 
Q 13.765625 71.78125 18.9375 73 
Q 24.125 74.21875 28.421875 74.21875 
Q 39.75 74.21875 46.484375 68.546875 
Q 53.21875 62.890625 53.21875 53.421875 
Q 53.21875 48.921875 51.53125 44.890625 
Q 49.859375 40.875 45.40625 35.40625 
Q 44.1875 33.984375 37.640625 27.21875 
Q 31.109375 20.453125 19.1875 8.296875 
z
" id="DejaVuSans-50"/>
     </defs>
     <use xlink:href="#DejaVuSans-50"/>
    </g>
   </g>
   <g id="text_4">
    <!-- 3 -->
    <g transform="translate(16.076849 280.431976)scale(0.1 -0.1)">
     <defs>
      <path d="M 40.578125 39.3125 
Q 47.65625 37.796875 51.625 33 
Q 55.609375 28.21875 55.609375 21.1875 
Q 55.609375 10.40625 48.1875 4.484375 
Q 40.765625 -1.421875 27.09375 -1.421875 
Q 22.515625 -1.421875 17.65625 -0.515625 
Q 12.796875 0.390625 7.625 2.203125 
L 7.625 11.71875 
Q 11.71875 9.328125 16.59375 8.109375 
Q 21.484375 6.890625 26.8125 6.890625 
Q 36.078125 6.890625 40.9375 10.546875 
Q 45.796875 14.203125 45.796875 21.1875 
Q 45.796875 27.640625 41.28125 31.265625 
Q 36.765625 34.90625 28.71875 34.90625 
L 20.21875 34.90625 
L 20.21875 43.015625 
L 29.109375 43.015625 
Q 36.375 43.015625 40.234375 45.921875 
Q 44.09375 48.828125 44.09375 54.296875 
Q 44.09375 59.90625 40.109375 62.90625 
Q 36.140625 65.921875 28.71875 65.921875 
Q 24.65625 65.921875 20.015625 65.03125 
Q 15.375 64.15625 9.8125 62.3125 
L 9.8125 71.09375 
Q 15.4375 72.65625 20.34375 73.4375 
Q 25.25 74.21875 29.59375 74.21875 
Q 40.828125 74.21875 47.359375 69.109375 
Q 53.90625 64.015625 53.90625 55.328125 
Q 53.90625 49.265625 50.4375 45.09375 
Q 46.96875 40.921875 40.578125 39.3125 
z
" id="DejaVuSans-51"/>
     </defs>
     <use xlink:href="#DejaVuSans-51"/>
    </g>
   </g>
  </g>
 </g>
 <defs>
  <clipPath id="p80d1ee98d0">
   <rect height="324" width="141.373213" x="7.2" y="7.2"/>
  </clipPath>
 </defs>
</svg>
