<?xml version="1.0" encoding="utf-8" standalone="no"?>
<!DOCTYPE svg PUBLIC "-//W3C//DTD SVG 1.1//EN"
  "http://www.w3.org/Graphics/SVG/1.1/DTD/svg11.dtd">
<svg xmlns:xlink="http://www.w3.org/1999/xlink" width="452.373383pt" height="338.4pt" viewBox="0 0 452.373383 338.4" xmlns="http://www.w3.org/2000/svg" version="1.1">
 <metadata>
  <rdf:RDF xmlns:dc="http://purl.org/dc/elements/1.1/" xmlns:cc="http://creativecommons.org/ns#" xmlns:rdf="http://www.w3.org/1999/02/22-rdf-syntax-ns#">
   <cc:Work>
    <dc:type rdf:resource="http://purl.org/dc/dcmitype/StillImage"/>
    <dc:date>2024-11-06T21:16:39.734034</dc:date>
    <dc:format>image/svg+xml</dc:format>
    <dc:creator>
     <cc:Agent>
      <dc:title>Matplotlib v3.6.3, https://matplotlib.org/</dc:title>
     </cc:Agent>
    </dc:creator>
   </cc:Work>
  </rdf:RDF>
 </metadata>
 <defs>
  <style type="text/css">*{stroke-linejoin: round; stroke-linecap: butt}</style>
 </defs>
 <g id="figure_1">
  <g id="patch_1">
   <path d="M 0 338.4 
L 452.373383 338.4 
L 452.373383 0 
L 0 0 
z
" style="fill: #ffffff"/>
  </g>
  <g id="axes_1">
   <g id="patch_2">
    <path d="M 7.2 331.2 
L 445.173383 331.2 
L 445.173383 7.2 
L 7.2 7.2 
z
" style="fill: #ffffff"/>
   </g>
   <g id="patch_3">
    <path d="M 43.878981 31.18262 
Q 145.604008 56.150857 209.271125 136.490517 
" clip-path="url(#p4c1da8d7a0)" style="fill: none; stroke: #000000; stroke-width: 2; stroke-linecap: round"/>
    <path d="M 206.978894 125.547681 
L 209.271125 136.490517 
L 199.141517 131.758601 
L 206.978894 125.547681 
z
" clip-path="url(#p4c1da8d7a0)" style="stroke: #000000; stroke-width: 2; stroke-linecap: round"/>
   </g>
   <g id="patch_4">
    <path d="M 40.249427 40.752815 
Q 103.916544 121.092475 205.641572 146.060712 
" clip-path="url(#p4c1da8d7a0)" style="fill: none; stroke: #000000; stroke-width: 2; stroke-linecap: round"/>
    <path d="M 42.541659 51.695651 
L 40.249427 40.752815 
L 50.379035 45.484731 
L 42.541659 51.695651 
z
" clip-path="url(#p4c1da8d7a0)" style="stroke: #000000; stroke-width: 2; stroke-linecap: round"/>
   </g>
   <g id="matplotlib.axis_1"/>
   <g id="matplotlib.axis_2"/>
   <g id="patch_5">
    <path d="M 403.2436 190.472673 
Q 368.285335 244.534826 334.54125 296.719277 
" clip-path="url(#p4c1da8d7a0)" style="fill: none; stroke: #000000; stroke-width: 2; stroke-linecap: round"/>
    <path d="M 344.1699 291.036928 
L 334.54125 296.719277 
L 335.77256 285.606947 
L 344.1699 291.036928 
z
" clip-path="url(#p4c1da8d7a0)" style="stroke: #000000; stroke-width: 2; stroke-linecap: round"/>
   </g>
   <g id="patch_6">
    <path d="M 394.642825 175.957202 
Q 315.295274 163.956492 233.736798 151.621398 
" clip-path="url(#p4c1da8d7a0)" style="fill: none; stroke: #000000; stroke-width: 2; stroke-linecap: round"/>
    <path d="M 385.502979 169.518008 
L 394.642825 175.957202 
L 384.007562 179.405562 
L 385.502979 169.518008 
z
" clip-path="url(#p4c1da8d7a0)" style="stroke: #000000; stroke-width: 2; stroke-linecap: round"/>
   </g>
   <g id="patch_7">
    <path d="M 228.668163 163.323082 
Q 272.55323 230.056079 317.666921 298.65736 
" clip-path="url(#p4c1da8d7a0)" style="fill: none; stroke: #000000; stroke-width: 2; stroke-linecap: round"/>
    <path d="M 229.985127 174.425586 
L 228.668163 163.323082 
L 238.340345 168.931013 
L 229.985127 174.425586 
z
" clip-path="url(#p4c1da8d7a0)" style="stroke: #000000; stroke-width: 2; stroke-linecap: round"/>
   </g>
   <g id="patch_8">
    <path d="M 411.027378 192.770058 
C 414.829016 192.770058 418.475461 191.259651 421.163625 188.571487 
C 423.851789 185.883323 425.362196 182.236878 425.362196 178.43524 
C 425.362196 174.633602 423.851789 170.987157 421.163625 168.298993 
C 418.475461 165.610829 414.829016 164.100422 411.027378 164.100422 
C 407.22574 164.100422 403.579295 165.610829 400.891131 168.298993 
C 398.202967 170.987157 396.69256 174.633602 396.69256 178.43524 
C 396.69256 182.236878 398.202967 185.883323 400.891131 188.571487 
C 403.579295 191.259651 407.22574 192.770058 411.027378 192.770058 
z
" style="fill: #fec7b8; stroke: #000000; stroke-linejoin: miter"/>
   </g>
   <g id="patch_9">
    <path d="M 29.957383 42.100405 
C 33.759021 42.100405 37.405466 40.589998 40.09363 37.901834 
C 42.781794 35.21367 44.292201 31.567225 44.292201 27.765587 
C 44.292201 23.963949 42.781794 20.317504 40.09363 17.62934 
C 37.405466 14.941176 33.759021 13.430769 29.957383 13.430769 
C 26.155745 13.430769 22.5093 14.941176 19.821136 17.62934 
C 17.132972 20.317504 15.622565 23.963949 15.622565 27.765587 
C 15.622565 31.567225 17.132972 35.21367 19.821136 37.901834 
C 22.5093 40.589998 26.155745 42.100405 29.957383 42.100405 
z
" style="fill: #fec7b8; stroke: #000000; stroke-linejoin: miter"/>
   </g>
   <g id="patch_10">
    <path d="M 219.56317 163.812563 
C 223.364808 163.812563 227.011252 162.302156 229.699416 159.613992 
C 232.387581 156.925828 233.897987 153.279383 233.897987 149.477745 
C 233.897987 145.676107 232.387581 142.029662 229.699416 139.341498 
C 227.011252 136.653334 223.364808 135.142927 219.56317 135.142927 
C 215.761531 135.142927 212.115087 136.653334 209.426923 139.341498 
C 206.738759 142.029662 205.228352 145.676107 205.228352 149.477745 
C 205.228352 153.279383 206.738759 156.925828 209.426923 159.613992 
C 212.115087 162.302156 215.761531 163.812563 219.56317 163.812563 
z
" style="fill: #fec7b8; stroke: #000000; stroke-linejoin: miter"/>
   </g>
   <g id="patch_11">
    <path d="M 325.543291 324.969231 
C 329.344929 324.969231 332.991374 323.458824 335.679538 320.77066 
C 338.367702 318.082496 339.878109 314.436051 339.878109 310.634413 
C 339.878109 306.832775 338.367702 303.18633 335.679538 300.498166 
C 332.991374 297.810002 329.344929 296.299595 325.543291 296.299595 
C 321.741653 296.299595 318.095208 297.810002 315.407044 300.498166 
C 312.71888 303.18633 311.208473 306.832775 311.208473 310.634413 
C 311.208473 314.436051 312.71888 318.082496 315.407044 320.77066 
C 318.095208 323.458824 321.741653 324.969231 325.543291 324.969231 
z
" style="fill: #fec7b8; stroke: #000000; stroke-linejoin: miter"/>
   </g>
   <g id="patch_12">
    <path d="M 411.027378 229.88212 
C 417.849314 229.88212 424.39276 227.171736 429.216597 222.347899 
C 434.040434 217.524061 436.750818 210.980616 436.750818 204.15868 
C 436.750818 197.336744 434.040434 190.793298 429.216597 185.969461 
C 424.39276 181.145624 417.849314 178.43524 411.027378 178.43524 
C 404.205442 178.43524 397.661996 181.145624 392.838159 185.969461 
C 388.014322 190.793298 385.303938 197.336744 385.303938 204.15868 
C 385.303938 210.980616 388.014322 217.524061 392.838159 222.347899 
C 397.661996 227.171736 404.205442 229.88212 411.027378 229.88212 
L 411.027378 229.88212 
z
" clip-path="url(#p4c1da8d7a0)" style="fill: none; stroke: #000000; stroke-linejoin: miter"/>
   </g>
   <g id="text_1">
    <!-- 0 -->
    <g transform="translate(407.846128 181.194615) scale(0.1 -0.1)">
     <defs>
      <path id="DejaVuSans-30" d="M 2034 4250 
Q 1547 4250 1301 3770 
Q 1056 3291 1056 2328 
Q 1056 1369 1301 889 
Q 1547 409 2034 409 
Q 2525 409 2770 889 
Q 3016 1369 3016 2328 
Q 3016 3291 2770 3770 
Q 2525 4250 2034 4250 
z
M 2034 4750 
Q 2819 4750 3233 4129 
Q 3647 3509 3647 2328 
Q 3647 1150 3233 529 
Q 2819 -91 2034 -91 
Q 1250 -91 836 529 
Q 422 1150 422 2328 
Q 422 3509 836 4129 
Q 1250 4750 2034 4750 
z
" transform="scale(0.015625)"/>
     </defs>
     <use xlink:href="#DejaVuSans-30"/>
    </g>
   </g>
   <g id="text_2">
    <!-- 1 -->
    <g transform="translate(26.776133 30.524962) scale(0.1 -0.1)">
     <defs>
      <path id="DejaVuSans-31" d="M 794 531 
L 1825 531 
L 1825 4091 
L 703 3866 
L 703 4441 
L 1819 4666 
L 2450 4666 
L 2450 531 
L 3481 531 
L 3481 0 
L 794 0 
L 794 531 
z
" transform="scale(0.015625)"/>
     </defs>
     <use xlink:href="#DejaVuSans-31"/>
    </g>
   </g>
   <g id="text_3">
    <!-- 2 -->
    <g transform="translate(216.38192 152.23712) scale(0.1 -0.1)">
     <defs>
      <path id="DejaVuSans-32" d="M 1228 531 
L 3431 531 
L 3431 0 
L 469 0 
L 469 531 
Q 828 903 1448 1529 
Q 2069 2156 2228 2338 
Q 2531 2678 2651 2914 
Q 2772 3150 2772 3378 
Q 2772 3750 2511 3984 
Q 2250 4219 1831 4219 
Q 1534 4219 1204 4116 
Q 875 4013 500 3803 
L 500 4441 
Q 881 4594 1212 4672 
Q 1544 4750 1819 4750 
Q 2544 4750 2975 4387 
Q 3406 4025 3406 3419 
Q 3406 3131 3298 2873 
Q 3191 2616 2906 2266 
Q 2828 2175 2409 1742 
Q 1991 1309 1228 531 
z
" transform="scale(0.015625)"/>
     </defs>
     <use xlink:href="#DejaVuSans-32"/>
    </g>
   </g>
   <g id="text_4">
    <!-- 3 -->
    <g transform="translate(322.362041 313.393788) scale(0.1 -0.1)">
     <defs>
      <path id="DejaVuSans-33" d="M 2597 2516 
Q 3050 2419 3304 2112 
Q 3559 1806 3559 1356 
Q 3559 666 3084 287 
Q 2609 -91 1734 -91 
Q 1441 -91 1130 -33 
Q 819 25 488 141 
L 488 750 
Q 750 597 1062 519 
Q 1375 441 1716 441 
Q 2309 441 2620 675 
Q 2931 909 2931 1356 
Q 2931 1769 2642 2001 
Q 2353 2234 1838 2234 
L 1294 2234 
L 1294 2753 
L 1863 2753 
Q 2328 2753 2575 2939 
Q 2822 3125 2822 3475 
Q 2822 3834 2567 4026 
Q 2313 4219 1838 4219 
Q 1578 4219 1281 4162 
Q 984 4106 628 3988 
L 628 4550 
Q 988 4650 1302 4700 
Q 1616 4750 1894 4750 
Q 2613 4750 3031 4423 
Q 3450 4097 3450 3541 
Q 3450 3153 3228 2886 
Q 3006 2619 2597 2516 
z
" transform="scale(0.015625)"/>
     </defs>
     <use xlink:href="#DejaVuSans-33"/>
    </g>
   </g>
  </g>
 </g>
 <defs>
  <clipPath id="p4c1da8d7a0">
   <rect x="7.2" y="7.2" width="437.973383" height="324"/>
  </clipPath>
 </defs>
</svg>
