<?xml version="1.0" encoding="utf-8" standalone="no"?>
<!DOCTYPE svg PUBLIC "-//W3C//DTD SVG 1.1//EN"
  "http://www.w3.org/Graphics/SVG/1.1/DTD/svg11.dtd">
<!-- Created with matplotlib (https://matplotlib.org/) -->
<svg height="338.4pt" version="1.1" viewBox="0 0 254.991112 338.4" width="254.991112pt" xmlns="http://www.w3.org/2000/svg" xmlns:xlink="http://www.w3.org/1999/xlink">
 <metadata>
  <rdf:RDF xmlns:cc="http://creativecommons.org/ns#" xmlns:dc="http://purl.org/dc/elements/1.1/" xmlns:rdf="http://www.w3.org/1999/02/22-rdf-syntax-ns#">
   <cc:Work>
    <dc:type rdf:resource="http://purl.org/dc/dcmitype/StillImage"/>
    <dc:date>2023-08-03T02:59:08.299123</dc:date>
    <dc:format>image/svg+xml</dc:format>
    <dc:creator>
     <cc:Agent>
      <dc:title>Matplotlib v3.3.4, https://matplotlib.org/</dc:title>
     </cc:Agent>
    </dc:creator>
   </cc:Work>
  </rdf:RDF>
 </metadata>
 <defs>
  <style type="text/css">*{stroke-linecap:butt;stroke-linejoin:round;}</style>
 </defs>
 <g id="figure_1">
  <g id="patch_1">
   <path d="M 0 338.4 
L 254.991112 338.4 
L 254.991112 0 
L 0 0 
z
" style="fill:#ffffff;"/>
  </g>
  <g id="axes_1">
   <g id="patch_2">
    <path d="M 7.2 331.2 
L 247.791112 331.2 
L 247.791112 7.2 
L 7.2 7.2 
z
" style="fill:#ffffff;"/>
   </g>
   <g id="patch_3">
    <path clip-path="url(#pc33ea3b692)" d="M 30.759998 307.581517 
Q 89.845732 259.535538 105.565694 187.307783 
" style="fill:none;stroke:#000000;stroke-linecap:round;stroke-width:2;"/>
    <path clip-path="url(#pc33ea3b692)" d="M 98.553412 196.015704 
L 105.565694 187.307783 
L 108.324662 198.142361 
L 98.553412 196.015704 
z
" style="stroke:#000000;stroke-linecap:round;stroke-width:2;"/>
   </g>
   <g id="patch_4">
    <path clip-path="url(#pc33ea3b692)" d="M 25.231032 301.705343 
Q 40.950994 229.477588 100.036728 181.431609 
" style="fill:none;stroke:#000000;stroke-linecap:round;stroke-width:2;"/>
    <path clip-path="url(#pc33ea3b692)" d="M 32.243314 292.997421 
L 25.231032 301.705343 
L 22.472064 290.870764 
L 32.243314 292.997421 
z
" style="stroke:#000000;stroke-linecap:round;stroke-width:2;"/>
   </g>
   <g id="matplotlib.axis_1"/>
   <g id="matplotlib.axis_2"/>
   <g id="patch_5">
    <path clip-path="url(#pc33ea3b692)" d="M 135.609865 29.830211 
Q 179.563596 57.898122 221.632735 84.762573 
" style="fill:none;stroke:#000000;stroke-linecap:round;stroke-width:2;"/>
    <path clip-path="url(#pc33ea3b692)" d="M 215.895604 75.166463 
L 221.632735 84.762573 
L 210.513569 83.594612 
L 215.895604 75.166463 
z
" style="stroke:#000000;stroke-linecap:round;stroke-width:2;"/>
   </g>
   <g id="patch_6">
    <path clip-path="url(#pc33ea3b692)" d="M 125.067293 36.895365 
Q 117.466403 99.398757 109.595578 164.121864 
" style="fill:none;stroke:#000000;stroke-linecap:round;stroke-width:2;"/>
    <path clip-path="url(#pc33ea3b692)" d="M 118.896676 46.218642 
L 125.067293 36.895365 
L 128.823544 47.425825 
L 118.896676 46.218642 
z
" style="stroke:#000000;stroke-linecap:round;stroke-width:2;"/>
   </g>
   <g id="patch_7">
    <path clip-path="url(#pc33ea3b692)" d="M 119.031735 167.538828 
Q 170.405742 133.204684 223.638852 97.62807 
" style="fill:none;stroke:#000000;stroke-linecap:round;stroke-width:2;"/>
    <path clip-path="url(#pc33ea3b692)" d="M 130.124148 166.139409 
L 119.031735 167.538828 
L 124.567648 157.825246 
L 130.124148 166.139409 
z
" style="stroke:#000000;stroke-linecap:round;stroke-width:2;"/>
   </g>
   <g id="patch_8">
    <path d="M 126.624257 34.753619 
C 129.4517 34.753619 132.163719 33.630264 134.163023 31.63096 
C 136.162327 29.631656 137.285682 26.919637 137.285682 24.092194 
C 137.285682 21.264751 136.162327 18.552732 134.163023 16.553428 
C 132.163719 14.554124 129.4517 13.430769 126.624257 13.430769 
C 123.796814 13.430769 121.084795 14.554124 119.085491 16.553428 
C 117.086187 18.552732 115.962832 21.264751 115.962832 24.092194 
C 115.962832 26.919637 117.086187 29.631656 119.085491 31.63096 
C 121.084795 33.630264 123.796814 34.753619 126.624257 34.753619 
z
" style="fill:#fec7b8;stroke:#000000;stroke-linejoin:miter;"/>
   </g>
   <g id="patch_9">
    <path d="M 22.488177 324.969231 
C 25.31562 324.969231 28.027639 323.845876 30.026943 321.846572 
C 32.026247 319.847268 33.149602 317.135249 33.149602 314.307806 
C 33.149602 311.480363 32.026247 308.768344 30.026943 306.76904 
C 28.027639 304.769736 25.31562 303.646381 22.488177 303.646381 
C 19.660734 303.646381 16.948715 304.769736 14.949411 306.76904 
C 12.950107 308.768344 11.826752 311.480363 11.826752 314.307806 
C 11.826752 317.135249 12.950107 319.847268 14.949411 321.846572 
C 16.948715 323.845876 19.660734 324.969231 22.488177 324.969231 
z
" style="fill:#fec7b8;stroke:#000000;stroke-linejoin:miter;"/>
   </g>
   <g id="patch_10">
    <path d="M 108.308549 185.366745 
C 111.135992 185.366745 113.848011 184.24339 115.847315 182.244086 
C 117.846619 180.244782 118.969974 177.532763 118.969974 174.70532 
C 118.969974 171.877877 117.846619 169.165858 115.847315 167.166554 
C 113.848011 165.16725 111.135992 164.043895 108.308549 164.043895 
C 105.481106 164.043895 102.769087 165.16725 100.769783 167.166554 
C 98.770479 169.165858 97.647124 171.877877 97.647124 174.70532 
C 97.647124 177.532763 98.770479 180.244782 100.769783 182.244086 
C 102.769087 184.24339 105.481106 185.366745 108.308549 185.366745 
z
" style="fill:#fec7b8;stroke:#000000;stroke-linejoin:miter;"/>
   </g>
   <g id="patch_11">
    <path d="M 232.502935 102.365474 
C 235.330378 102.365474 238.042396 101.242119 240.041701 99.242815 
C 242.041005 97.243511 243.16436 94.531492 243.16436 91.704049 
C 243.16436 88.876606 242.041005 86.164587 240.041701 84.165283 
C 238.042396 82.165979 235.330378 81.042624 232.502935 81.042624 
C 229.675492 81.042624 226.963473 82.165979 224.964169 84.165283 
C 222.964865 86.164587 221.84151 88.876606 221.84151 91.704049 
C 221.84151 94.531492 222.964865 97.243511 224.964169 99.242815 
C 226.963473 101.242119 229.675492 102.365474 232.502935 102.365474 
z
" style="fill:#fec7b8;stroke:#000000;stroke-linejoin:miter;"/>
   </g>
   <g id="patch_12">
    <path clip-path="url(#pc33ea3b692)" d="M 126.624257 62.355468 
C 131.698026 62.355468 136.56467 60.339638 140.152367 56.751941 
C 143.740064 53.164244 145.755894 48.297601 145.755894 43.223831 
C 145.755894 38.150062 143.740064 33.283418 140.152367 29.695721 
C 136.56467 26.108024 131.698026 24.092194 126.624257 24.092194 
C 121.550488 24.092194 116.683844 26.108024 113.096147 29.695721 
C 109.50845 33.283418 107.49262 38.150062 107.49262 43.223831 
C 107.49262 48.297601 109.50845 53.164244 113.096147 56.751941 
C 116.683844 60.339638 121.550488 62.355468 126.624257 62.355468 
z
" style="fill:none;stroke:#000000;stroke-linejoin:miter;"/>
   </g>
   <g id="text_1">
    <!-- 0 -->
    <g transform="translate(123.443007 26.851569)scale(0.1 -0.1)">
     <defs>
      <path d="M 31.78125 66.40625 
Q 24.171875 66.40625 20.328125 58.90625 
Q 16.5 51.421875 16.5 36.375 
Q 16.5 21.390625 20.328125 13.890625 
Q 24.171875 6.390625 31.78125 6.390625 
Q 39.453125 6.390625 43.28125 13.890625 
Q 47.125 21.390625 47.125 36.375 
Q 47.125 51.421875 43.28125 58.90625 
Q 39.453125 66.40625 31.78125 66.40625 
z
M 31.78125 74.21875 
Q 44.046875 74.21875 50.515625 64.515625 
Q 56.984375 54.828125 56.984375 36.375 
Q 56.984375 17.96875 50.515625 8.265625 
Q 44.046875 -1.421875 31.78125 -1.421875 
Q 19.53125 -1.421875 13.0625 8.265625 
Q 6.59375 17.96875 6.59375 36.375 
Q 6.59375 54.828125 13.0625 64.515625 
Q 19.53125 74.21875 31.78125 74.21875 
z
" id="DejaVuSans-48"/>
     </defs>
     <use xlink:href="#DejaVuSans-48"/>
    </g>
   </g>
   <g id="text_2">
    <!-- 1 -->
    <g transform="translate(19.306927 317.067181)scale(0.1 -0.1)">
     <defs>
      <path d="M 12.40625 8.296875 
L 28.515625 8.296875 
L 28.515625 63.921875 
L 10.984375 60.40625 
L 10.984375 69.390625 
L 28.421875 72.90625 
L 38.28125 72.90625 
L 38.28125 8.296875 
L 54.390625 8.296875 
L 54.390625 0 
L 12.40625 0 
z
" id="DejaVuSans-49"/>
     </defs>
     <use xlink:href="#DejaVuSans-49"/>
    </g>
   </g>
   <g id="text_3">
    <!-- 2 -->
    <g transform="translate(105.127299 177.464695)scale(0.1 -0.1)">
     <defs>
      <path d="M 19.1875 8.296875 
L 53.609375 8.296875 
L 53.609375 0 
L 7.328125 0 
L 7.328125 8.296875 
Q 12.9375 14.109375 22.625 23.890625 
Q 32.328125 33.6875 34.8125 36.53125 
Q 39.546875 41.84375 41.421875 45.53125 
Q 43.3125 49.21875 43.3125 52.78125 
Q 43.3125 58.59375 39.234375 62.25 
Q 35.15625 65.921875 28.609375 65.921875 
Q 23.96875 65.921875 18.8125 64.3125 
Q 13.671875 62.703125 7.8125 59.421875 
L 7.8125 69.390625 
Q 13.765625 71.78125 18.9375 73 
Q 24.125 74.21875 28.421875 74.21875 
Q 39.75 74.21875 46.484375 68.546875 
Q 53.21875 62.890625 53.21875 53.421875 
Q 53.21875 48.921875 51.53125 44.890625 
Q 49.859375 40.875 45.40625 35.40625 
Q 44.1875 33.984375 37.640625 27.21875 
Q 31.109375 20.453125 19.1875 8.296875 
z
" id="DejaVuSans-50"/>
     </defs>
     <use xlink:href="#DejaVuSans-50"/>
    </g>
   </g>
   <g id="text_4">
    <!-- 3 -->
    <g transform="translate(229.321685 94.463424)scale(0.1 -0.1)">
     <defs>
      <path d="M 40.578125 39.3125 
Q 47.65625 37.796875 51.625 33 
Q 55.609375 28.21875 55.609375 21.1875 
Q 55.609375 10.40625 48.1875 4.484375 
Q 40.765625 -1.421875 27.09375 -1.421875 
Q 22.515625 -1.421875 17.65625 -0.515625 
Q 12.796875 0.390625 7.625 2.203125 
L 7.625 11.71875 
Q 11.71875 9.328125 16.59375 8.109375 
Q 21.484375 6.890625 26.8125 6.890625 
Q 36.078125 6.890625 40.9375 10.546875 
Q 45.796875 14.203125 45.796875 21.1875 
Q 45.796875 27.640625 41.28125 31.265625 
Q 36.765625 34.90625 28.71875 34.90625 
L 20.21875 34.90625 
L 20.21875 43.015625 
L 29.109375 43.015625 
Q 36.375 43.015625 40.234375 45.921875 
Q 44.09375 48.828125 44.09375 54.296875 
Q 44.09375 59.90625 40.109375 62.90625 
Q 36.140625 65.921875 28.71875 65.921875 
Q 24.65625 65.921875 20.015625 65.03125 
Q 15.375 64.15625 9.8125 62.3125 
L 9.8125 71.09375 
Q 15.4375 72.65625 20.34375 73.4375 
Q 25.25 74.21875 29.59375 74.21875 
Q 40.828125 74.21875 47.359375 69.109375 
Q 53.90625 64.015625 53.90625 55.328125 
Q 53.90625 49.265625 50.4375 45.09375 
Q 46.96875 40.921875 40.578125 39.3125 
z
" id="DejaVuSans-51"/>
     </defs>
     <use xlink:href="#DejaVuSans-51"/>
    </g>
   </g>
  </g>
 </g>
 <defs>
  <clipPath id="pc33ea3b692">
   <rect height="324" width="240.591112" x="7.2" y="7.2"/>
  </clipPath>
 </defs>
</svg>
