<?xml version="1.0" encoding="utf-8" standalone="no"?>
<!DOCTYPE svg PUBLIC "-//W3C//DTD SVG 1.1//EN"
  "http://www.w3.org/Graphics/SVG/1.1/DTD/svg11.dtd">
<svg xmlns:xlink="http://www.w3.org/1999/xlink" width="171.79015pt" height="338.4pt" viewBox="0 0 171.79015 338.4" xmlns="http://www.w3.org/2000/svg" version="1.1">
 <metadata>
  <rdf:RDF xmlns:dc="http://purl.org/dc/elements/1.1/" xmlns:cc="http://creativecommons.org/ns#" xmlns:rdf="http://www.w3.org/1999/02/22-rdf-syntax-ns#">
   <cc:Work>
    <dc:type rdf:resource="http://purl.org/dc/dcmitype/StillImage"/>
    <dc:date>2025-03-26T20:21:33.660218</dc:date>
    <dc:format>image/svg+xml</dc:format>
    <dc:creator>
     <cc:Agent>
      <dc:title>Matplotlib v3.10.1, https://matplotlib.org/</dc:title>
     </cc:Agent>
    </dc:creator>
   </cc:Work>
  </rdf:RDF>
 </metadata>
 <defs>
  <style type="text/css">*{stroke-linejoin: round; stroke-linecap: butt}</style>
 </defs>
 <g id="figure_1">
  <g id="patch_1">
   <path d="M -0 338.4 
L 171.79015 338.4 
L 171.79015 0 
L -0 0 
z
" style="fill: #ffffff"/>
  </g>
  <g id="axes_1">
   <g id="patch_2">
    <path d="M 7.2 331.2 
L 164.59015 331.2 
L 164.59015 7.2 
L 7.2 7.2 
z
" style="fill: #ffffff"/>
   </g>
   <g id="patch_3">
    <path d="M 152.69936 304.889393 
Q 161.303788 233.899675 124.672548 175.104017 
" clip-path="url(#p8afb040680)" style="fill: none; stroke: #000000; stroke-width: 2; stroke-linecap: round"/>
    <path d="M 125.716734 186.235489 
L 124.672548 175.104017 
L 134.204238 180.947552 
z
" clip-path="url(#p8afb040680)" style="stroke: #000000; stroke-width: 2; stroke-linecap: round"/>
   </g>
   <g id="patch_4">
    <path d="M 144.97607 304.442389 
Q 108.344831 245.646731 116.949258 174.657012 
" clip-path="url(#p8afb040680)" style="fill: none; stroke: #000000; stroke-width: 2; stroke-linecap: round"/>
    <path d="M 143.931884 293.310917 
L 144.97607 304.442389 
L 135.444381 298.598854 
z
" clip-path="url(#p8afb040680)" style="stroke: #000000; stroke-width: 2; stroke-linecap: round"/>
   </g>
   <g id="matplotlib.axis_1"/>
   <g id="matplotlib.axis_2"/>
   <g id="patch_5">
    <path d="M 38.12782 48.861443 
Q 88.214379 37.316055 136.122009 26.272929 
" clip-path="url(#p8afb040680)" style="fill: none; stroke: #000000; stroke-width: 2; stroke-linecap: round"/>
    <path d="M 125.254449 23.64688 
L 136.122009 26.272929 
L 127.500634 33.391348 
z
" clip-path="url(#p8afb040680)" style="stroke: #000000; stroke-width: 2; stroke-linecap: round"/>
   </g>
   <g id="patch_6">
    <path d="M 35.949986 60.77945 
Q 73.235254 107.889258 111.908228 156.752427 
" clip-path="url(#p8afb040680)" style="fill: none; stroke: #000000; stroke-width: 2; stroke-linecap: round"/>
    <path d="M 38.235358 71.723721 
L 35.949986 60.77945 
L 46.076626 65.517715 
z
" clip-path="url(#p8afb040680)" style="stroke: #000000; stroke-width: 2; stroke-linecap: round"/>
   </g>
   <g id="patch_7">
    <path d="M 120.718119 152.609415 
Q 133.140851 94.080497 146.027844 33.364237 
" clip-path="url(#p8afb040680)" style="fill: none; stroke: #000000; stroke-width: 2; stroke-linecap: round"/>
    <path d="M 127.685405 143.86545 
L 120.718119 152.609415 
L 117.903319 141.789207 
z
" clip-path="url(#p8afb040680)" style="stroke: #000000; stroke-width: 2; stroke-linecap: round"/>
   </g>
   <g id="patch_8">
    <path d="M 28.308783 61.201341 
C 30.981108 61.201341 33.544342 60.139615 35.433961 58.249995 
C 37.323581 56.360376 38.385307 53.797142 38.385307 51.124816 
C 38.385307 48.452491 37.323581 45.889257 35.433961 43.999637 
C 33.544342 42.110018 30.981108 41.048292 28.308783 41.048292 
C 25.636457 41.048292 23.073223 42.110018 21.183604 43.999637 
C 19.293984 45.889257 18.232258 48.452491 18.232258 51.124816 
C 18.232258 53.797142 19.293984 56.360376 21.183604 58.249995 
C 23.073223 60.139615 25.636457 61.201341 28.308783 61.201341 
z
" style="fill: #fec7b8; stroke: #000000; stroke-linejoin: miter"/>
   </g>
   <g id="patch_9">
    <path d="M 151.486892 324.969231 
C 154.159218 324.969231 156.722452 323.907505 158.612071 322.017885 
C 160.501691 320.128266 161.563417 317.565032 161.563417 314.892706 
C 161.563417 312.220381 160.501691 309.657147 158.612071 307.767527 
C 156.722452 305.877908 154.159218 304.816182 151.486892 304.816182 
C 148.814567 304.816182 146.251333 305.877908 144.361713 307.767527 
C 142.472094 309.657147 141.410368 312.220381 141.410368 314.892706 
C 141.410368 317.565032 142.472094 320.128266 144.361713 322.017885 
C 146.251333 323.907505 148.814567 324.969231 151.486892 324.969231 
z
" style="fill: #fec7b8; stroke: #000000; stroke-linejoin: miter"/>
   </g>
   <g id="patch_10">
    <path d="M 118.161726 174.730224 
C 120.834052 174.730224 123.397286 173.668498 125.286905 171.778878 
C 127.176525 169.889259 128.238251 167.326025 128.238251 164.6537 
C 128.238251 161.981374 127.176525 159.41814 125.286905 157.528521 
C 123.397286 155.638901 120.834052 154.577175 118.161726 154.577175 
C 115.489401 154.577175 112.926167 155.638901 111.036547 157.528521 
C 109.146928 159.41814 108.085202 161.981374 108.085202 164.6537 
C 108.085202 167.326025 109.146928 169.889259 111.036547 171.778878 
C 112.926167 173.668498 115.489401 174.730224 118.161726 174.730224 
z
" style="fill: #fec7b8; stroke: #000000; stroke-linejoin: miter"/>
   </g>
   <g id="patch_11">
    <path d="M 148.119975 33.583818 
C 150.792301 33.583818 153.355535 32.522092 155.245154 30.632473 
C 157.134774 28.742853 158.1965 26.179619 158.1965 23.507294 
C 158.1965 20.834968 157.134774 18.271734 155.245154 16.382115 
C 153.355535 14.492495 150.792301 13.430769 148.119975 13.430769 
C 145.44765 13.430769 142.884416 14.492495 140.994797 16.382115 
C 139.105177 18.271734 138.043451 20.834968 138.043451 23.507294 
C 138.043451 26.179619 139.105177 28.742853 140.994797 30.632473 
C 142.884416 32.522092 145.44765 33.583818 148.119975 33.583818 
z
" style="fill: #fec7b8; stroke: #000000; stroke-linejoin: miter"/>
   </g>
   <g id="patch_12">
    <path d="M 28.308783 87.288914 
C 33.104198 87.288914 37.703851 85.383675 41.094722 81.992805 
C 44.485593 78.601934 46.390831 74.002281 46.390831 69.206865 
C 46.390831 64.41145 44.485593 59.811797 41.094722 56.420926 
C 37.703851 53.030055 33.104198 51.124816 28.308783 51.124816 
C 23.513367 51.124816 18.913714 53.030055 15.522843 56.420926 
C 12.131972 59.811797 10.226734 64.41145 10.226734 69.206865 
C 10.226734 74.002281 12.131972 78.601934 15.522843 81.992805 
C 18.913714 85.383675 23.513367 87.288914 28.308783 87.288914 
L 28.308783 87.288914 
z
" clip-path="url(#p8afb040680)" style="fill: none; stroke: #000000; stroke-linejoin: miter"/>
   </g>
   <g id="text_1">
    <!-- 0 -->
    <g transform="translate(25.127533 53.884191) scale(0.1 -0.1)">
     <defs>
      <path id="DejaVuSans-30" d="M 2034 4250 
Q 1547 4250 1301 3770 
Q 1056 3291 1056 2328 
Q 1056 1369 1301 889 
Q 1547 409 2034 409 
Q 2525 409 2770 889 
Q 3016 1369 3016 2328 
Q 3016 3291 2770 3770 
Q 2525 4250 2034 4250 
z
M 2034 4750 
Q 2819 4750 3233 4129 
Q 3647 3509 3647 2328 
Q 3647 1150 3233 529 
Q 2819 -91 2034 -91 
Q 1250 -91 836 529 
Q 422 1150 422 2328 
Q 422 3509 836 4129 
Q 1250 4750 2034 4750 
z
" transform="scale(0.015625)"/>
     </defs>
     <use xlink:href="#DejaVuSans-30"/>
    </g>
   </g>
   <g id="text_2">
    <!-- 1 -->
    <g transform="translate(148.305642 317.652081) scale(0.1 -0.1)">
     <defs>
      <path id="DejaVuSans-31" d="M 794 531 
L 1825 531 
L 1825 4091 
L 703 3866 
L 703 4441 
L 1819 4666 
L 2450 4666 
L 2450 531 
L 3481 531 
L 3481 0 
L 794 0 
L 794 531 
z
" transform="scale(0.015625)"/>
     </defs>
     <use xlink:href="#DejaVuSans-31"/>
    </g>
   </g>
   <g id="text_3">
    <!-- 2 -->
    <g transform="translate(114.980476 167.413075) scale(0.1 -0.1)">
     <defs>
      <path id="DejaVuSans-32" d="M 1228 531 
L 3431 531 
L 3431 0 
L 469 0 
L 469 531 
Q 828 903 1448 1529 
Q 2069 2156 2228 2338 
Q 2531 2678 2651 2914 
Q 2772 3150 2772 3378 
Q 2772 3750 2511 3984 
Q 2250 4219 1831 4219 
Q 1534 4219 1204 4116 
Q 875 4013 500 3803 
L 500 4441 
Q 881 4594 1212 4672 
Q 1544 4750 1819 4750 
Q 2544 4750 2975 4387 
Q 3406 4025 3406 3419 
Q 3406 3131 3298 2873 
Q 3191 2616 2906 2266 
Q 2828 2175 2409 1742 
Q 1991 1309 1228 531 
z
" transform="scale(0.015625)"/>
     </defs>
     <use xlink:href="#DejaVuSans-32"/>
    </g>
   </g>
   <g id="text_4">
    <!-- 3 -->
    <g transform="translate(144.938725 26.266669) scale(0.1 -0.1)">
     <defs>
      <path id="DejaVuSans-33" d="M 2597 2516 
Q 3050 2419 3304 2112 
Q 3559 1806 3559 1356 
Q 3559 666 3084 287 
Q 2609 -91 1734 -91 
Q 1441 -91 1130 -33 
Q 819 25 488 141 
L 488 750 
Q 750 597 1062 519 
Q 1375 441 1716 441 
Q 2309 441 2620 675 
Q 2931 909 2931 1356 
Q 2931 1769 2642 2001 
Q 2353 2234 1838 2234 
L 1294 2234 
L 1294 2753 
L 1863 2753 
Q 2328 2753 2575 2939 
Q 2822 3125 2822 3475 
Q 2822 3834 2567 4026 
Q 2313 4219 1838 4219 
Q 1578 4219 1281 4162 
Q 984 4106 628 3988 
L 628 4550 
Q 988 4650 1302 4700 
Q 1616 4750 1894 4750 
Q 2613 4750 3031 4423 
Q 3450 4097 3450 3541 
Q 3450 3153 3228 2886 
Q 3006 2619 2597 2516 
z
" transform="scale(0.015625)"/>
     </defs>
     <use xlink:href="#DejaVuSans-33"/>
    </g>
   </g>
  </g>
 </g>
 <defs>
  <clipPath id="p8afb040680">
   <rect x="7.2" y="7.2" width="157.39015" height="324"/>
  </clipPath>
 </defs>
</svg>
