<?xml version="1.0" encoding="utf-8" standalone="no"?>
<!DOCTYPE svg PUBLIC "-//W3C//DTD SVG 1.1//EN"
  "http://www.w3.org/Graphics/SVG/1.1/DTD/svg11.dtd">
<!-- Created with matplotlib (https://matplotlib.org/) -->
<svg height="338.4pt" version="1.1" viewBox="0 0 370.938675 338.4" width="370.938675pt" xmlns="http://www.w3.org/2000/svg" xmlns:xlink="http://www.w3.org/1999/xlink">
 <metadata>
  <rdf:RDF xmlns:cc="http://creativecommons.org/ns#" xmlns:dc="http://purl.org/dc/elements/1.1/" xmlns:rdf="http://www.w3.org/1999/02/22-rdf-syntax-ns#">
   <cc:Work>
    <dc:type rdf:resource="http://purl.org/dc/dcmitype/StillImage"/>
    <dc:date>2023-08-23T20:31:01.247173</dc:date>
    <dc:format>image/svg+xml</dc:format>
    <dc:creator>
     <cc:Agent>
      <dc:title>Matplotlib v3.3.4, https://matplotlib.org/</dc:title>
     </cc:Agent>
    </dc:creator>
   </cc:Work>
  </rdf:RDF>
 </metadata>
 <defs>
  <style type="text/css">*{stroke-linecap:butt;stroke-linejoin:round;}</style>
 </defs>
 <g id="figure_1">
  <g id="patch_1">
   <path d="M -0 338.4 
L 370.938675 338.4 
L 370.938675 0 
L -0 0 
z
" style="fill:#ffffff;"/>
  </g>
  <g id="axes_1">
   <g id="patch_2">
    <path d="M 7.2 331.2 
L 363.738675 331.2 
L 363.738675 7.2 
L 7.2 7.2 
z
" style="fill:#ffffff;"/>
   </g>
   <g id="patch_3">
    <path clip-path="url(#p3fb9247e4b)" d="M 335.727928 280.199372 
Q 285.353987 143.091876 193.234504 32.63029 
" style="fill:none;stroke:#000000;stroke-linecap:round;stroke-width:2;"/>
    <path clip-path="url(#p3fb9247e4b)" d="M 195.799204 43.512492 
L 193.234504 32.63029 
L 203.479086 37.107851 
L 195.799204 43.512492 
z
" style="stroke:#000000;stroke-linecap:round;stroke-width:2;"/>
   </g>
   <g id="patch_4">
    <path clip-path="url(#p3fb9247e4b)" d="M 331.372862 280.169661 
Q 239.25338 169.708074 188.879439 32.600579 
" style="fill:none;stroke:#000000;stroke-linecap:round;stroke-width:2;"/>
    <path clip-path="url(#p3fb9247e4b)" d="M 328.808163 269.287459 
L 331.372862 280.169661 
L 321.128281 275.692099 
L 328.808163 269.287459 
z
" style="stroke:#000000;stroke-linecap:round;stroke-width:2;"/>
   </g>
   <g id="matplotlib.axis_1"/>
   <g id="matplotlib.axis_2"/>
   <g id="patch_5">
    <path clip-path="url(#p3fb9247e4b)" d="M 180.52523 31.882429 
Q 108.634991 156.399975 37.862787 278.98103 
" style="fill:none;stroke:#000000;stroke-linecap:round;stroke-width:2;"/>
    <path clip-path="url(#p3fb9247e4b)" d="M 47.192914 272.820775 
L 37.862787 278.98103 
L 38.53266 267.820775 
L 47.192914 272.820775 
z
" style="stroke:#000000;stroke-linecap:round;stroke-width:2;"/>
   </g>
   <g id="patch_6">
    <path d="M 185.469337 33.207199 
C 188.091723 33.207199 190.607055 32.165314 192.461361 30.311008 
C 194.315667 28.456701 195.357552 25.941369 195.357552 23.318984 
C 195.357552 20.696599 194.315667 18.181267 192.461361 16.32696 
C 190.607055 14.472654 188.091723 13.430769 185.469337 13.430769 
C 182.846952 13.430769 180.33162 14.472654 178.477314 16.32696 
C 176.623007 18.181267 175.581122 20.696599 175.581122 23.318984 
C 175.581122 25.941369 176.623007 28.456701 178.477314 30.311008 
C 180.33162 32.165314 182.846952 33.207199 185.469337 33.207199 
z
" style="fill:#fec7b8;stroke:#000000;stroke-linejoin:miter;"/>
   </g>
   <g id="patch_7">
    <path d="M 31.800645 299.369181 
C 34.42303 299.369181 36.938363 298.327297 38.792669 296.47299 
C 40.646975 294.618684 41.68886 292.103352 41.68886 289.480966 
C 41.68886 286.858581 40.646975 284.343249 38.792669 282.488943 
C 36.938363 280.634636 34.42303 279.592752 31.800645 279.592752 
C 29.17826 279.592752 26.662928 280.634636 24.808621 282.488943 
C 22.954315 284.343249 21.91243 286.858581 21.91243 289.480966 
C 21.91243 292.103352 22.954315 294.618684 24.808621 296.47299 
C 26.662928 298.327297 29.17826 299.369181 31.800645 299.369181 
z
" style="fill:#fec7b8;stroke:#000000;stroke-linejoin:miter;"/>
   </g>
   <g id="patch_8">
    <path d="M 339.138029 299.369181 
C 341.760415 299.369181 344.275747 298.327297 346.130053 296.47299 
C 347.98436 294.618684 349.026244 292.103352 349.026244 289.480966 
C 349.026244 286.858581 347.98436 284.343249 346.130053 282.488943 
C 344.275747 280.634636 341.760415 279.592752 339.138029 279.592752 
C 336.515644 279.592752 334.000312 280.634636 332.146006 282.488943 
C 330.291699 284.343249 329.249815 286.858581 329.249815 289.480966 
C 329.249815 292.103352 330.291699 294.618684 332.146006 296.47299 
C 334.000312 298.327297 336.515644 299.369181 339.138029 299.369181 
z
" style="fill:#fec7b8;stroke:#000000;stroke-linejoin:miter;"/>
   </g>
   <g id="patch_9">
    <path clip-path="url(#p3fb9247e4b)" d="M 339.138029 324.969231 
C 343.843828 324.969231 348.357523 323.099597 351.685026 319.772095 
C 355.012528 316.444593 356.882162 311.930897 356.882162 307.225099 
C 356.882162 302.5193 355.012528 298.005605 351.685026 294.678102 
C 348.357523 291.3506 343.843828 289.480966 339.138029 289.480966 
C 334.432231 289.480966 329.918536 291.3506 326.591033 294.678102 
C 323.263531 298.005605 321.393897 302.5193 321.393897 307.225099 
C 321.393897 311.930897 323.263531 316.444593 326.591033 319.772095 
C 329.918536 323.099597 334.432231 324.969231 339.138029 324.969231 
z
" style="fill:none;stroke:#000000;stroke-linejoin:miter;"/>
   </g>
   <g id="patch_10">
    <path clip-path="url(#p3fb9247e4b)" d="M 31.800645 324.969231 
C 36.506444 324.969231 41.020139 323.099597 44.347641 319.772095 
C 47.675144 316.444593 49.544777 311.930897 49.544777 307.225099 
C 49.544777 302.5193 47.675144 298.005605 44.347641 294.678102 
C 41.020139 291.3506 36.506444 289.480966 31.800645 289.480966 
C 27.094846 289.480966 22.581151 291.3506 19.253649 294.678102 
C 15.926147 298.005605 14.056513 302.5193 14.056513 307.225099 
C 14.056513 311.930897 15.926147 316.444593 19.253649 319.772095 
C 22.581151 323.099597 27.094846 324.969231 31.800645 324.969231 
z
" style="fill:none;stroke:#000000;stroke-linejoin:miter;"/>
   </g>
   <g id="text_1">
    <!-- c -->
    <g transform="translate(336.388811 292.240341)scale(0.1 -0.1)">
     <defs>
      <path d="M 48.78125 52.59375 
L 48.78125 44.1875 
Q 44.96875 46.296875 41.140625 47.34375 
Q 37.3125 48.390625 33.40625 48.390625 
Q 24.65625 48.390625 19.8125 42.84375 
Q 14.984375 37.3125 14.984375 27.296875 
Q 14.984375 17.28125 19.8125 11.734375 
Q 24.65625 6.203125 33.40625 6.203125 
Q 37.3125 6.203125 41.140625 7.25 
Q 44.96875 8.296875 48.78125 10.40625 
L 48.78125 2.09375 
Q 45.015625 0.34375 40.984375 -0.53125 
Q 36.96875 -1.421875 32.421875 -1.421875 
Q 20.0625 -1.421875 12.78125 6.34375 
Q 5.515625 14.109375 5.515625 27.296875 
Q 5.515625 40.671875 12.859375 48.328125 
Q 20.21875 56 33.015625 56 
Q 37.15625 56 41.109375 55.140625 
Q 45.0625 54.296875 48.78125 52.59375 
z
" id="DejaVuSans-99"/>
     </defs>
     <use xlink:href="#DejaVuSans-99"/>
    </g>
   </g>
   <g id="text_2">
    <!-- a -->
    <g transform="translate(182.405275 26.078359)scale(0.1 -0.1)">
     <defs>
      <path d="M 34.28125 27.484375 
Q 23.390625 27.484375 19.1875 25 
Q 14.984375 22.515625 14.984375 16.5 
Q 14.984375 11.71875 18.140625 8.90625 
Q 21.296875 6.109375 26.703125 6.109375 
Q 34.1875 6.109375 38.703125 11.40625 
Q 43.21875 16.703125 43.21875 25.484375 
L 43.21875 27.484375 
z
M 52.203125 31.203125 
L 52.203125 0 
L 43.21875 0 
L 43.21875 8.296875 
Q 40.140625 3.328125 35.546875 0.953125 
Q 30.953125 -1.421875 24.3125 -1.421875 
Q 15.921875 -1.421875 10.953125 3.296875 
Q 6 8.015625 6 15.921875 
Q 6 25.140625 12.171875 29.828125 
Q 18.359375 34.515625 30.609375 34.515625 
L 43.21875 34.515625 
L 43.21875 35.40625 
Q 43.21875 41.609375 39.140625 45 
Q 35.0625 48.390625 27.6875 48.390625 
Q 23 48.390625 18.546875 47.265625 
Q 14.109375 46.140625 10.015625 43.890625 
L 10.015625 52.203125 
Q 14.9375 54.109375 19.578125 55.046875 
Q 24.21875 56 28.609375 56 
Q 40.484375 56 46.34375 49.84375 
Q 52.203125 43.703125 52.203125 31.203125 
z
" id="DejaVuSans-97"/>
     </defs>
     <use xlink:href="#DejaVuSans-97"/>
    </g>
   </g>
   <g id="text_3">
    <!-- b -->
    <g transform="translate(28.626426 292.240341)scale(0.1 -0.1)">
     <defs>
      <path d="M 48.6875 27.296875 
Q 48.6875 37.203125 44.609375 42.84375 
Q 40.53125 48.484375 33.40625 48.484375 
Q 26.265625 48.484375 22.1875 42.84375 
Q 18.109375 37.203125 18.109375 27.296875 
Q 18.109375 17.390625 22.1875 11.75 
Q 26.265625 6.109375 33.40625 6.109375 
Q 40.53125 6.109375 44.609375 11.75 
Q 48.6875 17.390625 48.6875 27.296875 
z
M 18.109375 46.390625 
Q 20.953125 51.265625 25.265625 53.625 
Q 29.59375 56 35.59375 56 
Q 45.5625 56 51.78125 48.09375 
Q 58.015625 40.1875 58.015625 27.296875 
Q 58.015625 14.40625 51.78125 6.484375 
Q 45.5625 -1.421875 35.59375 -1.421875 
Q 29.59375 -1.421875 25.265625 0.953125 
Q 20.953125 3.328125 18.109375 8.203125 
L 18.109375 0 
L 9.078125 0 
L 9.078125 75.984375 
L 18.109375 75.984375 
z
" id="DejaVuSans-98"/>
     </defs>
     <use xlink:href="#DejaVuSans-98"/>
    </g>
   </g>
  </g>
 </g>
 <defs>
  <clipPath id="p3fb9247e4b">
   <rect height="324" width="356.538675" x="7.2" y="7.2"/>
  </clipPath>
 </defs>
</svg>
