<?xml version="1.0" encoding="utf-8" standalone="no"?>
<!DOCTYPE svg PUBLIC "-//W3C//DTD SVG 1.1//EN"
  "http://www.w3.org/Graphics/SVG/1.1/DTD/svg11.dtd">
<svg xmlns:xlink="http://www.w3.org/1999/xlink" width="453.6pt" height="336.836113pt" viewBox="0 0 453.6 336.836113" xmlns="http://www.w3.org/2000/svg" version="1.1">
 <metadata>
  <rdf:RDF xmlns:dc="http://purl.org/dc/elements/1.1/" xmlns:cc="http://creativecommons.org/ns#" xmlns:rdf="http://www.w3.org/1999/02/22-rdf-syntax-ns#">
   <cc:Work>
    <dc:type rdf:resource="http://purl.org/dc/dcmitype/StillImage"/>
    <dc:date>2024-11-06T21:16:38.134520</dc:date>
    <dc:format>image/svg+xml</dc:format>
    <dc:creator>
     <cc:Agent>
      <dc:title>Matplotlib v3.6.3, https://matplotlib.org/</dc:title>
     </cc:Agent>
    </dc:creator>
   </cc:Work>
  </rdf:RDF>
 </metadata>
 <defs>
  <style type="text/css">*{stroke-linejoin: round; stroke-linecap: butt}</style>
 </defs>
 <g id="figure_1">
  <g id="patch_1">
   <path d="M 0 336.836113 
L 453.6 336.836113 
L 453.6 0 
L 0 0 
z
" style="fill: #ffffff"/>
  </g>
  <g id="axes_1">
   <g id="patch_2">
    <path d="M 7.2 159.749297 
L 157.262481 159.749297 
L 157.262481 9.686816 
L 7.2 9.686816 
z
" style="fill: #ffffff"/>
   </g>
   <g id="matplotlib.axis_1"/>
   <g id="matplotlib.axis_2"/>
  </g>
  <g id="axes_2">
   <g id="patch_3">
    <path d="M 183.87026 160.30421 
L 269.72974 160.30421 
L 269.72974 9.131903 
L 183.87026 9.131903 
z
" style="fill: #ffffff"/>
   </g>
   <g id="matplotlib.axis_3"/>
   <g id="matplotlib.axis_4"/>
   <g id="line2d_1">
    <path d="M 214.856103 131.033337 
L 185.521404 157.162787 
" clip-path="url(#pda5b835295)" style="fill: none; stroke: #000000; stroke-linecap: square"/>
   </g>
   <g id="line2d_2">
    <path d="M 214.856103 131.033337 
L 204.74693 75.331976 
" clip-path="url(#pda5b835295)" style="fill: none; stroke: #000000; stroke-linecap: square"/>
   </g>
   <g id="line2d_3">
    <path d="M 214.856103 131.033337 
L 258.475199 157.397051 
" clip-path="url(#pda5b835295)" style="fill: none; stroke: #000000; stroke-linecap: square"/>
   </g>
   <g id="line2d_4">
    <path d="M 268.078596 74.113293 
L 204.74693 75.331976 
" clip-path="url(#pda5b835295)" style="fill: none; stroke: #000000; stroke-linecap: square"/>
   </g>
   <g id="line2d_5">
    <path d="M 268.078596 74.113293 
L 258.475199 157.397051 
" clip-path="url(#pda5b835295)" style="fill: none; stroke: #000000; stroke-linecap: square"/>
   </g>
   <g id="line2d_6">
    <path d="M 268.078596 74.113293 
L 241.009822 12.039062 
" clip-path="url(#pda5b835295)" style="fill: none; stroke: #000000; stroke-linecap: square"/>
   </g>
   <g id="line2d_7">
    <path d="M 185.521404 157.162787 
L 204.74693 75.331976 
" clip-path="url(#pda5b835295)" style="fill: none; stroke: #000000; stroke-linecap: square"/>
   </g>
   <g id="line2d_8">
    <path d="M 185.521404 157.162787 
L 258.475199 157.397051 
" clip-path="url(#pda5b835295)" style="fill: none; stroke: #000000; stroke-linecap: square"/>
   </g>
   <g id="line2d_9">
    <path d="M 204.74693 75.331976 
L 241.009822 12.039062 
" clip-path="url(#pda5b835295)" style="fill: none; stroke: #000000; stroke-linecap: square"/>
   </g>
   <g id="PathCollection_1">
    <defs>
     <path id="mb80d883106" d="M 0 7.071068 
C 1.875269 7.071068 3.673985 6.326016 5 5 
C 6.326016 3.673985 7.071068 1.875269 7.071068 0 
C 7.071068 -1.875269 6.326016 -3.673985 5 -5 
C 3.673985 -6.326016 1.875269 -7.071068 0 -7.071068 
C -1.875269 -7.071068 -3.673985 -6.326016 -5 -5 
C -6.326016 -3.673985 -7.071068 -1.875269 -7.071068 0 
C -7.071068 1.875269 -6.326016 3.673985 -5 5 
C -3.673985 6.326016 -1.875269 7.071068 0 7.071068 
z
" style="stroke: #000000"/>
    </defs>
    <g>
     <use xlink:href="#mb80d883106" x="214.856103" y="131.033337" style="fill: #fec7b8; stroke: #000000"/>
     <use xlink:href="#mb80d883106" x="268.078596" y="74.113293" style="fill: #fec7b8; stroke: #000000"/>
     <use xlink:href="#mb80d883106" x="185.521404" y="157.162787" style="fill: #fec7b8; stroke: #000000"/>
     <use xlink:href="#mb80d883106" x="204.74693" y="75.331976" style="fill: #fec7b8; stroke: #000000"/>
     <use xlink:href="#mb80d883106" x="258.475199" y="157.397051" style="fill: #fec7b8; stroke: #000000"/>
     <use xlink:href="#mb80d883106" x="241.009822" y="12.039062" style="fill: #fec7b8; stroke: #000000"/>
    </g>
   </g>
   <g id="text_1">
    <!-- 1 -->
    <g transform="translate(211.674853 133.792712) scale(0.1 -0.1)">
     <defs>
      <path id="DejaVuSans-31" d="M 794 531 
L 1825 531 
L 1825 4091 
L 703 3866 
L 703 4441 
L 1819 4666 
L 2450 4666 
L 2450 531 
L 3481 531 
L 3481 0 
L 794 0 
L 794 531 
z
" transform="scale(0.015625)"/>
     </defs>
     <use xlink:href="#DejaVuSans-31"/>
    </g>
   </g>
   <g id="text_2">
    <!-- 2 -->
    <g transform="translate(264.897346 76.872668) scale(0.1 -0.1)">
     <defs>
      <path id="DejaVuSans-32" d="M 1228 531 
L 3431 531 
L 3431 0 
L 469 0 
L 469 531 
Q 828 903 1448 1529 
Q 2069 2156 2228 2338 
Q 2531 2678 2651 2914 
Q 2772 3150 2772 3378 
Q 2772 3750 2511 3984 
Q 2250 4219 1831 4219 
Q 1534 4219 1204 4116 
Q 875 4013 500 3803 
L 500 4441 
Q 881 4594 1212 4672 
Q 1544 4750 1819 4750 
Q 2544 4750 2975 4387 
Q 3406 4025 3406 3419 
Q 3406 3131 3298 2873 
Q 3191 2616 2906 2266 
Q 2828 2175 2409 1742 
Q 1991 1309 1228 531 
z
" transform="scale(0.015625)"/>
     </defs>
     <use xlink:href="#DejaVuSans-32"/>
    </g>
   </g>
   <g id="text_3">
    <!-- 3 -->
    <g transform="translate(182.340154 159.922162) scale(0.1 -0.1)">
     <defs>
      <path id="DejaVuSans-33" d="M 2597 2516 
Q 3050 2419 3304 2112 
Q 3559 1806 3559 1356 
Q 3559 666 3084 287 
Q 2609 -91 1734 -91 
Q 1441 -91 1130 -33 
Q 819 25 488 141 
L 488 750 
Q 750 597 1062 519 
Q 1375 441 1716 441 
Q 2309 441 2620 675 
Q 2931 909 2931 1356 
Q 2931 1769 2642 2001 
Q 2353 2234 1838 2234 
L 1294 2234 
L 1294 2753 
L 1863 2753 
Q 2328 2753 2575 2939 
Q 2822 3125 2822 3475 
Q 2822 3834 2567 4026 
Q 2313 4219 1838 4219 
Q 1578 4219 1281 4162 
Q 984 4106 628 3988 
L 628 4550 
Q 988 4650 1302 4700 
Q 1616 4750 1894 4750 
Q 2613 4750 3031 4423 
Q 3450 4097 3450 3541 
Q 3450 3153 3228 2886 
Q 3006 2619 2597 2516 
z
" transform="scale(0.015625)"/>
     </defs>
     <use xlink:href="#DejaVuSans-33"/>
    </g>
   </g>
   <g id="text_4">
    <!-- 4 -->
    <g transform="translate(201.56568 78.091351) scale(0.1 -0.1)">
     <defs>
      <path id="DejaVuSans-34" d="M 2419 4116 
L 825 1625 
L 2419 1625 
L 2419 4116 
z
M 2253 4666 
L 3047 4666 
L 3047 1625 
L 3713 1625 
L 3713 1100 
L 3047 1100 
L 3047 0 
L 2419 0 
L 2419 1100 
L 313 1100 
L 313 1709 
L 2253 4666 
z
" transform="scale(0.015625)"/>
     </defs>
     <use xlink:href="#DejaVuSans-34"/>
    </g>
   </g>
   <g id="text_5">
    <!-- 5 -->
    <g transform="translate(255.293949 160.156426) scale(0.1 -0.1)">
     <defs>
      <path id="DejaVuSans-35" d="M 691 4666 
L 3169 4666 
L 3169 4134 
L 1269 4134 
L 1269 2991 
Q 1406 3038 1543 3061 
Q 1681 3084 1819 3084 
Q 2600 3084 3056 2656 
Q 3513 2228 3513 1497 
Q 3513 744 3044 326 
Q 2575 -91 1722 -91 
Q 1428 -91 1123 -41 
Q 819 9 494 109 
L 494 744 
Q 775 591 1075 516 
Q 1375 441 1709 441 
Q 2250 441 2565 725 
Q 2881 1009 2881 1497 
Q 2881 1984 2565 2268 
Q 2250 2553 1709 2553 
Q 1456 2553 1204 2497 
Q 953 2441 691 2322 
L 691 4666 
z
" transform="scale(0.015625)"/>
     </defs>
     <use xlink:href="#DejaVuSans-35"/>
    </g>
   </g>
   <g id="text_6">
    <!-- 6 -->
    <g transform="translate(237.828572 14.798437) scale(0.1 -0.1)">
     <defs>
      <path id="DejaVuSans-36" d="M 2113 2584 
Q 1688 2584 1439 2293 
Q 1191 2003 1191 1497 
Q 1191 994 1439 701 
Q 1688 409 2113 409 
Q 2538 409 2786 701 
Q 3034 994 3034 1497 
Q 3034 2003 2786 2293 
Q 2538 2584 2113 2584 
z
M 3366 4563 
L 3366 3988 
Q 3128 4100 2886 4159 
Q 2644 4219 2406 4219 
Q 1781 4219 1451 3797 
Q 1122 3375 1075 2522 
Q 1259 2794 1537 2939 
Q 1816 3084 2150 3084 
Q 2853 3084 3261 2657 
Q 3669 2231 3669 1497 
Q 3669 778 3244 343 
Q 2819 -91 2113 -91 
Q 1303 -91 875 529 
Q 447 1150 447 2328 
Q 447 3434 972 4092 
Q 1497 4750 2381 4750 
Q 2619 4750 2861 4703 
Q 3103 4656 3366 4563 
z
" transform="scale(0.015625)"/>
     </defs>
     <use xlink:href="#DejaVuSans-36"/>
    </g>
   </g>
  </g>
  <g id="axes_3">
   <g id="patch_4">
    <path d="M 296.337519 159.749297 
L 446.4 159.749297 
L 446.4 9.686816 
L 296.337519 9.686816 
z
" style="fill: #ffffff"/>
   </g>
   <g id="matplotlib.axis_5"/>
   <g id="matplotlib.axis_6"/>
  </g>
  <g id="axes_4">
   <g id="patch_5">
    <path d="M 39.232202 327.70421 
L 125.230279 327.70421 
L 125.230279 176.531903 
L 39.232202 176.531903 
z
" style="fill: #ffffff"/>
   </g>
   <g id="matplotlib.axis_7"/>
   <g id="matplotlib.axis_8"/>
   <g id="line2d_10">
    <path d="M 70.268063 298.625422 
L 40.886011 324.797051 
" clip-path="url(#pebb71bbcd2)" style="fill: none; stroke: #000000; stroke-linecap: square"/>
   </g>
   <g id="line2d_11">
    <path d="M 123.57647 241.613495 
L 60.142572 242.834145 
" clip-path="url(#pebb71bbcd2)" style="fill: none; stroke: #000000; stroke-linecap: square"/>
   </g>
   <g id="line2d_12">
    <path d="M 123.57647 241.613495 
L 96.464 179.439062 
" clip-path="url(#pebb71bbcd2)" style="fill: none; stroke: #000000; stroke-linecap: square"/>
   </g>
   <g id="line2d_13">
    <path d="M 40.886011 324.797051 
L 60.142572 242.834145 
" clip-path="url(#pebb71bbcd2)" style="fill: none; stroke: #000000; stroke-linecap: square"/>
   </g>
   <g id="line2d_14">
    <path d="M 60.142572 242.834145 
L 96.464 179.439062 
" clip-path="url(#pebb71bbcd2)" style="fill: none; stroke: #000000; stroke-linecap: square"/>
   </g>
   <g id="PathCollection_2">
    <g>
     <use xlink:href="#mb80d883106" x="70.268063" y="298.625422" style="fill: #fec7b8; stroke: #000000"/>
     <use xlink:href="#mb80d883106" x="123.57647" y="241.613495" style="fill: #fec7b8; stroke: #000000"/>
     <use xlink:href="#mb80d883106" x="40.886011" y="324.797051" style="fill: #fec7b8; stroke: #000000"/>
     <use xlink:href="#mb80d883106" x="60.142572" y="242.834145" style="fill: #fec7b8; stroke: #000000"/>
     <use xlink:href="#mb80d883106" x="96.464" y="179.439062" style="fill: #fec7b8; stroke: #000000"/>
    </g>
   </g>
   <g id="text_7">
    <!-- 1 -->
    <g transform="translate(67.086813 301.384797) scale(0.1 -0.1)">
     <use xlink:href="#DejaVuSans-31"/>
    </g>
   </g>
   <g id="text_8">
    <!-- 2 -->
    <g transform="translate(120.39522 244.37287) scale(0.1 -0.1)">
     <use xlink:href="#DejaVuSans-32"/>
    </g>
   </g>
   <g id="text_9">
    <!-- 3 -->
    <g transform="translate(37.704761 327.556426) scale(0.1 -0.1)">
     <use xlink:href="#DejaVuSans-33"/>
    </g>
   </g>
   <g id="text_10">
    <!-- 4 -->
    <g transform="translate(56.961322 245.59352) scale(0.1 -0.1)">
     <use xlink:href="#DejaVuSans-34"/>
    </g>
   </g>
   <g id="text_11">
    <!-- 6 -->
    <g transform="translate(93.28275 182.198437) scale(0.1 -0.1)">
     <use xlink:href="#DejaVuSans-36"/>
    </g>
   </g>
  </g>
  <g id="axes_5">
   <g id="patch_6">
    <path d="M 183.87026 327.70421 
L 269.72974 327.70421 
L 269.72974 176.531903 
L 183.87026 176.531903 
z
" style="fill: #ffffff"/>
   </g>
   <g id="matplotlib.axis_9"/>
   <g id="matplotlib.axis_10"/>
   <g id="line2d_15">
    <path d="M 214.856103 298.433337 
L 185.521404 324.562787 
" clip-path="url(#p7109f3f2fc)" style="fill: none; stroke: #000000; stroke-linecap: square"/>
   </g>
   <g id="line2d_16">
    <path d="M 214.856103 298.433337 
L 258.475199 324.797051 
" clip-path="url(#p7109f3f2fc)" style="fill: none; stroke: #000000; stroke-linecap: square"/>
   </g>
   <g id="line2d_17">
    <path d="M 268.078596 241.513293 
L 204.74693 242.731976 
" clip-path="url(#p7109f3f2fc)" style="fill: none; stroke: #000000; stroke-linecap: square"/>
   </g>
   <g id="line2d_18">
    <path d="M 268.078596 241.513293 
L 258.475199 324.797051 
" clip-path="url(#p7109f3f2fc)" style="fill: none; stroke: #000000; stroke-linecap: square"/>
   </g>
   <g id="line2d_19">
    <path d="M 268.078596 241.513293 
L 241.009822 179.439062 
" clip-path="url(#p7109f3f2fc)" style="fill: none; stroke: #000000; stroke-linecap: square"/>
   </g>
   <g id="line2d_20">
    <path d="M 185.521404 324.562787 
L 204.74693 242.731976 
" clip-path="url(#p7109f3f2fc)" style="fill: none; stroke: #000000; stroke-linecap: square"/>
   </g>
   <g id="PathCollection_3">
    <g>
     <use xlink:href="#mb80d883106" x="214.856103" y="298.433337" style="fill: #fec7b8; stroke: #000000"/>
     <use xlink:href="#mb80d883106" x="268.078596" y="241.513293" style="fill: #fec7b8; stroke: #000000"/>
     <use xlink:href="#mb80d883106" x="185.521404" y="324.562787" style="fill: #fec7b8; stroke: #000000"/>
     <use xlink:href="#mb80d883106" x="204.74693" y="242.731976" style="fill: #fec7b8; stroke: #000000"/>
     <use xlink:href="#mb80d883106" x="258.475199" y="324.797051" style="fill: #fec7b8; stroke: #000000"/>
     <use xlink:href="#mb80d883106" x="241.009822" y="179.439062" style="fill: #fec7b8; stroke: #000000"/>
    </g>
   </g>
   <g id="text_12">
    <!-- 1 -->
    <g transform="translate(211.674853 301.192712) scale(0.1 -0.1)">
     <use xlink:href="#DejaVuSans-31"/>
    </g>
   </g>
   <g id="text_13">
    <!-- 2 -->
    <g transform="translate(264.897346 244.272668) scale(0.1 -0.1)">
     <use xlink:href="#DejaVuSans-32"/>
    </g>
   </g>
   <g id="text_14">
    <!-- 3 -->
    <g transform="translate(182.340154 327.322162) scale(0.1 -0.1)">
     <use xlink:href="#DejaVuSans-33"/>
    </g>
   </g>
   <g id="text_15">
    <!-- 4 -->
    <g transform="translate(201.56568 245.491351) scale(0.1 -0.1)">
     <use xlink:href="#DejaVuSans-34"/>
    </g>
   </g>
   <g id="text_16">
    <!-- 5 -->
    <g transform="translate(255.293949 327.556426) scale(0.1 -0.1)">
     <use xlink:href="#DejaVuSans-35"/>
    </g>
   </g>
   <g id="text_17">
    <!-- 6 -->
    <g transform="translate(237.828572 182.198437) scale(0.1 -0.1)">
     <use xlink:href="#DejaVuSans-36"/>
    </g>
   </g>
  </g>
  <g id="axes_6">
   <g id="patch_7">
    <path d="M 328.43902 327.70421 
L 414.298499 327.70421 
L 414.298499 176.531903 
L 328.43902 176.531903 
z
" style="fill: #ffffff"/>
   </g>
   <g id="matplotlib.axis_11"/>
   <g id="matplotlib.axis_12"/>
   <g id="line2d_21">
    <path d="M 359.424862 298.433337 
L 330.090164 324.562787 
" clip-path="url(#p4d04dc3d77)" style="fill: none; stroke: #000000; stroke-linecap: square"/>
   </g>
   <g id="line2d_22">
    <path d="M 359.424862 298.433337 
L 349.31569 242.731976 
" clip-path="url(#p4d04dc3d77)" style="fill: none; stroke: #000000; stroke-linecap: square"/>
   </g>
   <g id="line2d_23">
    <path d="M 412.647356 241.513293 
L 403.043959 324.797051 
" clip-path="url(#p4d04dc3d77)" style="fill: none; stroke: #000000; stroke-linecap: square"/>
   </g>
   <g id="line2d_24">
    <path d="M 412.647356 241.513293 
L 385.578582 179.439062 
" clip-path="url(#p4d04dc3d77)" style="fill: none; stroke: #000000; stroke-linecap: square"/>
   </g>
   <g id="line2d_25">
    <path d="M 330.090164 324.562787 
L 403.043959 324.797051 
" clip-path="url(#p4d04dc3d77)" style="fill: none; stroke: #000000; stroke-linecap: square"/>
   </g>
   <g id="PathCollection_4">
    <g>
     <use xlink:href="#mb80d883106" x="359.424862" y="298.433337" style="fill: #fec7b8; stroke: #000000"/>
     <use xlink:href="#mb80d883106" x="412.647356" y="241.513293" style="fill: #fec7b8; stroke: #000000"/>
     <use xlink:href="#mb80d883106" x="330.090164" y="324.562787" style="fill: #fec7b8; stroke: #000000"/>
     <use xlink:href="#mb80d883106" x="349.31569" y="242.731976" style="fill: #fec7b8; stroke: #000000"/>
     <use xlink:href="#mb80d883106" x="403.043959" y="324.797051" style="fill: #fec7b8; stroke: #000000"/>
     <use xlink:href="#mb80d883106" x="385.578582" y="179.439062" style="fill: #fec7b8; stroke: #000000"/>
    </g>
   </g>
   <g id="text_18">
    <!-- 1 -->
    <g transform="translate(356.243612 301.192712) scale(0.1 -0.1)">
     <use xlink:href="#DejaVuSans-31"/>
    </g>
   </g>
   <g id="text_19">
    <!-- 2 -->
    <g transform="translate(409.466106 244.272668) scale(0.1 -0.1)">
     <use xlink:href="#DejaVuSans-32"/>
    </g>
   </g>
   <g id="text_20">
    <!-- 3 -->
    <g transform="translate(326.908914 327.322162) scale(0.1 -0.1)">
     <use xlink:href="#DejaVuSans-33"/>
    </g>
   </g>
   <g id="text_21">
    <!-- 4 -->
    <g transform="translate(346.13444 245.491351) scale(0.1 -0.1)">
     <use xlink:href="#DejaVuSans-34"/>
    </g>
   </g>
   <g id="text_22">
    <!-- 5 -->
    <g transform="translate(399.862709 327.556426) scale(0.1 -0.1)">
     <use xlink:href="#DejaVuSans-35"/>
    </g>
   </g>
   <g id="text_23">
    <!-- 6 -->
    <g transform="translate(382.397332 182.198437) scale(0.1 -0.1)">
     <use xlink:href="#DejaVuSans-36"/>
    </g>
   </g>
  </g>
 </g>
 <defs>
  <clipPath id="pda5b835295">
   <rect x="183.87026" y="9.131903" width="85.85948" height="151.172308"/>
  </clipPath>
  <clipPath id="pebb71bbcd2">
   <rect x="39.232202" y="176.531903" width="85.998077" height="151.172308"/>
  </clipPath>
  <clipPath id="p7109f3f2fc">
   <rect x="183.87026" y="176.531903" width="85.85948" height="151.172308"/>
  </clipPath>
  <clipPath id="p4d04dc3d77">
   <rect x="328.43902" y="176.531903" width="85.85948" height="151.172308"/>
  </clipPath>
 </defs>
</svg>
