<?xml version="1.0" encoding="utf-8" standalone="no"?>
<!DOCTYPE svg PUBLIC "-//W3C//DTD SVG 1.1//EN"
  "http://www.w3.org/Graphics/SVG/1.1/DTD/svg11.dtd">
<!-- Created with matplotlib (https://matplotlib.org/) -->
<svg height="285.751437pt" version="1.1" viewBox="0 0 452.348864 285.751437" width="452.348864pt" xmlns="http://www.w3.org/2000/svg" xmlns:xlink="http://www.w3.org/1999/xlink">
 <metadata>
  <rdf:RDF xmlns:cc="http://creativecommons.org/ns#" xmlns:dc="http://purl.org/dc/elements/1.1/" xmlns:rdf="http://www.w3.org/1999/02/22-rdf-syntax-ns#">
   <cc:Work>
    <dc:type rdf:resource="http://purl.org/dc/dcmitype/StillImage"/>
    <dc:date>2024-02-07T23:23:50.380877</dc:date>
    <dc:format>image/svg+xml</dc:format>
    <dc:creator>
     <cc:Agent>
      <dc:title>Matplotlib v3.3.4, https://matplotlib.org/</dc:title>
     </cc:Agent>
    </dc:creator>
   </cc:Work>
  </rdf:RDF>
 </metadata>
 <defs>
  <style type="text/css">*{stroke-linecap:butt;stroke-linejoin:round;}</style>
 </defs>
 <g id="figure_1">
  <g id="patch_1">
   <path d="M 0 285.751437 
L 452.348864 285.751437 
L 452.348864 0 
L 0 0 
z
" style="fill:#ffffff;"/>
  </g>
  <g id="axes_1">
   <g id="patch_2">
    <path d="M 7.749523 144.049819 
L 144.599342 144.049819 
L 144.599342 7.2 
L 7.749523 7.2 
z
" style="fill:#ffffff;"/>
   </g>
   <g id="matplotlib.axis_1"/>
   <g id="matplotlib.axis_2"/>
  </g>
  <g id="axes_2">
   <g id="patch_3">
    <path d="M 157.749523 122.514639 
L 294.599342 122.514639 
L 294.599342 28.73518 
L 157.749523 28.73518 
z
" style="fill:#ffffff;"/>
   </g>
   <g id="matplotlib.axis_3"/>
   <g id="matplotlib.axis_4"/>
   <g id="line2d_1">
    <path clip-path="url(#pbe6ec39fe8)" d="M 291.967614 96.336234 
L 255.471127 120.711188 
" style="fill:none;stroke:#000000;stroke-linecap:square;"/>
   </g>
   <g id="line2d_2">
    <path clip-path="url(#pbe6ec39fe8)" d="M 291.967614 96.336234 
L 220.110146 75.78716 
" style="fill:none;stroke:#000000;stroke-linecap:square;"/>
   </g>
   <g id="line2d_3">
    <path clip-path="url(#pbe6ec39fe8)" d="M 291.967614 96.336234 
L 260.163115 66.657676 
" style="fill:none;stroke:#000000;stroke-linecap:square;"/>
   </g>
   <g id="line2d_4">
    <path clip-path="url(#pbe6ec39fe8)" d="M 191.213383 52.258752 
L 220.110146 75.78716 
" style="fill:none;stroke:#000000;stroke-linecap:square;"/>
   </g>
   <g id="line2d_5">
    <path clip-path="url(#pbe6ec39fe8)" d="M 191.213383 52.258752 
L 260.163115 66.657676 
" style="fill:none;stroke:#000000;stroke-linecap:square;"/>
   </g>
   <g id="line2d_6">
    <path clip-path="url(#pbe6ec39fe8)" d="M 191.213383 52.258752 
L 160.38125 30.538631 
" style="fill:none;stroke:#000000;stroke-linecap:square;"/>
   </g>
   <g id="line2d_7">
    <path clip-path="url(#pbe6ec39fe8)" d="M 255.471127 120.711188 
L 220.110146 75.78716 
" style="fill:none;stroke:#000000;stroke-linecap:square;"/>
   </g>
   <g id="line2d_8">
    <path clip-path="url(#pbe6ec39fe8)" d="M 255.471127 120.711188 
L 260.163115 66.657676 
" style="fill:none;stroke:#000000;stroke-linecap:square;"/>
   </g>
   <g id="line2d_9">
    <path clip-path="url(#pbe6ec39fe8)" d="M 220.110146 75.78716 
L 160.38125 30.538631 
" style="fill:none;stroke:#000000;stroke-linecap:square;"/>
   </g>
   <g id="PathCollection_1">
    <defs>
     <path d="M 0 7.071068 
C 1.875269 7.071068 3.673985 6.326016 5 5 
C 6.326016 3.673985 7.071068 1.875269 7.071068 0 
C 7.071068 -1.875269 6.326016 -3.673985 5 -5 
C 3.673985 -6.326016 1.875269 -7.071068 0 -7.071068 
C -1.875269 -7.071068 -3.673985 -6.326016 -5 -5 
C -6.326016 -3.673985 -7.071068 -1.875269 -7.071068 0 
C -7.071068 1.875269 -6.326016 3.673985 -5 5 
C -3.673985 6.326016 -1.875269 7.071068 0 7.071068 
z
" id="m9622c870ee" style="stroke:#000000;"/>
    </defs>
    <g>
     <use style="fill:#fec7b8;stroke:#000000;" x="291.967614" xlink:href="#m9622c870ee" y="96.336234"/>
     <use style="fill:#fec7b8;stroke:#000000;" x="191.213383" xlink:href="#m9622c870ee" y="52.258752"/>
     <use style="fill:#fec7b8;stroke:#000000;" x="255.471127" xlink:href="#m9622c870ee" y="120.711188"/>
     <use style="fill:#fec7b8;stroke:#000000;" x="220.110146" xlink:href="#m9622c870ee" y="75.78716"/>
     <use style="fill:#fec7b8;stroke:#000000;" x="260.163115" xlink:href="#m9622c870ee" y="66.657676"/>
     <use style="fill:#fec7b8;stroke:#000000;" x="160.38125" xlink:href="#m9622c870ee" y="30.538631"/>
    </g>
   </g>
   <g id="text_1">
    <!-- 1 -->
    <g transform="translate(288.786364 99.095609)scale(0.1 -0.1)">
     <defs>
      <path d="M 12.40625 8.296875 
L 28.515625 8.296875 
L 28.515625 63.921875 
L 10.984375 60.40625 
L 10.984375 69.390625 
L 28.421875 72.90625 
L 38.28125 72.90625 
L 38.28125 8.296875 
L 54.390625 8.296875 
L 54.390625 0 
L 12.40625 0 
z
" id="DejaVuSans-49"/>
     </defs>
     <use xlink:href="#DejaVuSans-49"/>
    </g>
   </g>
   <g id="text_2">
    <!-- 2 -->
    <g transform="translate(188.032133 55.018127)scale(0.1 -0.1)">
     <defs>
      <path d="M 19.1875 8.296875 
L 53.609375 8.296875 
L 53.609375 0 
L 7.328125 0 
L 7.328125 8.296875 
Q 12.9375 14.109375 22.625 23.890625 
Q 32.328125 33.6875 34.8125 36.53125 
Q 39.546875 41.84375 41.421875 45.53125 
Q 43.3125 49.21875 43.3125 52.78125 
Q 43.3125 58.59375 39.234375 62.25 
Q 35.15625 65.921875 28.609375 65.921875 
Q 23.96875 65.921875 18.8125 64.3125 
Q 13.671875 62.703125 7.8125 59.421875 
L 7.8125 69.390625 
Q 13.765625 71.78125 18.9375 73 
Q 24.125 74.21875 28.421875 74.21875 
Q 39.75 74.21875 46.484375 68.546875 
Q 53.21875 62.890625 53.21875 53.421875 
Q 53.21875 48.921875 51.53125 44.890625 
Q 49.859375 40.875 45.40625 35.40625 
Q 44.1875 33.984375 37.640625 27.21875 
Q 31.109375 20.453125 19.1875 8.296875 
z
" id="DejaVuSans-50"/>
     </defs>
     <use xlink:href="#DejaVuSans-50"/>
    </g>
   </g>
   <g id="text_3">
    <!-- 3 -->
    <g transform="translate(252.289877 123.470563)scale(0.1 -0.1)">
     <defs>
      <path d="M 40.578125 39.3125 
Q 47.65625 37.796875 51.625 33 
Q 55.609375 28.21875 55.609375 21.1875 
Q 55.609375 10.40625 48.1875 4.484375 
Q 40.765625 -1.421875 27.09375 -1.421875 
Q 22.515625 -1.421875 17.65625 -0.515625 
Q 12.796875 0.390625 7.625 2.203125 
L 7.625 11.71875 
Q 11.71875 9.328125 16.59375 8.109375 
Q 21.484375 6.890625 26.8125 6.890625 
Q 36.078125 6.890625 40.9375 10.546875 
Q 45.796875 14.203125 45.796875 21.1875 
Q 45.796875 27.640625 41.28125 31.265625 
Q 36.765625 34.90625 28.71875 34.90625 
L 20.21875 34.90625 
L 20.21875 43.015625 
L 29.109375 43.015625 
Q 36.375 43.015625 40.234375 45.921875 
Q 44.09375 48.828125 44.09375 54.296875 
Q 44.09375 59.90625 40.109375 62.90625 
Q 36.140625 65.921875 28.71875 65.921875 
Q 24.65625 65.921875 20.015625 65.03125 
Q 15.375 64.15625 9.8125 62.3125 
L 9.8125 71.09375 
Q 15.4375 72.65625 20.34375 73.4375 
Q 25.25 74.21875 29.59375 74.21875 
Q 40.828125 74.21875 47.359375 69.109375 
Q 53.90625 64.015625 53.90625 55.328125 
Q 53.90625 49.265625 50.4375 45.09375 
Q 46.96875 40.921875 40.578125 39.3125 
z
" id="DejaVuSans-51"/>
     </defs>
     <use xlink:href="#DejaVuSans-51"/>
    </g>
   </g>
   <g id="text_4">
    <!-- 4 -->
    <g transform="translate(216.928896 78.546535)scale(0.1 -0.1)">
     <defs>
      <path d="M 37.796875 64.3125 
L 12.890625 25.390625 
L 37.796875 25.390625 
z
M 35.203125 72.90625 
L 47.609375 72.90625 
L 47.609375 25.390625 
L 58.015625 25.390625 
L 58.015625 17.1875 
L 47.609375 17.1875 
L 47.609375 0 
L 37.796875 0 
L 37.796875 17.1875 
L 4.890625 17.1875 
L 4.890625 26.703125 
z
" id="DejaVuSans-52"/>
     </defs>
     <use xlink:href="#DejaVuSans-52"/>
    </g>
   </g>
   <g id="text_5">
    <!-- 5 -->
    <g transform="translate(256.981865 69.417051)scale(0.1 -0.1)">
     <defs>
      <path d="M 10.796875 72.90625 
L 49.515625 72.90625 
L 49.515625 64.59375 
L 19.828125 64.59375 
L 19.828125 46.734375 
Q 21.96875 47.46875 24.109375 47.828125 
Q 26.265625 48.1875 28.421875 48.1875 
Q 40.625 48.1875 47.75 41.5 
Q 54.890625 34.8125 54.890625 23.390625 
Q 54.890625 11.625 47.5625 5.09375 
Q 40.234375 -1.421875 26.90625 -1.421875 
Q 22.3125 -1.421875 17.546875 -0.640625 
Q 12.796875 0.140625 7.71875 1.703125 
L 7.71875 11.625 
Q 12.109375 9.234375 16.796875 8.0625 
Q 21.484375 6.890625 26.703125 6.890625 
Q 35.15625 6.890625 40.078125 11.328125 
Q 45.015625 15.765625 45.015625 23.390625 
Q 45.015625 31 40.078125 35.4375 
Q 35.15625 39.890625 26.703125 39.890625 
Q 22.75 39.890625 18.8125 39.015625 
Q 14.890625 38.140625 10.796875 36.28125 
z
" id="DejaVuSans-53"/>
     </defs>
     <use xlink:href="#DejaVuSans-53"/>
    </g>
   </g>
   <g id="text_6">
    <!-- 6 -->
    <g transform="translate(157.2 33.298006)scale(0.1 -0.1)">
     <defs>
      <path d="M 33.015625 40.375 
Q 26.375 40.375 22.484375 35.828125 
Q 18.609375 31.296875 18.609375 23.390625 
Q 18.609375 15.53125 22.484375 10.953125 
Q 26.375 6.390625 33.015625 6.390625 
Q 39.65625 6.390625 43.53125 10.953125 
Q 47.40625 15.53125 47.40625 23.390625 
Q 47.40625 31.296875 43.53125 35.828125 
Q 39.65625 40.375 33.015625 40.375 
z
M 52.59375 71.296875 
L 52.59375 62.3125 
Q 48.875 64.0625 45.09375 64.984375 
Q 41.3125 65.921875 37.59375 65.921875 
Q 27.828125 65.921875 22.671875 59.328125 
Q 17.53125 52.734375 16.796875 39.40625 
Q 19.671875 43.65625 24.015625 45.921875 
Q 28.375 48.1875 33.59375 48.1875 
Q 44.578125 48.1875 50.953125 41.515625 
Q 57.328125 34.859375 57.328125 23.390625 
Q 57.328125 12.15625 50.6875 5.359375 
Q 44.046875 -1.421875 33.015625 -1.421875 
Q 20.359375 -1.421875 13.671875 8.265625 
Q 6.984375 17.96875 6.984375 36.375 
Q 6.984375 53.65625 15.1875 63.9375 
Q 23.390625 74.21875 37.203125 74.21875 
Q 40.921875 74.21875 44.703125 73.484375 
Q 48.484375 72.75 52.59375 71.296875 
z
" id="DejaVuSans-54"/>
     </defs>
     <use xlink:href="#DejaVuSans-54"/>
    </g>
   </g>
  </g>
  <g id="axes_3">
   <g id="patch_4">
    <path d="M 307.749523 144.049819 
L 444.599342 144.049819 
L 444.599342 7.2 
L 307.749523 7.2 
z
" style="fill:#ffffff;"/>
   </g>
   <g id="matplotlib.axis_5"/>
   <g id="matplotlib.axis_6"/>
  </g>
  <g id="axes_4">
   <g id="patch_5">
    <path d="M 7.749523 275.515826 
L 144.599342 275.515826 
L 144.599342 181.736366 
L 7.749523 181.736366 
z
" style="fill:#ffffff;"/>
   </g>
   <g id="matplotlib.axis_7"/>
   <g id="matplotlib.axis_8"/>
   <g id="line2d_10">
    <path clip-path="url(#p75af338d28)" d="M 141.967614 249.337421 
L 105.471127 273.712375 
" style="fill:none;stroke:#000000;stroke-linecap:square;"/>
   </g>
   <g id="line2d_11">
    <path clip-path="url(#p75af338d28)" d="M 41.213383 205.259939 
L 70.110146 228.788347 
" style="fill:none;stroke:#000000;stroke-linecap:square;"/>
   </g>
   <g id="line2d_12">
    <path clip-path="url(#p75af338d28)" d="M 41.213383 205.259939 
L 10.38125 183.539818 
" style="fill:none;stroke:#000000;stroke-linecap:square;"/>
   </g>
   <g id="line2d_13">
    <path clip-path="url(#p75af338d28)" d="M 105.471127 273.712375 
L 70.110146 228.788347 
" style="fill:none;stroke:#000000;stroke-linecap:square;"/>
   </g>
   <g id="line2d_14">
    <path clip-path="url(#p75af338d28)" d="M 70.110146 228.788347 
L 10.38125 183.539818 
" style="fill:none;stroke:#000000;stroke-linecap:square;"/>
   </g>
   <g id="PathCollection_2">
    <g>
     <use style="fill:#fec7b8;stroke:#000000;" x="141.967614" xlink:href="#m9622c870ee" y="249.337421"/>
     <use style="fill:#fec7b8;stroke:#000000;" x="41.213383" xlink:href="#m9622c870ee" y="205.259939"/>
     <use style="fill:#fec7b8;stroke:#000000;" x="105.471127" xlink:href="#m9622c870ee" y="273.712375"/>
     <use style="fill:#fec7b8;stroke:#000000;" x="70.110146" xlink:href="#m9622c870ee" y="228.788347"/>
     <use style="fill:#fec7b8;stroke:#000000;" x="10.38125" xlink:href="#m9622c870ee" y="183.539818"/>
    </g>
   </g>
   <g id="text_7">
    <!-- 1 -->
    <g transform="translate(138.786364 252.096796)scale(0.1 -0.1)">
     <use xlink:href="#DejaVuSans-49"/>
    </g>
   </g>
   <g id="text_8">
    <!-- 2 -->
    <g transform="translate(38.032133 208.019314)scale(0.1 -0.1)">
     <use xlink:href="#DejaVuSans-50"/>
    </g>
   </g>
   <g id="text_9">
    <!-- 3 -->
    <g transform="translate(102.289877 276.47175)scale(0.1 -0.1)">
     <use xlink:href="#DejaVuSans-51"/>
    </g>
   </g>
   <g id="text_10">
    <!-- 4 -->
    <g transform="translate(66.928896 231.547722)scale(0.1 -0.1)">
     <use xlink:href="#DejaVuSans-52"/>
    </g>
   </g>
   <g id="text_11">
    <!-- 6 -->
    <g transform="translate(7.2 186.299193)scale(0.1 -0.1)">
     <use xlink:href="#DejaVuSans-54"/>
    </g>
   </g>
  </g>
  <g id="axes_5">
   <g id="patch_6">
    <path d="M 157.749523 275.515826 
L 294.599342 275.515826 
L 294.599342 181.736366 
L 157.749523 181.736366 
z
" style="fill:#ffffff;"/>
   </g>
   <g id="matplotlib.axis_9"/>
   <g id="matplotlib.axis_10"/>
   <g id="line2d_15">
    <path clip-path="url(#p17381133d7)" d="M 291.967614 249.337421 
L 255.471127 273.712375 
" style="fill:none;stroke:#000000;stroke-linecap:square;"/>
   </g>
   <g id="line2d_16">
    <path clip-path="url(#p17381133d7)" d="M 291.967614 249.337421 
L 260.163115 219.658863 
" style="fill:none;stroke:#000000;stroke-linecap:square;"/>
   </g>
   <g id="line2d_17">
    <path clip-path="url(#p17381133d7)" d="M 191.213383 205.259939 
L 220.110146 228.788347 
" style="fill:none;stroke:#000000;stroke-linecap:square;"/>
   </g>
   <g id="line2d_18">
    <path clip-path="url(#p17381133d7)" d="M 191.213383 205.259939 
L 260.163115 219.658863 
" style="fill:none;stroke:#000000;stroke-linecap:square;"/>
   </g>
   <g id="line2d_19">
    <path clip-path="url(#p17381133d7)" d="M 191.213383 205.259939 
L 160.38125 183.539818 
" style="fill:none;stroke:#000000;stroke-linecap:square;"/>
   </g>
   <g id="line2d_20">
    <path clip-path="url(#p17381133d7)" d="M 255.471127 273.712375 
L 220.110146 228.788347 
" style="fill:none;stroke:#000000;stroke-linecap:square;"/>
   </g>
   <g id="PathCollection_3">
    <g>
     <use style="fill:#fec7b8;stroke:#000000;" x="291.967614" xlink:href="#m9622c870ee" y="249.337421"/>
     <use style="fill:#fec7b8;stroke:#000000;" x="191.213383" xlink:href="#m9622c870ee" y="205.259939"/>
     <use style="fill:#fec7b8;stroke:#000000;" x="255.471127" xlink:href="#m9622c870ee" y="273.712375"/>
     <use style="fill:#fec7b8;stroke:#000000;" x="220.110146" xlink:href="#m9622c870ee" y="228.788347"/>
     <use style="fill:#fec7b8;stroke:#000000;" x="260.163115" xlink:href="#m9622c870ee" y="219.658863"/>
     <use style="fill:#fec7b8;stroke:#000000;" x="160.38125" xlink:href="#m9622c870ee" y="183.539818"/>
    </g>
   </g>
   <g id="text_12">
    <!-- 1 -->
    <g transform="translate(288.786364 252.096796)scale(0.1 -0.1)">
     <use xlink:href="#DejaVuSans-49"/>
    </g>
   </g>
   <g id="text_13">
    <!-- 2 -->
    <g transform="translate(188.032133 208.019314)scale(0.1 -0.1)">
     <use xlink:href="#DejaVuSans-50"/>
    </g>
   </g>
   <g id="text_14">
    <!-- 3 -->
    <g transform="translate(252.289877 276.47175)scale(0.1 -0.1)">
     <use xlink:href="#DejaVuSans-51"/>
    </g>
   </g>
   <g id="text_15">
    <!-- 4 -->
    <g transform="translate(216.928896 231.547722)scale(0.1 -0.1)">
     <use xlink:href="#DejaVuSans-52"/>
    </g>
   </g>
   <g id="text_16">
    <!-- 5 -->
    <g transform="translate(256.981865 222.418238)scale(0.1 -0.1)">
     <use xlink:href="#DejaVuSans-53"/>
    </g>
   </g>
   <g id="text_17">
    <!-- 6 -->
    <g transform="translate(157.2 186.299193)scale(0.1 -0.1)">
     <use xlink:href="#DejaVuSans-54"/>
    </g>
   </g>
  </g>
  <g id="axes_6">
   <g id="patch_7">
    <path d="M 307.749523 275.515826 
L 444.599342 275.515826 
L 444.599342 181.736366 
L 307.749523 181.736366 
z
" style="fill:#ffffff;"/>
   </g>
   <g id="matplotlib.axis_11"/>
   <g id="matplotlib.axis_12"/>
   <g id="line2d_21">
    <path clip-path="url(#pb219a690fd)" d="M 441.967614 249.337421 
L 370.110146 228.788347 
" style="fill:none;stroke:#000000;stroke-linecap:square;"/>
   </g>
   <g id="line2d_22">
    <path clip-path="url(#pb219a690fd)" d="M 341.213383 205.259939 
L 370.110146 228.788347 
" style="fill:none;stroke:#000000;stroke-linecap:square;"/>
   </g>
   <g id="line2d_23">
    <path clip-path="url(#pb219a690fd)" d="M 341.213383 205.259939 
L 410.163115 219.658863 
" style="fill:none;stroke:#000000;stroke-linecap:square;"/>
   </g>
   <g id="line2d_24">
    <path clip-path="url(#pb219a690fd)" d="M 405.471127 273.712375 
L 370.110146 228.788347 
" style="fill:none;stroke:#000000;stroke-linecap:square;"/>
   </g>
   <g id="line2d_25">
    <path clip-path="url(#pb219a690fd)" d="M 370.110146 228.788347 
L 310.38125 183.539818 
" style="fill:none;stroke:#000000;stroke-linecap:square;"/>
   </g>
   <g id="PathCollection_4">
    <g>
     <use style="fill:#fec7b8;stroke:#000000;" x="441.967614" xlink:href="#m9622c870ee" y="249.337421"/>
     <use style="fill:#fec7b8;stroke:#000000;" x="341.213383" xlink:href="#m9622c870ee" y="205.259939"/>
     <use style="fill:#fec7b8;stroke:#000000;" x="405.471127" xlink:href="#m9622c870ee" y="273.712375"/>
     <use style="fill:#fec7b8;stroke:#000000;" x="370.110146" xlink:href="#m9622c870ee" y="228.788347"/>
     <use style="fill:#fec7b8;stroke:#000000;" x="410.163115" xlink:href="#m9622c870ee" y="219.658863"/>
     <use style="fill:#fec7b8;stroke:#000000;" x="310.38125" xlink:href="#m9622c870ee" y="183.539818"/>
    </g>
   </g>
   <g id="text_18">
    <!-- 1 -->
    <g transform="translate(438.786364 252.096796)scale(0.1 -0.1)">
     <use xlink:href="#DejaVuSans-49"/>
    </g>
   </g>
   <g id="text_19">
    <!-- 2 -->
    <g transform="translate(338.032133 208.019314)scale(0.1 -0.1)">
     <use xlink:href="#DejaVuSans-50"/>
    </g>
   </g>
   <g id="text_20">
    <!-- 3 -->
    <g transform="translate(402.289877 276.47175)scale(0.1 -0.1)">
     <use xlink:href="#DejaVuSans-51"/>
    </g>
   </g>
   <g id="text_21">
    <!-- 4 -->
    <g transform="translate(366.928896 231.547722)scale(0.1 -0.1)">
     <use xlink:href="#DejaVuSans-52"/>
    </g>
   </g>
   <g id="text_22">
    <!-- 5 -->
    <g transform="translate(406.981865 222.418238)scale(0.1 -0.1)">
     <use xlink:href="#DejaVuSans-53"/>
    </g>
   </g>
   <g id="text_23">
    <!-- 6 -->
    <g transform="translate(307.2 186.299193)scale(0.1 -0.1)">
     <use xlink:href="#DejaVuSans-54"/>
    </g>
   </g>
  </g>
 </g>
 <defs>
  <clipPath id="pbe6ec39fe8">
   <rect height="93.779459" width="136.849819" x="157.749523" y="28.73518"/>
  </clipPath>
  <clipPath id="p75af338d28">
   <rect height="93.779459" width="136.849819" x="7.749523" y="181.736366"/>
  </clipPath>
  <clipPath id="p17381133d7">
   <rect height="93.779459" width="136.849819" x="157.749523" y="181.736366"/>
  </clipPath>
  <clipPath id="pb219a690fd">
   <rect height="93.779459" width="136.849819" x="307.749523" y="181.736366"/>
  </clipPath>
 </defs>
</svg>
