<?xml version="1.0" encoding="utf-8" standalone="no"?>
<!DOCTYPE svg PUBLIC "-//W3C//DTD SVG 1.1//EN"
  "http://www.w3.org/Graphics/SVG/1.1/DTD/svg11.dtd">
<svg xmlns:xlink="http://www.w3.org/1999/xlink" width="452.348864pt" height="294.116519pt" viewBox="0 0 452.348864 294.116519" xmlns="http://www.w3.org/2000/svg" version="1.1">
 <metadata>
  <rdf:RDF xmlns:dc="http://purl.org/dc/elements/1.1/" xmlns:cc="http://creativecommons.org/ns#" xmlns:rdf="http://www.w3.org/1999/02/22-rdf-syntax-ns#">
   <cc:Work>
    <dc:type rdf:resource="http://purl.org/dc/dcmitype/StillImage"/>
    <dc:date>2025-04-08T20:00:59.350233</dc:date>
    <dc:format>image/svg+xml</dc:format>
    <dc:creator>
     <cc:Agent>
      <dc:title>Matplotlib v3.10.1, https://matplotlib.org/</dc:title>
     </cc:Agent>
    </dc:creator>
   </cc:Work>
  </rdf:RDF>
 </metadata>
 <defs>
  <style type="text/css">*{stroke-linejoin: round; stroke-linecap: butt}</style>
 </defs>
 <g id="figure_1">
  <g id="patch_1">
   <path d="M 0 294.116519 
L 452.348864 294.116519 
L 452.348864 0 
L 0 0 
z
" style="fill: #ffffff"/>
  </g>
  <g id="axes_1">
   <g id="patch_2">
    <path d="M 7.749523 144.049819 
L 144.599342 144.049819 
L 144.599342 7.2 
L 7.749523 7.2 
z
" style="fill: #ffffff"/>
   </g>
   <g id="matplotlib.axis_1"/>
   <g id="matplotlib.axis_2"/>
  </g>
  <g id="axes_2">
   <g id="patch_3">
    <path d="M 157.749523 128.801624 
L 294.599342 128.801624 
L 294.599342 22.448195 
L 157.749523 22.448195 
z
" style="fill: #ffffff"/>
   </g>
   <g id="matplotlib.axis_3"/>
   <g id="matplotlib.axis_4"/>
   <g id="line2d_1">
    <path d="M 160.38125 126.05976 
L 200.862792 126.756365 
" clip-path="url(#p1d4f2bdaf4)" style="fill: none; stroke: #000000; stroke-linecap: square"/>
   </g>
   <g id="line2d_2">
    <path d="M 160.38125 126.05976 
L 236.37846 86.456489 
" clip-path="url(#p1d4f2bdaf4)" style="fill: none; stroke: #000000; stroke-linecap: square"/>
   </g>
   <g id="line2d_3">
    <path d="M 160.38125 126.05976 
L 165.678777 67.329579 
" clip-path="url(#p1d4f2bdaf4)" style="fill: none; stroke: #000000; stroke-linecap: square"/>
   </g>
   <g id="line2d_4">
    <path d="M 228.59216 24.493454 
L 236.37846 86.456489 
" clip-path="url(#p1d4f2bdaf4)" style="fill: none; stroke: #000000; stroke-linecap: square"/>
   </g>
   <g id="line2d_5">
    <path d="M 228.59216 24.493454 
L 165.678777 67.329579 
" clip-path="url(#p1d4f2bdaf4)" style="fill: none; stroke: #000000; stroke-linecap: square"/>
   </g>
   <g id="line2d_6">
    <path d="M 228.59216 24.493454 
L 291.967614 35.806343 
" clip-path="url(#p1d4f2bdaf4)" style="fill: none; stroke: #000000; stroke-linecap: square"/>
   </g>
   <g id="line2d_7">
    <path d="M 200.862792 126.756365 
L 236.37846 86.456489 
" clip-path="url(#p1d4f2bdaf4)" style="fill: none; stroke: #000000; stroke-linecap: square"/>
   </g>
   <g id="line2d_8">
    <path d="M 200.862792 126.756365 
L 165.678777 67.329579 
" clip-path="url(#p1d4f2bdaf4)" style="fill: none; stroke: #000000; stroke-linecap: square"/>
   </g>
   <g id="line2d_9">
    <path d="M 236.37846 86.456489 
L 291.967614 35.806343 
" clip-path="url(#p1d4f2bdaf4)" style="fill: none; stroke: #000000; stroke-linecap: square"/>
   </g>
   <g id="PathCollection_1">
    <defs>
     <path id="m889ac90bd1" d="M 0 7.071068 
C 1.875269 7.071068 3.673985 6.326016 5 5 
C 6.326016 3.673985 7.071068 1.875269 7.071068 0 
C 7.071068 -1.875269 6.326016 -3.673985 5 -5 
C 3.673985 -6.326016 1.875269 -7.071068 0 -7.071068 
C -1.875269 -7.071068 -3.673985 -6.326016 -5 -5 
C -6.326016 -3.673985 -7.071068 -1.875269 -7.071068 0 
C -7.071068 1.875269 -6.326016 3.673985 -5 5 
C -3.673985 6.326016 -1.875269 7.071068 0 7.071068 
z
" style="stroke: #000000"/>
    </defs>
    <g>
     <use xlink:href="#m889ac90bd1" x="160.38125" y="126.05976" style="fill: #fec7b8; stroke: #000000"/>
     <use xlink:href="#m889ac90bd1" x="228.59216" y="24.493454" style="fill: #fec7b8; stroke: #000000"/>
     <use xlink:href="#m889ac90bd1" x="200.862792" y="126.756365" style="fill: #fec7b8; stroke: #000000"/>
     <use xlink:href="#m889ac90bd1" x="236.37846" y="86.456489" style="fill: #fec7b8; stroke: #000000"/>
     <use xlink:href="#m889ac90bd1" x="165.678777" y="67.329579" style="fill: #fec7b8; stroke: #000000"/>
     <use xlink:href="#m889ac90bd1" x="291.967614" y="35.806343" style="fill: #fec7b8; stroke: #000000"/>
    </g>
   </g>
   <g id="text_1">
    <!-- 1 -->
    <g transform="translate(157.2 128.819135) scale(0.1 -0.1)">
     <defs>
      <path id="DejaVuSans-31" d="M 794 531 
L 1825 531 
L 1825 4091 
L 703 3866 
L 703 4441 
L 1819 4666 
L 2450 4666 
L 2450 531 
L 3481 531 
L 3481 0 
L 794 0 
L 794 531 
z
" transform="scale(0.015625)"/>
     </defs>
     <use xlink:href="#DejaVuSans-31"/>
    </g>
   </g>
   <g id="text_2">
    <!-- 2 -->
    <g transform="translate(225.41091 27.252829) scale(0.1 -0.1)">
     <defs>
      <path id="DejaVuSans-32" d="M 1228 531 
L 3431 531 
L 3431 0 
L 469 0 
L 469 531 
Q 828 903 1448 1529 
Q 2069 2156 2228 2338 
Q 2531 2678 2651 2914 
Q 2772 3150 2772 3378 
Q 2772 3750 2511 3984 
Q 2250 4219 1831 4219 
Q 1534 4219 1204 4116 
Q 875 4013 500 3803 
L 500 4441 
Q 881 4594 1212 4672 
Q 1544 4750 1819 4750 
Q 2544 4750 2975 4387 
Q 3406 4025 3406 3419 
Q 3406 3131 3298 2873 
Q 3191 2616 2906 2266 
Q 2828 2175 2409 1742 
Q 1991 1309 1228 531 
z
" transform="scale(0.015625)"/>
     </defs>
     <use xlink:href="#DejaVuSans-32"/>
    </g>
   </g>
   <g id="text_3">
    <!-- 3 -->
    <g transform="translate(197.681542 129.51574) scale(0.1 -0.1)">
     <defs>
      <path id="DejaVuSans-33" d="M 2597 2516 
Q 3050 2419 3304 2112 
Q 3559 1806 3559 1356 
Q 3559 666 3084 287 
Q 2609 -91 1734 -91 
Q 1441 -91 1130 -33 
Q 819 25 488 141 
L 488 750 
Q 750 597 1062 519 
Q 1375 441 1716 441 
Q 2309 441 2620 675 
Q 2931 909 2931 1356 
Q 2931 1769 2642 2001 
Q 2353 2234 1838 2234 
L 1294 2234 
L 1294 2753 
L 1863 2753 
Q 2328 2753 2575 2939 
Q 2822 3125 2822 3475 
Q 2822 3834 2567 4026 
Q 2313 4219 1838 4219 
Q 1578 4219 1281 4162 
Q 984 4106 628 3988 
L 628 4550 
Q 988 4650 1302 4700 
Q 1616 4750 1894 4750 
Q 2613 4750 3031 4423 
Q 3450 4097 3450 3541 
Q 3450 3153 3228 2886 
Q 3006 2619 2597 2516 
z
" transform="scale(0.015625)"/>
     </defs>
     <use xlink:href="#DejaVuSans-33"/>
    </g>
   </g>
   <g id="text_4">
    <!-- 4 -->
    <g transform="translate(233.19721 89.215864) scale(0.1 -0.1)">
     <defs>
      <path id="DejaVuSans-34" d="M 2419 4116 
L 825 1625 
L 2419 1625 
L 2419 4116 
z
M 2253 4666 
L 3047 4666 
L 3047 1625 
L 3713 1625 
L 3713 1100 
L 3047 1100 
L 3047 0 
L 2419 0 
L 2419 1100 
L 313 1100 
L 313 1709 
L 2253 4666 
z
" transform="scale(0.015625)"/>
     </defs>
     <use xlink:href="#DejaVuSans-34"/>
    </g>
   </g>
   <g id="text_5">
    <!-- 5 -->
    <g transform="translate(162.497527 70.088954) scale(0.1 -0.1)">
     <defs>
      <path id="DejaVuSans-35" d="M 691 4666 
L 3169 4666 
L 3169 4134 
L 1269 4134 
L 1269 2991 
Q 1406 3038 1543 3061 
Q 1681 3084 1819 3084 
Q 2600 3084 3056 2656 
Q 3513 2228 3513 1497 
Q 3513 744 3044 326 
Q 2575 -91 1722 -91 
Q 1428 -91 1123 -41 
Q 819 9 494 109 
L 494 744 
Q 775 591 1075 516 
Q 1375 441 1709 441 
Q 2250 441 2565 725 
Q 2881 1009 2881 1497 
Q 2881 1984 2565 2268 
Q 2250 2553 1709 2553 
Q 1456 2553 1204 2497 
Q 953 2441 691 2322 
L 691 4666 
z
" transform="scale(0.015625)"/>
     </defs>
     <use xlink:href="#DejaVuSans-35"/>
    </g>
   </g>
   <g id="text_6">
    <!-- 6 -->
    <g transform="translate(288.786364 38.565718) scale(0.1 -0.1)">
     <defs>
      <path id="DejaVuSans-36" d="M 2113 2584 
Q 1688 2584 1439 2293 
Q 1191 2003 1191 1497 
Q 1191 994 1439 701 
Q 1688 409 2113 409 
Q 2538 409 2786 701 
Q 3034 994 3034 1497 
Q 3034 2003 2786 2293 
Q 2538 2584 2113 2584 
z
M 3366 4563 
L 3366 3988 
Q 3128 4100 2886 4159 
Q 2644 4219 2406 4219 
Q 1781 4219 1451 3797 
Q 1122 3375 1075 2522 
Q 1259 2794 1537 2939 
Q 1816 3084 2150 3084 
Q 2853 3084 3261 2657 
Q 3669 2231 3669 1497 
Q 3669 778 3244 343 
Q 2819 -91 2113 -91 
Q 1303 -91 875 529 
Q 447 1150 447 2328 
Q 447 3434 972 4092 
Q 1497 4750 2381 4750 
Q 2619 4750 2861 4703 
Q 3103 4656 3366 4563 
z
" transform="scale(0.015625)"/>
     </defs>
     <use xlink:href="#DejaVuSans-36"/>
    </g>
   </g>
  </g>
  <g id="axes_3">
   <g id="patch_4">
    <path d="M 307.749523 144.049819 
L 444.599342 144.049819 
L 444.599342 7.2 
L 307.749523 7.2 
z
" style="fill: #ffffff"/>
   </g>
   <g id="matplotlib.axis_5"/>
   <g id="matplotlib.axis_6"/>
  </g>
  <g id="axes_4">
   <g id="patch_5">
    <path d="M 7.749523 284.122715 
L 144.599342 284.122715 
L 144.599342 177.769286 
L 7.749523 177.769286 
z
" style="fill: #ffffff"/>
   </g>
   <g id="matplotlib.axis_7"/>
   <g id="matplotlib.axis_8"/>
   <g id="line2d_10">
    <path d="M 10.38125 281.380851 
L 50.862792 282.077457 
" clip-path="url(#p5e25052e31)" style="fill: none; stroke: #000000; stroke-linecap: square"/>
   </g>
   <g id="line2d_11">
    <path d="M 78.59216 179.814545 
L 86.37846 241.77758 
" clip-path="url(#p5e25052e31)" style="fill: none; stroke: #000000; stroke-linecap: square"/>
   </g>
   <g id="line2d_12">
    <path d="M 78.59216 179.814545 
L 141.967614 191.127434 
" clip-path="url(#p5e25052e31)" style="fill: none; stroke: #000000; stroke-linecap: square"/>
   </g>
   <g id="line2d_13">
    <path d="M 50.862792 282.077457 
L 86.37846 241.77758 
" clip-path="url(#p5e25052e31)" style="fill: none; stroke: #000000; stroke-linecap: square"/>
   </g>
   <g id="line2d_14">
    <path d="M 86.37846 241.77758 
L 141.967614 191.127434 
" clip-path="url(#p5e25052e31)" style="fill: none; stroke: #000000; stroke-linecap: square"/>
   </g>
   <g id="PathCollection_2">
    <g>
     <use xlink:href="#m889ac90bd1" x="10.38125" y="281.380851" style="fill: #fec7b8; stroke: #000000"/>
     <use xlink:href="#m889ac90bd1" x="78.59216" y="179.814545" style="fill: #fec7b8; stroke: #000000"/>
     <use xlink:href="#m889ac90bd1" x="50.862792" y="282.077457" style="fill: #fec7b8; stroke: #000000"/>
     <use xlink:href="#m889ac90bd1" x="86.37846" y="241.77758" style="fill: #fec7b8; stroke: #000000"/>
     <use xlink:href="#m889ac90bd1" x="141.967614" y="191.127434" style="fill: #fec7b8; stroke: #000000"/>
    </g>
   </g>
   <g id="text_7">
    <!-- 1 -->
    <g transform="translate(7.2 284.140226) scale(0.1 -0.1)">
     <use xlink:href="#DejaVuSans-31"/>
    </g>
   </g>
   <g id="text_8">
    <!-- 2 -->
    <g transform="translate(75.41091 182.57392) scale(0.1 -0.1)">
     <use xlink:href="#DejaVuSans-32"/>
    </g>
   </g>
   <g id="text_9">
    <!-- 3 -->
    <g transform="translate(47.681542 284.836832) scale(0.1 -0.1)">
     <use xlink:href="#DejaVuSans-33"/>
    </g>
   </g>
   <g id="text_10">
    <!-- 4 -->
    <g transform="translate(83.19721 244.536955) scale(0.1 -0.1)">
     <use xlink:href="#DejaVuSans-34"/>
    </g>
   </g>
   <g id="text_11">
    <!-- 6 -->
    <g transform="translate(138.786364 193.886809) scale(0.1 -0.1)">
     <use xlink:href="#DejaVuSans-36"/>
    </g>
   </g>
  </g>
  <g id="axes_5">
   <g id="patch_6">
    <path d="M 157.749523 284.122715 
L 294.599342 284.122715 
L 294.599342 177.769286 
L 157.749523 177.769286 
z
" style="fill: #ffffff"/>
   </g>
   <g id="matplotlib.axis_9"/>
   <g id="matplotlib.axis_10"/>
   <g id="line2d_15">
    <path d="M 160.38125 281.380851 
L 200.862792 282.077457 
" clip-path="url(#p85f17f706b)" style="fill: none; stroke: #000000; stroke-linecap: square"/>
   </g>
   <g id="line2d_16">
    <path d="M 160.38125 281.380851 
L 165.678777 222.65067 
" clip-path="url(#p85f17f706b)" style="fill: none; stroke: #000000; stroke-linecap: square"/>
   </g>
   <g id="line2d_17">
    <path d="M 228.59216 179.814545 
L 236.37846 241.77758 
" clip-path="url(#p85f17f706b)" style="fill: none; stroke: #000000; stroke-linecap: square"/>
   </g>
   <g id="line2d_18">
    <path d="M 228.59216 179.814545 
L 165.678777 222.65067 
" clip-path="url(#p85f17f706b)" style="fill: none; stroke: #000000; stroke-linecap: square"/>
   </g>
   <g id="line2d_19">
    <path d="M 228.59216 179.814545 
L 291.967614 191.127434 
" clip-path="url(#p85f17f706b)" style="fill: none; stroke: #000000; stroke-linecap: square"/>
   </g>
   <g id="line2d_20">
    <path d="M 200.862792 282.077457 
L 236.37846 241.77758 
" clip-path="url(#p85f17f706b)" style="fill: none; stroke: #000000; stroke-linecap: square"/>
   </g>
   <g id="PathCollection_3">
    <g>
     <use xlink:href="#m889ac90bd1" x="160.38125" y="281.380851" style="fill: #fec7b8; stroke: #000000"/>
     <use xlink:href="#m889ac90bd1" x="228.59216" y="179.814545" style="fill: #fec7b8; stroke: #000000"/>
     <use xlink:href="#m889ac90bd1" x="200.862792" y="282.077457" style="fill: #fec7b8; stroke: #000000"/>
     <use xlink:href="#m889ac90bd1" x="236.37846" y="241.77758" style="fill: #fec7b8; stroke: #000000"/>
     <use xlink:href="#m889ac90bd1" x="165.678777" y="222.65067" style="fill: #fec7b8; stroke: #000000"/>
     <use xlink:href="#m889ac90bd1" x="291.967614" y="191.127434" style="fill: #fec7b8; stroke: #000000"/>
    </g>
   </g>
   <g id="text_12">
    <!-- 1 -->
    <g transform="translate(157.2 284.140226) scale(0.1 -0.1)">
     <use xlink:href="#DejaVuSans-31"/>
    </g>
   </g>
   <g id="text_13">
    <!-- 2 -->
    <g transform="translate(225.41091 182.57392) scale(0.1 -0.1)">
     <use xlink:href="#DejaVuSans-32"/>
    </g>
   </g>
   <g id="text_14">
    <!-- 3 -->
    <g transform="translate(197.681542 284.836832) scale(0.1 -0.1)">
     <use xlink:href="#DejaVuSans-33"/>
    </g>
   </g>
   <g id="text_15">
    <!-- 4 -->
    <g transform="translate(233.19721 244.536955) scale(0.1 -0.1)">
     <use xlink:href="#DejaVuSans-34"/>
    </g>
   </g>
   <g id="text_16">
    <!-- 5 -->
    <g transform="translate(162.497527 225.410045) scale(0.1 -0.1)">
     <use xlink:href="#DejaVuSans-35"/>
    </g>
   </g>
   <g id="text_17">
    <!-- 6 -->
    <g transform="translate(288.786364 193.886809) scale(0.1 -0.1)">
     <use xlink:href="#DejaVuSans-36"/>
    </g>
   </g>
  </g>
  <g id="axes_6">
   <g id="patch_7">
    <path d="M 307.749523 284.122715 
L 444.599342 284.122715 
L 444.599342 177.769286 
L 307.749523 177.769286 
z
" style="fill: #ffffff"/>
   </g>
   <g id="matplotlib.axis_11"/>
   <g id="matplotlib.axis_12"/>
   <g id="line2d_21">
    <path d="M 310.38125 281.380851 
L 315.678777 222.65067 
" clip-path="url(#p571755ba46)" style="fill: none; stroke: #000000; stroke-linecap: square"/>
   </g>
   <g id="line2d_22">
    <path d="M 378.59216 179.814545 
L 386.37846 241.77758 
" clip-path="url(#p571755ba46)" style="fill: none; stroke: #000000; stroke-linecap: square"/>
   </g>
   <g id="line2d_23">
    <path d="M 378.59216 179.814545 
L 315.678777 222.65067 
" clip-path="url(#p571755ba46)" style="fill: none; stroke: #000000; stroke-linecap: square"/>
   </g>
   <g id="line2d_24">
    <path d="M 350.862792 282.077457 
L 315.678777 222.65067 
" clip-path="url(#p571755ba46)" style="fill: none; stroke: #000000; stroke-linecap: square"/>
   </g>
   <g id="line2d_25">
    <path d="M 386.37846 241.77758 
L 441.967614 191.127434 
" clip-path="url(#p571755ba46)" style="fill: none; stroke: #000000; stroke-linecap: square"/>
   </g>
   <g id="PathCollection_4">
    <g>
     <use xlink:href="#m889ac90bd1" x="310.38125" y="281.380851" style="fill: #fec7b8; stroke: #000000"/>
     <use xlink:href="#m889ac90bd1" x="378.59216" y="179.814545" style="fill: #fec7b8; stroke: #000000"/>
     <use xlink:href="#m889ac90bd1" x="350.862792" y="282.077457" style="fill: #fec7b8; stroke: #000000"/>
     <use xlink:href="#m889ac90bd1" x="386.37846" y="241.77758" style="fill: #fec7b8; stroke: #000000"/>
     <use xlink:href="#m889ac90bd1" x="315.678777" y="222.65067" style="fill: #fec7b8; stroke: #000000"/>
     <use xlink:href="#m889ac90bd1" x="441.967614" y="191.127434" style="fill: #fec7b8; stroke: #000000"/>
    </g>
   </g>
   <g id="text_18">
    <!-- 1 -->
    <g transform="translate(307.2 284.140226) scale(0.1 -0.1)">
     <use xlink:href="#DejaVuSans-31"/>
    </g>
   </g>
   <g id="text_19">
    <!-- 2 -->
    <g transform="translate(375.41091 182.57392) scale(0.1 -0.1)">
     <use xlink:href="#DejaVuSans-32"/>
    </g>
   </g>
   <g id="text_20">
    <!-- 3 -->
    <g transform="translate(347.681542 284.836832) scale(0.1 -0.1)">
     <use xlink:href="#DejaVuSans-33"/>
    </g>
   </g>
   <g id="text_21">
    <!-- 4 -->
    <g transform="translate(383.19721 244.536955) scale(0.1 -0.1)">
     <use xlink:href="#DejaVuSans-34"/>
    </g>
   </g>
   <g id="text_22">
    <!-- 5 -->
    <g transform="translate(312.497527 225.410045) scale(0.1 -0.1)">
     <use xlink:href="#DejaVuSans-35"/>
    </g>
   </g>
   <g id="text_23">
    <!-- 6 -->
    <g transform="translate(438.786364 193.886809) scale(0.1 -0.1)">
     <use xlink:href="#DejaVuSans-36"/>
    </g>
   </g>
  </g>
 </g>
 <defs>
  <clipPath id="p1d4f2bdaf4">
   <rect x="157.749523" y="22.448195" width="136.849819" height="106.353428"/>
  </clipPath>
  <clipPath id="p5e25052e31">
   <rect x="7.749523" y="177.769286" width="136.849819" height="106.353428"/>
  </clipPath>
  <clipPath id="p85f17f706b">
   <rect x="157.749523" y="177.769286" width="136.849819" height="106.353428"/>
  </clipPath>
  <clipPath id="p571755ba46">
   <rect x="307.749523" y="177.769286" width="136.849819" height="106.353428"/>
  </clipPath>
 </defs>
</svg>
