<?xml version="1.0" encoding="utf-8" standalone="no"?>
<!DOCTYPE svg PUBLIC "-//W3C//DTD SVG 1.1//EN"
  "http://www.w3.org/Graphics/SVG/1.1/DTD/svg11.dtd">
<!-- Created with matplotlib (https://matplotlib.org/) -->
<svg height="336.836113pt" version="1.1" viewBox="0 0 450.668063 336.836113" width="450.668063pt" xmlns="http://www.w3.org/2000/svg" xmlns:xlink="http://www.w3.org/1999/xlink">
 <metadata>
  <rdf:RDF xmlns:cc="http://creativecommons.org/ns#" xmlns:dc="http://purl.org/dc/elements/1.1/" xmlns:rdf="http://www.w3.org/1999/02/22-rdf-syntax-ns#">
   <cc:Work>
    <dc:type rdf:resource="http://purl.org/dc/dcmitype/StillImage"/>
    <dc:date>2024-02-12T03:07:43.496270</dc:date>
    <dc:format>image/svg+xml</dc:format>
    <dc:creator>
     <cc:Agent>
      <dc:title>Matplotlib v3.3.4, https://matplotlib.org/</dc:title>
     </cc:Agent>
    </dc:creator>
   </cc:Work>
  </rdf:RDF>
 </metadata>
 <defs>
  <style type="text/css">*{stroke-linecap:butt;stroke-linejoin:round;}</style>
 </defs>
 <g id="figure_1">
  <g id="patch_1">
   <path d="M 0 336.836113 
L 450.668063 336.836113 
L 450.668063 0 
L 0 0 
z
" style="fill:#ffffff;"/>
  </g>
  <g id="axes_1">
   <g id="patch_2">
    <path d="M 7.2 160.30421 
L 158.372308 160.30421 
L 158.372308 9.131903 
L 7.2 9.131903 
z
" style="fill:#ffffff;"/>
   </g>
   <g id="matplotlib.axis_1"/>
   <g id="matplotlib.axis_2"/>
  </g>
  <g id="axes_2">
   <g id="patch_3">
    <path d="M 190.284287 160.30421 
L 260.383776 160.30421 
L 260.383776 9.131903 
L 190.284287 9.131903 
z
" style="fill:#ffffff;"/>
   </g>
   <g id="matplotlib.axis_3"/>
   <g id="matplotlib.axis_4"/>
   <g id="line2d_1">
    <path clip-path="url(#paddf330bff)" d="M 191.632355 140.419687 
L 227.918481 157.397051 
" style="fill:none;stroke:#000000;stroke-linecap:square;"/>
   </g>
   <g id="line2d_2">
    <path clip-path="url(#paddf330bff)" d="M 191.632355 140.419687 
L 203.739318 85.340998 
" style="fill:none;stroke:#000000;stroke-linecap:square;"/>
   </g>
   <g id="line2d_3">
    <path clip-path="url(#paddf330bff)" d="M 191.632355 140.419687 
L 259.035709 118.10969 
" style="fill:none;stroke:#000000;stroke-linecap:square;"/>
   </g>
   <g id="line2d_4">
    <path clip-path="url(#paddf330bff)" d="M 248.790577 49.143698 
L 203.739318 85.340998 
" style="fill:none;stroke:#000000;stroke-linecap:square;"/>
   </g>
   <g id="line2d_5">
    <path clip-path="url(#paddf330bff)" d="M 248.790577 49.143698 
L 259.035709 118.10969 
" style="fill:none;stroke:#000000;stroke-linecap:square;"/>
   </g>
   <g id="line2d_6">
    <path clip-path="url(#paddf330bff)" d="M 248.790577 49.143698 
L 206.498599 12.039062 
" style="fill:none;stroke:#000000;stroke-linecap:square;"/>
   </g>
   <g id="line2d_7">
    <path clip-path="url(#paddf330bff)" d="M 227.918481 157.397051 
L 203.739318 85.340998 
" style="fill:none;stroke:#000000;stroke-linecap:square;"/>
   </g>
   <g id="line2d_8">
    <path clip-path="url(#paddf330bff)" d="M 227.918481 157.397051 
L 259.035709 118.10969 
" style="fill:none;stroke:#000000;stroke-linecap:square;"/>
   </g>
   <g id="line2d_9">
    <path clip-path="url(#paddf330bff)" d="M 203.739318 85.340998 
L 206.498599 12.039062 
" style="fill:none;stroke:#000000;stroke-linecap:square;"/>
   </g>
   <g id="PathCollection_1">
    <defs>
     <path d="M 0 7.071068 
C 1.875269 7.071068 3.673985 6.326016 5 5 
C 6.326016 3.673985 7.071068 1.875269 7.071068 0 
C 7.071068 -1.875269 6.326016 -3.673985 5 -5 
C 3.673985 -6.326016 1.875269 -7.071068 0 -7.071068 
C -1.875269 -7.071068 -3.673985 -6.326016 -5 -5 
C -6.326016 -3.673985 -7.071068 -1.875269 -7.071068 0 
C -7.071068 1.875269 -6.326016 3.673985 -5 5 
C -3.673985 6.326016 -1.875269 7.071068 0 7.071068 
z
" id="m09ef017e1e" style="stroke:#000000;"/>
    </defs>
    <g>
     <use style="fill:#fec7b8;stroke:#000000;" x="191.632355" xlink:href="#m09ef017e1e" y="140.419687"/>
     <use style="fill:#fec7b8;stroke:#000000;" x="248.790577" xlink:href="#m09ef017e1e" y="49.143698"/>
     <use style="fill:#fec7b8;stroke:#000000;" x="227.918481" xlink:href="#m09ef017e1e" y="157.397051"/>
     <use style="fill:#fec7b8;stroke:#000000;" x="203.739318" xlink:href="#m09ef017e1e" y="85.340998"/>
     <use style="fill:#fec7b8;stroke:#000000;" x="259.035709" xlink:href="#m09ef017e1e" y="118.10969"/>
     <use style="fill:#fec7b8;stroke:#000000;" x="206.498599" xlink:href="#m09ef017e1e" y="12.039062"/>
    </g>
   </g>
   <g id="text_1">
    <!-- 1 -->
    <g transform="translate(188.451105 143.179062)scale(0.1 -0.1)">
     <defs>
      <path d="M 12.40625 8.296875 
L 28.515625 8.296875 
L 28.515625 63.921875 
L 10.984375 60.40625 
L 10.984375 69.390625 
L 28.421875 72.90625 
L 38.28125 72.90625 
L 38.28125 8.296875 
L 54.390625 8.296875 
L 54.390625 0 
L 12.40625 0 
z
" id="DejaVuSans-49"/>
     </defs>
     <use xlink:href="#DejaVuSans-49"/>
    </g>
   </g>
   <g id="text_2">
    <!-- 2 -->
    <g transform="translate(245.609327 51.903073)scale(0.1 -0.1)">
     <defs>
      <path d="M 19.1875 8.296875 
L 53.609375 8.296875 
L 53.609375 0 
L 7.328125 0 
L 7.328125 8.296875 
Q 12.9375 14.109375 22.625 23.890625 
Q 32.328125 33.6875 34.8125 36.53125 
Q 39.546875 41.84375 41.421875 45.53125 
Q 43.3125 49.21875 43.3125 52.78125 
Q 43.3125 58.59375 39.234375 62.25 
Q 35.15625 65.921875 28.609375 65.921875 
Q 23.96875 65.921875 18.8125 64.3125 
Q 13.671875 62.703125 7.8125 59.421875 
L 7.8125 69.390625 
Q 13.765625 71.78125 18.9375 73 
Q 24.125 74.21875 28.421875 74.21875 
Q 39.75 74.21875 46.484375 68.546875 
Q 53.21875 62.890625 53.21875 53.421875 
Q 53.21875 48.921875 51.53125 44.890625 
Q 49.859375 40.875 45.40625 35.40625 
Q 44.1875 33.984375 37.640625 27.21875 
Q 31.109375 20.453125 19.1875 8.296875 
z
" id="DejaVuSans-50"/>
     </defs>
     <use xlink:href="#DejaVuSans-50"/>
    </g>
   </g>
   <g id="text_3">
    <!-- 3 -->
    <g transform="translate(224.737231 160.156426)scale(0.1 -0.1)">
     <defs>
      <path d="M 40.578125 39.3125 
Q 47.65625 37.796875 51.625 33 
Q 55.609375 28.21875 55.609375 21.1875 
Q 55.609375 10.40625 48.1875 4.484375 
Q 40.765625 -1.421875 27.09375 -1.421875 
Q 22.515625 -1.421875 17.65625 -0.515625 
Q 12.796875 0.390625 7.625 2.203125 
L 7.625 11.71875 
Q 11.71875 9.328125 16.59375 8.109375 
Q 21.484375 6.890625 26.8125 6.890625 
Q 36.078125 6.890625 40.9375 10.546875 
Q 45.796875 14.203125 45.796875 21.1875 
Q 45.796875 27.640625 41.28125 31.265625 
Q 36.765625 34.90625 28.71875 34.90625 
L 20.21875 34.90625 
L 20.21875 43.015625 
L 29.109375 43.015625 
Q 36.375 43.015625 40.234375 45.921875 
Q 44.09375 48.828125 44.09375 54.296875 
Q 44.09375 59.90625 40.109375 62.90625 
Q 36.140625 65.921875 28.71875 65.921875 
Q 24.65625 65.921875 20.015625 65.03125 
Q 15.375 64.15625 9.8125 62.3125 
L 9.8125 71.09375 
Q 15.4375 72.65625 20.34375 73.4375 
Q 25.25 74.21875 29.59375 74.21875 
Q 40.828125 74.21875 47.359375 69.109375 
Q 53.90625 64.015625 53.90625 55.328125 
Q 53.90625 49.265625 50.4375 45.09375 
Q 46.96875 40.921875 40.578125 39.3125 
z
" id="DejaVuSans-51"/>
     </defs>
     <use xlink:href="#DejaVuSans-51"/>
    </g>
   </g>
   <g id="text_4">
    <!-- 4 -->
    <g transform="translate(200.558068 88.100373)scale(0.1 -0.1)">
     <defs>
      <path d="M 37.796875 64.3125 
L 12.890625 25.390625 
L 37.796875 25.390625 
z
M 35.203125 72.90625 
L 47.609375 72.90625 
L 47.609375 25.390625 
L 58.015625 25.390625 
L 58.015625 17.1875 
L 47.609375 17.1875 
L 47.609375 0 
L 37.796875 0 
L 37.796875 17.1875 
L 4.890625 17.1875 
L 4.890625 26.703125 
z
" id="DejaVuSans-52"/>
     </defs>
     <use xlink:href="#DejaVuSans-52"/>
    </g>
   </g>
   <g id="text_5">
    <!-- 5 -->
    <g transform="translate(255.854459 120.869065)scale(0.1 -0.1)">
     <defs>
      <path d="M 10.796875 72.90625 
L 49.515625 72.90625 
L 49.515625 64.59375 
L 19.828125 64.59375 
L 19.828125 46.734375 
Q 21.96875 47.46875 24.109375 47.828125 
Q 26.265625 48.1875 28.421875 48.1875 
Q 40.625 48.1875 47.75 41.5 
Q 54.890625 34.8125 54.890625 23.390625 
Q 54.890625 11.625 47.5625 5.09375 
Q 40.234375 -1.421875 26.90625 -1.421875 
Q 22.3125 -1.421875 17.546875 -0.640625 
Q 12.796875 0.140625 7.71875 1.703125 
L 7.71875 11.625 
Q 12.109375 9.234375 16.796875 8.0625 
Q 21.484375 6.890625 26.703125 6.890625 
Q 35.15625 6.890625 40.078125 11.328125 
Q 45.015625 15.765625 45.015625 23.390625 
Q 45.015625 31 40.078125 35.4375 
Q 35.15625 39.890625 26.703125 39.890625 
Q 22.75 39.890625 18.8125 39.015625 
Q 14.890625 38.140625 10.796875 36.28125 
z
" id="DejaVuSans-53"/>
     </defs>
     <use xlink:href="#DejaVuSans-53"/>
    </g>
   </g>
   <g id="text_6">
    <!-- 6 -->
    <g transform="translate(203.317349 14.798437)scale(0.1 -0.1)">
     <defs>
      <path d="M 33.015625 40.375 
Q 26.375 40.375 22.484375 35.828125 
Q 18.609375 31.296875 18.609375 23.390625 
Q 18.609375 15.53125 22.484375 10.953125 
Q 26.375 6.390625 33.015625 6.390625 
Q 39.65625 6.390625 43.53125 10.953125 
Q 47.40625 15.53125 47.40625 23.390625 
Q 47.40625 31.296875 43.53125 35.828125 
Q 39.65625 40.375 33.015625 40.375 
z
M 52.59375 71.296875 
L 52.59375 62.3125 
Q 48.875 64.0625 45.09375 64.984375 
Q 41.3125 65.921875 37.59375 65.921875 
Q 27.828125 65.921875 22.671875 59.328125 
Q 17.53125 52.734375 16.796875 39.40625 
Q 19.671875 43.65625 24.015625 45.921875 
Q 28.375 48.1875 33.59375 48.1875 
Q 44.578125 48.1875 50.953125 41.515625 
Q 57.328125 34.859375 57.328125 23.390625 
Q 57.328125 12.15625 50.6875 5.359375 
Q 44.046875 -1.421875 33.015625 -1.421875 
Q 20.359375 -1.421875 13.671875 8.265625 
Q 6.984375 17.96875 6.984375 36.375 
Q 6.984375 53.65625 15.1875 63.9375 
Q 23.390625 74.21875 37.203125 74.21875 
Q 40.921875 74.21875 44.703125 73.484375 
Q 48.484375 72.75 52.59375 71.296875 
z
" id="DejaVuSans-54"/>
     </defs>
     <use xlink:href="#DejaVuSans-54"/>
    </g>
   </g>
  </g>
  <g id="axes_3">
   <g id="patch_4">
    <path d="M 292.295756 160.30421 
L 443.468063 160.30421 
L 443.468063 9.131903 
L 292.295756 9.131903 
z
" style="fill:#ffffff;"/>
   </g>
   <g id="matplotlib.axis_5"/>
   <g id="matplotlib.axis_6"/>
  </g>
  <g id="axes_4">
   <g id="patch_5">
    <path d="M 53.063878 327.70421 
L 112.50843 327.70421 
L 112.50843 176.531903 
L 53.063878 176.531903 
z
" style="fill:#ffffff;"/>
   </g>
   <g id="matplotlib.axis_7"/>
   <g id="matplotlib.axis_8"/>
   <g id="line2d_10">
    <path clip-path="url(#p52d35017c6)" d="M 54.207042 307.819687 
L 90.493168 324.797051 
" style="fill:none;stroke:#000000;stroke-linecap:square;"/>
   </g>
   <g id="line2d_11">
    <path clip-path="url(#p52d35017c6)" d="M 111.365265 216.543698 
L 66.314006 252.740998 
" style="fill:none;stroke:#000000;stroke-linecap:square;"/>
   </g>
   <g id="line2d_12">
    <path clip-path="url(#p52d35017c6)" d="M 111.365265 216.543698 
L 69.073287 179.439062 
" style="fill:none;stroke:#000000;stroke-linecap:square;"/>
   </g>
   <g id="line2d_13">
    <path clip-path="url(#p52d35017c6)" d="M 90.493168 324.797051 
L 66.314006 252.740998 
" style="fill:none;stroke:#000000;stroke-linecap:square;"/>
   </g>
   <g id="line2d_14">
    <path clip-path="url(#p52d35017c6)" d="M 66.314006 252.740998 
L 69.073287 179.439062 
" style="fill:none;stroke:#000000;stroke-linecap:square;"/>
   </g>
   <g id="PathCollection_2">
    <g>
     <use style="fill:#fec7b8;stroke:#000000;" x="54.207042" xlink:href="#m09ef017e1e" y="307.819687"/>
     <use style="fill:#fec7b8;stroke:#000000;" x="111.365265" xlink:href="#m09ef017e1e" y="216.543698"/>
     <use style="fill:#fec7b8;stroke:#000000;" x="90.493168" xlink:href="#m09ef017e1e" y="324.797051"/>
     <use style="fill:#fec7b8;stroke:#000000;" x="66.314006" xlink:href="#m09ef017e1e" y="252.740998"/>
     <use style="fill:#fec7b8;stroke:#000000;" x="69.073287" xlink:href="#m09ef017e1e" y="179.439062"/>
    </g>
   </g>
   <g id="text_7">
    <!-- 1 -->
    <g transform="translate(51.025792 310.579062)scale(0.1 -0.1)">
     <use xlink:href="#DejaVuSans-49"/>
    </g>
   </g>
   <g id="text_8">
    <!-- 2 -->
    <g transform="translate(108.184015 219.303073)scale(0.1 -0.1)">
     <use xlink:href="#DejaVuSans-50"/>
    </g>
   </g>
   <g id="text_9">
    <!-- 3 -->
    <g transform="translate(87.311918 327.556426)scale(0.1 -0.1)">
     <use xlink:href="#DejaVuSans-51"/>
    </g>
   </g>
   <g id="text_10">
    <!-- 4 -->
    <g transform="translate(63.132756 255.500373)scale(0.1 -0.1)">
     <use xlink:href="#DejaVuSans-52"/>
    </g>
   </g>
   <g id="text_11">
    <!-- 6 -->
    <g transform="translate(65.892037 182.198437)scale(0.1 -0.1)">
     <use xlink:href="#DejaVuSans-54"/>
    </g>
   </g>
  </g>
  <g id="axes_5">
   <g id="patch_6">
    <path d="M 190.284287 327.70421 
L 260.383776 327.70421 
L 260.383776 176.531903 
L 190.284287 176.531903 
z
" style="fill:#ffffff;"/>
   </g>
   <g id="matplotlib.axis_9"/>
   <g id="matplotlib.axis_10"/>
   <g id="line2d_15">
    <path clip-path="url(#p4e9d6a607f)" d="M 191.632355 307.819687 
L 227.918481 324.797051 
" style="fill:none;stroke:#000000;stroke-linecap:square;"/>
   </g>
   <g id="line2d_16">
    <path clip-path="url(#p4e9d6a607f)" d="M 191.632355 307.819687 
L 259.035709 285.50969 
" style="fill:none;stroke:#000000;stroke-linecap:square;"/>
   </g>
   <g id="line2d_17">
    <path clip-path="url(#p4e9d6a607f)" d="M 248.790577 216.543698 
L 203.739318 252.740998 
" style="fill:none;stroke:#000000;stroke-linecap:square;"/>
   </g>
   <g id="line2d_18">
    <path clip-path="url(#p4e9d6a607f)" d="M 248.790577 216.543698 
L 259.035709 285.50969 
" style="fill:none;stroke:#000000;stroke-linecap:square;"/>
   </g>
   <g id="line2d_19">
    <path clip-path="url(#p4e9d6a607f)" d="M 248.790577 216.543698 
L 206.498599 179.439062 
" style="fill:none;stroke:#000000;stroke-linecap:square;"/>
   </g>
   <g id="line2d_20">
    <path clip-path="url(#p4e9d6a607f)" d="M 227.918481 324.797051 
L 203.739318 252.740998 
" style="fill:none;stroke:#000000;stroke-linecap:square;"/>
   </g>
   <g id="PathCollection_3">
    <g>
     <use style="fill:#fec7b8;stroke:#000000;" x="191.632355" xlink:href="#m09ef017e1e" y="307.819687"/>
     <use style="fill:#fec7b8;stroke:#000000;" x="248.790577" xlink:href="#m09ef017e1e" y="216.543698"/>
     <use style="fill:#fec7b8;stroke:#000000;" x="227.918481" xlink:href="#m09ef017e1e" y="324.797051"/>
     <use style="fill:#fec7b8;stroke:#000000;" x="203.739318" xlink:href="#m09ef017e1e" y="252.740998"/>
     <use style="fill:#fec7b8;stroke:#000000;" x="259.035709" xlink:href="#m09ef017e1e" y="285.50969"/>
     <use style="fill:#fec7b8;stroke:#000000;" x="206.498599" xlink:href="#m09ef017e1e" y="179.439062"/>
    </g>
   </g>
   <g id="text_12">
    <!-- 1 -->
    <g transform="translate(188.451105 310.579062)scale(0.1 -0.1)">
     <use xlink:href="#DejaVuSans-49"/>
    </g>
   </g>
   <g id="text_13">
    <!-- 2 -->
    <g transform="translate(245.609327 219.303073)scale(0.1 -0.1)">
     <use xlink:href="#DejaVuSans-50"/>
    </g>
   </g>
   <g id="text_14">
    <!-- 3 -->
    <g transform="translate(224.737231 327.556426)scale(0.1 -0.1)">
     <use xlink:href="#DejaVuSans-51"/>
    </g>
   </g>
   <g id="text_15">
    <!-- 4 -->
    <g transform="translate(200.558068 255.500373)scale(0.1 -0.1)">
     <use xlink:href="#DejaVuSans-52"/>
    </g>
   </g>
   <g id="text_16">
    <!-- 5 -->
    <g transform="translate(255.854459 288.269065)scale(0.1 -0.1)">
     <use xlink:href="#DejaVuSans-53"/>
    </g>
   </g>
   <g id="text_17">
    <!-- 6 -->
    <g transform="translate(203.317349 182.198437)scale(0.1 -0.1)">
     <use xlink:href="#DejaVuSans-54"/>
    </g>
   </g>
  </g>
  <g id="axes_6">
   <g id="patch_7">
    <path d="M 332.832165 327.70421 
L 402.931654 327.70421 
L 402.931654 176.531903 
L 332.832165 176.531903 
z
" style="fill:#ffffff;"/>
   </g>
   <g id="matplotlib.axis_11"/>
   <g id="matplotlib.axis_12"/>
   <g id="line2d_21">
    <path clip-path="url(#pdc0fa200b5)" d="M 334.180232 307.819687 
L 370.466358 324.797051 
" style="fill:none;stroke:#000000;stroke-linecap:square;"/>
   </g>
   <g id="line2d_22">
    <path clip-path="url(#pdc0fa200b5)" d="M 334.180232 307.819687 
L 346.287196 252.740998 
" style="fill:none;stroke:#000000;stroke-linecap:square;"/>
   </g>
   <g id="line2d_23">
    <path clip-path="url(#pdc0fa200b5)" d="M 334.180232 307.819687 
L 401.583587 285.50969 
" style="fill:none;stroke:#000000;stroke-linecap:square;"/>
   </g>
   <g id="line2d_24">
    <path clip-path="url(#pdc0fa200b5)" d="M 391.338455 216.543698 
L 346.287196 252.740998 
" style="fill:none;stroke:#000000;stroke-linecap:square;"/>
   </g>
   <g id="line2d_25">
    <path clip-path="url(#pdc0fa200b5)" d="M 391.338455 216.543698 
L 349.046477 179.439062 
" style="fill:none;stroke:#000000;stroke-linecap:square;"/>
   </g>
   <g id="PathCollection_4">
    <g>
     <use style="fill:#fec7b8;stroke:#000000;" x="334.180232" xlink:href="#m09ef017e1e" y="307.819687"/>
     <use style="fill:#fec7b8;stroke:#000000;" x="391.338455" xlink:href="#m09ef017e1e" y="216.543698"/>
     <use style="fill:#fec7b8;stroke:#000000;" x="370.466358" xlink:href="#m09ef017e1e" y="324.797051"/>
     <use style="fill:#fec7b8;stroke:#000000;" x="346.287196" xlink:href="#m09ef017e1e" y="252.740998"/>
     <use style="fill:#fec7b8;stroke:#000000;" x="401.583587" xlink:href="#m09ef017e1e" y="285.50969"/>
     <use style="fill:#fec7b8;stroke:#000000;" x="349.046477" xlink:href="#m09ef017e1e" y="179.439062"/>
    </g>
   </g>
   <g id="text_18">
    <!-- 1 -->
    <g transform="translate(330.998982 310.579062)scale(0.1 -0.1)">
     <use xlink:href="#DejaVuSans-49"/>
    </g>
   </g>
   <g id="text_19">
    <!-- 2 -->
    <g transform="translate(388.157205 219.303073)scale(0.1 -0.1)">
     <use xlink:href="#DejaVuSans-50"/>
    </g>
   </g>
   <g id="text_20">
    <!-- 3 -->
    <g transform="translate(367.285108 327.556426)scale(0.1 -0.1)">
     <use xlink:href="#DejaVuSans-51"/>
    </g>
   </g>
   <g id="text_21">
    <!-- 4 -->
    <g transform="translate(343.105946 255.500373)scale(0.1 -0.1)">
     <use xlink:href="#DejaVuSans-52"/>
    </g>
   </g>
   <g id="text_22">
    <!-- 5 -->
    <g transform="translate(398.402337 288.269065)scale(0.1 -0.1)">
     <use xlink:href="#DejaVuSans-53"/>
    </g>
   </g>
   <g id="text_23">
    <!-- 6 -->
    <g transform="translate(345.865227 182.198437)scale(0.1 -0.1)">
     <use xlink:href="#DejaVuSans-54"/>
    </g>
   </g>
  </g>
 </g>
 <defs>
  <clipPath id="paddf330bff">
   <rect height="151.172308" width="70.099488" x="190.284287" y="9.131903"/>
  </clipPath>
  <clipPath id="p52d35017c6">
   <rect height="151.172308" width="59.444552" x="53.063878" y="176.531903"/>
  </clipPath>
  <clipPath id="p4e9d6a607f">
   <rect height="151.172308" width="70.099488" x="190.284287" y="176.531903"/>
  </clipPath>
  <clipPath id="pdc0fa200b5">
   <rect height="151.172308" width="70.099488" x="332.832165" y="176.531903"/>
  </clipPath>
 </defs>
</svg>
