<?xml version="1.0" encoding="utf-8" standalone="no"?>
<!DOCTYPE svg PUBLIC "-//W3C//DTD SVG 1.1//EN"
  "http://www.w3.org/Graphics/SVG/1.1/DTD/svg11.dtd">
<svg xmlns:xlink="http://www.w3.org/1999/xlink" width="453.6pt" height="336.836113pt" viewBox="0 0 453.6 336.836113" xmlns="http://www.w3.org/2000/svg" version="1.1">
 <metadata>
  <rdf:RDF xmlns:dc="http://purl.org/dc/elements/1.1/" xmlns:cc="http://creativecommons.org/ns#" xmlns:rdf="http://www.w3.org/1999/02/22-rdf-syntax-ns#">
   <cc:Work>
    <dc:type rdf:resource="http://purl.org/dc/dcmitype/StillImage"/>
    <dc:date>2025-03-26T20:21:08.725831</dc:date>
    <dc:format>image/svg+xml</dc:format>
    <dc:creator>
     <cc:Agent>
      <dc:title>Matplotlib v3.10.1, https://matplotlib.org/</dc:title>
     </cc:Agent>
    </dc:creator>
   </cc:Work>
  </rdf:RDF>
 </metadata>
 <defs>
  <style type="text/css">*{stroke-linejoin: round; stroke-linecap: butt}</style>
 </defs>
 <g id="figure_1">
  <g id="patch_1">
   <path d="M 0 336.836113 
L 453.6 336.836113 
L 453.6 0 
L 0 0 
z
" style="fill: #ffffff"/>
  </g>
  <g id="axes_1">
   <g id="patch_2">
    <path d="M 7.2 155.632465 
L 149.028817 155.632465 
L 149.028817 13.803648 
L 7.2 13.803648 
z
" style="fill: #ffffff"/>
   </g>
   <g id="matplotlib.axis_1"/>
   <g id="matplotlib.axis_2"/>
  </g>
  <g id="axes_2">
   <g id="patch_3">
    <path d="M 167.817557 160.30421 
L 285.782443 160.30421 
L 285.782443 9.131903 
L 167.817557 9.131903 
z
" style="fill: #ffffff"/>
   </g>
   <g id="matplotlib.axis_3"/>
   <g id="matplotlib.axis_4"/>
   <g id="line2d_1">
    <path d="M 283.513887 33.249987 
L 244.632368 18.047917 
" clip-path="url(#p3292acbf3b)" style="fill: none; stroke: #000000; stroke-linecap: square"/>
   </g>
   <g id="line2d_2">
    <path d="M 283.513887 33.249987 
L 237.487731 94.063281 
" clip-path="url(#p3292acbf3b)" style="fill: none; stroke: #000000; stroke-linecap: square"/>
   </g>
   <g id="line2d_3">
    <path d="M 283.513887 33.249987 
L 197.614242 12.039062 
" clip-path="url(#p3292acbf3b)" style="fill: none; stroke: #000000; stroke-linecap: square"/>
   </g>
   <g id="line2d_4">
    <path d="M 170.086113 89.618153 
L 237.487731 94.063281 
" clip-path="url(#p3292acbf3b)" style="fill: none; stroke: #000000; stroke-linecap: square"/>
   </g>
   <g id="line2d_5">
    <path d="M 170.086113 89.618153 
L 197.614242 12.039062 
" clip-path="url(#p3292acbf3b)" style="fill: none; stroke: #000000; stroke-linecap: square"/>
   </g>
   <g id="line2d_6">
    <path d="M 170.086113 89.618153 
L 189.173497 157.397051 
" clip-path="url(#p3292acbf3b)" style="fill: none; stroke: #000000; stroke-linecap: square"/>
   </g>
   <g id="line2d_7">
    <path d="M 244.632368 18.047917 
L 237.487731 94.063281 
" clip-path="url(#p3292acbf3b)" style="fill: none; stroke: #000000; stroke-linecap: square"/>
   </g>
   <g id="line2d_8">
    <path d="M 244.632368 18.047917 
L 197.614242 12.039062 
" clip-path="url(#p3292acbf3b)" style="fill: none; stroke: #000000; stroke-linecap: square"/>
   </g>
   <g id="line2d_9">
    <path d="M 237.487731 94.063281 
L 189.173497 157.397051 
" clip-path="url(#p3292acbf3b)" style="fill: none; stroke: #000000; stroke-linecap: square"/>
   </g>
   <g id="PathCollection_1">
    <defs>
     <path id="m9b21c19553" d="M 0 7.071068 
C 1.875269 7.071068 3.673985 6.326016 5 5 
C 6.326016 3.673985 7.071068 1.875269 7.071068 0 
C 7.071068 -1.875269 6.326016 -3.673985 5 -5 
C 3.673985 -6.326016 1.875269 -7.071068 0 -7.071068 
C -1.875269 -7.071068 -3.673985 -6.326016 -5 -5 
C -6.326016 -3.673985 -7.071068 -1.875269 -7.071068 0 
C -7.071068 1.875269 -6.326016 3.673985 -5 5 
C -3.673985 6.326016 -1.875269 7.071068 0 7.071068 
z
" style="stroke: #000000"/>
    </defs>
    <g>
     <use xlink:href="#m9b21c19553" x="283.513887" y="33.249987" style="fill: #fec7b8; stroke: #000000"/>
     <use xlink:href="#m9b21c19553" x="170.086113" y="89.618153" style="fill: #fec7b8; stroke: #000000"/>
     <use xlink:href="#m9b21c19553" x="244.632368" y="18.047917" style="fill: #fec7b8; stroke: #000000"/>
     <use xlink:href="#m9b21c19553" x="237.487731" y="94.063281" style="fill: #fec7b8; stroke: #000000"/>
     <use xlink:href="#m9b21c19553" x="197.614242" y="12.039062" style="fill: #fec7b8; stroke: #000000"/>
     <use xlink:href="#m9b21c19553" x="189.173497" y="157.397051" style="fill: #fec7b8; stroke: #000000"/>
    </g>
   </g>
   <g id="text_1">
    <!-- 1 -->
    <g transform="translate(280.332637 36.009362) scale(0.1 -0.1)">
     <defs>
      <path id="DejaVuSans-31" d="M 794 531 
L 1825 531 
L 1825 4091 
L 703 3866 
L 703 4441 
L 1819 4666 
L 2450 4666 
L 2450 531 
L 3481 531 
L 3481 0 
L 794 0 
L 794 531 
z
" transform="scale(0.015625)"/>
     </defs>
     <use xlink:href="#DejaVuSans-31"/>
    </g>
   </g>
   <g id="text_2">
    <!-- 2 -->
    <g transform="translate(166.904863 92.377528) scale(0.1 -0.1)">
     <defs>
      <path id="DejaVuSans-32" d="M 1228 531 
L 3431 531 
L 3431 0 
L 469 0 
L 469 531 
Q 828 903 1448 1529 
Q 2069 2156 2228 2338 
Q 2531 2678 2651 2914 
Q 2772 3150 2772 3378 
Q 2772 3750 2511 3984 
Q 2250 4219 1831 4219 
Q 1534 4219 1204 4116 
Q 875 4013 500 3803 
L 500 4441 
Q 881 4594 1212 4672 
Q 1544 4750 1819 4750 
Q 2544 4750 2975 4387 
Q 3406 4025 3406 3419 
Q 3406 3131 3298 2873 
Q 3191 2616 2906 2266 
Q 2828 2175 2409 1742 
Q 1991 1309 1228 531 
z
" transform="scale(0.015625)"/>
     </defs>
     <use xlink:href="#DejaVuSans-32"/>
    </g>
   </g>
   <g id="text_3">
    <!-- 3 -->
    <g transform="translate(241.451118 20.807292) scale(0.1 -0.1)">
     <defs>
      <path id="DejaVuSans-33" d="M 2597 2516 
Q 3050 2419 3304 2112 
Q 3559 1806 3559 1356 
Q 3559 666 3084 287 
Q 2609 -91 1734 -91 
Q 1441 -91 1130 -33 
Q 819 25 488 141 
L 488 750 
Q 750 597 1062 519 
Q 1375 441 1716 441 
Q 2309 441 2620 675 
Q 2931 909 2931 1356 
Q 2931 1769 2642 2001 
Q 2353 2234 1838 2234 
L 1294 2234 
L 1294 2753 
L 1863 2753 
Q 2328 2753 2575 2939 
Q 2822 3125 2822 3475 
Q 2822 3834 2567 4026 
Q 2313 4219 1838 4219 
Q 1578 4219 1281 4162 
Q 984 4106 628 3988 
L 628 4550 
Q 988 4650 1302 4700 
Q 1616 4750 1894 4750 
Q 2613 4750 3031 4423 
Q 3450 4097 3450 3541 
Q 3450 3153 3228 2886 
Q 3006 2619 2597 2516 
z
" transform="scale(0.015625)"/>
     </defs>
     <use xlink:href="#DejaVuSans-33"/>
    </g>
   </g>
   <g id="text_4">
    <!-- 4 -->
    <g transform="translate(234.306481 96.822656) scale(0.1 -0.1)">
     <defs>
      <path id="DejaVuSans-34" d="M 2419 4116 
L 825 1625 
L 2419 1625 
L 2419 4116 
z
M 2253 4666 
L 3047 4666 
L 3047 1625 
L 3713 1625 
L 3713 1100 
L 3047 1100 
L 3047 0 
L 2419 0 
L 2419 1100 
L 313 1100 
L 313 1709 
L 2253 4666 
z
" transform="scale(0.015625)"/>
     </defs>
     <use xlink:href="#DejaVuSans-34"/>
    </g>
   </g>
   <g id="text_5">
    <!-- 5 -->
    <g transform="translate(194.432992 14.798437) scale(0.1 -0.1)">
     <defs>
      <path id="DejaVuSans-35" d="M 691 4666 
L 3169 4666 
L 3169 4134 
L 1269 4134 
L 1269 2991 
Q 1406 3038 1543 3061 
Q 1681 3084 1819 3084 
Q 2600 3084 3056 2656 
Q 3513 2228 3513 1497 
Q 3513 744 3044 326 
Q 2575 -91 1722 -91 
Q 1428 -91 1123 -41 
Q 819 9 494 109 
L 494 744 
Q 775 591 1075 516 
Q 1375 441 1709 441 
Q 2250 441 2565 725 
Q 2881 1009 2881 1497 
Q 2881 1984 2565 2268 
Q 2250 2553 1709 2553 
Q 1456 2553 1204 2497 
Q 953 2441 691 2322 
L 691 4666 
z
" transform="scale(0.015625)"/>
     </defs>
     <use xlink:href="#DejaVuSans-35"/>
    </g>
   </g>
   <g id="text_6">
    <!-- 6 -->
    <g transform="translate(185.992247 160.156426) scale(0.1 -0.1)">
     <defs>
      <path id="DejaVuSans-36" d="M 2113 2584 
Q 1688 2584 1439 2293 
Q 1191 2003 1191 1497 
Q 1191 994 1439 701 
Q 1688 409 2113 409 
Q 2538 409 2786 701 
Q 3034 994 3034 1497 
Q 3034 2003 2786 2293 
Q 2538 2584 2113 2584 
z
M 3366 4563 
L 3366 3988 
Q 3128 4100 2886 4159 
Q 2644 4219 2406 4219 
Q 1781 4219 1451 3797 
Q 1122 3375 1075 2522 
Q 1259 2794 1537 2939 
Q 1816 3084 2150 3084 
Q 2853 3084 3261 2657 
Q 3669 2231 3669 1497 
Q 3669 778 3244 343 
Q 2819 -91 2113 -91 
Q 1303 -91 875 529 
Q 447 1150 447 2328 
Q 447 3434 972 4092 
Q 1497 4750 2381 4750 
Q 2619 4750 2861 4703 
Q 3103 4656 3366 4563 
z
" transform="scale(0.015625)"/>
     </defs>
     <use xlink:href="#DejaVuSans-36"/>
    </g>
   </g>
  </g>
  <g id="axes_3">
   <g id="patch_4">
    <path d="M 304.571183 155.632465 
L 446.4 155.632465 
L 446.4 13.803648 
L 304.571183 13.803648 
z
" style="fill: #ffffff"/>
   </g>
   <g id="matplotlib.axis_5"/>
   <g id="matplotlib.axis_6"/>
  </g>
  <g id="axes_4">
   <g id="patch_5">
    <path d="M 16.588592 327.70421 
L 139.640225 327.70421 
L 139.640225 176.531903 
L 16.588592 176.531903 
z
" style="fill: #ffffff"/>
   </g>
   <g id="matplotlib.axis_7"/>
   <g id="matplotlib.axis_8"/>
   <g id="line2d_10">
    <path d="M 137.273848 195.296659 
L 96.715724 179.439062 
" clip-path="url(#pc718f44ff0)" style="fill: none; stroke: #000000; stroke-linecap: square"/>
   </g>
   <g id="line2d_11">
    <path d="M 18.95497 254.095469 
L 89.263004 258.732274 
" clip-path="url(#pc718f44ff0)" style="fill: none; stroke: #000000; stroke-linecap: square"/>
   </g>
   <g id="line2d_12">
    <path d="M 18.95497 254.095469 
L 38.865419 324.797051 
" clip-path="url(#pc718f44ff0)" style="fill: none; stroke: #000000; stroke-linecap: square"/>
   </g>
   <g id="line2d_13">
    <path d="M 96.715724 179.439062 
L 89.263004 258.732274 
" clip-path="url(#pc718f44ff0)" style="fill: none; stroke: #000000; stroke-linecap: square"/>
   </g>
   <g id="line2d_14">
    <path d="M 89.263004 258.732274 
L 38.865419 324.797051 
" clip-path="url(#pc718f44ff0)" style="fill: none; stroke: #000000; stroke-linecap: square"/>
   </g>
   <g id="PathCollection_2">
    <g>
     <use xlink:href="#m9b21c19553" x="137.273848" y="195.296659" style="fill: #fec7b8; stroke: #000000"/>
     <use xlink:href="#m9b21c19553" x="18.95497" y="254.095469" style="fill: #fec7b8; stroke: #000000"/>
     <use xlink:href="#m9b21c19553" x="96.715724" y="179.439062" style="fill: #fec7b8; stroke: #000000"/>
     <use xlink:href="#m9b21c19553" x="89.263004" y="258.732274" style="fill: #fec7b8; stroke: #000000"/>
     <use xlink:href="#m9b21c19553" x="38.865419" y="324.797051" style="fill: #fec7b8; stroke: #000000"/>
    </g>
   </g>
   <g id="text_7">
    <!-- 1 -->
    <g transform="translate(134.092598 198.056034) scale(0.1 -0.1)">
     <use xlink:href="#DejaVuSans-31"/>
    </g>
   </g>
   <g id="text_8">
    <!-- 2 -->
    <g transform="translate(15.77372 256.854844) scale(0.1 -0.1)">
     <use xlink:href="#DejaVuSans-32"/>
    </g>
   </g>
   <g id="text_9">
    <!-- 3 -->
    <g transform="translate(93.534474 182.198437) scale(0.1 -0.1)">
     <use xlink:href="#DejaVuSans-33"/>
    </g>
   </g>
   <g id="text_10">
    <!-- 4 -->
    <g transform="translate(86.081754 261.491649) scale(0.1 -0.1)">
     <use xlink:href="#DejaVuSans-34"/>
    </g>
   </g>
   <g id="text_11">
    <!-- 6 -->
    <g transform="translate(35.684169 327.556426) scale(0.1 -0.1)">
     <use xlink:href="#DejaVuSans-36"/>
    </g>
   </g>
  </g>
  <g id="axes_5">
   <g id="patch_6">
    <path d="M 167.817557 327.70421 
L 285.782443 327.70421 
L 285.782443 176.531903 
L 167.817557 176.531903 
z
" style="fill: #ffffff"/>
   </g>
   <g id="matplotlib.axis_9"/>
   <g id="matplotlib.axis_10"/>
   <g id="line2d_15">
    <path d="M 283.513887 200.649987 
L 244.632368 185.447917 
" clip-path="url(#pdbdee27889)" style="fill: none; stroke: #000000; stroke-linecap: square"/>
   </g>
   <g id="line2d_16">
    <path d="M 283.513887 200.649987 
L 197.614242 179.439062 
" clip-path="url(#pdbdee27889)" style="fill: none; stroke: #000000; stroke-linecap: square"/>
   </g>
   <g id="line2d_17">
    <path d="M 170.086113 257.018153 
L 237.487731 261.463281 
" clip-path="url(#pdbdee27889)" style="fill: none; stroke: #000000; stroke-linecap: square"/>
   </g>
   <g id="line2d_18">
    <path d="M 170.086113 257.018153 
L 197.614242 179.439062 
" clip-path="url(#pdbdee27889)" style="fill: none; stroke: #000000; stroke-linecap: square"/>
   </g>
   <g id="line2d_19">
    <path d="M 170.086113 257.018153 
L 189.173497 324.797051 
" clip-path="url(#pdbdee27889)" style="fill: none; stroke: #000000; stroke-linecap: square"/>
   </g>
   <g id="line2d_20">
    <path d="M 244.632368 185.447917 
L 237.487731 261.463281 
" clip-path="url(#pdbdee27889)" style="fill: none; stroke: #000000; stroke-linecap: square"/>
   </g>
   <g id="PathCollection_3">
    <g>
     <use xlink:href="#m9b21c19553" x="283.513887" y="200.649987" style="fill: #fec7b8; stroke: #000000"/>
     <use xlink:href="#m9b21c19553" x="170.086113" y="257.018153" style="fill: #fec7b8; stroke: #000000"/>
     <use xlink:href="#m9b21c19553" x="244.632368" y="185.447917" style="fill: #fec7b8; stroke: #000000"/>
     <use xlink:href="#m9b21c19553" x="237.487731" y="261.463281" style="fill: #fec7b8; stroke: #000000"/>
     <use xlink:href="#m9b21c19553" x="197.614242" y="179.439062" style="fill: #fec7b8; stroke: #000000"/>
     <use xlink:href="#m9b21c19553" x="189.173497" y="324.797051" style="fill: #fec7b8; stroke: #000000"/>
    </g>
   </g>
   <g id="text_12">
    <!-- 1 -->
    <g transform="translate(280.332637 203.409362) scale(0.1 -0.1)">
     <use xlink:href="#DejaVuSans-31"/>
    </g>
   </g>
   <g id="text_13">
    <!-- 2 -->
    <g transform="translate(166.904863 259.777528) scale(0.1 -0.1)">
     <use xlink:href="#DejaVuSans-32"/>
    </g>
   </g>
   <g id="text_14">
    <!-- 3 -->
    <g transform="translate(241.451118 188.207292) scale(0.1 -0.1)">
     <use xlink:href="#DejaVuSans-33"/>
    </g>
   </g>
   <g id="text_15">
    <!-- 4 -->
    <g transform="translate(234.306481 264.222656) scale(0.1 -0.1)">
     <use xlink:href="#DejaVuSans-34"/>
    </g>
   </g>
   <g id="text_16">
    <!-- 5 -->
    <g transform="translate(194.432992 182.198437) scale(0.1 -0.1)">
     <use xlink:href="#DejaVuSans-35"/>
    </g>
   </g>
   <g id="text_17">
    <!-- 6 -->
    <g transform="translate(185.992247 327.556426) scale(0.1 -0.1)">
     <use xlink:href="#DejaVuSans-36"/>
    </g>
   </g>
  </g>
  <g id="axes_6">
   <g id="patch_7">
    <path d="M 316.503149 327.70421 
L 434.468034 327.70421 
L 434.468034 176.531903 
L 316.503149 176.531903 
z
" style="fill: #ffffff"/>
   </g>
   <g id="matplotlib.axis_11"/>
   <g id="matplotlib.axis_12"/>
   <g id="line2d_21">
    <path d="M 432.199479 200.649987 
L 346.299834 179.439062 
" clip-path="url(#p251ed2ac56)" style="fill: none; stroke: #000000; stroke-linecap: square"/>
   </g>
   <g id="line2d_22">
    <path d="M 318.771704 257.018153 
L 386.173323 261.463281 
" clip-path="url(#p251ed2ac56)" style="fill: none; stroke: #000000; stroke-linecap: square"/>
   </g>
   <g id="line2d_23">
    <path d="M 318.771704 257.018153 
L 346.299834 179.439062 
" clip-path="url(#p251ed2ac56)" style="fill: none; stroke: #000000; stroke-linecap: square"/>
   </g>
   <g id="line2d_24">
    <path d="M 318.771704 257.018153 
L 337.859089 324.797051 
" clip-path="url(#p251ed2ac56)" style="fill: none; stroke: #000000; stroke-linecap: square"/>
   </g>
   <g id="line2d_25">
    <path d="M 393.31796 185.447917 
L 386.173323 261.463281 
" clip-path="url(#p251ed2ac56)" style="fill: none; stroke: #000000; stroke-linecap: square"/>
   </g>
   <g id="PathCollection_4">
    <g>
     <use xlink:href="#m9b21c19553" x="432.199479" y="200.649987" style="fill: #fec7b8; stroke: #000000"/>
     <use xlink:href="#m9b21c19553" x="318.771704" y="257.018153" style="fill: #fec7b8; stroke: #000000"/>
     <use xlink:href="#m9b21c19553" x="393.31796" y="185.447917" style="fill: #fec7b8; stroke: #000000"/>
     <use xlink:href="#m9b21c19553" x="386.173323" y="261.463281" style="fill: #fec7b8; stroke: #000000"/>
     <use xlink:href="#m9b21c19553" x="346.299834" y="179.439062" style="fill: #fec7b8; stroke: #000000"/>
     <use xlink:href="#m9b21c19553" x="337.859089" y="324.797051" style="fill: #fec7b8; stroke: #000000"/>
    </g>
   </g>
   <g id="text_18">
    <!-- 1 -->
    <g transform="translate(429.018229 203.409362) scale(0.1 -0.1)">
     <use xlink:href="#DejaVuSans-31"/>
    </g>
   </g>
   <g id="text_19">
    <!-- 2 -->
    <g transform="translate(315.590454 259.777528) scale(0.1 -0.1)">
     <use xlink:href="#DejaVuSans-32"/>
    </g>
   </g>
   <g id="text_20">
    <!-- 3 -->
    <g transform="translate(390.13671 188.207292) scale(0.1 -0.1)">
     <use xlink:href="#DejaVuSans-33"/>
    </g>
   </g>
   <g id="text_21">
    <!-- 4 -->
    <g transform="translate(382.992073 264.222656) scale(0.1 -0.1)">
     <use xlink:href="#DejaVuSans-34"/>
    </g>
   </g>
   <g id="text_22">
    <!-- 5 -->
    <g transform="translate(343.118584 182.198437) scale(0.1 -0.1)">
     <use xlink:href="#DejaVuSans-35"/>
    </g>
   </g>
   <g id="text_23">
    <!-- 6 -->
    <g transform="translate(334.677839 327.556426) scale(0.1 -0.1)">
     <use xlink:href="#DejaVuSans-36"/>
    </g>
   </g>
  </g>
 </g>
 <defs>
  <clipPath id="p3292acbf3b">
   <rect x="167.817557" y="9.131903" width="117.964885" height="151.172308"/>
  </clipPath>
  <clipPath id="pc718f44ff0">
   <rect x="16.588592" y="176.531903" width="123.051633" height="151.172308"/>
  </clipPath>
  <clipPath id="pdbdee27889">
   <rect x="167.817557" y="176.531903" width="117.964885" height="151.172308"/>
  </clipPath>
  <clipPath id="p251ed2ac56">
   <rect x="316.503149" y="176.531903" width="117.964885" height="151.172308"/>
  </clipPath>
 </defs>
</svg>
