<svg xmlns="http://www.w3.org/2000/svg" xmlns:xlink="http://www.w3.org/1999/xlink" xmlns:inkscape="http://www.inkscape.org/namespaces/inkscape" version="1.1" width="337" height="82" viewBox="0 0 337 82">
<defs>
<path id="font_1_1" d="M.2939911 .64004519C.2939911 .66400149 .2939911 .6660156 .2709961 .6660156 .20899964 .60227969 .12098694 .60227969 .08898926 .60227969V.57128909C.10899353 .57128909 .16799927 .57128909 .21998596 .5972748V.07902527C.21998596 .042999269 .21699524 .0309906 .1269989 .0309906H.09498596V0C.12998963 .0029907227 .21699524 .0029907227 .25698854 .0029907227 .29699708 .0029907227 .38398744 .0029907227 .4189911 0V.0309906H.3869934C.29699708 .0309906 .2939911 .041992189 .2939911 .07902527V.64004519Z"/>
<path id="font_1_2" d="M.1269989 .07699585 .23298645 .18003845C.3889923 .31811524 .44898988 .3721466 .44898988 .47216798 .44898988 .5860901 .35899354 .6660156 .23699951 .6660156 .12399292 .6660156 .049987794 .57411196 .049987794 .48516847 .049987794 .4291687 .099990848 .4291687 .102996829 .4291687 .11999512 .4291687 .15499878 .44117738 .15499878 .48217774 .15499878 .5081787 .13699341 .5341797 .101989749 .5341797 .09399414 .5341797 .09199524 .5341797 .08898926 .5331726 .11199951 .59806826 .1659851 .63500979 .22399903 .63500979 .31498719 .63500979 .35798646 .5541382 .35798646 .47216798 .35798646 .39215089 .30799867 .31311036 .25299073 .25108338L.06098938 .036987306C.049987794 .025985718 .049987794 .023986817 .049987794 0H.42099L.44898988 .17404175H.42399598C.4189911 .14402771 .4119873 .1000061 .4019928 .084991458 .394989 .07699585 .32899476 .07699585 .30699159 .07699585H.1269989Z"/>
<path id="font_1_3" d="M.2899933 .35191346C.37199403 .37893678 .42999269 .4490509 .42999269 .52809146 .42999269 .6100464 .34199525 .6660156 .24598694 .6660156 .14498902 .6660156 .068984989 .60606387 .068984989 .53009036 .068984989 .49710084 .09098816 .47808839 .11999512 .47808839 .15098572 .47808839 .17098999 .50009158 .17098999 .5290985 .17098999 .57910159 .12399292 .57910159 .10899353 .57910159 .13999939 .62802127 .20599365 .64100649 .24198914 .64100649 .2829895 .64100649 .33799745 .6190338 .33799745 .5290985 .33799745 .51708987 .33599855 .45906068 .30999757 .4149933 .27999879 .36691285 .24598694 .36390687 .22099304 .36291505 .21299744 .36190797 .18899536 .35990907 .18199158 .35990907 .17399597 .35890199 .16699219 .35791017 .16699219 .3479004 .16699219 .33691407 .17399597 .33691407 .19099427 .33691407H.23498535C.31698609 .33691407 .35398866 .2686615 .35398866 .17037964 .35398866 .034469606 .2849884 .0055389406 .24099732 .0055389406 .19799805 .0055389406 .12298584 .022491456 .08799744 .08137512 .12298584 .07637024 .1539917 .09837341 .1539917 .1363678 .1539917 .17237854 .1269989 .19238281 .09799194 .19238281 .07398987 .19238281 .041992189 .17837525 .041992189 .1343689 .041992189 .043441774 .1349945-.022460938 .24398804-.022460938 .3659973-.022460938 .45700074 .06838989 .45700074 .17037964 .45700074 .252594 .3939972 .33088685 .2899933 .35191346Z"/>
<path id="font_1_4" d="M.2939911 .16503906V.07800293C.2939911 .041992189 .2919922 .0309906 .21798706 .0309906H.19699097V0C.23799134 .0029907227 .2899933 .0029907227 .33198548 .0029907227 .37399293 .0029907227 .4269867 .0029907227 .46798707 0V.0309906H.44699098C.37298585 .0309906 .37098695 .041992189 .37098695 .07800293V.16503906H.47099305V.19602967H.37098695V.65075686C.37098695 .67074587 .37098695 .6767578 .35499574 .6767578 .34599305 .6767578 .34298707 .6767578 .33499146 .66474917L.027999878 .19602967V.16503906H.2939911M.2999878 .19602967H.055999757L.2999878 .5688019V.19602967Z"/>
<path id="font_1_5" d="M.44898988 .20022583C.44898988 .3193512 .36698915 .41944886 .25898744 .41944886 .21099854 .41944886 .16799927 .40345765 .13198853 .36842347V.5637665C.1519928 .5577698 .18499756 .55078127 .21699524 .55078127 .33999635 .55078127 .4099884 .6417694 .4099884 .6547699 .4099884 .6607666 .40699769 .6657715 .3999939 .6657715 .39898683 .6657715 .39698792 .6657715 .3919983 .66278079 .37199403 .6537781 .32299806 .6337738 .2559967 .6337738 .21598816 .6337738 .16999817 .6407776 .12298584 .6617737 .114990238 .66477969 .11299133 .66477969 .11099243 .66477969 .100997928 .66477969 .100997928 .6567688 .100997928 .6407776V.34439088C.100997928 .32637025 .100997928 .31835938 .114990238 .31835938 .12199402 .31835938 .12399292 .32136537 .12799073 .32736207 .13899231 .3433838 .17599488 .39746095 .25698854 .39746095 .30899049 .39746095 .33399964 .35139466 .34199525 .33337403 .35798646 .29632569 .3600006 .25727845 .3600006 .20722962 .3600006 .17222595 .3600006 .11222839 .33599855 .07035828 .31199647 .031463624 .2749939 .0055389406 .22898865 .0055389406 .1559906 .0055389406 .09899902 .058380128 .08198547 .11723328 .084991458 .1162262 .08799744 .115234378 .09899902 .115234378 .13198853 .115234378 .14898682 .14022827 .14898682 .16423035 .14898682 .18823242 .13198853 .21322632 .09899902 .21322632 .084991458 .21322632 .049987794 .20622254 .049987794 .16023255 .049987794 .07434082 .11898804-.022460938 .23098755-.022460938 .34700013-.022460938 .44898988 .073349 .44898988 .20022583Z"/>
<path id="font_1_6" d="M.13198853 .327713V.35173036C.13198853 .6047821 .2559967 .64100649 .30699159 .64100649 .33099366 .64100649 .37298585 .634964 .394989 .6007538 .37998963 .6007538 .33999635 .6007538 .33999635 .5557556 .33999635 .524765 .3639984 .5097656 .38598634 .5097656 .4019928 .5097656 .43199159 .51875308 .43199159 .5577545 .43199159 .6178589 .3880005 .6660156 .30499269 .6660156 .1769867 .6660156 .041992189 .5367584 .041992189 .31570436 .041992189 .048553468 .1579895-.022460938 .25099183-.022460938 .3619995-.022460938 .45700074 .07156372 .45700074 .2036438 .45700074 .33070375 .36799623 .4267578 .25698854 .4267578 .18899536 .4267578 .1519928 .37573243 .13198853 .327713M.25099183 .0055389406C.18798828 .0055389406 .1579895 .06556702 .1519928 .080566409 .13398743 .127594 .13398743 .2076416 .13398743 .22564698 .13398743 .30369569 .1659851 .40374757 .2559967 .40374757 .27198792 .40374757 .31799317 .40374757 .34899903 .34172059 .36698915 .30470277 .36698915 .2536621 .36698915 .20463562 .36698915 .15661621 .36698915 .10658264 .34999085 .0705719 .31999208 .010528564 .27398683 .0055389406 .25099183 .0055389406Z"/>
<path id="font_1_7" d="M.47599793 .609375C.4850006 .6213684 .4850006 .62338259 .4850006 .64437869H.24198914C.11999512 .64437869 .117996219 .65737918 .11399841 .67637637H.08898926L.055999757 .4702301H.08099365C.083999637 .48625184 .09298706 .5493469 .10598755 .56137087 .11299133 .5673828 .19099427 .5673828 .20399475 .5673828H.41099549C.3999939 .5513611 .32099916 .4421997 .29899598 .40914918 .20899964 .27394105 .17599488 .1347351 .17599488 .032577516 .17599488 .022567749 .17599488-.022460938 .22200012-.022460938 .2679901-.022460938 .2679901 .022567749 .2679901 .032577516V.08366394C.2679901 .13873291 .2709961 .19381714 .2789917 .24790955 .2829895 .27093507 .29699708 .35707093 .34098817 .41915895L.47599793 .609375Z"/>
<path id="font_1_8" d="M.16299439 .4569702C.116989139 .486969 .11299133 .52098086 .11299133 .5379791 .11299133 .598999 .17799378 .64100649 .24899292 .64100649 .32199098 .64100649 .38598634 .58898928 .38598634 .51698306 .38598634 .45996095 .34700013 .4119568 .2869873 .37695313L.16299439 .4569702M.30899049 .36193849C.3809967 .3989563 .42999269 .45095826 .42999269 .51698306 .42999269 .6090088 .34098817 .6660156 .25 .6660156 .1499939 .6660156 .068984989 .59199526 .068984989 .49897767 .068984989 .4809723 .070999149 .43595887 .11299133 .38894654 .12399292 .37695313 .16099549 .35194398 .18598938 .33494569 .12799073 .30592347 .041992189 .24984741 .041992189 .15072632 .041992189 .04458618 .14399719-.022460938 .24899292-.022460938 .3619995-.022460938 .45700074 .06060791 .45700074 .16773987 .45700074 .20379639 .44599916 .24885559 .4079895 .2909088 .3889923 .31193543 .37298585 .3219452 .30899049 .36193849M.20899964 .3199463 .33198548 .24183655C.3600006 .2228241 .40699769 .19277954 .40699769 .13169861 .40699769 .05760193 .33198548 .0055389406 .25 .0055389406 .1639862 .0055389406 .09199524 .067611698 .09199524 .15072632 .09199524 .20880127 .12399292 .27288819 .20899964 .3199463Z"/>
<path id="font_2_107" d="M.44898988 .17396546H.42399598C.4189911 .14398194 .4119873 .099990848 .4019928 .084991458 .394989 .07699585 .32899476 .07699585 .30699159 .07699585H.1269989L.23298645 .17996216C.3889923 .31803895 .44898988 .37210084 .44898988 .47216798 .44898988 .5860901 .35899354 .6660156 .23699951 .6660156 .12399292 .6660156 .049987794 .57411196 .049987794 .48516847 .049987794 .4291687 .099990848 .4291687 .102996829 .4291687 .11999512 .4291687 .15499878 .44117738 .15499878 .48217774 .15499878 .5081787 .13699341 .5341797 .101989749 .5341797 .09399414 .5341797 .09199524 .5341797 .08898926 .5331726 .11199951 .59806826 .1659851 .63500979 .22399903 .63500979 .31498719 .63500979 .35798646 .5541382 .35798646 .47216798 .35798646 .39196778 .30799867 .31297303 .25299073 .25097657L.06098938 .036987306C.049987794 .025985718 .049987794 .023986817 .049987794 0H.42099L.44898988 .17396546Z"/>
<path id="font_2_82" d="M.4189911 0V.0309906H.3869934C.29699708 .0309906 .2939911 .041992189 .2939911 .07902527V.64012148C.2939911 .6640167 .2939911 .6660156 .2709961 .6660156 .20899964 .60227969 .12098694 .60227969 .08898926 .60227969V.57128909C.10899353 .57128909 .16799927 .57128909 .21998596 .5972748V.07902527C.21998596 .042999269 .21699524 .0309906 .1269989 .0309906H.09498596V0C.12998963 .0029907227 .21699524 .0029907227 .25698854 .0029907227 .29699708 .0029907227 .38398744 .0029907227 .4189911 0Z"/>
<path id="font_2_57" d="M.47099305 .16503906V.19602967H.37098695V.6507721C.37098695 .6707611 .37098695 .6767578 .35499574 .6767578 .34599305 .6767578 .34298707 .6767578 .33499146 .6647644L.027999878 .19602967V.16503906H.2939911V.07800293C.2939911 .041992189 .2919922 .0309906 .21798706 .0309906H.19699097V0C.23799134 .0029907227 .2899933 .0029907227 .33198548 .0029907227 .37399293 .0029907227 .4269867 .0029907227 .46798707 0V.0309906H.44699098C.37298585 .0309906 .37098695 .041992189 .37098695 .07800293V.16503906H.47099305M.2999878 .19602967H.055999757L.2999878 .56881716V.19602967Z"/>
<path id="font_2_106" d="M.45700074 .17037964C.45700074 .252594 .3939972 .33088685 .2899933 .35191346 .37199403 .37893678 .42999269 .4490509 .42999269 .52809146 .42999269 .6100464 .34199525 .6660156 .24598694 .6660156 .14498902 .6660156 .068984989 .60606387 .068984989 .53009036 .068984989 .49710084 .09098816 .47808839 .11999512 .47808839 .15098572 .47808839 .17098999 .50009158 .17098999 .5290985 .17098999 .57910159 .12399292 .57910159 .10899353 .57910159 .13999939 .62802127 .20599365 .64100649 .24198914 .64100649 .2829895 .64100649 .33799745 .6190338 .33799745 .5290985 .33799745 .51708987 .33599855 .45906068 .30999757 .4149933 .27999879 .36691285 .24598694 .36390687 .22099304 .36291505 .21299744 .36190797 .18899536 .35990907 .18199158 .35990907 .17399597 .35890199 .16699219 .35791017 .16699219 .3479004 .16699219 .33691407 .17399597 .33691407 .19099427 .33691407H.23498535C.31698609 .33691407 .35398866 .2686615 .35398866 .17037964 .35398866 .034469606 .2849884 .0055389406 .24099732 .0055389406 .19799805 .0055389406 .12298584 .022491456 .08799744 .08137512 .12298584 .07637024 .1539917 .09837341 .1539917 .1363678 .1539917 .17237854 .1269989 .19238281 .09799194 .19238281 .07398987 .19238281 .041992189 .17837525 .041992189 .1343689 .041992189 .043441774 .1349945-.022460938 .24398804-.022460938 .3659973-.022460938 .45700074 .06838989 .45700074 .17037964Z"/>
<path id="font_2_78" d="M.45700074 .32888795C.45700074 .598114 .34199525 .6660156 .25299073 .6660156 .19799805 .6660156 .14898682 .64801028 .10598755 .6031189 .06498718 .5580902 .041992189 .5160217 .041992189 .44091798 .041992189 .3158722 .12998963 .21777344 .24198914 .21777344 .30299378 .21777344 .34399415 .25979615 .36698915 .3178711V.28582765C.36698915 .05178833 .2630005 .0055389406 .20498657 .0055389406 .18798828 .0055389406 .13398743 .007537842 .10699463 .041778566 .15098572 .041778566 .15899658 .07078552 .15899658 .08778381 .15899658 .118774417 .1349945 .13378906 .11299133 .13378906 .09700012 .13378906 .066986087 .12478638 .066986087 .08578491 .066986087 .018615723 .12098694-.022460938 .20599365-.022460938 .33499146-.022460938 .45700074 .11378479 .45700074 .32888795M.36499024 .42089845C.36499024 .33789063 .33099366 .24076844 .24299622 .24076844 .22698975 .2407074 .18099976 .2407074 .1499939 .30371095 .13198853 .34072877 .13198853 .3908081 .13198853 .43988038 .13198853 .49397279 .13198853 .5410614 .15299988 .578125 .17999268 .62805178 .21798706 .64100649 .25299073 .64100649 .29899598 .64100649 .33198548 .60710147 .34899903 .562088 .36099244 .52989199 .36499024 .46688844 .36499024 .42089845Z"/>
<path id="font_2_121" d="M.45999146 .31976319C.45999146 .39982606 .45498658 .47988893 .41999818 .5539398 .37399293 .65000918 .2919922 .6660156 .25 .6660156 .18998719 .6660156 .116989139 .64001467 .07598877 .54693606 .04399109 .47789 .038986207 .39982606 .038986207 .31976319 .038986207 .24472046 .042999269 .15464783 .083999637 .07859802 .1269989-.0024719239 .19999695-.022460938 .24899292-.022460938 .30299378-.022460938 .3789978-.0014648438 .4229889 .09359741 .45498658 .16265869 .45999146 .2407074 .45999146 .31976319M.3769989 .3317871C.3769989 .25672914 .3769989 .18867493 .3659973 .12461853 .35099793 .029556275 .2939911-.00047302247 .24899292-.00047302247 .20999146-.00047302247 .15098572 .024551392 .1329956 .12062073 .12199402 .18066406 .12199402 .2727356 .12199402 .3317871 .12199402 .39582826 .12199402 .46188355 .12998963 .5159149 .14898682 .63500979 .22399903 .64401248 .24899292 .64401248 .28199769 .64401248 .34799195 .6259918 .36698915 .52693179 .3769989 .47088624 .3769989 .39482118 .3769989 .3317871Z"/>
<path id="font_2_101" d="M.45700074 .2036438C.45700074 .33070375 .36799623 .4267578 .25698854 .4267578 .18899536 .4267578 .1519928 .37573243 .13198853 .327713V.35173036C.13198853 .6047821 .2559967 .64100649 .30699159 .64100649 .33099366 .64100649 .37298585 .634964 .394989 .6007538 .37998963 .6007538 .33999635 .6007538 .33999635 .5557556 .33999635 .524765 .3639984 .5097656 .38598634 .5097656 .4019928 .5097656 .43199159 .51875308 .43199159 .5577545 .43199159 .6178589 .3880005 .6660156 .30499269 .6660156 .1769867 .6660156 .041992189 .5367584 .041992189 .31570436 .041992189 .048553468 .1579895-.022460938 .25099183-.022460938 .3619995-.022460938 .45700074 .07156372 .45700074 .2036438M.36698915 .20463562C.36698915 .15661621 .36698915 .10658264 .34999085 .0705719 .31999208 .010528564 .27398683 .0055389406 .25099183 .0055389406 .18798828 .0055389406 .1579895 .06556702 .1519928 .080566409 .13398743 .127594 .13398743 .2076416 .13398743 .22564698 .13398743 .30369569 .1659851 .40374757 .2559967 .40374757 .27198792 .40374757 .31799317 .40374757 .34899903 .34172059 .36698915 .30470277 .36698915 .2536621 .36698915 .20463562Z"/>
<path id="font_2_56" d="M.44898988 .20091248C.44898988 .31991578 .36698915 .41992188 .25898744 .41992188 .21099854 .41992188 .16799927 .4039154 .13198853 .36891175V.5641022C.1519928 .55778506 .18499756 .55078127 .21699524 .55078127 .33999635 .55078127 .4099884 .6418457 .4099884 .65493777 .4099884 .6609802 .40699769 .6660156 .3999939 .6660156 .3999939 .66607668 .39698792 .66607668 .3919983 .66308596 .37199403 .65408328 .32299806 .63378909 .2559967 .63378909 .21598816 .63409426 .16999817 .641098 .12298584 .6621094 .114990238 .6651001 .11099243 .6651001 .11099243 .6651001 .100997928 .66508486 .100997928 .657074 .100997928 .64108279V.3447113C.100997928 .3266449 .100997928 .31861878 .114990238 .31861878 .12199402 .31861878 .12399292 .32164 .12799073 .32765199 .13899231 .34371949 .17599488 .3979187 .25698854 .3979187 .30899049 .3979187 .33399964 .3517456 .34199525 .3336792 .35798646 .2965393 .3600006 .2574005 .3600006 .20721436 .3600006 .17218018 .3600006 .112197879 .33599855 .07032776 .31199647 .031448366 .2749939 .0055389406 .22898865 .0055389406 .1559906 .0055389406 .09899902 .05836487 .08198547 .1171875 .084991458 .11685181 .08799744 .115859989 .09899902 .115859989 .13198853 .115859989 .14898682 .14085388 .14898682 .16485596 .14898682 .18885803 .13198853 .21386719 .09899902 .21386719 .084991458 .21386719 .049987794 .2068634 .049987794 .16085816 .049987794 .07432556 .11898804-.022460938 .23098755-.022460938 .34700013-.022460938 .44898988 .07331848 .44898988 .20019531V.20091248Z"/>
</defs>
<path transform="matrix(1.00002,0,0,-1.00008,11.047844,71.64077)" d="M8.75317 0C8.75317 4.8343 4.8343 8.75317 0 8.75317-4.8343 8.75317-8.75317 4.8343-8.75317 0-8.75317-4.8343-4.8343-8.75317 0-8.75317 4.8343-8.75317 8.75317-4.8343 8.75317 0ZM0 0" fill="#ffffff"/>
<path transform="matrix(1.00002,0,0,-1.00008,11.047844,71.64077)" stroke-width=".79701" stroke-linecap="butt" stroke-miterlimit="10" stroke-linejoin="miter" fill="none" stroke="#000000" d="M8.75317 0C8.75317 4.8343 4.8343 8.75317 0 8.75317-4.8343 8.75317-8.75317 4.8343-8.75317 0-8.75317-4.8343-4.8343-8.75317 0-8.75317 4.8343-8.75317 8.75317-4.8343 8.75317 0ZM0 0"/>
<use data-text="1" xlink:href="#font_1_1" transform="matrix(9.962799,0,0,-9.963397,8.556793,74.85103)"/>
<path transform="matrix(1.00002,0,0,-1.00008,11.047844,71.64077)" d="M93.79362 0C93.79362 4.8343 89.87476 8.75317 85.04045 8.75317 80.20615 8.75317 76.28728 4.8343 76.28728 0 76.28728-4.8343 80.20615-8.75317 85.04045-8.75317 89.87476-8.75317 93.79362-4.8343 93.79362 0ZM85.04045 0" fill="#ffffff"/>
<path transform="matrix(1.00002,0,0,-1.00008,11.047844,71.64077)" stroke-width=".79701" stroke-linecap="butt" stroke-miterlimit="10" stroke-linejoin="miter" fill="none" stroke="#000000" d="M93.79362 0C93.79362 4.8343 89.87476 8.75317 85.04045 8.75317 80.20615 8.75317 76.28728 4.8343 76.28728 0 76.28728-4.8343 80.20615-8.75317 85.04045-8.75317 89.87476-8.75317 93.79362-4.8343 93.79362 0ZM85.04045 0"/>
<use data-text="2" xlink:href="#font_1_2" transform="matrix(9.962799,0,0,-9.963397,93.5995,74.85103)"/>
<path transform="matrix(1.00002,0,0,-1.00008,11.047844,71.64077)" d="M178.83409 0C178.83409 4.8343 174.91522 8.75317 170.08092 8.75317 165.24662 8.75317 161.32773 4.8343 161.32773 0 161.32773-4.8343 165.24662-8.75317 170.08092-8.75317 174.91522-8.75317 178.83409-4.8343 178.83409 0ZM170.08092 0" fill="#ffffff"/>
<path transform="matrix(1.00002,0,0,-1.00008,11.047844,71.64077)" stroke-width=".79701" stroke-linecap="butt" stroke-miterlimit="10" stroke-linejoin="miter" fill="none" stroke="#000000" d="M178.83409 0C178.83409 4.8343 174.91522 8.75317 170.08092 8.75317 165.24662 8.75317 161.32773 4.8343 161.32773 0 161.32773-4.8343 165.24662-8.75317 170.08092-8.75317 174.91522-8.75317 178.83409-4.8343 178.83409 0ZM170.08092 0"/>
<use data-text="3" xlink:href="#font_1_3" transform="matrix(9.962799,0,0,-9.963397,178.6412,74.85103)"/>
<path transform="matrix(1.00002,0,0,-1.00008,11.047844,71.64077)" d="M263.87455 0C263.87455 4.8343 259.95567 8.75317 255.12137 8.75317 250.28707 8.75317 246.3682 4.8343 246.3682 0 246.3682-4.8343 250.28707-8.75317 255.12137-8.75317 259.95567-8.75317 263.87455-4.8343 263.87455 0ZM255.12137 0" fill="#ffffff"/>
<path transform="matrix(1.00002,0,0,-1.00008,11.047844,71.64077)" stroke-width=".79701" stroke-linecap="butt" stroke-miterlimit="10" stroke-linejoin="miter" fill="none" stroke="#000000" d="M263.87455 0C263.87455 4.8343 259.95567 8.75317 255.12137 8.75317 250.28707 8.75317 246.3682 4.8343 246.3682 0 246.3682-4.8343 250.28707-8.75317 255.12137-8.75317 259.95567-8.75317 263.87455-4.8343 263.87455 0ZM255.12137 0"/>
<use data-text="4" xlink:href="#font_1_4" transform="matrix(9.962799,0,0,-9.963397,263.6839,74.85103)"/>
<path transform="matrix(1.00002,0,0,-1.00008,11.047844,71.64077)" d="M68.88593 60.13274C68.88593 64.96704 64.96704 68.88593 60.13274 68.88593 55.29843 68.88593 51.37956 64.96704 51.37956 60.13274 51.37956 55.29843 55.29843 51.37956 60.13274 51.37956 64.96704 51.37956 68.88593 55.29843 68.88593 60.13274ZM60.13274 60.13274" fill="#ffffff"/>
<path transform="matrix(1.00002,0,0,-1.00008,11.047844,71.64077)" stroke-width=".79701" stroke-linecap="butt" stroke-miterlimit="10" stroke-linejoin="miter" fill="none" stroke="#000000" d="M68.88593 60.13274C68.88593 64.96704 64.96704 68.88593 60.13274 68.88593 55.29843 68.88593 51.37956 64.96704 51.37956 60.13274 51.37956 55.29843 55.29843 51.37956 60.13274 51.37956 64.96704 51.37956 68.88593 55.29843 68.88593 60.13274ZM60.13274 60.13274"/>
<use data-text="5" xlink:href="#font_1_5" transform="matrix(9.962799,0,0,-9.963397,68.690998,14.713215)"/>
<path transform="matrix(1.00002,0,0,-1.00008,11.047844,71.64077)" d="M153.92638 60.13274C153.92638 64.96704 150.0075 68.88593 145.1732 68.88593 140.3389 68.88593 136.42003 64.96704 136.42003 60.13274 136.42003 55.29843 140.3389 51.37956 145.1732 51.37956 150.0075 51.37956 153.92638 55.29843 153.92638 60.13274ZM145.1732 60.13274" fill="#ffffff"/>
<path transform="matrix(1.00002,0,0,-1.00008,11.047844,71.64077)" stroke-width=".79701" stroke-linecap="butt" stroke-miterlimit="10" stroke-linejoin="miter" fill="none" stroke="#000000" d="M153.92638 60.13274C153.92638 64.96704 150.0075 68.88593 145.1732 68.88593 140.3389 68.88593 136.42003 64.96704 136.42003 60.13274 136.42003 55.29843 140.3389 51.37956 145.1732 51.37956 150.0075 51.37956 153.92638 55.29843 153.92638 60.13274ZM145.1732 60.13274"/>
<use data-text="6" xlink:href="#font_1_6" transform="matrix(9.962799,0,0,-9.963397,153.7337,14.713215)"/>
<path transform="matrix(1.00002,0,0,-1.00008,11.047844,71.64077)" d="M238.96685 60.13274C238.96685 64.96704 235.04796 68.88593 230.21366 68.88593 225.37935 68.88593 221.46048 64.96704 221.46048 60.13274 221.46048 55.29843 225.37935 51.37956 230.21366 51.37956 235.04796 51.37956 238.96685 55.29843 238.96685 60.13274ZM230.21366 60.13274" fill="#ffffff"/>
<path transform="matrix(1.00002,0,0,-1.00008,11.047844,71.64077)" stroke-width=".79701" stroke-linecap="butt" stroke-miterlimit="10" stroke-linejoin="miter" fill="none" stroke="#000000" d="M238.96685 60.13274C238.96685 64.96704 235.04796 68.88593 230.21366 68.88593 225.37935 68.88593 221.46048 64.96704 221.46048 60.13274 221.46048 55.29843 225.37935 51.37956 230.21366 51.37956 235.04796 51.37956 238.96685 55.29843 238.96685 60.13274ZM230.21366 60.13274"/>
<use data-text="7" xlink:href="#font_1_7" transform="matrix(9.962799,0,0,-9.963397,238.77542,14.713215)"/>
<path transform="matrix(1.00002,0,0,-1.00008,11.047844,71.64077)" d="M324.0073 60.13274C324.0073 64.96704 320.0884 68.88593 315.25413 68.88593 310.41984 68.88593 306.50096 64.96704 306.50096 60.13274 306.50096 55.29843 310.41984 51.37956 315.25413 51.37956 320.0884 51.37956 324.0073 55.29843 324.0073 60.13274ZM315.25413 60.13274" fill="#ffffff"/>
<path transform="matrix(1.00002,0,0,-1.00008,11.047844,71.64077)" stroke-width=".79701" stroke-linecap="butt" stroke-miterlimit="10" stroke-linejoin="miter" fill="none" stroke="#000000" d="M324.0073 60.13274C324.0073 64.96704 320.0884 68.88593 315.25413 68.88593 310.41984 68.88593 306.50096 64.96704 306.50096 60.13274 306.50096 55.29843 310.41984 51.37956 315.25413 51.37956 320.0884 51.37956 324.0073 55.29843 324.0073 60.13274ZM315.25413 60.13274"/>
<use data-text="8" xlink:href="#font_1_8" transform="matrix(9.962799,0,0,-9.963397,323.8171,14.713215)"/>
<path transform="matrix(1.00002,0,0,-1.00008,11.047844,71.64077)" stroke-width=".59776" stroke-linecap="butt" stroke-miterlimit="10" stroke-linejoin="miter" fill="none" stroke="#000000" d="M6.4712 6.4712 52.95706 52.95706"/>
<use data-text="2" xlink:href="#font_2_107" transform="matrix(9.962799,0,0,-9.963397,27.532174,37.952077)"/>
<use data-text="1" xlink:href="#font_2_82" transform="matrix(9.962799,0,0,-9.963397,32.513574,37.952077)"/>
<path transform="matrix(1.00002,0,0,-1.00008,11.047844,71.64077)" stroke-width=".59776" stroke-linecap="butt" stroke-miterlimit="10" stroke-linejoin="miter" fill="none" stroke="#000000" d="M9.15167 0H74.89249"/>
<use data-text="4" xlink:href="#font_2_57" transform="matrix(9.962799,0,0,-9.963397,48.587598,68.021488)"/>
<use data-text="1" xlink:href="#font_2_82" transform="matrix(9.962799,0,0,-9.963397,53.568998,68.021488)"/>
<path transform="matrix(1.00002,0,0,-1.00008,11.047844,71.64077)" stroke-width=".59776" stroke-linecap="butt" stroke-miterlimit="10" stroke-linejoin="miter" fill="none" stroke="#000000" d="M94.19214 0H159.93296"/>
<use data-text="3" xlink:href="#font_2_106" transform="matrix(9.962799,0,0,-9.963397,133.6293,67.80146)"/>
<use data-text="2" xlink:href="#font_2_107" transform="matrix(9.962799,0,0,-9.963397,138.6107,67.80146)"/>
<path transform="matrix(1.00002,0,0,-1.00008,11.047844,71.64077)" stroke-width=".59776" stroke-linecap="butt" stroke-miterlimit="10" stroke-linejoin="miter" fill="none" stroke="#000000" d="M81.53848 8.45457 64.01595 50.75777"/>
<use data-text="4" xlink:href="#font_2_57" transform="matrix(9.962799,0,0,-9.963397,70.053028,51.937196)"/>
<use data-text="2" xlink:href="#font_2_107" transform="matrix(9.962799,0,0,-9.963397,75.034427,51.937196)"/>
<path transform="matrix(1.00002,0,0,-1.00008,11.047844,71.64077)" stroke-width=".59776" stroke-linecap="butt" stroke-miterlimit="10" stroke-linejoin="miter" fill="none" stroke="#000000" d="M91.51166 6.4712 137.99752 52.95706"/>
<use data-text="2" xlink:href="#font_2_107" transform="matrix(9.962799,0,0,-9.963397,112.57488,37.952077)"/>
<use data-text="2" xlink:href="#font_2_107" transform="matrix(9.962799,0,0,-9.963397,117.55628,37.952077)"/>
<path transform="matrix(1.00002,0,0,-1.00008,11.047844,71.64077)" stroke-width=".59776" stroke-linecap="butt" stroke-miterlimit="10" stroke-linejoin="miter" fill="none" stroke="#000000" d="M179.23259 0H244.97342"/>
<use data-text="2" xlink:href="#font_2_107" transform="matrix(9.962799,0,0,-9.963397,218.672,67.80146)"/>
<use data-text="9" xlink:href="#font_2_78" transform="matrix(9.962799,0,0,-9.963397,223.65341,67.80146)"/>
<path transform="matrix(1.00002,0,0,-1.00008,11.047844,71.64077)" stroke-width=".59776" stroke-linecap="butt" stroke-miterlimit="10" stroke-linejoin="miter" fill="none" stroke="#000000" d="M176.55213 6.4712 223.03798 52.95706"/>
<use data-text="3" xlink:href="#font_2_106" transform="matrix(9.962799,0,0,-9.963397,197.61658,37.73306)"/>
<use data-text="1" xlink:href="#font_2_82" transform="matrix(9.962799,0,0,-9.963397,202.59799,37.73306)"/>
<path transform="matrix(1.00002,0,0,-1.00008,11.047844,71.64077)" stroke-width=".59776" stroke-linecap="butt" stroke-miterlimit="10" stroke-linejoin="miter" fill="none" stroke="#000000" d="M251.6194 8.45457 234.09687 50.75777"/>
<use data-text="2" xlink:href="#font_2_107" transform="matrix(9.962799,0,0,-9.963397,240.13745,51.827188)"/>
<use data-text="3" xlink:href="#font_2_106" transform="matrix(9.962799,0,0,-9.963397,245.11884,51.827188)"/>
<path transform="matrix(1.00002,0,0,-1.00008,11.047844,71.64077)" stroke-width=".59776" stroke-linecap="butt" stroke-miterlimit="10" stroke-linejoin="miter" fill="none" stroke="#000000" d="M261.5926 6.4712 308.07844 52.95706"/>
<use data-text="4" xlink:href="#font_2_57" transform="matrix(9.962799,0,0,-9.963397,282.65928,37.952077)"/>
<use data-text="4" xlink:href="#font_2_57" transform="matrix(9.962799,0,0,-9.963397,287.64067,37.952077)"/>
<path transform="matrix(1.00002,0,0,-1.00008,11.047844,71.64077)" stroke-width=".59776" stroke-linecap="butt" stroke-miterlimit="10" stroke-linejoin="miter" fill="none" stroke="#000000" d="M69.28442 60.13274H135.02524"/>
<use data-text="2" xlink:href="#font_2_107" transform="matrix(9.962799,0,0,-9.963397,108.721797,7.664654)"/>
<use data-text="0" xlink:href="#font_2_121" transform="matrix(9.962799,0,0,-9.963397,113.70319,7.664654)"/>
<path transform="matrix(1.00002,0,0,-1.00008,11.047844,71.64077)" stroke-width=".59776" stroke-linecap="butt" stroke-miterlimit="10" stroke-linejoin="miter" fill="none" stroke="#000000" d="M154.32489 60.13274H220.0657"/>
<use data-text="6" xlink:href="#font_2_101" transform="matrix(9.962799,0,0,-9.963397,193.76352,7.664654)"/>
<use data-text="2" xlink:href="#font_2_107" transform="matrix(9.962799,0,0,-9.963397,198.7449,7.664654)"/>
<path transform="matrix(1.00002,0,0,-1.00008,11.047844,71.64077)" stroke-width=".59776" stroke-linecap="butt" stroke-miterlimit="10" stroke-linejoin="miter" fill="none" stroke="#000000" d="M251.6194 8.45457 234.09687 50.75777"/>
<use data-text="2" xlink:href="#font_2_107" transform="matrix(9.962799,0,0,-9.963397,240.13745,51.827188)"/>
<use data-text="3" xlink:href="#font_2_106" transform="matrix(9.962799,0,0,-9.963397,245.11884,51.827188)"/>
<path transform="matrix(1.00002,0,0,-1.00008,11.047844,71.64077)" stroke-width=".59776" stroke-linecap="butt" stroke-miterlimit="10" stroke-linejoin="miter" fill="none" stroke="#000000" d="M239.36534 60.13274H305.10618"/>
<use data-text="4" xlink:href="#font_2_57" transform="matrix(9.962799,0,0,-9.963397,278.80525,7.664654)"/>
<use data-text="5" xlink:href="#font_2_56" transform="matrix(9.962799,0,0,-9.963397,283.78663,7.664654)"/>
</svg>
