<svg xmlns="http://www.w3.org/2000/svg" xmlns:xlink="http://www.w3.org/1999/xlink" xmlns:inkscape="http://www.inkscape.org/namespaces/inkscape" version="1.1" width="173" height="142" viewBox="0 0 173 142">
<defs>
<path id="font_1_3" d="M.3909912 .37405396C.36299134 .37304688 .34298707 .3510437 .34298707 .32904054 .34298707 .31503297 .35198976 .30003358 .37399293 .30003358 .3959961 .30003358 .41999818 .31703187 .41999818 .35603334 .41999818 .40124513 .3769989 .4423828 .30099488 .4423828 .16899109 .4423828 .13198853 .3400421 .13198853 .29605104 .13198853 .21820069 .20599365 .20323181 .23498535 .19725037 .2869873 .18727112 .33898927 .17628479 .33898927 .12133789 .33898927 .095336917 .31599427 .011245728 .19599915 .011245728 .18199158 .011245728 .10499573 .011245728 .08198547 .064331058 .11999512 .059326173 .14498902 .08934021 .14498902 .11734009 .14498902 .14033509 .1289978 .15234375 .10798645 .15234375 .08198547 .15234375 .051986696 .1313324 .051986696 .08633423 .051986696 .029281617 .10899353-.0107421879 .19499207-.0107421879 .35699464-.0107421879 .3959961 .1103363 .3959961 .15533448 .3959961 .19125366 .3769989 .21620178 .36499024 .22817993 .33799745 .25613404 .30899049 .26112367 .2649994 .27009584 .22898865 .27807618 .18899536 .2850647 .18899536 .33003236 .18899536 .3590393 .21299744 .42037965 .30099488 .42037965 .32598878 .42037965 .37599183 .41333009 .3909912 .37405396Z"/>
<path id="font_2_98" d="M.3600006 .12823487C.3600006 .18122864 .32998658 .21122742 .31799317 .22323609 .2849884 .25523377 .24598694 .26322938 .20399475 .27124024 .147995 .28224183 .08099365 .29522706 .08099365 .35324098 .08099365 .38822938 .10699463 .42922975 .19299317 .42922975 .30299378 .42922975 .30799867 .3392334 .30999757 .30822755 .31098939 .2992401 .32199098 .2992401 .32199098 .2992401 .33499146 .2992401 .33499146 .30422975 .33499146 .32322694V.4242401C.33499146 .4412384 .33499146 .4482422 .32398988 .4482422 .31900025 .4482422 .31698609 .4482422 .3039856 .43623353 .30099488 .43223573 .29100038 .42323304 .2869873 .42022706 .24899292 .4482422 .20799256 .4482422 .19299317 .4482422 .070999149 .4482422 .032989503 .38124085 .032989503 .3252411 .032989503 .29023744 .04899597 .26223756 .07598877 .24023438 .10798645 .2142334 .13598633 .2082367 .20799256 .19422913 .22999573 .19021607 .31199647 .17422486 .31199647 .10221863 .31199647 .051223756 .2769928 .011245728 .19898987 .011245728 .114990238 .011245728 .07899475 .068222049 .05999756 .1532135 .056991579 .16621399 .055999757 .17021179 .04598999 .17021179 .032989503 .17021179 .032989503 .16322327 .032989503 .1452179V.013214111C.032989503-.003753662 .032989503-.0107421879 .04399109-.0107421879 .04899597-.0107421879 .049987794-.009750366 .068984989 .009246826 .070999149 .011245728 .070999149 .013214111 .08898926 .032226564 .1329956-.009750366 .17799378-.0107421879 .19898987-.0107421879 .31399537-.0107421879 .3600006 .05621338 .3600006 .1282196V.12823487Z"/>
<path id="font_2_105" d="M.33198548 .12385559V.18066406H.30699159V.12585449C.30699159 .052108766 .2769928 .014251709 .23999024 .014251709 .17298889 .014251709 .17298889 .10491943 .17298889 .12187195V.3996582H.31599427V.43066407H.17298889V.6142578H.147995C.14698792 .5324249 .116989139 .42565919 .018997193 .42166139V.3996582H.10398865V.12408447C.10398865 .0012512207 .19699097-.0107421879 .23298645-.0107421879 .3039856-.0107421879 .33198548 .060180665 .33198548 .12408447V.12385559Z"/>
<path id="font_2_28" d="M.48298646 .08912659V.14511109H.45799256V.08912659C.45799256 .03112793 .43299867 .025131226 .42199708 .025131226 .3889923 .025131226 .3849945 .070129398 .3849945 .07511902V.27508546C.3849945 .31707765 .3849945 .3560791 .34899903 .39312745 .30999757 .43223573 .2599945 .4482422 .21199036 .4482422 .12998963 .4482422 .06098938 .40115357 .06098938 .335083 .06098938 .30508424 .08099365 .28808595 .10699463 .28808595 .1349945 .28808595 .15299988 .30807496 .15299988 .33407594 .15299988 .3460846 .147995 .37908937 .101989749 .38008119 .1289978 .41519166 .17799378 .426239 .20999146 .426239 .25898744 .426239 .31599427 .38710023 .31599427 .29808045V.26107789C.2649994 .25808717 .19499207 .25508119 .13198853 .22509766 .056991579 .19110108 .03199768 .13911438 .03199768 .09512329 .03199768 .014251709 .1289978-.0107421879 .19198609-.0107421879 .2579956-.0107421879 .3039856 .029251099 .32299806 .07624817 .32699586 .036132814 .35398866-.005859375 .40098573-.005859375 .42199708-.005859375 .48298646 .008132935 .48298646 .08912659M.31599427 .14013672C.31599427 .04525757 .24398804 .011245728 .19898987 .011245728 .1499939 .011245728 .10899353 .04624939 .10899353 .09625244 .10899353 .15124512 .15098572 .23425293 .31599427 .24024964V.14013672Z"/>
<path id="font_2_96" d="M.3639984 .38137818C.3639984 .41337586 .33299256 .4423828 .2899933 .4423828 .21699524 .4423828 .18099976 .37538148 .16699219 .3323822V.4423828L.027999878 .43066407V.3996582C.09799194 .3996582 .10598755 .39266969 .10598755 .34370423V.07595825C.10598755 .0309906 .09498596 .0309906 .027999878 .0309906V0L.14199829 .0029907227C.18199158 .0029907227 .22898865 .0029907227 .2689972 0V.0309906H.24798584C.17399597 .0309906 .17199707 .04197693 .17199707 .07795715V.23181153C.17199707 .33137513 .21398926 .42037965 .2899933 .42037965 .29699708 .42037965 .29899598 .42037965 .30099488 .41937257 .2979889 .41838075 .27799989 .40637208 .27799989 .3803711 .27799989 .35237123 .29899598 .33737184 .32099916 .33737184 .33898927 .33737184 .3639984 .3493805 .3639984 .38137818Z"/>
<path id="font_1_1" d="M.37298585 .37835694C.35499574 .41537477 .32598878 .4423828 .2809906 .4423828 .1639862 .4423828 .039993287 .29533387 .039993287 .14929199 .039993287 .055267335 .09498596-.0107421879 .17298889-.0107421879 .19299317-.0107421879 .24299622-.0067443849 .30299378 .06427002 .31098939 .022247315 .34599305-.0107421879 .3939972-.0107421879 .42900086-.0107421879 .45199586 .012252808 .46798707 .044265748 .4850006 .08027649 .49798585 .14129639 .49798585 .14329529 .49798585 .1532898 .4889984 .1532898 .48599244 .1532898 .47599793 .1532898 .47499085 .14929199 .47200013 .13528443 .45498658 .07026672 .43699647 .011245728 .3959961 .011245728 .36898805 .011245728 .3659973 .037261964 .3659973 .057266237 .3659973 .07926941 .36799623 .08728027 .3789978 .13128662 .3899994 .17329407 .3919983 .18330384 .40098573 .22131348L.43699647 .36135865C.44400025 .38935853 .44400025 .39135743 .44400025 .39537049 .44400025 .41236878 .43199159 .42237855 .4149933 .42237855 .3909912 .42237855 .37599183 .4003601 .37298585 .37835694M.30799867 .119277957C.30299378 .10127258 .30299378 .09927368 .28799439 .08227539 .24398804 .027252198 .20298767 .011245728 .1749878 .011245728 .125 .011245728 .11099243 .06626892 .11099243 .105285648 .11099243 .1552887 .14299011 .27833558 .1659851 .32434083 .19699097 .38336183 .24198914 .42037965 .28199769 .42037965 .34700013 .42037965 .36099244 .3383484 .36099244 .33235169 .36099244 .32633973 .35899354 .32034303 .35798646 .31533814L.30799867 .119277957Z"/>
<path id="font_1_2" d="M.23899842 .68333438C.23899842 .6843262 .23899842 .69433596 .22599793 .69433596 .20298767 .69433596 .12998963 .6863251 .10398865 .6843262 .09599304 .68333438 .084991458 .6823273 .084991458 .6643219 .084991458 .6523285 .09399414 .6523285 .10899353 .6523285 .15699768 .6523285 .15899658 .6453247 .15899658 .6353302 .15899658 .6283264 .1499939 .5943451 .14498902 .573349L.06298828 .24731446C.050994874 .1973114 .04699707 .18130493 .04699707 .14628601 .04699707 .05126953 .099990848-.0107421879 .17399597-.0107421879 .2919922-.0107421879 .4149933 .1382904 .4149933 .28233338 .4149933 .37335206 .3619995 .4423828 .28199769 .4423828 .23599243 .4423828 .19499207 .41337586 .16499329 .38235475L.23899842 .68333438M.14498902 .30534364C.15098572 .3273468 .15098572 .3293457 .1599884 .3403473 .20899964 .405365 .2539978 .42037965 .27999879 .42037965 .31599427 .42037965 .34298707 .3903656 .34298707 .32633973 .34298707 .26733399 .30999757 .15229798 .2919922 .11428833 .25898744 .04725647 .21299744 .011245728 .17399597 .011245728 .13999939 .011245728 .10699463 .038253786 .10699463 .11227417 .10699463 .13128662 .10699463 .15029907 .12298584 .21331787L.14498902 .30534364Z"/>
<path id="font_2_82" d="M.4189911 0V.0309906H.3869934C.29699708 .0309906 .2939911 .041992189 .2939911 .07902527V.64012148C.2939911 .6640167 .2939911 .6660156 .2709961 .6660156 .20899964 .60227969 .12098694 .60227969 .08898926 .60227969V.57128909C.10899353 .57128909 .16799927 .57128909 .21998596 .5972748V.07902527C.21998596 .042999269 .21699524 .0309906 .1269989 .0309906H.09498596V0C.12998963 .0029907227 .21699524 .0029907227 .25698854 .0029907227 .29699708 .0029907227 .38398744 .0029907227 .4189911 0Z"/>
<path id="font_2_121" d="M.45999146 .31976319C.45999146 .39982606 .45498658 .47988893 .41999818 .5539398 .37399293 .65000918 .2919922 .6660156 .25 .6660156 .18998719 .6660156 .116989139 .64001467 .07598877 .54693606 .04399109 .47789 .038986207 .39982606 .038986207 .31976319 .038986207 .24472046 .042999269 .15464783 .083999637 .07859802 .1269989-.0024719239 .19999695-.022460938 .24899292-.022460938 .30299378-.022460938 .3789978-.0014648438 .4229889 .09359741 .45498658 .16265869 .45999146 .2407074 .45999146 .31976319M.3769989 .3317871C.3769989 .25672914 .3769989 .18867493 .3659973 .12461853 .35099793 .029556275 .2939911-.00047302247 .24899292-.00047302247 .20999146-.00047302247 .15098572 .024551392 .1329956 .12062073 .12199402 .18066406 .12199402 .2727356 .12199402 .3317871 .12199402 .39582826 .12199402 .46188355 .12998963 .5159149 .14898682 .63500979 .22399903 .64401248 .24899292 .64401248 .28199769 .64401248 .34799195 .6259918 .36698915 .52693179 .3769989 .47088624 .3769989 .39482118 .3769989 .3317871Z"/>
</defs>
<path transform="matrix(1,0,0,-1.00005,50.834,70.948749)" stroke-width=".3985" stroke-linecap="butt" stroke-miterlimit="10" stroke-linejoin="miter" fill="none" stroke="#000000" d="M12.45346 0C12.45346 6.87793 6.87793 12.45346 0 12.45346-6.87793 12.45346-12.45346 6.87793-12.45346 0-12.45346-6.87793-6.87793-12.45346 0-12.45346 6.87793-12.45346 12.45346-6.87793 12.45346 0ZM0 0"/>
<use data-text="s" xlink:href="#font_1_3" transform="matrix(9.9626,0,0,-9.963098,48.499,73.09386)"/>
<path transform="matrix(1,0,0,-1.00005,50.834,70.948749)" stroke-width=".3985" stroke-linecap="butt" stroke-miterlimit="10" stroke-linejoin="miter" fill="none" stroke="#000000" d="M-25.53456 0H-15.04373"/>
<path transform="matrix(1,0,0,-1.00005,35.790269,70.948749)" d="M2.39102 0C1.39476 .19925-.3985 .59775-1.59401 1.49438-.59775 .3985-.59775-.3985-1.59401-1.49438-.3985-.59775 1.39476-.19925 2.39102 0Z"/>
<use data-text="s" xlink:href="#font_2_98" transform="matrix(9.9626,0,0,-9.963098,1.2160034,73.95789)"/>
<use data-text="t" xlink:href="#font_2_105" transform="matrix(9.9626,0,0,-9.963098,5.141266,73.95789)"/>
<use data-text="a" xlink:href="#font_2_28" transform="matrix(9.9626,0,0,-9.963098,9.016724,73.95789)"/>
<use data-text="r" xlink:href="#font_2_96" transform="matrix(9.9626,0,0,-9.963098,13.998016,73.95789)"/>
<use data-text="t" xlink:href="#font_2_105" transform="matrix(9.9626,0,0,-9.963098,17.90335,73.95789)"/>
<path transform="matrix(1,0,0,-1.00005,50.834,70.948749)" stroke-width=".3985" stroke-linecap="butt" stroke-miterlimit="10" stroke-linejoin="miter" fill="none" stroke="#000000" d="M97.49388 56.69362C97.49388 63.57155 91.91837 69.14708 85.04042 69.14708 78.16249 69.14708 72.58696 63.57155 72.58696 56.69362 72.58696 49.81567 78.16249 44.24016 85.04042 44.24016 91.91837 44.24016 97.49388 49.81567 97.49388 56.69362ZM85.04042 56.69362"/>
<use data-text="a" xlink:href="#font_1_1" transform="matrix(9.9626,0,0,-9.963098,133.241,16.397023)"/>
<path transform="matrix(1,0,0,-1.00005,50.834,70.948749)" stroke-width=".3985" stroke-linecap="butt" stroke-miterlimit="10" stroke-linejoin="miter" fill="none" stroke="#000000" d="M97.49388-56.69362C97.49388-49.81567 91.91837-44.24016 85.04042-44.24016 78.16249-44.24016 72.58696-49.81567 72.58696-56.69362 72.58696-63.57155 78.16249-69.14708 85.04042-69.14708 91.91837-69.14708 97.49388-63.57155 97.49388-56.69362ZM85.04042-56.69362"/>
<use data-text="b" xlink:href="#font_1_2" transform="matrix(9.9626,0,0,-9.963098,133.737,131.10475)"/>
<path transform="matrix(1,0,0,-1.00005,50.834,70.948749)" stroke-width=".3985" stroke-linecap="butt" stroke-miterlimit="10" stroke-linejoin="miter" fill="none" stroke="#000000" d="M10.52724 7.0181 72.52382 48.34927"/>
<path transform="matrix(.83202,-.5546977,-.55467,-.8320615,123.3578,22.597062)" d="M2.39102 0C1.39476 .19925-.3985 .59775-1.59401 1.49438-.59775 .3985-.59775-.3985-1.59401-1.49438-.3985-.59775 1.39476-.19925 2.39102 0Z"/>
<use data-text="1" xlink:href="#font_2_82" transform="matrix(9.9626,0,0,-9.963098,90.864,39.080156)"/>
<path transform="matrix(1,0,0,-1.00005,50.834,70.948749)" stroke-width=".3985" stroke-linecap="butt" stroke-miterlimit="10" stroke-linejoin="miter" fill="none" stroke="#000000" d="M10.52724-7.0181 72.52382-48.34927"/>
<path transform="matrix(.83202,.5546977,.55467,-.8320615,123.3578,119.30043)" d="M2.39102 0C1.39476 .19925-.3985 .59775-1.59401 1.49438-.59775 .3985-.59775-.3985-1.59401-1.49438-.3985-.59775 1.39476-.19925 2.39102 0Z"/>
<use data-text="0" xlink:href="#font_2_121" transform="matrix(9.9626,0,0,-9.963098,90.864,95.55797)"/>
<path transform="matrix(1,0,0,-1.00005,50.834,70.948749)" stroke-width=".3985" stroke-linecap="butt" stroke-miterlimit="10" stroke-linejoin="miter" fill="none" stroke="#000000" d="M78.71426-45.7362C60.87851-14.84367 60.87851 14.84367 77.5188 43.66556"/>
<path transform="matrix(.49998,-.8660533,-.86601,-.50000497,128.35279,27.281025)" d="M2.39102 0C1.39476 .19925-.3985 .59775-1.59401 1.49438-.59775 .3985-.59775-.3985-1.59401-1.49438-.3985-.59775 1.39476-.19925 2.39102 0Z"/>
<use data-text="1" xlink:href="#font_2_82" transform="matrix(9.9626,0,0,-9.963098,107.67,74.26691)"/>
<path transform="matrix(1,0,0,-1.00005,50.834,70.948749)" stroke-width=".3985" stroke-linecap="butt" stroke-miterlimit="10" stroke-linejoin="miter" fill="none" stroke="#000000" d="M91.36658 45.7362C109.20235 14.84367 109.20235-14.84367 92.56204-43.66556"/>
<path transform="matrix(-.49998,.8660533,.86601,.50000497,143.39606,114.61647)" d="M2.39102 0C1.39476 .19925-.3985 .59775-1.59401 1.49438-.59775 .3985-.59775-.3985-1.59401-1.49438-.3985-.59775 1.39476-.19925 2.39102 0Z"/>
<use data-text="0" xlink:href="#font_2_121" transform="matrix(9.9626,0,0,-9.963098,159.097,74.156909)"/>
<path transform="matrix(1,0,0,-1.00005,50.834,70.948749)" stroke-width=".3985" stroke-linecap="butt" stroke-miterlimit="10" stroke-linejoin="miter" fill="none" stroke="#000000" d="M97.26201-53.41924C116.99606-48.13148 116.99606-65.25575 100.53389-60.84457"/>
<path transform="matrix(-.96593,-.25880293,-.25879,.9659782,151.36789,131.79636)" d="M2.39102 0C1.39476 .19925-.3985 .59775-1.59401 1.49438-.59775 .3985-.59775-.3985-1.59401-1.49438-.3985-.59775 1.39476-.19925 2.39102 0Z"/>
<use data-text="0" xlink:href="#font_2_121" transform="matrix(9.9626,0,0,-9.963098,166.416,130.85373)"/>
</svg>
